<svg width="180" height="140" viewBox="0 0 180 140" fill="none" xmlns="http://www.w3.org/2000/svg">
<path fill-rule="evenodd" clip-rule="evenodd" d="M80.7987 29.1345C47.2601 30.8446 18.9718 41.8219 8.84916 57.0548C7.07227 59.7289 5.9258 62.3559 5.33281 65.1129C4.89108 67.1657 4.8887 71.2883 5.32791 73.4435C6.70512 80.2016 11.9036 86.8729 20.1028 92.4048C29.0929 98.4704 40.9978 103.165 54.9454 106.145C62.0681 107.666 69.3221 108.669 77.8271 109.308C82.8458 109.684 96.9119 109.685 101.897 109.309C110.717 108.643 118.433 107.564 125.522 106.003C151.231 100.342 169.313 89.0449 173.784 75.8505C174.253 74.4674 174.703 72.505 174.703 71.845C174.703 71.6373 174.77 71.4673 174.851 71.4673C174.944 71.4673 175 70.6501 175 69.3129C175 68.1279 174.942 67.1584 174.871 67.1584C174.799 67.1584 174.697 66.7669 174.643 66.2885C174.421 64.3297 173.366 61.2292 172.209 59.135C167.089 49.8664 155.611 41.9563 139.192 36.3803C127.295 32.3402 113.493 29.8794 98.48 29.1218C95.1444 28.9534 84.1961 28.9615 80.7987 29.1345ZM94.8398 31.4781C98.3786 32.0855 101.385 33.0371 104.535 34.5467C107.852 36.1365 110.501 37.8945 113.21 40.3035L114.453 41.4083L115.937 41.5948C118.669 41.938 120.661 42.6321 121.062 43.3802C121.848 44.8489 119.835 46.3783 115.008 47.9793C104.402 51.4975 83.8497 54.475 68.0949 54.7757C59.7002 54.9359 54.5857 54.338 53.0856 53.021C51.6235 51.7372 53.1287 50.1074 57.179 48.5887C58.4039 48.1295 58.4669 48.0824 59.0363 47.2022C60.063 45.6153 61.6438 43.6586 63.1852 42.067C69.0465 36.0145 76.4167 32.3331 84.8105 31.2652C87.1385 30.9691 92.5424 31.0838 94.8398 31.4781ZM85.4617 32.6502C85.6147 33.4258 85.8734 35.9827 85.8058 36.0503C85.7685 36.0876 85.5473 36.1317 85.3142 36.1485L84.8901 36.179L84.6787 34.2846C84.5191 32.8561 84.4157 32.3901 84.258 32.3901C83.7578 32.3901 82.334 33.236 81.4635 34.0503C80.3456 35.096 78.4914 37.8587 78.7404 38.1076C78.8365 38.2037 82.6642 37.934 85.1076 37.659C88.769 37.247 92.3882 36.6328 92.3882 36.4234C92.3882 36.1936 89.8779 33.8672 89.1026 33.3785C88.1185 32.7582 86.6712 32.2416 85.9177 32.2416C85.4119 32.2416 85.3858 32.265 85.4617 32.6502ZM90.4189 33.1226C91.5187 33.9513 92.191 34.6024 93.1797 35.7961L93.5997 36.3034L95.3341 35.9056C96.288 35.6867 97.3336 35.4344 97.6576 35.3447C98.2211 35.1887 98.234 35.1718 97.9548 34.9568C96.9676 34.1965 93.4415 32.8981 91.2203 32.4771C89.139 32.0824 89.0904 32.1216 90.4189 33.1226ZM96.5728 33.1378C97.1174 33.3807 98.0376 33.8483 98.6176 34.177L99.6724 34.7747L100.488 34.5376C100.936 34.4073 101.303 34.2774 101.303 34.2492C101.303 34.1626 98.6282 33.3131 97.3409 32.991C95.6594 32.5701 95.4078 32.6182 96.5728 33.1378ZM79.9072 33.5032C77.6547 34.3997 75.0982 35.9592 73.5714 37.3682L72.701 38.1715L75.0859 38.1782L77.4706 38.1849L77.813 37.4791C78.2954 36.4845 79.6208 34.5033 80.2628 33.817C80.5609 33.4986 80.7866 33.2244 80.7646 33.2079C80.7424 33.1914 80.3567 33.3243 79.9072 33.5032ZM101.713 35.1876C101.325 35.3242 101.006 35.4884 101.003 35.5523C101.001 35.6162 101.518 36.08 102.154 36.5831C102.789 37.0862 103.923 38.1103 104.674 38.8588L106.039 40.2197L107.794 39.5551C108.76 39.1896 109.583 38.8597 109.624 38.8221C109.954 38.5177 103.591 34.9009 102.772 34.9276C102.577 34.9339 102.1 35.051 101.713 35.1876ZM72.9982 35.9349C72.0992 36.4108 70.9626 37.0616 70.4723 37.3812L69.5808 37.962L70.398 38.0363L71.2152 38.1106L72.1453 37.2599C72.6569 36.792 73.4426 36.132 73.8911 35.7934C74.5993 35.2587 74.815 35.0575 74.6697 35.0671C74.6494 35.0685 73.8971 35.459 72.9982 35.9349ZM96.6971 36.5906C95.4304 36.9152 94.3758 37.1966 94.3533 37.2159C94.3309 37.2353 94.711 37.8847 95.1977 38.6594C96.1384 40.1559 96.7956 41.4103 96.688 41.5037C96.652 41.5349 96.4449 41.603 96.2275 41.6551C95.8626 41.7425 95.7903 41.6734 95.287 40.7577C94.987 40.2121 94.4025 39.237 93.988 38.5908C93.307 37.5293 93.1972 37.4238 92.8485 37.4972C92.6362 37.5419 91.1921 37.7864 89.6394 38.0403C85.8219 38.6648 86.1317 38.5808 86.2147 38.9682C86.2536 39.1503 86.4273 40.5027 86.6007 41.9737C86.7741 43.4447 86.9432 44.6757 86.9766 44.7093C87.2034 44.9369 94.5023 43.5861 98.1086 42.6492C100.365 42.0629 104.733 40.7466 104.868 40.6121C104.995 40.4861 102.027 37.6861 100.828 36.8008C100.135 36.2891 99.5495 35.9649 99.3423 35.9781C99.154 35.9903 97.9637 36.2659 96.6971 36.5906ZM81.9131 38.9533C80.9325 39.0236 79.6667 39.1303 79.1001 39.1902L78.0702 39.2992L77.6616 40.4136C77.4369 41.0265 77.1047 42.0796 76.9233 42.7538L76.5934 43.9796H76.0841C75.5875 43.9796 75.5772 43.9675 75.6774 43.4967C75.7339 43.2312 76.0573 42.1642 76.3964 41.1257L77.0127 39.2376L74.4112 39.1942C71.8196 39.1508 71.8079 39.1521 71.3862 39.5221C70.4691 40.327 67.3944 44.74 67.6043 44.95C67.8027 45.1483 72.0456 45.3589 76.0441 45.3687C80.1365 45.3786 84.7296 45.1494 85.6094 44.8911L85.9306 44.7968L85.5728 41.788L85.2149 38.7792L84.4555 38.8022C84.0378 38.815 82.8938 38.8829 81.9131 38.9533ZM67.4235 39.5322C65.5314 41.0134 62.3504 44.1537 62.5449 44.3482C62.5772 44.3803 63.4372 44.5154 64.456 44.6483C66.6106 44.9296 66.2519 45.1272 67.5749 42.9289C68.0244 42.1822 68.8411 41.0097 69.39 40.3237C70.2607 39.2355 70.346 39.0762 70.0586 39.075C69.8775 39.0744 69.3938 39.0334 68.9836 38.9841C68.2734 38.8988 68.1994 38.9248 67.4235 39.5322ZM108.704 40.2473C107.748 40.6287 106.925 40.983 106.873 41.0344C106.822 41.0856 107.251 41.7624 107.826 42.538C108.736 43.764 110.515 46.5246 110.515 46.7093C110.515 46.7447 110.313 46.8439 110.067 46.93C109.674 47.0668 109.595 47.0465 109.435 46.7688C108.952 45.9294 106.609 42.5015 106.17 41.9926L105.674 41.4171L103.6 42.0939C102.459 42.4663 100.757 42.9832 99.8173 43.2426C98.8775 43.5022 98.0658 43.7402 98.0134 43.7716C97.9611 43.8028 98.1702 44.414 98.4783 45.1297C98.7863 45.8456 99.3534 47.3427 99.7385 48.4567C100.295 50.0664 100.489 50.4713 100.685 50.4286C100.821 50.3991 102.135 50.1347 103.606 49.841C108.486 48.8664 113.057 47.6799 115.92 46.6438L117.2 46.1807L116.718 45.5006C115.632 43.9695 111.063 39.4998 110.623 39.5378C110.523 39.5465 109.659 39.8658 108.704 40.2473ZM94.5426 44.5157C93.3168 44.7896 91.1438 45.1929 89.7137 45.4116C88.2836 45.6303 87.0997 45.8181 87.0827 45.829C87.0295 45.8633 87.8074 52.2226 87.873 52.2902C88.001 52.4219 99.16 50.7783 99.3363 50.6019C99.4903 50.448 97.0617 43.9588 96.8651 43.9984C96.8135 44.009 95.7684 44.2417 94.5426 44.5157ZM61.3832 45.637C60.3569 46.7451 56.6767 53.041 56.9156 53.2799C57.2731 53.6374 68.4588 53.9289 72.3295 53.6817L74.1868 53.5631L74.2932 52.1516C74.3517 51.3753 74.5355 49.7954 74.7018 48.6406C74.8681 47.486 75.004 46.4997 75.004 46.449C75.004 46.3983 74.3186 46.3566 73.481 46.3563C72.2218 46.3558 70.2136 46.2455 67.359 46.0201C66.9379 45.9868 66.8939 46.0453 66.2657 47.4713C65.9056 48.2885 65.3534 49.726 65.0386 50.6658C64.4869 52.3124 64.4496 52.3761 64.0146 52.421C63.6499 52.4586 63.5632 52.4118 63.5632 52.1776C63.5632 51.7993 64.5827 48.8529 65.2606 47.2723C65.5528 46.5909 65.7919 45.9832 65.7919 45.9218C65.7919 45.8605 65.1734 45.7339 64.4175 45.6407C63.6617 45.5474 62.7422 45.43 62.3745 45.38C61.7982 45.3012 61.6613 45.3367 61.3832 45.637ZM84.3647 46.0707C83.7518 46.1391 81.6509 46.2654 79.6958 46.3511C77.7409 46.437 76.1153 46.5334 76.0833 46.5652C75.8774 46.7711 75.0617 53.299 75.2218 53.459C75.3654 53.6025 86.6764 52.5892 86.8096 52.421C86.8298 52.3954 86.6725 50.9369 86.46 49.18C86.0186 45.5321 86.2406 45.8615 84.3647 46.0707ZM152.029 53.1016C154.117 53.9738 154.355 58.2262 152.456 60.7241C151.475 62.0157 149.441 62.6335 148.33 61.978C148.034 61.8035 147.754 61.6609 147.707 61.6609C147.56 61.6609 147.765 65.2783 147.936 65.7081C148.084 66.0799 148.06 66.1345 147.664 66.3396C147.038 66.6632 146.092 66.6295 145.733 66.2706C145.273 65.8105 145.23 65.3578 145.371 62.4898C145.626 57.3197 145.543 55.8149 144.923 54.3609C144.796 54.063 145.485 53.786 146.353 53.786C147.156 53.786 147.616 54.271 147.747 55.2553L147.847 56.0093L148.359 55.1576C149.04 54.0245 149.354 53.7089 150.241 53.2667C151.101 52.8385 151.345 52.8159 152.029 53.1016ZM131.723 53.7588C131.868 53.8505 131.874 54.3995 131.749 56.3195C131.552 59.3735 131.671 61.3563 132.084 61.8811C132.478 62.3814 132.843 62.3525 133.322 61.7835C133.643 61.4015 133.746 61.352 133.861 61.5234C134.097 61.8745 133.895 62.8271 133.465 63.3913C133.015 63.9811 132.072 64.4759 131.391 64.4801C130.694 64.4844 129.999 63.9687 129.638 63.1798C129.351 62.5509 129.317 62.2197 129.314 59.9869C129.311 57.8814 129.28 57.5365 129.113 57.7582C128.611 58.4255 127.688 60.4985 126.922 62.6815L126.433 64.0734L125.543 62.31C125.054 61.3401 124.42 60.1813 124.134 59.735L123.616 58.9233L123.542 59.4378C123.501 59.7207 123.395 60.5244 123.306 61.2239C122.9 64.4166 121.702 66.1175 119.859 66.1181C118.674 66.1185 117.944 65.267 117.944 63.8828C117.944 62.6907 118.534 61.958 119.493 61.958C119.815 61.958 119.834 62.0051 119.766 62.612C119.703 63.1714 119.738 63.2907 120.012 63.4375C121.116 64.0281 121.896 62.4657 122.056 59.3443C122.147 57.5747 122.143 57.5441 121.796 57.3013C121.603 57.1658 121.195 57.0548 120.89 57.0548C120.375 57.0548 120.328 57.0178 120.239 56.5428C120.031 55.4354 120.714 54.628 121.858 54.628C123.221 54.628 124.606 55.9137 125.852 58.3362L126.473 59.5433L127.337 57.793C128.346 55.751 129.644 54.2084 130.648 53.8579C131.345 53.6145 131.477 53.6024 131.723 53.7588ZM108.906 54.3291C109.31 54.6947 109.265 55.6697 108.812 56.3357C108.291 57.1022 107.13 57.6492 106.024 57.6492C104.573 57.6492 103.746 57.1288 103.581 56.1115C103.505 55.642 103.558 55.5131 104.018 55.053C104.491 54.5797 104.648 54.5213 105.422 54.5301C105.481 54.5309 105.537 54.6478 105.545 54.7901C105.584 55.4244 105.626 55.5616 105.845 55.7813C106.138 56.0737 106.835 56.0816 107.382 55.7984C107.795 55.5847 108.286 54.7823 108.286 54.3208C108.286 54.0138 108.562 54.0175 108.906 54.3291ZM142.244 54.7451C142.654 55.1549 142.656 55.1715 142.612 57.9633C142.579 60.0881 142.731 60.762 143.293 60.9777C143.603 61.0966 144.254 60.6863 144.353 60.3101C144.474 59.8467 144.689 60.151 144.689 60.7856C144.689 61.9943 143.74 62.9902 142.471 63.1121C141.814 63.1752 141.703 63.1372 141.199 62.6758C140.811 62.32 140.592 61.9523 140.461 61.4343L140.274 60.6984L139.945 61.3431C139.54 62.1377 138.54 63.2405 137.947 63.5471C137.337 63.8626 136.239 63.8575 135.75 63.5373C134.914 62.9894 134.809 62.4903 134.807 59.0607C134.806 57.3446 134.749 55.8231 134.679 55.6797C134.578 55.4696 134.657 55.3755 135.085 55.1968C135.927 54.845 136.477 54.9114 136.993 55.4272C137.495 55.9301 137.481 55.5894 137.17 59.5477C137.086 60.6062 137.11 60.8184 137.338 61.0707C137.758 61.5341 138.276 61.4374 138.902 60.779C139.711 59.9287 140.004 58.9406 140.007 57.0548C140.008 56.1968 139.959 55.3164 139.898 55.0984C139.801 54.7554 139.841 54.6821 140.195 54.553C140.98 54.2661 141.847 54.3474 142.244 54.7451ZM149.569 55.7042C149.37 55.8604 149.026 56.3587 148.805 56.8116C148.372 57.6948 147.728 60.1436 147.887 60.3019C147.94 60.3547 148.408 60.3979 148.928 60.3979C149.805 60.3979 149.911 60.3609 150.405 59.8819C150.983 59.322 151.375 58.2858 151.375 57.3202C151.375 56.6985 151.026 55.7223 150.738 55.5393C150.427 55.3415 149.943 55.4099 149.569 55.7042ZM110.299 58.6083C110.712 59.0207 110.721 59.0992 110.669 61.6832C110.628 63.7131 110.788 64.5297 111.28 64.7929C111.637 64.9838 112.249 64.6434 112.43 64.1528C112.584 63.7375 112.774 64.0373 112.774 64.6954C112.774 65.5628 112.263 66.2828 111.303 66.769C110.128 67.3641 109.078 66.8342 108.593 65.4017L108.326 64.6134L107.872 65.4173C106.725 67.4494 104.67 68.2737 103.548 67.1516C102.888 66.4913 102.766 65.7621 102.817 62.7752C102.843 61.3043 102.812 59.919 102.75 59.6968C102.652 59.3467 102.696 59.2626 103.077 59.0653C103.903 58.6384 104.964 58.8503 105.318 59.5127C105.448 59.7547 105.474 60.2263 105.406 61.0936C105.111 64.8402 105.11 64.6857 105.437 64.9808C106.181 65.652 107.331 64.6934 107.86 62.9626C108.106 62.1577 108.154 61.6768 108.105 60.511C108.071 59.7133 107.994 58.9507 107.933 58.8164C107.793 58.5108 108.373 58.2722 109.296 58.2552C109.786 58.2462 110.019 58.3286 110.299 58.6083ZM99.7806 59.9091C100.133 60.236 100.144 60.3019 100.059 61.5866C100.011 62.3221 99.9289 63.392 99.877 63.9644C99.7497 65.368 100.037 66.1184 100.703 66.1184C101.056 66.1184 101.224 66.0115 101.447 65.6447L101.735 65.171L101.882 65.5578C102.326 66.7265 100.87 68.3438 99.3715 68.3458C98.8775 68.3463 98.1558 67.7294 97.855 67.0494C97.5749 66.4163 97.5565 66.1819 97.6486 64.4371L97.7498 62.5203L97.1896 62.9821C96.8815 63.236 96.5482 63.4439 96.4491 63.4439C96.1402 63.4439 96.0955 63.6932 96.3255 64.1342C96.643 64.7428 96.6052 65.9072 96.2439 66.6537C95.8614 67.4437 94.8025 68.4303 93.916 68.8224C92.9143 69.2655 91.6588 69.1512 91.038 68.5605C90.7859 68.3205 90.5138 68.0028 90.4333 67.8542C90.1382 67.31 90.0513 66.0282 90.189 64.249C90.3007 62.803 90.2866 62.2558 90.1207 61.604L89.9113 60.782L90.4841 60.5529C90.7992 60.4268 91.1861 60.3236 91.3441 60.3236C92.151 60.3236 92.832 61.0495 92.8357 61.9135C92.8366 62.1423 92.7268 63.0705 92.5916 63.9762C92.307 65.8829 92.3859 66.607 92.9161 66.9543C93.6379 67.4274 94.6169 66.6215 94.6169 65.5545C94.6169 65.0355 94.2524 64.6732 93.6504 64.5938C93.2968 64.5471 93.1957 64.453 93.1583 64.1366C93.0895 63.5559 93.7718 62.9277 94.6178 62.7923C95.9711 62.576 97.2153 61.502 97.395 60.3953C97.4648 59.965 97.5847 59.7997 97.945 59.6373C98.5445 59.3671 99.3206 59.4821 99.7806 59.9091ZM86.7627 61.3502C87.1031 61.6254 87.1157 61.7151 87.1878 64.3924C87.2569 66.957 87.2844 67.1733 87.5789 67.4675C87.9788 67.8667 88.4437 67.7452 88.8082 67.1457C89.1332 66.6114 89.2679 66.7249 89.2679 67.5327C89.2679 69.2325 87.0599 70.4562 85.8418 69.4313C85.1784 68.8731 84.959 68.2472 84.959 66.9125V65.7656L84.5504 66.157C84.0249 66.6604 83.1823 67.0098 82.4941 67.0098H81.951L82.0333 68.3099C82.0785 69.0251 82.1369 69.7423 82.1629 69.9039C82.2283 70.3094 81.1481 70.7029 80.5444 70.4935C79.7759 70.227 79.6111 69.6023 79.6055 66.9356C79.6006 64.656 79.4606 62.921 79.237 62.3659C79.1553 62.1631 79.2504 62.0555 79.6634 61.883C80.3338 61.6028 80.8472 61.6014 81.3824 61.8783C81.9274 62.16 82.0097 62.3906 82.0626 63.7823C82.0866 64.4178 82.1881 65.0364 82.288 65.1567C82.7865 65.7573 84.1704 65.0029 84.5215 63.9391C84.688 63.4344 84.6488 62.399 84.4371 61.7147C84.3579 61.459 84.4209 61.3671 84.7604 61.2435C85.4626 60.9878 86.3746 61.0364 86.7627 61.3502ZM76.2644 62.4029C76.7768 62.5975 77.1255 63.4303 76.9995 64.1575C76.947 64.4596 76.7775 65.2041 76.6227 65.812C76.2435 67.3012 76.2493 68.4037 76.6384 68.7928C77.0455 69.2 77.1961 69.1705 77.7581 68.5744C78.144 68.1654 78.2627 68.1065 78.333 68.2894C78.6535 69.1248 78.0193 70.3843 77.0393 70.8587C75.2878 71.7067 74.0568 70.672 74.0469 68.3437L74.0421 67.2259L73.3237 67.7094C72.3304 68.3778 71.5409 68.5752 70.8746 68.3215C69.9917 67.9856 69.7983 67.5657 69.6482 65.6597C69.5748 64.727 69.4733 63.7887 69.4227 63.5746C69.3424 63.2354 69.3927 63.1636 69.8121 63.0174C70.9288 62.6282 71.9116 63.0012 72.1064 63.8884C72.1597 64.1309 72.126 64.7019 72.0315 65.1572C71.8847 65.864 71.8945 66.0381 72.098 66.3488C72.3842 66.7856 72.6943 66.8063 73.3121 66.4295C74.1923 65.8928 74.6794 64.1725 74.262 63.0746C74.1274 62.7209 74.1574 62.6671 74.5963 62.4765C75.1715 62.2264 75.735 62.2016 76.2644 62.4029ZM66.6592 63.7287C68.0358 64.431 68.8273 65.8459 68.8273 67.6042C68.8273 68.4937 68.7497 68.8833 68.4425 69.5358C67.6611 71.1953 66.3473 72.2235 64.6197 72.5278C60.712 73.2161 58.525 68.2264 61.3326 65.0286C62.6718 63.5034 65.0704 62.9182 66.6592 63.7287ZM56.829 64.8688C57.5927 65.4343 57.6942 65.8332 57.6942 68.2728C57.6942 70.5552 57.7931 71.0338 58.3053 71.2303C58.6185 71.3505 59.2311 70.9572 59.396 70.5301C59.5106 70.2332 59.5312 70.228 59.6294 70.4712C59.6886 70.6182 59.703 71.041 59.6612 71.4112C59.4812 73.0086 57.4291 73.9693 56.2739 72.9973C55.4977 72.3443 55.3911 71.8943 55.3911 69.2731C55.3911 66.7954 55.333 66.5641 54.7105 66.5641C54.4066 66.5641 54.3799 66.6547 54.2829 68.0128C53.978 72.2768 52.8859 74.2904 50.8781 74.2904C49.6597 74.2904 48.9024 73.2995 49.0385 71.8831C49.0987 71.2578 49.2001 71.0352 49.5796 70.696C49.8388 70.4645 50.2196 70.2787 50.4346 70.2787C50.7883 70.2787 50.8142 70.3186 50.7307 70.7366C50.5219 71.7801 51.4645 72.1617 52.1725 71.3202C52.5869 70.8278 52.7985 69.9441 52.9468 68.0871C53.0551 66.7314 53.0403 66.7121 52.1286 67.0299C51.5607 67.2278 51.3854 67.0639 51.3816 66.3322C51.376 65.2032 52.9175 64.4743 55.1946 64.529C56.1638 64.5523 56.4945 64.6211 56.829 64.8688ZM37.7797 65.3383C37.7187 65.4812 37.6367 67.1361 37.5973 69.0157C37.5369 71.8985 37.5621 72.5203 37.7587 72.9903C37.9541 73.4573 38.0634 73.5475 38.4343 73.5475C38.7563 73.5475 38.979 73.417 39.2514 73.0692C39.5756 72.6548 39.6392 72.626 39.7264 72.8533C40.0515 73.7004 39.3523 75.0813 38.3599 75.5522C37.1048 76.1478 36.1351 75.8043 35.5008 74.5393C35.1714 73.8824 35.1493 73.6762 35.1518 71.2844L35.1545 68.7309L34.7978 69.3191C34.363 70.0359 33.1216 72.9552 32.6681 74.3275C32.4858 74.8791 32.3123 75.3305 32.2827 75.3305C32.253 75.3305 31.7567 74.4112 31.1798 73.2875C30.6028 72.1639 29.9722 71.0462 29.7783 70.8039L29.4258 70.3635L29.3188 71.4725C28.9926 74.8535 28.1138 76.7815 26.6427 77.3435C25.1387 77.9177 23.7431 76.913 23.7431 75.2562C23.7431 74.1434 24.4683 73.2503 25.3718 73.2503C25.646 73.2503 25.6681 73.3127 25.5833 73.8439C25.4231 74.845 26.1005 75.2195 26.9143 74.5794C27.4896 74.1268 27.7667 73.0144 27.8616 70.776L27.9444 68.8217L27.4856 68.5844C27.2331 68.4539 26.8227 68.3471 26.5736 68.3471C26.1838 68.3471 26.1171 68.2899 26.0972 67.9385C26.0514 67.1277 26.1442 66.7806 26.5039 66.4155C26.8111 66.1039 27.0092 66.0441 27.7337 66.0441C28.4509 66.0441 28.7069 66.1197 29.2427 66.4898C30.0584 67.0531 31.0459 68.3778 31.7903 69.9072C32.2759 70.9049 32.3833 71.041 32.4583 70.7546C32.7666 69.5782 34.2057 67.1336 35.1728 66.1435C35.9041 65.3948 36.5164 65.0922 37.3171 65.0841C37.807 65.0792 37.8742 65.116 37.7797 65.3383ZM63.858 65.5044C62.7461 66.1005 62.1818 68.2912 62.8073 69.5834C63.3981 70.8036 64.5747 71.0248 65.4907 70.0879C66.7387 68.8116 66.6149 66.097 65.28 65.4635C64.6438 65.1616 64.489 65.1661 63.858 65.5044ZM46.5505 66.1035C48.5369 67.0252 49.3776 69.7901 48.35 72.0221C47.0937 74.751 43.7553 75.8609 41.5912 74.2694C40.8936 73.7564 40.155 72.3737 40.0062 71.3019C39.7236 69.2673 41.2806 66.795 43.3149 66.0481C44.1503 65.7414 45.8322 65.7702 46.5505 66.1035ZM43.5947 68.064C42.902 68.6089 42.5477 69.4837 42.5471 70.6501C42.5465 71.8585 42.8349 72.5327 43.4996 72.8763C44.0827 73.1778 44.5223 73.1595 45.0959 72.8098C46.026 72.2426 46.5955 70.2776 46.1878 69.0423C45.8038 67.8789 44.4699 67.3757 43.5947 68.064ZM142.163 70.6501C142.163 70.8544 142.086 71.0216 141.992 71.0216C141.898 71.0216 136.215 71.6902 129.363 72.5074C122.511 73.3246 116.838 73.9932 116.756 73.9932C116.586 73.9932 116.549 73.2537 116.719 73.2439C116.78 73.2404 122.279 72.5783 128.939 71.7727C135.6 70.9669 141.3 70.3012 141.606 70.2932C142.105 70.2801 142.163 70.3173 142.163 70.6501ZM110.478 73.1898C110.662 73.3956 110.818 73.7442 110.825 73.9644C110.832 74.1846 110.886 74.756 110.946 75.2343C111.031 75.9206 111.01 76.1209 110.844 76.1845C110.728 76.2289 110.581 76.1798 110.516 76.0753C110.424 75.9251 110.327 75.9361 110.053 76.1279C109.613 76.4358 108.823 76.4405 108.52 76.1373C107.683 75.2999 108.578 73.9562 109.809 74.2015C110.292 74.2977 110.372 73.9635 109.972 73.5221C109.687 73.2065 109.348 73.1791 108.803 73.4276C108.487 73.5715 108.389 73.5653 108.284 73.3947C108.123 73.1338 108.136 73.1207 108.833 72.8685C109.544 72.6107 110.049 72.7092 110.478 73.1898ZM106.773 73.7742C106.502 74.144 106.214 74.5483 106.132 74.6727C106.015 74.8505 106.172 75.0666 106.865 75.6844C107.696 76.4237 107.727 76.4754 107.397 76.5616C107.121 76.634 106.866 76.4958 106.181 75.9028C105.705 75.4902 105.315 75.0886 105.315 75.0104C105.315 74.9323 105.585 74.4709 105.915 73.9851C106.381 73.298 106.598 73.1017 106.89 73.1017H107.265L106.773 73.7742ZM104.875 73.5846C104.878 73.6868 104.964 74.4515 105.067 75.284C105.244 76.7191 105.239 76.8014 104.978 76.8698C104.826 76.9093 104.678 76.8634 104.647 76.7676C104.592 76.5925 104.275 73.8592 104.275 73.5594C104.275 73.3332 104.868 73.3582 104.875 73.5846ZM102.645 73.9215C103.162 74.1885 103.532 74.8388 103.532 75.479C103.532 76.56 102.746 77.262 101.536 77.262C100.257 77.262 99.4574 75.9636 99.972 74.7214C100.349 73.8112 101.668 73.4164 102.645 73.9215ZM98.8279 75.1447C98.8791 75.6963 98.9647 76.4652 99.0179 76.8534C99.1059 77.4947 99.0873 77.5592 98.8142 77.5592C98.4992 77.5592 98.4912 77.5305 98.2398 75.5043C98.1511 74.7907 98.1104 74.7207 97.8279 74.7965C97.6554 74.8428 97.3586 74.8816 97.1682 74.8826C96.8601 74.8844 96.833 74.9343 96.9213 75.3364C97.0856 76.0845 96.852 77.2692 96.4636 77.6576C96.0382 78.083 95.8638 78.0954 95.7625 77.7078C95.7198 77.5443 95.743 77.4106 95.8142 77.4106C96.1151 77.4106 96.317 76.671 96.3211 75.5533L96.3256 74.3647L96.9942 74.2755C97.362 74.2265 97.904 74.1764 98.1986 74.1641L98.7346 74.1418L98.8279 75.1447ZM100.759 74.6727C100.027 75.4042 100.61 76.7271 101.664 76.7271C102.62 76.7271 103.177 75.7795 102.73 74.9135C102.342 74.1636 101.385 74.0467 100.759 74.6727ZM93.9789 74.8066C94.5851 74.9804 95.0627 75.7255 95.0627 76.4974C95.0627 77.2882 94.7997 77.7543 94.1695 78.0801C93.213 78.5748 92.0084 78.2372 91.591 77.3576C91.0193 76.1526 91.5013 75.1265 92.8253 74.7299C93.2031 74.6168 93.3517 74.6266 93.9789 74.8066ZM109.401 74.7039C108.614 74.8557 108.662 75.7762 109.457 75.7762C109.926 75.7762 110.445 75.3024 110.323 74.9852C110.231 74.7445 109.827 74.6214 109.401 74.7039ZM90.4432 76.5934C90.6676 78.4555 90.6587 78.5993 90.3183 78.5993C90.0672 78.5993 90.0183 78.4504 89.9276 77.4106C89.8706 76.7569 89.7823 76.2223 89.7317 76.2224C89.6808 76.2227 89.4412 76.5906 89.1988 77.0398L88.7583 77.8565L88.0793 77.1877C87.7059 76.82 87.3647 76.5191 87.3211 76.5191C87.2774 76.5191 87.3023 76.9901 87.3766 77.5657C87.5215 78.6884 87.465 79.045 87.142 79.045C86.996 79.045 86.8894 78.6477 86.7658 77.6421C86.5304 75.7266 86.54 75.479 86.8489 75.479C86.9893 75.479 87.4517 75.8223 87.8765 76.2417L88.6488 77.0044L89.1216 76.1667C89.5883 75.3395 89.9918 74.9549 90.1835 75.154C90.2377 75.2103 90.3545 75.8579 90.4432 76.5934ZM92.7164 75.3373C92.2457 75.5263 91.942 76.296 92.1081 76.8787C92.2778 77.4742 92.6128 77.7078 93.2973 77.7078C94.4044 77.7078 94.8527 76.4349 94.034 75.6162C93.5835 75.1657 93.2957 75.1048 92.7164 75.3373ZM83.3902 76.2591C83.6891 76.5228 83.8003 76.8132 83.9154 77.6335C84.1309 79.1661 84.116 79.3422 83.7704 79.3422C83.6069 79.3422 83.4732 79.2704 83.4732 79.1828C83.4732 79.0952 83.297 79.1621 83.0817 79.3313C82.2654 79.9735 81.2445 79.5315 81.2445 78.5358C81.2445 77.8442 81.7962 77.4106 82.6761 77.4106C83.3906 77.4106 83.4388 77.3426 83.0835 76.8352C82.8398 76.4873 82.8175 76.4852 81.632 76.6928C81.136 76.7796 81.1975 76.3762 81.7145 76.1518C82.4266 75.8425 82.956 75.8764 83.3902 76.2591ZM80.063 76.5563C80.0668 76.6585 80.1555 77.4274 80.2601 78.265L80.4502 79.7879H80.1178C79.8083 79.7879 79.7781 79.7019 79.6818 78.5452C79.6249 77.8617 79.5325 77.2285 79.4766 77.138C79.4145 77.0375 79.1603 77.0083 78.8239 77.0629L78.2728 77.1524V78.0766C78.2728 79.1547 78.0555 79.8833 77.6727 80.0882C77.0342 80.43 76.8702 80.0327 77.3813 79.3828C77.6243 79.0739 77.6785 78.78 77.6785 77.7706V76.5362L78.31 76.4793C79.6925 76.3548 80.0558 76.3707 80.063 76.5563ZM75.9012 77.002C75.9041 77.1042 75.9916 77.877 76.0955 78.7195C76.1994 79.5621 76.227 80.2867 76.157 80.33C75.8003 80.5505 75.6263 80.2 75.5251 79.0568C75.4667 78.3974 75.3669 77.8901 75.3031 77.9295C75.2395 77.9688 74.8306 78.6036 74.3945 79.3403C73.5809 80.7146 73.1528 81.0244 73.0057 80.3451C72.9387 80.0352 72.628 77.4754 72.6271 77.2249C72.6268 77.1635 72.7545 77.1135 72.9108 77.1135C73.205 77.1135 73.212 77.1377 73.4494 78.962L73.5449 79.6963L74.0145 78.9309C74.2727 78.51 74.6661 77.862 74.8889 77.491C75.156 77.046 75.3963 76.8163 75.5946 76.8163C75.7602 76.8163 75.898 76.8999 75.9012 77.002ZM71.5545 77.5362C71.6594 77.6027 71.7047 77.7629 71.6553 77.8919C71.5848 78.0752 71.4689 78.099 71.126 78.0006C70.592 77.8476 69.8561 78.0752 69.6519 78.4565C69.4031 78.9217 69.4814 79.7628 69.8036 80.0851C70.1617 80.4432 71.0783 80.4839 71.5376 80.1621C71.7979 79.9798 71.8801 79.9759 72.0159 80.1396C72.2931 80.4735 71.6891 80.8704 70.8043 80.9357C69.7757 81.0117 69.149 80.6369 68.8967 79.7951C68.6433 78.9493 68.9117 78.0914 69.5516 77.7012C70.0397 77.4036 71.1955 77.3084 71.5545 77.5362ZM82.0648 78.0972C81.7818 78.3804 81.8171 78.7299 82.1501 78.9395C82.7253 79.3016 83.7223 78.5584 83.3168 78.0697C83.079 77.7833 82.3632 77.799 82.0648 78.0972ZM63.0052 80.0108C63.0443 80.2151 63.0688 80.3855 63.0596 80.3897C63.0506 80.3937 57.3264 81.0834 50.3393 81.9225C37.9626 83.4086 37.6326 83.4402 37.521 83.1565C37.4578 82.9961 37.4461 82.8245 37.4947 82.7752C37.5621 82.7067 61.5236 79.7413 62.6914 79.6569C62.8394 79.6462 62.9619 79.7844 63.0052 80.0108ZM118.118 84.1071C121.933 84.373 124.572 84.9519 125.579 85.7437C126.077 86.1355 126.216 86.8914 125.901 87.4991C125.471 88.3307 123.7 89.377 121.121 90.3227C120.26 90.6386 120.167 90.7229 119.351 91.9231C117.498 94.6521 115.469 96.9245 112.988 99.0511C107.773 103.521 101.946 106.194 94.8398 107.375C92.2824 107.801 86.3003 107.759 83.7209 107.299C76.6447 106.034 70.1552 102.89 65.3289 98.3862C64.2407 97.3706 64.2233 97.3615 63.1917 97.2559C61.7212 97.1052 59.6715 96.6448 58.846 96.2795C57.7792 95.8076 57.4713 95.4527 57.4713 94.6945C57.4713 94.138 57.5524 93.9728 58.0744 93.4663C60.5195 91.0934 71.7288 88.112 85.702 86.1183C92.9473 85.0845 100.157 84.4075 107.766 84.0468C110.192 83.9316 116.097 83.9661 118.118 84.1071ZM105.889 85.0989L104.457 85.1473L104.358 86.2936C104.235 87.7154 103.859 90.7238 103.695 91.6029C103.627 91.964 103.607 92.295 103.651 92.3384C103.694 92.3819 104.374 92.4174 105.161 92.4174C106.53 92.4174 109.993 92.632 111.127 92.7868L111.664 92.8604L112.187 91.7102C112.697 90.5866 113.532 88.4056 113.963 87.0685C114.181 86.392 114.523 86.1761 114.943 86.4493C115.184 86.6067 114.538 88.7045 113.472 91.2196C113.075 92.1548 112.766 92.929 112.785 92.9402C112.803 92.9513 113.749 93.0825 114.887 93.2317L116.956 93.5028L117.311 93.0717C118.571 91.5408 121.659 86.2728 121.659 85.6531C121.659 85.4265 121.16 85.3353 118.836 85.1368C117.28 85.0039 109.385 84.9808 105.889 85.0989ZM101.452 85.384C101.166 85.4121 99.7281 85.539 98.2572 85.6659C95.0512 85.9425 91.9274 86.2909 91.8365 86.382C91.7687 86.4498 92.5048 92.7321 92.5905 92.8179C92.6168 92.8442 93.2673 92.7997 94.0362 92.7194C94.805 92.6388 96.437 92.5351 97.6628 92.4888C98.8886 92.4426 100.492 92.3824 101.226 92.3552L102.561 92.3057L102.663 91.8044C102.844 90.9252 103.383 86.4782 103.383 85.8706V85.2855L102.678 85.3093C102.289 85.3223 101.738 85.3561 101.452 85.384ZM87.4346 86.8591C84.4918 87.2758 79.2789 88.093 79.2263 88.146C79.1596 88.2132 80.2918 91.4239 80.9681 93.0861C81.4036 94.1563 81.7072 94.7133 81.8474 94.6997C81.9653 94.6882 83.1983 94.4423 84.5876 94.1533C85.9768 93.8643 88.083 93.4822 89.2679 93.3042C90.4529 93.1263 91.4491 92.9553 91.482 92.9244C91.5413 92.8681 90.953 87.4414 90.819 86.8085C90.7315 86.3958 90.704 86.3963 87.4346 86.8591ZM74.6326 89.0032C70.6621 89.8213 66.6901 90.8333 64.0832 91.691C62.8574 92.0944 61.7586 92.4845 61.6414 92.558C61.4019 92.7082 61.7567 93.1982 63.6299 95.304C64.7355 96.5469 67.6941 99.2527 67.9464 99.2516C68.3117 99.2503 71.8053 97.755 71.7706 97.6149C71.749 97.5287 71.4086 97.0428 71.014 96.5351C70.1165 95.3805 69.2476 94.0863 68.6136 92.9601C68.2145 92.2513 68.1628 92.0669 68.3325 91.9594C68.8546 91.6289 69.1311 91.8283 69.851 93.0549C70.6124 94.352 72.6824 97.215 72.9152 97.2929C72.9916 97.3184 74.1782 96.976 75.5521 96.5318C76.9259 96.0879 78.6398 95.5708 79.3608 95.3829C80.3985 95.1124 80.6567 94.9924 80.6001 94.8067C80.5609 94.6775 80.2646 93.9367 79.9419 93.1604C79.619 92.384 79.0985 90.9967 78.785 90.0773C78.2559 88.5255 78.1878 88.4063 77.8354 88.4136C77.6265 88.4179 76.1852 88.6833 74.6326 89.0032ZM97.9532 93.4612C95.2661 93.6076 92.858 93.8296 92.7462 93.9413C92.6822 94.0055 93.1452 98.3205 93.3562 99.6258L93.4285 100.074L95.3228 99.8947C96.3647 99.7962 97.6591 99.7117 98.1992 99.7068C98.7395 99.702 99.4858 99.6562 99.8577 99.6053L100.534 99.5126L100.933 98.4183C101.152 97.8163 101.482 96.7717 101.666 96.0965L102 94.8691L102.536 94.8233L103.072 94.7777L102.774 95.8634C102.61 96.4607 102.282 97.515 102.045 98.2067C101.808 98.8982 101.628 99.4772 101.644 99.4934C101.661 99.5094 102.871 99.5427 104.334 99.5671L106.994 99.6117L107.509 99.0233C108.716 97.6472 111.238 93.9801 111.083 93.8281C111.057 93.8025 110.199 93.7112 109.178 93.625C106.462 93.396 100.696 93.3119 97.9532 93.4612ZM111.819 94.615C111.167 95.7903 109.725 97.9236 108.986 98.8065L108.301 99.6237L108.851 99.7265C110.224 99.9834 110.415 99.9207 111.81 98.7563C113.086 97.6906 116.161 94.6722 116.161 94.4854C116.161 94.403 115.652 94.3232 112.818 93.9614C112.235 93.8869 112.216 93.8994 111.819 94.615ZM88.7479 94.4165C85.7963 94.8958 83.7812 95.3145 80.7922 96.0695C78.1256 96.743 73.9836 98.0015 73.7717 98.2025C73.4969 98.4633 78.5608 102.818 79.1386 102.818C79.2631 102.818 80.4769 102.537 81.8361 102.194L84.3074 101.57L83.5058 100.3C83.0649 99.6011 82.5077 98.6435 82.2678 98.1718C81.9042 97.4575 81.8691 97.3024 82.058 97.2431C82.1826 97.204 82.3847 97.1407 82.5071 97.1025C82.6315 97.0638 82.8174 97.1783 82.9285 97.3626C83.038 97.5438 83.5089 98.3435 83.9751 99.1396C84.4414 99.9359 84.9705 100.755 85.1509 100.96L85.4791 101.334L87.4107 100.976C88.473 100.78 89.9774 100.536 90.7538 100.436C91.5301 100.335 92.2203 100.203 92.2873 100.143C92.3913 100.05 91.9236 95.3747 91.7114 94.3862C91.6222 93.9706 91.4854 93.9721 88.7479 94.4165ZM70.818 99.2356C69.864 99.6125 69.0454 99.9595 68.9988 100.007C68.8576 100.149 71.8398 102.025 73.7638 103.004L75.5695 103.922L76.364 103.721C77.992 103.309 77.9725 103.35 76.9115 102.561C76.3936 102.175 75.2009 101.115 74.2611 100.205L72.5524 98.5505L70.818 99.2356ZM97.5143 100.751C94.1264 100.976 87.6537 101.825 86.4594 102.201C86.1131 102.31 86.1305 102.343 87.0468 103.323C88.7219 105.113 90.741 106.328 92.3134 106.49C93.2739 106.589 93.2291 106.751 92.9193 104.304C92.8107 103.446 92.7304 102.735 92.7408 102.724C92.7512 102.713 92.969 102.66 93.2248 102.605L93.6901 102.505L93.8654 104.036C94.0997 106.083 94.1642 106.384 94.3686 106.384C94.4643 106.384 94.9731 106.18 95.4993 105.931C96.7009 105.363 98.1321 103.915 99.1054 102.283C100.044 100.709 100.084 100.584 99.6475 100.611C99.4549 100.623 98.4949 100.686 97.5143 100.751ZM100.552 101.741C99.7605 103.19 99.1735 104.051 98.4108 104.885L97.8114 105.54L98.2572 105.432C98.9805 105.256 101.341 104.093 102.516 103.333C103.588 102.64 105.664 101.015 105.838 100.733C105.894 100.643 105.045 100.589 103.554 100.589H101.181L100.552 101.741ZM106.132 101.802C105.478 102.381 104.691 103.023 104.383 103.229C102.846 104.259 104.957 103.318 107.274 101.941C109.253 100.765 109.267 100.747 108.212 100.748L107.321 100.749L106.132 101.802ZM82.515 103.054C81.3752 103.338 80.4154 103.598 80.3823 103.631C80.2722 103.741 82.9333 105.005 84.2625 105.475C85.6522 105.965 88.1802 106.533 88.9739 106.533C89.441 106.533 89.4329 106.521 88.558 105.937C88.0672 105.609 87.0591 104.707 86.3177 103.931C85.5764 103.156 84.8839 102.525 84.7787 102.529C84.6736 102.534 83.6549 102.77 82.515 103.054ZM78.0676 104.25C77.6681 104.373 77.4011 104.529 77.4733 104.597C77.7421 104.852 83.0275 106.331 83.0275 106.151C83.0275 106.124 82.4496 105.831 81.7433 105.5C81.0371 105.169 80.1334 104.697 79.7352 104.452C78.9097 103.944 79.0204 103.958 78.0676 104.25Z" fill="#3D5F8A"/>
</svg>
