<svg width="180" height="140" viewBox="0 0 180 140" fill="none" xmlns="http://www.w3.org/2000/svg">
<path fill-rule="evenodd" clip-rule="evenodd" d="M39.4908 38.4983C38.8518 38.4149 38.512 38.303 38.5366 38.1844C38.5651 38.0472 37.9859 38 36.2753 38C34.6142 38 33.9863 38.0493 34.014 38.1774C34.0365 38.2815 33.6724 38.4309 33.1325 38.539C32.6266 38.6403 31.8858 38.8739 31.4862 39.0579C30.2213 39.6406 28.2478 41.6962 27.9162 42.7765C27.8554 42.9742 27.7355 43.2236 27.6498 43.3308C27.4039 43.638 26.9375 46.3994 26.9321 47.5818C26.9239 49.2908 27.4226 51.7274 27.9974 52.7865C28.6686 54.0236 29.1475 54.6015 30.143 55.3756C31.4249 56.3724 32.027 56.6685 33.0049 56.7841C33.4967 56.842 34.0519 56.9856 34.2386 57.1033C34.7085 57.399 38.1163 57.4018 38.6976 57.1069C38.9252 56.9913 39.4299 56.8506 39.819 56.794C40.2082 56.7374 40.6566 56.5927 40.8156 56.4724C40.9746 56.352 41.1938 56.2512 41.3028 56.2487C41.6184 56.2409 43.0795 55.1001 43.6956 54.3801C44.4014 53.5556 44.617 53.1315 45.187 51.4449C45.6172 50.1717 45.6432 49.9554 45.648 47.6122C45.6518 45.674 45.5972 44.9774 45.3997 44.439C45.2603 44.0596 45.0917 43.5422 45.025 43.2892C44.8062 42.4599 44.1934 41.4698 43.4089 40.6781C42.5711 39.8328 41.5186 39.0732 41.185 39.0732C41.0697 39.0732 40.8646 38.9729 40.7294 38.8505C40.594 38.7281 40.0367 38.5695 39.4908 38.4983ZM56.859 38.5351C55.6404 38.339 55.5162 38.2952 55.7535 38.1452C55.8936 38.0564 55.1134 38.0039 53.6375 38.0022C51.907 38.0006 51.3095 38.0475 51.3379 38.1828C51.3609 38.2928 51.0853 38.4099 50.6452 38.4771C49.5762 38.6402 48.6043 39.1676 47.715 40.0673C46.8308 40.9618 46.1449 42.129 46.2864 42.4982C46.3663 42.7062 46.5654 42.7297 47.5821 42.6514C48.5288 42.5783 48.8859 42.6117 49.2673 42.809C49.5335 42.9465 50.0667 43.0592 50.4521 43.0592C51.0471 43.0592 51.1786 43.0025 51.3241 42.6833C51.5685 42.147 52.3449 41.8327 53.4254 41.8327C54.2526 41.8327 54.4167 41.8868 54.9135 42.3232C55.4397 42.7849 55.4679 42.8565 55.4009 43.5546C55.2775 44.8392 54.2646 45.6078 52.8831 45.4654C52.3827 45.4138 52.0313 45.4443 51.9691 45.5451C51.892 45.6699 51.8558 47.4754 51.9076 48.6166C51.9105 48.68 52.4857 48.7316 53.1859 48.7316C54.3282 48.7316 54.5313 48.7774 55.1619 49.1775C55.7406 49.5443 55.9117 49.7645 56.1303 50.4228C56.4722 51.452 56.2695 52.2269 55.4656 52.9654C54.9295 53.4578 54.8464 53.4829 53.7389 53.4834C52.7039 53.484 52.515 53.4376 52.0282 53.0626C51.7272 52.8308 51.3884 52.4341 51.2754 52.1811C51.0753 51.7337 51.0445 51.7226 50.1498 51.7747C49.6438 51.8042 49.1442 51.8986 49.0395 51.984C48.9349 52.0698 48.2277 52.1299 47.4681 52.1177C46.1426 52.0966 46.0871 52.1092 46.0871 52.4315C46.0871 52.8307 46.695 53.923 47.4129 54.8143C48.1995 55.7907 49.6423 56.6664 50.673 56.7931C51.1441 56.851 51.6657 56.9925 51.832 57.1076C52.2585 57.4027 55.4722 57.3993 55.9425 57.1033C56.1293 56.9856 56.6777 56.8429 57.1612 56.7859C57.6447 56.7288 58.0806 56.617 58.13 56.5373C58.1792 56.4576 58.4557 56.2938 58.7447 56.1729C59.4775 55.8668 60.7017 54.5973 61.1863 53.6409C61.5458 52.9314 61.5953 52.6473 61.6114 51.2063C61.6283 49.6962 61.5999 49.5283 61.2314 48.9489C60.7573 48.2037 60.042 47.5749 59.3297 47.2773C58.6687 47.0011 58.6748 46.7066 59.3531 46.1703C60.0922 45.5858 60.3468 45.1606 60.5952 44.0955C60.8201 43.1317 60.7015 41.7327 60.3374 41.0524C59.7284 39.9144 58.0978 38.7344 56.859 38.5351ZM117.222 38.5105C116.58 38.4207 116.24 38.305 116.264 38.1855C116.293 38.047 115.738 38 114.08 38C112.437 38 111.867 38.0478 111.895 38.1831C111.919 38.2984 111.557 38.4261 110.918 38.528C110.36 38.6171 109.808 38.7676 109.692 38.8628C109.575 38.9579 109.308 39.0883 109.097 39.1528C108.427 39.3581 107.117 40.4985 106.469 41.4415C105.719 42.5325 105.513 43.0852 105.095 45.1167C104.762 46.737 104.762 48.4816 105.094 50.4834C105.241 51.3686 105.353 51.6629 106.145 53.2542C106.557 54.0826 108.668 56.2438 109.065 56.2438C109.196 56.2438 109.419 56.3489 109.561 56.4775C109.707 56.6092 110.263 56.7525 110.838 56.8061C111.399 56.8585 111.933 56.9946 112.028 57.109C112.272 57.4032 115.845 57.4014 116.425 57.1069C116.653 56.9913 117.165 56.8494 117.564 56.7914C117.962 56.7335 118.329 56.62 118.379 56.5391C118.429 56.4586 118.689 56.298 118.958 56.1827C120.116 55.6844 121.248 54.3659 121.931 52.7177C122.325 51.7671 122.371 51.2924 122.09 51.0708C121.898 50.9193 120.317 50.3565 119.436 50.1262C119.178 50.0589 118.782 49.8823 118.556 49.7341C117.97 49.3501 117.741 49.5116 117.434 50.5242C117.286 51.0137 117.074 51.5234 116.963 51.6566C116.853 51.7897 116.762 51.9664 116.762 52.0495C116.762 52.269 115.998 52.9497 115.429 53.2367C115.122 53.3911 114.551 53.4842 113.909 53.4842C112.205 53.4842 111.244 52.7392 110.624 50.9365C110.377 50.2193 110.324 49.648 110.324 47.7386C110.324 45.159 110.49 44.3824 111.281 43.2676C112.285 41.852 114.255 41.4033 115.724 42.2555C116.588 42.7568 117.222 43.5664 117.222 44.1669C117.222 44.7133 117.585 44.869 118.121 44.5532C118.344 44.4221 118.87 44.2655 119.292 44.2047C119.714 44.1442 120.291 43.9996 120.576 43.8835C120.86 43.7675 121.328 43.6724 121.615 43.6724C121.919 43.6724 122.172 43.5835 122.219 43.4601C122.452 42.8536 119.831 39.2265 119.16 39.2265C119.045 39.2265 118.785 39.0968 118.584 38.9383C118.379 38.7775 117.777 38.5882 117.222 38.5105ZM138.91 41.6411C138.943 41.5358 138.998 40.6735 139.031 39.7247L139.092 38H137.356C136.084 38 135.63 38.0494 135.658 38.1844C135.682 38.303 135.343 38.4149 134.706 38.498C134.162 38.5689 133.49 38.7676 133.212 38.9393C132.756 39.2211 131.633 40.8554 131.633 41.2376C131.633 41.4108 131.146 42.6502 130.699 43.6127C130.598 43.8301 130.509 44.0509 130.456 44.2068C130.425 44.2993 130.407 44.3689 130.407 44.4015C130.407 44.5767 129.394 45.5121 129.204 45.5121C129.139 45.5121 128.96 45.4205 128.807 45.3082C128.549 45.1196 128.533 44.8631 128.594 41.8555L128.659 38.6065L125.925 38.6481L123.191 38.6899L123.158 47.6968C123.132 54.815 123.165 56.705 123.316 56.71C123.567 56.7179 128.377 56.7179 128.536 56.71C128.603 56.7064 128.629 55.224 128.594 53.4155C128.559 51.6071 128.574 49.9514 128.628 49.7361C128.709 49.4128 128.817 49.3449 129.246 49.3449C130.043 49.3449 130.407 49.8734 131.946 53.2542C132.215 53.8444 132.595 54.6723 132.791 55.0939C132.986 55.5155 133.193 56.0503 133.25 56.2821C133.307 56.5138 133.432 56.7053 133.528 56.7074C134.735 56.733 145.028 56.6974 145.056 56.6676C145.077 56.6453 145.63 55.8337 146.285 54.864C146.94 53.8943 147.826 52.5935 148.255 51.9731C148.683 51.3528 149.137 50.6916 149.264 50.5035C150.829 48.1777 151.569 46.9651 151.908 47.0684C152.261 47.1756 152.183 48.7021 152.15 51.8746C152.123 54.5307 152.135 56.7061 152.177 56.7091C152.882 56.7565 157.116 56.7218 157.169 56.6679C157.312 56.5252 157.246 38.7138 157.102 38.6246C157.024 38.5761 155.852 38.5571 154.498 38.5821L152.036 38.6278L150.679 40.6518C149.933 41.7651 148.999 43.1415 148.603 43.7108C146.869 46.2062 146.536 46.703 146.134 47.3902C145.807 47.9503 145.621 48.1184 145.327 48.1184H144.945L144.996 43.3622L145.048 38.6062L142.442 38.648L139.835 38.6899L139.796 47.2369C139.762 54.4999 139.724 55.7838 139.538 55.7838C139.291 55.7838 138.839 55.3769 138.839 55.1544C138.839 54.8218 136.432 50.1295 135.883 49.3931C135.266 48.5648 134.613 48.0068 133.895 47.695C133.663 47.5941 133.473 47.4351 133.473 47.3412C133.473 47.2476 133.802 46.8492 134.205 46.4565C134.607 46.0635 135.062 45.4316 135.215 45.0522C136.145 42.756 137.056 41.8327 138.394 41.8327C138.644 41.8327 138.876 41.7466 138.91 41.6411ZM13.2137 41.1428C13.0891 40.7212 12.8971 39.9969 12.7869 39.5331L12.5868 38.6899L8.79335 38.6132L5 38.5366L5.00015 47.6585L5.0003 56.7803L7.26161 56.7449C7.98556 56.7336 8.64468 56.7231 9.07743 56.716C9.38802 56.7109 9.58197 56.7074 9.59957 56.7067C9.64171 56.705 9.67622 53.6913 9.67622 50.0094C9.67622 44.8989 9.72024 43.3004 9.86217 43.2528C9.96779 43.2176 10.0857 43.3778 10.1349 43.6232C10.1826 43.8612 10.2968 44.2626 10.3888 44.5156C10.4806 44.7686 10.6454 45.3549 10.7548 45.8188C10.8641 46.2826 11.0664 47.1449 11.2045 47.7351C11.3427 48.3253 11.556 49.1188 11.6783 49.4982C11.8006 49.8775 11.9004 50.343 11.8999 50.5324C11.8995 50.7218 12.0292 51.2736 12.188 51.7589C12.7033 53.3325 13.1137 54.9225 13.2177 55.7489C13.2736 56.1935 13.3751 56.5915 13.4431 56.6338C13.5113 56.6758 14.4507 56.7213 15.5309 56.7348L17.495 56.7594L17.5968 56.1566C17.6527 55.825 17.801 55.2434 17.9264 54.864C18.0516 54.4846 18.2593 53.7601 18.3879 53.2542C18.5163 52.7483 18.7377 51.886 18.88 51.3379C19.0221 50.7898 19.2283 49.962 19.338 49.4982C19.4476 49.0343 19.6885 48.0341 19.8731 47.2752C20.0578 46.5163 20.2676 45.5626 20.3391 45.1557C20.4722 44.4012 20.9021 43.5076 21.1757 43.4166C21.2701 43.3851 21.323 43.9621 21.3151 44.9374L21.261 51.5391C21.2382 54.3061 21.2569 56.6073 21.3025 56.6531C21.3656 56.716 24.0666 56.7502 25.6203 56.7079C25.7213 56.705 25.7623 53.6191 25.7406 47.6968L25.7073 38.6899H21.9845H18.2615L18.1676 39.6097C18.116 40.1156 17.9994 40.7021 17.9084 40.9129C17.5891 41.6534 16.1502 47.386 15.9553 48.6933C15.8924 49.115 15.7801 49.3449 15.6364 49.3449C15.3554 49.3449 14.8678 48.2209 14.7281 47.2509C14.6692 46.8427 14.5306 46.2871 14.4202 46.0162C14.3097 45.7455 14.1714 45.1935 14.1128 44.7898C14.0543 44.3861 13.9448 43.9368 13.8694 43.7916C13.7941 43.6462 13.6668 43.1632 13.5863 42.7184C13.506 42.2735 13.3383 41.5644 13.2137 41.1428ZM174.407 42.446V40.5461C174.407 39.1575 174.355 38.6314 174.215 38.5914C174.11 38.5613 170.691 38.571 166.619 38.6132L159.214 38.6899L159.218 47.6415C159.219 52.5651 159.248 56.6207 159.282 56.6541C159.369 56.7416 174.44 56.7218 174.527 56.6342C174.567 56.5941 174.604 55.748 174.609 54.7544L174.619 52.9476L169.722 52.8656C167.028 52.8204 164.805 52.7687 164.781 52.7506C164.757 52.7325 164.757 51.9761 164.781 51.0696L164.825 49.4215L169.262 49.3449L173.699 49.2682L173.69 47.4614C173.685 46.4678 173.64 45.6141 173.59 45.5645C173.541 45.5151 171.672 45.487 169.437 45.502C166.743 45.5201 165.268 45.4731 165.061 45.3621C164.787 45.2157 164.748 45.0455 164.748 44.0043C164.748 43.2829 164.821 42.7413 164.932 42.63C165.067 42.4949 166.353 42.446 169.761 42.446H174.407ZM68.7851 45.2922C68.6543 45.1346 68.6121 44.168 68.6365 41.8811L68.6702 38.6899L65.8984 38.6481C64.3741 38.6252 63.0892 38.667 63.0434 38.7412C62.9975 38.8155 63.0269 39.1098 63.1088 39.3952C63.3164 40.1191 63.307 55.4808 63.0987 56.0288C63.0067 56.2706 62.9968 56.5041 63.0749 56.5823C63.2612 56.7685 74.607 56.7375 74.8326 56.5502C74.93 56.4694 75.4617 56.3393 76.0139 56.2611C76.784 56.1521 77.2064 55.9867 77.8243 55.5522C78.9481 54.7623 79.2703 54.3388 79.6662 53.1312C80.3148 51.1527 79.7965 48.8071 78.3972 47.3902C77.9602 46.9476 77.4766 46.5853 77.3229 46.5853C77.1689 46.5853 76.8562 46.4531 76.6277 46.2917C76.3895 46.1236 75.8227 45.9596 75.2992 45.9075C74.7969 45.8577 74.3176 45.7484 74.2337 45.6645C74.1449 45.5758 73.0144 45.5121 71.5244 45.5121C69.4906 45.5121 68.9303 45.4672 68.7851 45.2922ZM87.1181 56.6573C87.1558 56.6197 87.1866 52.5616 87.1866 47.6393L87.1867 38.6899L84.4207 38.648C82.8994 38.6252 81.6531 38.6596 81.6511 38.7246C81.6084 40.1028 81.6667 56.6134 81.7144 56.661C81.8033 56.7499 87.0291 56.7464 87.1181 56.6573ZM100.886 39.0759C100.628 39.0744 100.283 38.9718 100.119 38.8481C99.8709 38.6601 98.9173 38.6221 94.341 38.6182C91.3265 38.6153 88.859 38.6306 88.8576 38.6516C88.8563 38.6725 88.839 42.7431 88.8193 47.6968C88.7911 54.8165 88.8238 56.705 88.9752 56.71C89.2255 56.7179 94.0361 56.7179 94.1936 56.71C94.2601 56.7064 94.2863 55.3928 94.2518 53.7905C94.2051 51.6163 94.2376 50.819 94.3797 50.6477C94.5338 50.462 95.0296 50.4171 96.966 50.4131C98.8295 50.4093 99.428 50.3583 99.6595 50.1831C99.8232 50.0595 100.168 49.957 100.426 49.9558C100.684 49.9545 101.067 49.854 101.278 49.7325C101.4 49.6624 101.555 49.5778 101.696 49.5036C101.8 49.4491 101.897 49.4001 101.968 49.3663C102.433 49.1462 103.2 48.272 103.562 47.5478C104.267 46.1396 104.346 42.7202 103.703 41.453C103.061 40.1881 101.749 39.0811 100.886 39.0759ZM32.9266 44.0557C33.41 43.146 34.0548 42.5005 34.8515 42.1286C35.7047 41.7303 37.2752 41.7439 37.9617 42.1557C39.2555 42.9312 39.7675 43.7001 40.1658 45.4657C40.4847 46.8798 40.4731 48.3192 40.1292 49.9581C39.7971 51.5412 39.2795 52.4101 38.3037 53.0229C37.6732 53.4189 37.4325 53.4787 36.4608 53.4814C34.7408 53.4857 33.6372 52.7823 32.8578 51.1846C32.5482 50.5504 32.5211 50.2661 32.5202 47.6585C32.5192 44.8821 32.5278 44.8059 32.9266 44.0557ZM94.2261 44.5156C94.2261 43.3965 94.2891 42.7509 94.41 42.63C94.6955 42.3445 97.2048 42.3901 97.8416 42.6922C98.9713 43.2282 99.3405 44.7519 98.5642 45.6744C98.3363 45.9454 97.9245 46.2612 97.6493 46.3761C97.018 46.6401 94.667 46.6582 94.41 46.4013C94.2891 46.2803 94.2261 45.6348 94.2261 44.5156ZM68.656 51.2721C68.6316 50.4349 68.6466 49.6588 68.6894 49.5474C68.7491 49.392 69.2982 49.3449 71.0416 49.3449H73.3161L73.8827 49.8638C74.3649 50.3054 74.4492 50.4794 74.4492 51.0317C74.4492 51.5818 74.358 51.7717 73.8498 52.2799L73.2505 52.8793L70.9753 52.8368L68.7001 52.7943L68.656 51.2721ZM174.891 53.3309C174.891 53.5417 174.926 53.6281 174.968 53.5225C174.996 53.4531 175.006 53.3544 174.997 53.265C174.992 53.2189 174.983 53.1752 174.968 53.1393C174.926 53.034 174.891 53.1201 174.891 53.3309ZM174.891 56.2438C174.891 56.4546 174.926 56.5409 174.968 56.4354C174.991 56.3781 175.002 56.3006 175 56.225C174.998 56.162 174.987 56.1002 174.968 56.0521C174.948 56.0015 174.929 55.9951 174.915 56.0255C174.9 56.0583 174.891 56.1342 174.891 56.2438ZM25.071 60.1045C24.9967 59.7405 24.8961 59.3784 24.8475 59.2996C24.7736 59.1803 19.4155 59.0771 19.4093 59.195C19.4083 59.2159 19.4049 63.3036 19.402 68.2785L19.3967 77.3237H21.0353H22.6739L22.7412 70.5015C22.7783 66.7493 22.8687 63.617 22.9424 63.5409C23.0202 63.4605 23.1494 63.5887 23.2515 63.8475C23.3482 64.0923 23.5251 64.4994 23.6448 64.7524C23.7644 65.0054 23.9268 65.61 24.0055 66.0959C24.0842 66.5821 24.1869 67.0419 24.2338 67.1176C24.2623 67.1636 24.3237 67.378 24.3945 67.6683C24.4405 67.8566 24.4904 68.0768 24.5378 68.3037C24.8006 69.5623 25.0129 70.3997 25.4063 71.728C25.5687 72.2761 25.7004 72.8782 25.6992 73.0664C25.698 73.2543 25.7974 73.6683 25.9202 73.9863C26.043 74.304 26.2192 74.9436 26.3117 75.4074C26.4043 75.8712 26.5293 76.4921 26.5894 76.7871L26.6987 77.3237L28.353 77.3333C29.3643 77.339 30.0467 77.2794 30.1087 77.18C30.1647 77.0903 30.2601 76.6722 30.321 76.2506C30.4805 75.1431 30.8453 73.4892 30.9768 73.2762C31.0051 73.2304 31.0505 73.0779 31.1024 72.864C31.1643 72.6087 31.2355 72.2659 31.2977 71.9124C31.514 70.6841 31.6736 70.0245 32.1561 68.3677C32.2388 68.0836 32.314 67.7777 32.3672 67.5196C32.4153 67.2857 32.4453 67.0913 32.4463 66.988C32.4481 66.7703 32.5861 66.0793 32.7529 65.4528C32.9195 64.8261 33.0558 64.1574 33.0558 63.967C33.0558 63.5315 33.2729 63.3867 33.5056 63.667C33.6296 63.8164 33.7045 65.4451 33.7529 69.0456C33.7911 71.8862 33.8477 74.2553 33.8786 74.3104C33.9096 74.3656 33.8867 74.9973 33.8277 75.714C33.7685 76.4307 33.779 77.0945 33.8506 77.1893C33.9335 77.2987 34.5398 77.3546 35.5189 77.3426L37.0571 77.3237L37.0572 68.2785V59.2333L34.5019 59.1911C32.8165 59.1634 31.8776 59.2062 31.7443 59.3168C31.6331 59.4092 31.4988 59.8766 31.4459 60.3555C31.393 60.8345 31.2255 61.6057 31.0734 62.0695C30.5851 63.5599 29.9137 66.101 29.6827 67.3345C29.6062 67.7428 29.4754 68.159 29.3921 68.2596C29.3087 68.3601 29.1687 68.8875 29.0812 69.4319C28.9336 70.3473 28.5489 71.1433 28.2373 71.1773C28.0505 71.1975 27.8983 70.8425 27.7181 69.9649C27.5162 68.9814 27.2482 67.9422 27.0461 67.3587C26.9872 67.1886 26.8938 66.8679 26.8047 66.5351C26.7612 66.3728 26.7187 66.2076 26.6817 66.0555C26.5689 65.5917 26.3317 64.7293 26.1548 64.1392C25.685 62.5716 25.2255 60.8611 25.071 60.1045ZM50.0989 59.692C49.7053 59.641 49.2002 59.4996 48.9763 59.3779C48.425 59.0782 45.5158 59.0687 45.0864 59.3655C44.9201 59.4803 44.4523 59.6231 44.047 59.6827C42.436 59.92 40.5088 61.3798 39.5551 63.0853C37.962 65.9338 37.9255 70.6711 39.4762 73.3377C40.535 75.1585 42.4894 76.6079 44.2488 76.877C44.6274 76.9349 45.021 77.0483 45.1231 77.1287C45.3929 77.3411 48.6748 77.3646 48.9799 77.1563C49.1174 77.0625 49.5131 76.9418 49.8591 76.8882C51.7928 76.5885 53.9894 74.8254 54.9511 72.8011C55.8078 70.9981 56.1935 67.462 55.6824 66.0968C55.5634 65.7792 55.4241 65.2791 55.3727 64.9861C55.267 64.3826 54.7697 63.285 54.2989 62.6167C53.5721 61.5844 51.941 60.2298 51.4252 60.2298C51.2924 60.2298 51.1007 60.1296 50.9993 60.0073C50.8976 59.885 50.4926 59.7431 50.0989 59.692ZM69.073 77.3237H70.7824V68.2785V59.2333L64.4904 59.1933C61.0299 59.1711 58.1953 59.2057 58.1913 59.27C58.1874 59.3342 58.1905 62.5841 58.1982 66.4919L58.2123 73.5973L57.8197 74.112C57.4513 74.595 57.3631 74.6297 56.3964 74.6723L55.3658 74.7175L55.3641 76.0206L55.3623 77.3237H56.972C58.3145 77.3237 58.7202 77.2647 59.4162 76.9676C60.7785 76.3862 61.0645 75.8927 61.3517 73.6256C61.5208 72.2925 61.5748 70.5271 61.5533 67.0374C61.5371 64.4154 61.5731 62.1905 61.6334 62.0931C61.8071 61.812 66.9971 61.8488 67.2328 62.133C67.3659 62.2933 67.4064 64.3007 67.3881 69.8367L67.3637 77.3237H69.073ZM83.7609 59.6766C83.4035 59.6236 82.9583 59.485 82.7716 59.3685C82.2971 59.0725 79.158 59.0698 78.9128 59.3655C78.8174 59.4802 78.4124 59.6137 78.0124 59.6618C76.0847 59.8944 73.8971 61.665 72.9466 63.7622C71.8329 66.2196 71.8825 70.8012 73.0469 73.0074C74.0883 74.9811 76.1744 76.603 78.036 76.8866C78.3821 76.9393 78.752 77.0508 78.8581 77.1345C79.1149 77.3372 82.5065 77.3393 82.7599 77.137C82.8688 77.0502 83.2954 76.9301 83.708 76.8704C85.6296 76.5921 87.7984 74.8096 88.752 72.7252C89.5961 70.88 89.9193 67.5365 89.3968 66.0555C89.2704 65.6971 89.1669 65.2468 89.1669 65.055C89.1669 64.6536 88.6478 63.4981 88.0667 62.6061C87.1894 61.2592 85.1701 59.8854 83.7609 59.6766ZM94.6501 66.9357C94.3204 66.3183 94.3016 66.1072 94.2803 62.7594L94.2581 59.2333L92.5739 59.19C91.3069 59.1575 90.8755 59.1956 90.8321 59.3433C90.8002 59.4514 90.8145 61.2646 90.8637 63.3726C90.9502 67.0775 90.9663 67.2333 91.348 68.0485C91.9669 69.3699 93.2188 70.3588 94.5513 70.5786C94.7298 70.6081 94.9133 70.6518 95.0675 70.6988C95.2322 70.749 95.3633 70.8032 95.4191 70.8482C95.6775 71.0571 98.4106 71.0638 98.8594 70.8568C99.229 70.6862 100.295 70.3834 101.027 70.2405C101.31 70.1854 101.516 70.2302 101.607 70.3666C101.686 70.4844 101.732 72.0717 101.711 73.9509L101.674 77.3237H103.4H105.126V68.2785V59.2333H103.403H101.681L101.722 63.1489C101.759 66.7572 101.741 67.0899 101.482 67.3883C100.629 68.3719 97.2306 68.7176 95.7565 67.9705C95.206 67.6916 94.902 67.4073 94.6501 66.9357ZM110.778 62.7953C110.823 60.9598 110.837 59.3905 110.809 59.3075C110.74 59.1038 107.105 59.1062 107.102 59.3099C107.062 62.5008 107.118 77.1463 107.171 77.2312C107.292 77.4275 110.625 77.3496 110.751 77.1475C110.811 77.0506 110.824 75.3605 110.779 73.3914C110.735 71.4225 110.754 69.6908 110.823 69.5433C110.936 69.2997 111.258 69.275 114.325 69.275C116.448 69.275 117.817 69.3365 118.012 69.4404C118.311 69.6005 118.319 69.7304 118.279 73.4648L118.237 77.3237H119.96H121.683V68.2785V59.2333H119.958H118.233L118.278 62.7853C118.321 66.2157 118.312 66.3428 118.012 66.503C117.817 66.6074 116.453 66.6688 114.325 66.6688C111.258 66.6688 110.936 66.6441 110.822 66.4005C110.753 66.253 110.733 64.6305 110.778 62.7953ZM127.492 66.4364C127.345 66.2588 127.316 65.374 127.372 62.6803L127.444 59.1566H125.706C124.75 59.1566 123.967 59.174 123.965 59.195C123.963 59.2159 123.946 63.2865 123.927 68.2402C123.903 74.1602 123.944 77.251 124.045 77.2585C125.224 77.3456 134.615 77.2135 134.879 77.106C134.993 77.0595 135.184 77.0032 135.389 76.9536C135.538 76.9177 135.694 76.8852 135.832 76.8628C136.584 76.74 137.933 75.5057 138.511 74.4112C138.877 73.7168 138.914 73.4922 138.903 72.0346C138.892 70.6006 138.845 70.338 138.478 69.6291C137.867 68.4498 136.591 67.378 135.5 67.1275C135.018 67.0166 134.557 66.868 134.477 66.7974C134.397 66.7267 132.836 66.6688 131.008 66.6688C128.226 66.6688 127.654 66.6309 127.492 66.4364ZM145.007 59.5701C145.002 59.4821 144.977 59.4023 144.934 59.3483C144.827 59.2152 144.248 59.1566 143.035 59.1566H141.289L141.329 68.2402L141.369 77.3237L143.101 77.3377C144.561 77.3496 144.854 77.3122 144.968 77.0996C145.047 76.9524 145.045 76.755 144.963 76.6256C144.789 76.3513 144.79 60.2769 144.963 59.8465C144.999 59.7583 145.013 59.66 145.007 59.5701ZM160.149 61.9162V60.5364V59.1566H153.403C149.693 59.1566 146.656 59.174 146.655 59.195C146.602 59.8447 146.605 77.2489 146.658 77.2531C146.7 77.2564 149.838 77.2635 153.631 77.2688L160.528 77.2785V75.998L160.529 74.7175L155.561 74.6771C152.207 74.6497 150.527 74.5814 150.389 74.4666C150.232 74.3368 150.184 73.6687 150.184 71.638C150.184 69.0829 150.197 68.9724 150.51 68.8046C150.739 68.682 152.121 68.6462 155.148 68.6842L159.459 68.7384L159.503 67.397C159.537 66.3833 159.499 66.0545 159.35 66.051C159.241 66.0485 157.23 66.0504 154.881 66.0555C151.872 66.0618 150.546 66.0121 150.396 65.8878C150.239 65.7573 150.184 65.2807 150.184 64.0562C150.184 63.1461 150.226 62.2921 150.277 62.1587C150.359 61.9445 150.942 61.9162 155.259 61.9162H160.149ZM41.9514 66.8821C42.2801 64.5864 43.1613 63.1807 44.8079 62.326C45.4441 61.9957 45.7628 61.9388 47.0327 61.9283C48.3379 61.9175 48.6096 61.9638 49.3102 62.3158C51.5434 63.4373 52.3456 65.3227 52.1595 69.0109C52.0804 70.5765 52.0086 70.943 51.6194 71.7705C51.0917 72.892 50.3116 73.681 49.179 74.2384C48.487 74.579 48.1573 74.6408 47.0303 74.6408C45.5411 74.6408 44.9809 74.4264 43.7272 73.3771C42.2665 72.1543 41.5643 69.586 41.9514 66.8821ZM75.7576 66.7361C76.1563 64.3925 76.9367 63.1567 78.5461 62.3209C79.5585 61.7949 81.8556 61.7509 82.9531 62.2364C83.9717 62.6871 84.8186 63.5066 85.3851 64.59L85.8707 65.5189L85.8577 68.2019C85.845 70.7867 85.8293 70.9165 85.4306 71.7537C84.9261 72.8126 84.0787 73.6868 83.0281 74.2318C82.3477 74.5848 82.0538 74.6408 80.8822 74.6408C79.7229 74.6408 79.4172 74.5838 78.7883 74.2507C76.9023 73.2513 76.1456 72.1313 75.7474 69.7498C75.5158 68.3644 75.5164 68.1529 75.7576 66.7361ZM127.341 71.9579C127.341 70.3618 127.398 69.5858 127.525 69.459C127.654 69.3298 128.513 69.275 130.41 69.275C133.053 69.275 133.13 69.284 133.944 69.6966C135.328 70.3979 135.834 71.7854 135.176 73.0755C134.844 73.7262 134.523 74.0396 133.826 74.3923C133.426 74.5946 132.811 74.6408 130.522 74.6408C128.538 74.6408 127.654 74.5865 127.525 74.4568C127.398 74.33 127.341 73.554 127.341 71.9579ZM42.1035 97.9566L42.064 88.8941L42.0244 79.8316L34.9339 79.8041C31.034 79.7891 27.8416 79.794 27.8395 79.815C27.8375 79.836 27.8338 83.9066 27.8315 88.8602L27.8274 97.8671L28.9086 97.9122C29.7123 97.9456 29.9907 97.9063 29.9941 97.7589C30.0404 95.6641 29.9566 83.3031 29.8932 82.9075C29.7238 81.8472 29.7297 81.846 34.8681 81.8486C37.3707 81.8501 39.5081 81.9082 39.6181 81.9779C39.7784 82.0796 39.8131 83.5714 39.7931 89.5259C39.7795 93.6077 39.7586 97.1542 39.7465 97.4072L39.7248 97.8671L40.9141 97.9119L42.1035 97.9566ZM54.0403 80.2207C53.6711 80.1643 53.2909 80.0566 53.1952 79.9816C53.0487 79.8665 43.9478 79.7027 43.9369 79.815C43.9357 79.8276 43.9339 81.3119 43.9321 83.5741L43.929 88.8602L43.9248 97.8671L44.9871 97.9117C45.7541 97.9441 46.0654 97.9014 46.1073 97.7584C46.139 97.6496 46.1278 96.0773 46.0822 94.2644C46.0366 92.4515 46.0559 90.8474 46.1253 90.6999C46.2395 90.4566 46.5582 90.4316 49.5441 90.4316C51.3551 90.4316 52.9567 90.3707 53.1031 90.2964C53.2495 90.222 53.6906 90.0861 54.0834 89.9942C56.0232 89.5404 57.3111 87.7487 57.5376 85.1884C57.6125 84.3406 57.5661 83.993 57.2711 83.1954C56.6435 81.4995 55.4963 80.4429 54.0403 80.2207ZM70.2915 80.3133C70.0545 80.3133 69.5306 80.2008 69.1271 80.0635C68.12 79.7207 65.5983 79.6816 65.174 80.0021C65.0897 80.0659 64.7305 80.1623 64.3759 80.2164C62.642 80.4808 60.2796 82.3876 59.416 84.2199C58.8467 85.4277 58.3518 87.6921 58.3518 89.0896C58.3518 90.2123 58.9321 92.7596 59.2632 93.0907C59.3521 93.1797 59.425 93.3518 59.425 93.4731C59.425 93.8169 61.0929 95.7968 61.6685 96.1366C61.9523 96.3039 62.1845 96.5031 62.1845 96.5791C62.1845 96.655 62.3132 96.7173 62.4704 96.7173C62.6277 96.7173 62.9236 96.8489 63.1281 97.0097C63.3325 97.1705 63.8421 97.3519 64.2603 97.4129C64.6786 97.4738 65.207 97.6181 65.4347 97.7337C65.9835 98.0122 68.2589 98.0122 68.7926 97.7336C69.0121 97.619 69.5268 97.4752 69.9363 97.4138C70.3459 97.3522 70.8483 97.1705 71.0527 97.0097C71.2572 96.8489 71.5213 96.7173 71.6398 96.7173C71.7583 96.7173 72.0703 96.562 72.333 96.3724C74.7193 94.6488 75.9323 91.8706 75.7844 88.4674C75.6889 86.2748 75.2455 84.7628 74.2696 83.3028C73.6195 82.3302 71.9773 80.9265 71.4896 80.9265C71.3728 80.9265 71.1523 80.7884 70.9998 80.6199C70.8472 80.4513 70.5284 80.3133 70.2915 80.3133ZM89.7035 95.7208L89.6268 87.7731L89.5501 79.8253L84.133 79.8011C80.5598 79.7849 78.6711 79.8306 78.5843 79.9352C78.5107 80.0238 78.5148 80.3622 78.5936 80.7018C78.6712 81.0361 78.7373 81.8616 78.7406 82.5362C78.7508 84.5882 78.2855 89.8141 77.968 91.2141C77.8033 91.9397 77.6687 92.6774 77.6687 92.8531C77.6687 92.9401 77.6539 93.0285 77.63 93.1011C77.6056 93.1753 77.5716 93.2331 77.5343 93.2562C77.4603 93.3018 77.3224 93.6469 77.2276 94.023C77.1329 94.3991 76.9107 94.9522 76.7337 95.2522C76.4346 95.7591 76.3591 95.7974 75.6605 95.7974H74.9091L74.8973 98.902C74.8909 100.609 74.8625 102.127 74.8343 102.275C74.7891 102.511 74.9194 102.543 75.9118 102.543H77.0406L76.9668 101.202C76.9264 100.464 76.8649 99.54 76.8303 99.1487C76.7984 98.7886 76.747 98.5354 76.8397 98.3573C77.0764 97.9025 78.2529 97.9364 83.0946 97.9288C87.89 97.9212 89.0849 97.9592 89.1989 98.1231C89.2789 98.238 89.3065 99.2478 89.2622 100.435L89.1837 102.543L90.2868 102.543H91.3899L91.3515 99.3286C91.3304 97.5605 91.3132 96.0463 91.3132 95.9636C91.3132 95.881 90.9511 95.7927 90.5083 95.7671L89.7035 95.7208ZM93.2222 80.4666C93.1719 80.34 93.0769 80.1331 93.0108 80.0066C92.8603 79.7178 90.9376 79.5928 90.7717 79.8613C90.6543 80.0513 90.9804 80.7732 91.1838 80.7732C91.2526 80.7732 91.413 80.9973 91.5399 81.2714C91.6671 81.5456 92.0502 82.2527 92.3914 82.8428C92.5172 83.0604 92.649 83.2915 92.7717 83.5094C92.9818 83.8823 93.1653 84.2162 93.2467 84.3759C93.6427 85.1519 94.8628 87.2869 95.3055 87.9787C95.3865 88.1052 95.5264 88.3811 95.6166 88.5919C95.7891 88.9954 95.9301 89.2507 96.9136 90.9411C97.2484 91.5163 97.6074 92.1372 97.7115 92.3209C98.009 92.8451 97.9424 93.2836 97.4268 94.1973C96.7555 95.3868 96.1006 95.7974 94.875 95.7974C94.2449 95.7974 93.7776 95.7117 93.5321 95.5506C92.9188 95.1487 92.7246 95.3458 92.8103 96.2827C92.8513 96.7324 92.9479 97.1796 93.0246 97.2763C93.2354 97.5418 94.5877 97.9438 95.2701 97.9438C95.6017 97.9438 96.2222 97.7885 96.6487 97.5988C97.8932 97.0452 98.0689 96.7356 104.025 84.5891C104.959 82.6828 105.724 81.066 105.724 80.9963C105.724 80.9266 105.871 80.7134 106.05 80.5226C106.596 79.942 106.342 79.7 105.188 79.7C104.363 79.7 104.167 79.7484 104.1 79.9683C103.98 80.3609 103.728 80.9138 101.699 85.2191C100.104 88.6038 99.646 89.6241 99.52 90.0726C99.3259 90.7624 98.5342 90.6318 98.2305 89.86C98.1385 89.6263 97.9932 89.3317 97.9076 89.2052C97.8221 89.0787 97.681 88.8027 97.5944 88.5919C97.5078 88.3811 97.1673 87.7257 96.8379 87.1355C96.1409 85.8873 95.3926 84.511 94.8787 83.5327C94.6794 83.1534 94.2457 82.3599 93.915 81.7697C93.7051 81.3951 93.5028 81.022 93.3702 80.7672C93.2939 80.6205 93.2406 80.5128 93.2222 80.4666ZM108.97 83.7096C109.011 80.6068 108.981 79.8412 108.816 79.7782C108.402 79.6195 107.138 79.7042 106.974 79.9015C106.859 80.0408 106.801 82.6984 106.787 88.5252C106.775 93.1574 106.756 97.1542 106.743 97.4072L106.721 97.8671H107.853H108.985L109.003 93.6511L109.02 89.4351L109.594 89.3877C110.261 89.3324 111.138 89.7912 111.738 90.5083C112.257 91.1296 113.85 93.4806 113.85 93.6263C113.85 93.6903 114.218 94.3004 114.669 94.9816C115.12 95.663 115.533 96.315 115.586 96.4304C115.639 96.546 115.846 96.9166 116.044 97.2539L116.406 97.8671L117.811 97.9113C118.793 97.9421 119.215 97.9022 119.215 97.7789C119.215 97.6819 118.922 97.2018 118.564 96.7118C118.206 96.2219 117.74 95.529 117.529 95.1719C117.318 94.8149 116.87 94.0902 116.533 93.5613C116.195 93.0325 115.617 92.1126 115.248 91.5171C114.557 90.4033 113.528 89.3314 112.853 89.0239C112.286 88.7655 112.384 88.4253 113.198 87.8225C113.828 87.3565 114.333 86.692 114.711 85.8324C115.865 83.2114 116.344 82.4548 117.1 82.0618C117.703 81.7483 124.155 81.748 124.416 82.0615C124.547 82.2196 124.589 84.3402 124.574 90.0719L124.553 97.8671L125.721 97.9119L126.888 97.9568L126.877 90.032C126.87 85.6734 126.922 82.0503 126.992 81.9805C127.062 81.9106 128.393 81.8347 129.951 81.8116L132.783 81.7697L132.829 80.8115C132.863 80.1072 132.822 79.8517 132.676 79.8472C132.566 79.8439 128.974 79.8434 124.692 79.8466L116.908 79.8521L116.165 80.2285C115.055 80.7908 114.471 81.5818 113.549 83.7673C113.335 84.2756 112.861 85.226 112.495 85.8791C111.927 86.8948 111.722 87.1217 111.082 87.4462C110.329 87.8275 109.501 87.9314 109.123 87.6915C108.961 87.5884 108.93 86.7885 108.97 83.7096ZM135.995 86.8822C135.938 86.7007 135.916 85.0278 135.947 83.1644L136.003 79.7767L134.981 79.7316C134.419 79.7069 133.922 79.7478 133.875 79.8226C133.829 79.8976 133.783 83.9882 133.773 88.9129L133.756 97.8671L138.022 97.9131C141.541 97.951 142.369 97.9194 142.748 97.7328C143.001 97.6084 143.53 97.4636 143.924 97.4111C144.318 97.3584 144.723 97.2154 144.824 97.0931C144.926 96.9708 145.099 96.8706 145.208 96.8706C145.494 96.8706 146.805 95.3327 146.907 94.8776C146.955 94.6668 147.097 94.2093 147.223 93.861C147.679 92.5995 147.233 90.3716 146.271 89.1101C145.713 88.3783 144.797 87.8362 143.934 87.7272C143.535 87.6767 143.055 87.5402 142.869 87.4237C142.608 87.2614 141.782 87.2122 139.315 87.2122C136.159 87.2122 136.098 87.2062 135.995 86.8822ZM152.034 97.8671L152.038 88.8219L152.041 79.7767L150.959 79.7316C150.364 79.7069 149.877 79.7413 149.876 79.8083C149.875 79.8752 149.872 83.9659 149.87 88.8985L149.865 97.8671H150.95H152.034ZM46.0627 85.1616C46.0664 83.5064 46.1121 82.0832 46.164 81.9992C46.2222 81.905 47.5651 81.8463 49.6623 81.8463H53.0662L53.8309 82.3446C54.8078 82.981 55.2705 83.8645 55.2793 85.1103C55.2905 86.6784 54.4761 87.7466 52.9259 88.1973C52.3027 88.3784 51.394 88.438 49.2829 88.4364C47.7361 88.4349 46.377 88.3748 46.2631 88.3025C46.1 88.1992 46.0572 87.5295 46.0627 85.1616ZM64.5608 82.2985C64.7295 82.2307 65.0744 82.1068 65.3273 82.023C66.1839 81.7391 68.2891 81.8164 69.2798 82.1682C71.3072 82.8881 72.4843 84.127 73.3437 86.4456C73.6654 87.3134 73.6982 90.0481 73.3989 91.0449C72.8694 92.8081 72.3892 93.534 71.0459 94.602C69.8389 95.5615 69.2563 95.722 67.0182 95.7109C64.8835 95.7006 64.8826 95.7003 63.3343 94.6958C62.2106 93.9664 61.2006 92.6209 60.9393 91.5048L60.6293 90.181C60.318 88.8524 60.7508 86.2095 61.4991 84.8706C61.9308 84.0984 63.2511 82.8195 63.8709 82.5735C64.0817 82.49 64.3921 82.366 64.5608 82.2985ZM80.5337 85.2982C80.6027 82.7572 80.6585 82.1967 80.8586 82.038C81.1942 81.7716 87.031 81.7647 87.2965 82.0303C87.434 82.1678 87.4805 83.9073 87.4805 88.9128C87.4805 94.8795 87.454 95.6214 87.2379 95.7043C87.1046 95.7555 85.1707 95.7974 82.9405 95.7974C79.2956 95.7974 78.8756 95.7715 78.7874 95.5417C78.7335 95.401 78.8132 95.0733 78.9647 94.8135C79.2291 94.3597 79.5075 93.3677 79.829 91.7348C80.3406 89.1351 80.4589 88.0548 80.5337 85.2982ZM136.019 95.5549C135.895 95.2327 135.899 89.9141 136.023 89.5905C136.11 89.3642 136.474 89.3429 139.511 89.3865C142.455 89.4287 142.97 89.4723 143.419 89.7173C144.647 90.3867 145.294 91.8812 144.976 93.308C144.746 94.3367 144.198 94.9831 143.171 95.4372C142.403 95.7769 142.178 95.7974 139.234 95.7974C136.529 95.7974 136.1 95.7651 136.019 95.5549Z" fill="#64B5D0"/>
</svg>
