<svg width="180" height="140" viewBox="0 0 180 140" fill="none" xmlns="http://www.w3.org/2000/svg">
<path fill-rule="evenodd" clip-rule="evenodd" d="M40.9465 40.7618C28.6301 41.8725 17.7281 47.2335 11.4183 55.2824C8.26808 59.3006 6.11846 64.3307 5.32405 69.5427C4.96245 71.9149 4.88565 77.0746 5.18445 78.923C5.74231 82.375 7.001 85.9609 8.76859 89.1347C11.1356 93.3847 15.1663 97.8771 19.8559 101.493C22.1915 103.293 22.6343 103.613 22.7928 103.613C22.8721 103.613 23.018 103.711 23.1172 103.83C23.2164 103.95 23.712 104.298 24.2185 104.604C24.7249 104.91 25.5171 105.399 25.9787 105.692C26.9762 106.324 27.8232 106.806 29.336 107.603C29.9515 107.927 30.6439 108.296 30.8747 108.421C31.5916 108.812 35.0114 110.402 36.2603 110.926C39.0424 112.092 40.2307 112.565 40.3773 112.565C40.463 112.565 41.0353 112.76 41.6491 112.997C43.0926 113.554 47.5821 115 49.1997 115.428C54.2622 116.767 56.7288 117.331 60.8102 118.08C66.9754 119.211 74.7505 120.087 81.0237 120.357C84.7244 120.517 96.3757 120.465 99.8383 120.273C101.454 120.184 104.224 119.985 105.993 119.831C111.529 119.35 118.87 118.279 123.339 117.302C124.032 117.15 125.039 116.93 125.577 116.813C131.066 115.615 137.141 113.746 142.783 111.52C143.706 111.156 144.522 110.802 144.595 110.733C144.668 110.664 144.805 110.607 144.9 110.607C145.045 110.607 148.743 108.906 149.44 108.518C149.562 108.451 150.264 108.077 151 107.689C152.596 106.846 155.052 105.39 155.662 104.925C155.902 104.742 156.139 104.592 156.188 104.592C156.372 104.592 159.758 102.139 161.177 100.978C164.475 98.2808 167.935 94.531 169.911 91.513C171.845 88.5589 173.757 84.1455 174.305 81.371C175.123 77.2235 175.213 73.8246 174.607 69.8761C174.115 66.6605 173.167 63.7598 171.604 60.6877C169.953 57.4411 168.225 55.1032 165.383 52.2748C159.081 46.0019 150.261 41.998 140.265 40.8719C137.869 40.6019 132.749 40.6028 130.893 40.8734C125.827 41.6122 122.175 43.4264 118.65 46.955C117.841 47.7652 116.102 49.7184 114.786 51.2956C111.018 55.8121 109.034 57.5812 106.133 59.0113C103.335 60.3907 101.074 60.866 97.3204 60.8634C94.8826 60.8617 94.5467 60.8305 93.2637 60.4867C91.4801 60.0088 88.6319 58.5969 86.9985 57.3812C86.3224 56.8779 84.5857 55.476 83.139 54.2655C80.3447 51.9276 79.1766 51.1424 77.9638 50.7867C77.3222 50.5986 76.9909 50.5893 75.7036 50.7242C73.585 50.946 72.0818 51.4997 71.1328 52.408C69.1017 54.3518 68.8683 56.7983 70.2671 61.487C70.5844 62.5511 70.5991 63.3743 70.3216 64.5512C69.7258 67.0781 67.3851 69.8 64.4789 71.3453L63.8453 71.6821H64.9203C67.2238 71.6821 68.8174 73.0968 69.3512 75.6156C70.0428 78.8782 68.8447 82.7795 66.4167 85.1704C64.6923 86.8685 62.8698 87.6885 60.8102 87.6929C58.0981 87.6985 56.5289 86.4633 56.1306 84.0095C55.7103 81.4188 56.3087 76.2783 57.6751 70.7439C58.9952 65.3964 59.9846 63.4346 62.9054 60.3742C65.2755 57.8908 65.8425 56.5278 65.8386 53.324C65.8358 51.1097 65.6031 50.398 64.3853 48.876C60.9873 44.6298 55.5744 41.7942 49.1134 40.8758C47.7755 40.6857 42.5928 40.6134 40.9465 40.7618ZM35.8407 52.0012C38.7587 52.4632 41.1247 54.3769 42.0002 56.9832C42.6336 58.8685 42.6325 61.4131 41.9974 63.7051C40.7331 68.2671 37.1393 71.3931 33.4658 71.1261C30.4916 70.9099 28.6205 68.2061 29.819 65.8564C30.3002 64.9133 30.4432 64.8879 31.1177 65.6248C32.0527 66.6461 33.1595 66.6802 34.4284 65.7268C36.0095 64.5389 37.141 62.3331 37.5284 59.6844C37.7411 58.2296 37.6022 56.9975 37.1077 55.952C35.7837 53.1525 32.9403 53.4042 29.9378 56.5871C28.6935 57.906 27.7249 59.3695 26.7382 61.4215C24.7782 65.4972 23.8091 69.8264 23.8113 74.4965C23.8145 81.3907 26.4645 85.1479 31.3242 85.1479C33.0736 85.1479 34.8014 84.4938 36.6485 83.1325C37.674 82.3766 37.7319 82.4197 37.6284 83.8624C37.5091 85.5248 36.7591 86.4883 34.9342 87.3243C32.4223 88.475 28.6661 88.6613 25.7735 87.7789C24.2755 87.3219 22.5138 86.3129 21.3638 85.2531C17.0977 81.3222 15.7317 73.8303 18.0108 66.8642C19.1695 63.3227 20.9876 60.2951 23.5243 57.6825C27.7179 53.3634 31.992 51.3919 35.8407 52.0012ZM65.1279 61.4959C63.9355 62.2229 62.6636 65.042 61.7777 68.9212C61.5932 69.729 61.4417 70.5352 61.441 70.7127C61.4397 71.0349 61.4403 71.035 61.884 70.7827C62.6075 70.3711 64.969 67.9291 65.4761 67.0683C66.1478 65.9276 66.5764 64.7953 66.7516 63.6987C67.0805 61.6408 66.4012 60.7194 65.1279 61.4959ZM116.716 70.8305C117.685 71.2654 118.321 71.9289 118.456 72.6452C118.553 73.1627 118.434 76.2688 118.282 77.1744C118.206 77.631 118.327 77.5318 120.09 75.6993C122.006 73.707 123.534 72.3599 124.346 71.9465C125.241 71.4916 126.467 71.7263 127.232 72.4992C127.967 73.2406 127.959 73.3123 127.077 73.8594C125.929 74.5716 123.924 76.085 122.233 77.5163L120.771 78.7536L121 79.1182C123.699 83.4097 125.444 85.7135 127.091 87.1596C127.605 87.6107 128.025 88.0262 128.025 88.0829C128.025 88.3044 126.173 88.7849 125.319 88.7849C123.989 88.7849 123.232 88.4643 122.22 87.4714C121.42 86.6867 120.178 84.9458 119.564 83.7486C119.426 83.4796 118.991 82.7559 118.598 82.1404L117.884 81.0213L117.791 81.8606C117.74 82.3222 117.651 83.9185 117.594 85.4077L117.489 88.1156L116.8 88.0243C115.453 87.8455 113.963 87.1325 113.52 86.4538C113.156 85.8976 113.193 82.6682 113.593 80.112C113.978 77.6463 115.016 70.5727 115.016 70.4108C115.016 70.2228 115.785 70.4127 116.716 70.8305ZM50.3848 71.5208C51.747 71.9254 52.7139 72.7391 53.0529 73.7664C53.244 74.3451 53.1673 75.8461 52.836 78.0138C52.4374 80.6232 52.2769 84.1594 52.4659 86.1724C52.561 87.1862 52.675 88.1888 52.7191 88.4003C52.7893 88.7365 52.7566 88.7849 52.4588 88.7849C52.2715 88.7849 51.7861 88.6863 51.3801 88.5657C50.0495 88.1706 48.9923 86.9063 48.7357 85.4031L48.637 84.8244L48.0507 85.6009C46.833 87.2135 45.5149 87.948 43.8476 87.9426C39.4694 87.9283 37.971 81.6441 41.108 76.4531C42.4002 74.3149 43.8274 72.9106 45.5627 72.0697C47.1331 71.309 48.9679 71.1001 50.3848 71.5208ZM75.4484 71.8812C75.9595 72.1149 76.6205 72.555 76.9172 72.8591L77.4566 73.4119L77.4334 74.5589C77.4207 75.1896 77.1896 77.2164 76.9199 79.0629C76.2936 83.349 76.256 83.7174 76.383 84.3086C76.6325 85.469 78.0448 85.3031 79.0815 83.9916C79.8191 83.0586 80.7852 81.0393 81.223 79.5156C81.7205 77.7843 81.9763 76.1765 82.1519 73.6774C82.2355 72.4859 82.3273 71.4877 82.3558 71.4591C82.4378 71.3773 84.394 71.9997 84.9561 72.2864C85.2359 72.4292 85.6301 72.7424 85.8321 72.9825C86.1828 73.3992 86.1995 73.4934 86.1995 75.0528C86.1995 78.4611 85.2071 84.6509 83.9418 89.1347C82.3382 94.8175 79.6276 99.0177 76.69 100.372C75.8016 100.781 74.1528 100.936 73.257 100.694C72.4322 100.471 71.6183 99.8085 71.2264 99.0412C70.928 98.4572 70.882 98.1792 70.882 96.9607C70.882 95.6066 70.9024 95.5129 71.4299 94.4458C72.7268 91.8227 75.8209 89.7867 79.132 89.3775L79.9681 89.2741L80.3317 87.8056C80.9645 85.2498 80.982 85.3875 80.129 86.1979C79.7236 86.583 79.0194 87.0866 78.5641 87.3168C77.8174 87.6945 77.6063 87.7354 76.4075 87.735C75.2349 87.7345 74.9942 87.6901 74.3619 87.3571C73.9677 87.1495 73.396 86.6966 73.0915 86.3507C71.8935 84.9897 71.8068 83.5514 72.6199 78.5336C72.9219 76.6704 73.2698 74.4222 73.3931 73.5374C73.7217 71.1792 73.6954 71.2557 74.1405 71.364C74.3486 71.4147 74.9373 71.6474 75.4484 71.8812ZM100.835 72.0713C101.752 72.5198 102.259 73.1485 102.366 73.9698C102.416 74.3563 102.257 75.8395 101.941 77.9438C101.364 81.7767 101.18 84.2289 101.432 84.7003C101.937 85.644 103.877 84.2321 104.732 82.2983C105.271 81.0791 105.592 79.6066 106.135 75.8455C106.413 73.9221 106.671 72.1439 106.708 71.8938C106.789 71.3482 106.939 71.3299 108.183 71.7141C109.168 72.0184 109.893 72.4904 110.282 73.08C110.636 73.6166 110.615 74.7515 110.196 77.735C109.607 81.9252 109.392 84.4818 109.443 86.7032L109.49 88.7852L109.071 88.7842C107.425 88.7808 105.81 87.4637 105.441 85.824L105.279 85.1055L104.758 85.8148C103.647 87.3289 102.616 87.9377 101.155 87.9426C99.879 87.9468 98.7143 87.369 97.9599 86.3581C97.6642 85.9618 97.3776 85.4901 97.3229 85.3098C97.2293 85.0019 97.1943 85.0252 96.744 85.6938C96.172 86.5431 95.1177 87.4092 94.2542 87.7389C92.4432 88.4305 89.9495 87.4488 89.0604 85.6943C88.3796 84.3509 88.4108 83.7955 89.5665 76.6848C89.9541 74.2998 90.3036 72.1365 90.343 71.8774C90.4141 71.4114 90.4209 71.4074 90.9926 71.4987C91.8213 71.6313 93.2522 72.351 93.667 72.8441C94.2584 73.5469 94.2605 74.0095 93.6902 77.873C93.4005 79.8353 93.1305 82.1061 93.0901 82.9191C92.9861 85.0108 93.2353 85.3494 94.4296 84.74C95.5017 84.1931 96.5928 82.6626 96.9495 81.2051C97.2599 79.9372 98.2202 74.4773 98.3801 73.0712C98.4691 72.2889 98.5623 71.575 98.5872 71.4846C98.6473 71.2662 99.8099 71.5695 100.835 72.0713ZM131.374 71.7056C132.97 72.2021 133.751 73.1492 133.757 74.5937C133.759 74.9824 133.534 76.6191 133.258 78.2307C132.548 82.3667 132.547 84.4204 133.257 84.9028C133.484 85.0576 134.173 84.8765 134.756 84.5085C135.391 84.107 136.512 82.4561 137.089 81.0691C137.897 79.1289 138.58 76.3438 138.937 73.5374C139.021 72.8835 139.121 72.1373 139.161 71.8792L139.234 71.41L139.89 71.5078C141.12 71.6913 142.215 72.3331 142.725 73.169C143.122 73.8203 143.068 74.9931 142.487 78.365C142.014 81.1119 141.978 81.5308 141.93 84.8681L141.879 88.4352L141.315 88.3975C139.459 88.2732 137.773 86.8955 137.464 85.2509L137.368 84.7375L136.773 85.5456C136.056 86.5194 135.339 87.1333 134.352 87.6187C133.701 87.9391 133.488 87.9739 132.528 87.9184C131.672 87.8688 131.284 87.7697 130.699 87.4511C129.727 86.9224 128.814 85.8906 128.438 84.8964C127.979 83.684 128.114 81.7186 128.931 77.734C129.488 75.0156 129.973 72.192 129.981 71.614C129.985 71.3698 130.378 71.3956 131.374 71.7056ZM148.385 71.8732C149.271 72.2047 150.034 72.8123 150.363 73.4478C150.554 73.8166 150.568 74.1775 150.462 76.0498C150.243 79.9647 150.317 80.3941 151.216 80.3887C152.641 80.3803 154.09 79.0128 154.917 76.8947C155.168 76.2522 155.347 75.3348 155.527 73.7681L155.781 71.5508L156.471 71.6422C157.22 71.7416 158.267 72.2198 158.764 72.6897C159.714 73.5883 159.746 74.4349 158.995 78.7831C158.48 81.7691 158.464 81.9636 158.457 85.3226C158.449 89.2881 158.588 88.9693 157.046 88.5678C155.868 88.2612 155.07 87.7502 154.593 86.9968C154.226 86.4188 154.184 86.233 154.184 85.2007C154.184 84.5673 154.242 83.5882 154.313 83.0247C154.384 82.4614 154.477 81.7023 154.52 81.3379L154.598 80.6752L153.72 81.5705C152.99 82.3151 152.703 82.506 152.018 82.7052C151.357 82.8974 151.068 82.916 150.556 82.7988C150.205 82.7185 149.901 82.6693 149.881 82.6892C149.754 82.817 149.534 85.3752 149.517 86.9315C149.495 89.0303 149.566 88.9355 148.299 88.5595C146.46 88.0139 145.462 87.1792 145.292 86.0444C145.144 85.0605 145.322 83.2078 145.927 79.4126C146.227 77.5277 146.572 75.23 146.693 74.3068C147.056 71.5366 147.046 71.579 147.336 71.579C147.481 71.579 147.952 71.7114 148.385 71.8732ZM46.9316 73.6727C45.3439 74.6407 43.9402 78.5659 43.9034 82.1404C43.8899 83.445 43.9388 83.9358 44.1226 84.3433C44.8493 85.9537 46.3835 84.957 47.4551 82.1784C48.6437 79.0962 49.3435 74.3706 48.7223 73.6221C48.461 73.3072 47.486 73.3347 46.9316 73.6727ZM61.8974 74.1129C61.2341 74.3679 61.1514 74.4485 61.0083 74.9799C60.2132 77.9325 59.7797 82.873 60.1869 84.3395C60.5817 85.7608 62.2955 85.5616 63.3928 83.9666C63.9493 83.1578 64.5694 81.5782 64.8711 80.2006C65.0569 79.3523 65.0969 78.6788 65.0457 77.263C64.9784 75.4003 64.7954 74.6364 64.2804 74.0672C63.9723 73.7268 62.8456 73.7485 61.8974 74.1129ZM78.8887 91.245C76.5602 92.0605 74.5639 93.8968 73.8748 95.8571C73.1018 98.0566 74.2225 99.4585 75.8254 98.2974C76.5686 97.759 77.2001 96.8821 77.9896 95.2923C78.6088 94.0453 79.5507 91.4117 79.4606 91.179C79.4356 91.1139 79.1782 91.1437 78.8887 91.245Z" fill="#015A95"/>
<path fill-rule="evenodd" clip-rule="evenodd" d="M88.7175 20.0504C86.9071 20.3148 85.2363 20.984 84.1671 21.873C83.3112 22.5848 82.4929 23.8321 82.1312 24.9762C81.7362 26.2258 81.7292 28.0877 82.1149 29.2987C82.2681 29.7796 82.3527 30.1728 82.303 30.1727C82.2534 30.1724 81.9925 29.9804 81.7232 29.7459C79.2083 27.5552 77.6921 26.9618 75.8293 27.4391C74.2455 27.8447 72.931 28.875 71.7161 30.6626C70.3018 32.7434 69.0734 36.1516 68.5026 39.5782C68.4608 39.8294 68.3695 40.3543 68.2996 40.7447C68.23 41.1351 68.134 41.9849 68.0866 42.6332C67.9906 43.9458 68.1539 44.4799 68.6743 44.5549C69.0836 44.6138 69.3112 44.1278 69.6122 42.5529C70.1148 39.9226 71.3827 35.9455 72.3443 33.9833C74.1625 30.2731 76.5041 29.2552 77.7332 31.6407C78.107 32.366 78.1494 32.5797 78.1462 33.724C78.1388 36.3204 77.3191 37.8878 74.8173 40.0886C73.0973 41.6018 72.312 42.544 71.7143 43.8118C71.3871 44.5059 71.3082 44.8871 71.2589 46.0147C71.2098 47.1373 71.2417 47.4431 71.4394 47.7449C71.6502 48.0666 71.7481 48.1023 72.2401 48.0362C72.5564 47.9938 73.0229 47.7853 73.3102 47.5578C75.0588 46.1741 76.9643 45.7825 78.9558 46.3976C80.2596 46.8003 81.3626 47.5826 82.6241 48.9993C85.0763 51.753 86.7651 53.2937 88.8574 54.6856C91.9916 56.7707 93.9089 57.4507 96.6536 57.4507C102.264 57.4507 106.423 54.7037 109.01 49.2896C110.084 47.0404 110.445 45.5001 110.457 43.1124C110.465 41.4585 110.415 40.9691 110.135 39.965C109.234 36.7363 107.348 34.4829 104.358 33.0599L103.141 32.4811L103.219 31.9076C103.311 31.2395 103.178 30.9414 102.352 29.9632C102.027 29.5785 101.622 28.9872 101.451 28.6492C100.074 25.9203 96.6648 22.4689 94.0496 21.1554C92.3366 20.295 90.1485 19.8416 88.7175 20.0504ZM91.5478 23.4491C93.7748 24.303 96.4736 27.0562 97.7303 29.7563C98.2301 30.8299 98.2132 30.8822 97.4406 30.6497C96.052 30.2317 93.7983 30.1295 91.2532 30.3691C89.9468 30.4921 88.3413 30.5926 87.6857 30.5926C86.4946 30.5926 86.4932 30.5922 86.1313 30.1177C85.5309 29.3305 85.1799 28.1364 85.258 27.146C85.392 25.4426 86.58 23.7553 87.9887 23.2675C88.8764 22.9602 90.4872 23.0423 91.5478 23.4491Z" fill="#EF1A30"/>
</svg>
