<svg width="180" height="140" viewBox="0 0 180 140" fill="none" xmlns="http://www.w3.org/2000/svg">
<path fill-rule="evenodd" clip-rule="evenodd" d="M76.8126 30.6878L75.3951 31.6503L72.9364 31.6552C67.4538 31.6658 64.5212 32.6433 61.7398 35.3874C59.8868 37.2158 58.9453 38.7871 58.3627 41.0241C57.2912 45.138 58.8821 50.3407 62.3295 53.9962C65.9094 57.7922 70.0961 58.4572 76.4986 56.2466C77.8599 55.7764 79.1126 55.3919 79.2827 55.3919C79.4525 55.3919 80.0928 55.7744 80.7052 56.2422C81.3177 56.7098 81.8608 57.0504 81.9124 56.9988C82.004 56.9072 80.0269 49.951 79.5608 48.7251C79.3505 48.1723 79.265 48.1359 78.7773 48.3918C78.1544 48.7188 73.7749 51.6792 71.8811 53.0533L70.6199 53.9686L69.5796 52.586C68.0614 50.5675 62.9821 44.2159 62.3874 43.5918C62.1068 43.2975 61.8774 42.9697 61.8774 42.8631C61.8774 42.7565 63.2871 41.2572 65.0101 39.5313L68.1428 36.3931L70.2793 36.451C74.3582 36.5609 74.7342 36.6576 76.6287 38.0828L78.3512 39.3787V35.6694C78.3512 33.6293 78.4204 31.4543 78.5052 30.8363C78.59 30.2181 78.5627 29.7151 78.4447 29.7188C78.3267 29.7224 77.5922 30.1585 76.8126 30.6878ZM108.727 30.3942C108.794 30.5027 109.077 31.9246 109.354 33.5535L109.86 36.5152L106.723 42.8648C103.31 49.7734 99.5003 58.4521 99.7644 58.7162C99.8145 58.7663 100.336 58.3933 100.922 57.8869C101.509 57.3809 103.185 56.0768 104.645 54.989L107.301 53.0117L110.355 52.8385L113.409 52.6655L113.818 55.3006C114.203 57.7745 114.293 58.017 115.279 59.2681C115.857 60.0009 116.494 60.6005 116.694 60.6005C116.895 60.6005 117.916 59.7824 118.964 58.7826C120.011 57.7825 121.162 56.7357 121.521 56.4561L122.175 55.9479L120.948 52.4598C120.273 50.5416 119.243 47.885 118.659 46.5561C118.075 45.2276 117.597 44.0105 117.597 43.8515C117.597 43.5322 119.364 37.874 119.914 36.4301C120.106 35.9277 120.262 35.4264 120.262 35.316C120.262 35.0652 116.297 33.1904 112.165 31.4873C109.026 30.1938 108.5 30.0264 108.727 30.3942ZM112.39 45.7884C112.738 47.7682 112.987 49.424 112.943 49.4679C112.899 49.5115 111.902 49.2593 110.728 48.9073C108.189 48.1459 108.237 48.5517 110.12 43.7406C111.584 39.9977 111.334 39.7719 112.39 45.7884ZM152.483 44.3591C152.483 46.1651 152.457 46.2415 150.823 49.2787C149.909 50.9755 147.951 54.7075 146.472 57.5722C144.074 62.2132 143.609 62.9516 142.197 64.3485C141.325 65.2107 140.612 65.9838 140.612 66.0666C140.612 66.1492 141.076 66.352 141.642 66.5172C143.394 67.0282 148.581 68.9357 149.526 69.4166C151.806 70.5768 153.582 70.4947 156.533 69.0932C161.133 66.909 163.975 61.5758 162.872 57.197C162.528 55.8297 161.019 54.0982 159.503 53.3298C158.357 52.7491 155.319 52.108 154.91 52.361C154.793 52.4334 154.644 52.407 154.579 52.3026C154.515 52.1979 155.704 51.4057 157.221 50.5421C158.739 49.6787 159.979 48.863 159.977 48.7297C159.973 48.5282 154.421 43.8857 152.934 42.8411C152.506 42.5409 152.483 42.6187 152.483 44.3591ZM25.3498 43.51C24.8037 43.9056 23.5055 45.0064 22.4645 45.9566C21.4235 46.9067 19.0457 48.7157 17.1803 49.9766C8.67353 55.7272 5.08952 58.2324 5.00424 58.488C4.94101 58.6774 5.58252 58.7862 7.04893 58.8344L9.18567 58.9047L10.7822 61.8348C11.6601 63.4463 13.799 67.5345 15.5353 70.9196C17.2716 74.3047 18.9347 77.4827 19.2315 77.9818L19.7705 78.889L20.6759 78.1029C21.1737 77.6704 22.4441 76.5531 23.4989 75.62C24.554 74.687 25.7149 73.7058 26.0788 73.4396L26.7406 72.9558L24.0661 69.6853C21.1732 66.1478 18.1358 62.6289 14.912 59.0808C13.7894 57.8453 12.9138 56.806 12.9664 56.7708C13.019 56.736 13.5524 56.3224 14.152 55.8519C16.1882 54.254 19.842 51.8408 20.6402 51.5663L21.4353 51.2933L22.0037 52.5553C22.5762 53.8262 25.4077 60.4307 28.2494 67.1224C29.0937 69.1106 29.9041 70.7772 30.0501 70.8258C30.1965 70.8745 31.1217 70.3811 32.1062 69.7289C34.9404 67.8521 36.7257 66.7464 37.215 66.5654C37.6121 66.4186 37.3994 66.0133 35.4785 63.2571C32.8095 59.4267 31.5204 57.6694 28.1031 53.2023L25.4593 49.7462L25.962 46.3308C26.2384 44.4524 26.4371 42.8873 26.4034 42.8532C26.37 42.819 25.8956 43.1146 25.3498 43.51ZM168.01 56.6638C168.358 58.4638 168.294 58.611 165.989 61.3258C163.308 64.4837 155.395 74.3587 155.407 74.5305C155.412 74.5971 156.743 75.6512 158.364 76.8727L161.313 79.0937L162.002 77.8417C162.382 77.1532 163.687 74.6819 164.903 72.3502C169.473 63.5847 170.056 62.4855 170.41 61.969C170.707 61.5368 171.164 61.3898 172.893 61.1693C174.059 61.0208 175.007 60.8321 175 60.75C174.975 60.4663 168.362 55.6342 167.999 55.6342C167.895 55.6342 167.9 56.0974 168.01 56.6638ZM157.485 58.3358C157.692 58.5028 157.683 58.8763 157.446 59.8219C157.273 60.5167 156.934 61.9843 156.693 63.0837C156.286 64.9447 156.213 65.0826 155.641 65.0855C154.34 65.0925 148.123 64.5019 148.125 64.3715C148.127 64.2504 151.823 58.9953 153.371 56.913L153.951 56.1325L155.579 57.1228C156.475 57.6677 157.332 58.2135 157.485 58.3358ZM45.6256 87.9559C45.5699 88.0116 43.9438 88.5136 42.0118 89.0717C40.08 89.6299 38.4813 90.1021 38.4595 90.1214C38.3275 90.238 36.925 99.4206 36.9267 100.158C36.9291 101.242 38.555 109.694 38.8064 109.931C39.0518 110.162 45.0674 111.354 45.9875 111.354C46.3994 111.354 48.6856 110.725 51.068 109.957L55.3996 108.559L56.4353 105.407C57.0048 103.673 57.5085 102.079 57.5545 101.864C57.6003 101.649 57.2015 100.998 56.6683 100.417C55.1188 98.7309 50.4132 93.5548 50.3594 93.478C50.2719 93.3522 45.1239 91.9297 45.0592 92.0133C44.5691 92.6482 40.2958 100.504 40.3552 100.661C40.4005 100.78 41.6314 102.148 43.0908 103.7L45.7441 106.524L48.3653 103.912C49.807 102.476 50.9568 101.189 50.9204 101.052C50.8298 100.711 46.1283 96.4978 45.9912 96.6346C45.9306 96.6952 45.6183 97.4157 45.2971 98.2352C44.6975 99.7649 44.8184 100.061 45.7528 99.3545C46.4922 98.7954 46.6896 98.9112 47.4382 100.344L48.1405 101.688L47.3171 102.543C45.8964 104.02 45.8637 104.013 44.665 101.976C44.072 100.968 43.618 99.9674 43.6562 99.7525C43.969 97.9983 44.8026 95.3606 45.0192 95.4398C45.1641 95.4929 46.2051 95.8412 47.3326 96.2143C49.5403 96.9447 49.5846 96.982 51.5535 99.769L52.8677 101.629L49.7978 104.493C48.1092 106.068 46.4883 107.561 46.1956 107.81C45.6675 108.26 45.6515 108.255 43.9547 106.997C42.4319 105.868 42.0896 105.452 40.8133 103.182L39.3808 100.633L40.7796 96.606L42.1782 92.5789L44.2936 91.3989L46.4091 90.2188L49.2956 91.3841L52.1824 92.5491L54.8778 96.0767L57.5732 99.6045L57.4615 96.5307C57.335 93.0429 57.4109 93.2209 54.9255 90.5958L53.2772 88.8551L49.7644 88.3546C46.0256 87.8217 45.7831 87.7984 45.6256 87.9559ZM82.2273 88.8547C78.0282 90.0977 77.8666 90.1684 77.8666 90.7583C77.8666 91.0285 77.5362 93.2684 77.1321 95.7358L76.3978 100.222L77.2821 104.88C77.7685 107.441 78.2899 109.664 78.4406 109.819C78.8369 110.227 85.0805 111.425 86.0943 111.288C87.3233 111.121 94.7971 108.688 94.9775 108.396C95.1672 108.089 97.2475 101.897 97.2475 101.639C97.2475 101.535 96.5115 100.649 95.6123 99.6706C94.713 98.6919 93.0324 96.8594 91.8778 95.5985L89.7784 93.3057L87.7594 92.7703C86.6488 92.476 85.5126 92.1681 85.2345 92.0862C84.7895 91.9554 84.4411 92.4396 82.3274 96.1305C81.0066 98.4366 79.8912 100.402 79.8486 100.498C79.8062 100.595 81.025 101.959 82.5573 103.531L85.3431 106.388L87.9912 103.844C89.4479 102.445 90.6546 101.233 90.673 101.15C90.7406 100.848 85.8 96.5406 85.61 96.7369C85.3465 97.0089 84.3944 99.551 84.5121 99.6685C84.5632 99.7196 84.9547 99.5805 85.3821 99.3596C86.2523 98.9095 86.2704 98.9211 87.1714 100.49L87.819 101.619L86.6963 102.671C86.079 103.25 85.5313 103.723 85.4792 103.723C85.4271 103.723 84.8835 102.918 84.2713 101.934L83.1581 100.145L83.6935 97.9368C83.9879 96.7221 84.3047 95.6438 84.3973 95.5403C84.595 95.3196 88.7066 96.7439 89.2842 97.233C89.5012 97.4169 90.3189 98.5008 91.1011 99.6416L92.5234 101.716L91.3688 102.762C90.7338 103.338 89.1722 104.77 87.8984 105.946C86.6246 107.122 85.5015 108.113 85.4022 108.15C85.1117 108.256 82.0754 105.865 81.5631 105.125C81.3055 104.754 80.6248 103.589 80.0504 102.538L79.006 100.626L79.5385 99.1461C79.8314 98.3324 80.4688 96.4992 80.9552 95.0728L81.8395 92.4791L83.9016 91.3764C86.2469 90.1222 85.9141 90.1035 89.6645 91.6976L91.7966 92.6041L94.4579 96.0273C95.9216 97.9099 97.1569 99.4124 97.2029 99.3664C97.2492 99.3201 97.2097 97.9268 97.1155 96.2703L96.944 93.2585L95.0505 91.1062L93.1569 88.954L89.6907 88.4123C87.7843 88.1143 86.0611 87.8742 85.8613 87.8786C85.6614 87.883 84.0261 88.3222 82.2273 88.8547ZM127.167 88.5029C126.101 88.8353 124.444 89.3266 123.486 89.595C121.967 90.0207 121.726 90.1655 121.608 90.7254C121.533 91.0786 121.152 93.4046 120.76 95.894L120.049 100.42L120.611 103.283C120.92 104.857 121.313 106.909 121.485 107.841C121.656 108.774 121.914 109.663 122.059 109.816C122.203 109.969 123.861 110.408 125.743 110.792L129.164 111.49L130.951 110.991C131.934 110.718 134.069 110.067 135.696 109.547L138.654 108.6L139.774 105.216C140.536 102.917 140.831 101.693 140.693 101.399C140.582 101.161 138.894 99.2421 136.942 97.1356L133.393 93.3057L130.911 92.6349C129.545 92.2657 128.403 91.9932 128.374 92.0292C128.306 92.1111 126.674 94.9691 124.854 98.1958L123.463 100.663L126.123 103.465C127.586 105.006 128.881 106.267 129.001 106.267C129.121 106.267 130.393 105.112 131.827 103.7L134.435 101.134L132.012 98.8634C130.68 97.6143 129.493 96.6211 129.375 96.656C129.177 96.7143 128.556 98.119 128.151 99.4245L127.981 99.9715L128.838 99.4659C129.309 99.1878 129.809 99.0313 129.949 99.1178C130.09 99.2045 130.47 99.801 130.796 100.443C131.456 101.746 131.49 101.652 129.812 103.177L129.079 103.843L127.934 101.949L126.79 100.055L127.393 97.7997C127.725 96.5595 128.039 95.5018 128.092 95.4492C128.252 95.2894 132.47 96.8427 132.891 97.217C133.108 97.4096 133.926 98.5 134.708 99.6399L136.13 101.712L134.071 103.631C132.939 104.686 131.334 106.157 130.506 106.899L129 108.25L128.205 107.695C125.98 106.146 125.333 105.43 123.999 103.043L122.627 100.586L123.171 99.1263C123.47 98.3234 124.108 96.4965 124.588 95.067L125.461 92.4675L127.646 91.3422L129.832 90.2169L132.447 91.3374C133.885 91.9537 135.139 92.4605 135.233 92.4639C135.327 92.4673 135.949 93.1967 136.615 94.0851C137.281 94.9732 138.508 96.5612 139.34 97.6138L140.854 99.5277L140.828 97.7493C140.767 93.6132 140.697 93.4009 138.588 90.9953C137.1 89.298 136.544 88.8229 136.044 88.8195C135.692 88.8169 134.531 88.664 133.466 88.4796C129.839 87.8519 129.248 87.8544 127.167 88.5029Z" fill="#3B9B37"/>
<path fill-rule="evenodd" clip-rule="evenodd" d="M80.0491 29.0454C80.0501 29.0786 80.3771 30.7866 80.7759 32.8404C81.1744 34.8943 81.5007 36.8293 81.5007 37.1406C81.5007 37.4516 81.6182 37.7063 81.7621 37.7063C81.9058 37.7063 83.4594 37.1692 85.2144 36.5126C86.9693 35.8564 88.7175 35.2417 89.099 35.147L89.7929 34.975L89.6417 36.4012C89.5586 37.1856 89.2684 40.9887 88.9968 44.8522L88.5028 51.8771L87.6668 53.0913C87.2067 53.759 86.8305 54.4274 86.8305 54.5766C86.8305 54.7258 87.8933 55.1381 89.1925 55.4928L91.5546 56.1377L93.0081 55.6646C93.8076 55.4044 95.2672 54.9548 96.2518 54.6655L98.0418 54.1395L96.8114 52.9474C95.3699 51.5505 95.5056 52.2359 94.9467 43.5205C94.7289 40.1228 94.4864 36.7544 94.4082 36.0354C94.2662 34.734 94.2684 34.7284 94.8743 34.8805C95.2091 34.9646 96.651 35.2069 98.0784 35.4188C99.5058 35.6311 101.211 35.9438 101.868 36.1144L103.062 36.424V35.7127C103.062 35.3214 103.396 34.2414 103.803 33.3129C104.246 32.3031 104.514 31.3229 104.469 30.8752L104.394 30.1264L101.972 30.2214C100.639 30.2735 96.6602 30.2805 93.1293 30.2371C87.6244 30.169 86.2462 30.0743 83.4599 29.5714C79.9898 28.9451 80.0462 28.9536 80.0491 29.0454ZM126.767 34.4963C127.141 35.1293 127.961 36.6444 128.59 37.8635L129.734 40.0797L128.174 45.1313C127.317 47.9096 126.207 51.5999 125.709 53.3321C125.21 55.0643 124.718 56.645 124.614 56.8449C124.51 57.0447 123.598 57.5225 122.586 57.9065C121.575 58.2907 120.747 58.6839 120.747 58.7805C120.747 58.8772 121.864 59.2561 123.23 59.6229C126.396 60.473 132.394 62.468 134.983 63.532C136.084 63.9848 137.337 64.3545 137.769 64.3537C139.48 64.3511 141.269 62.6199 142.748 59.5352C144.344 56.2048 143.976 53.7081 141.671 52.2465L140.517 51.5151H141.425C142.423 51.5151 143.417 51.0863 144.056 50.3799C144.56 49.8239 146.549 45.3695 146.727 44.399C147.052 42.6341 145.978 41.1844 143.604 40.1848C142.825 39.8566 140.334 38.7676 138.069 37.7651C131.997 35.0777 127.403 33.3456 126.349 33.3456C126.206 33.3456 126.395 33.8633 126.767 34.4963ZM46.7363 36.046C41.1992 37.0626 38.897 37.5706 38.3783 37.8906C36.7813 38.8761 30.6259 43.6722 30.6259 43.9312C30.6259 44.093 31.3467 46.7104 32.2273 49.7478C33.333 53.561 34.0261 55.5325 34.4663 56.1181C35.8716 57.9874 38.7914 62.1257 39.4721 63.2139C40.1555 64.3058 40.242 64.362 41.0432 64.2343C41.5095 64.1602 43.3437 63.8501 45.1192 63.5453L48.3473 62.9915L50.6912 61.1697C51.9803 60.1677 53.8801 58.7626 54.9126 58.0467C56.6499 56.8429 56.7909 56.6813 56.7986 55.8867C56.8035 55.4143 56.9113 53.5562 57.0384 51.7574C57.2667 48.5324 57.2623 48.4806 56.7286 48.0368C55.98 47.4141 51.3596 44.6839 48.3907 43.1096L45.9269 41.8031L42.6976 42.088C40.9216 42.2448 39.389 42.4437 39.2919 42.5299C39.0869 42.7119 37.9834 49.5945 37.7443 52.1797L37.5822 53.9344L38.7676 54.4424C39.4195 54.7219 41.2825 55.5858 42.9076 56.3623C45.04 57.381 45.9211 57.6952 46.074 57.491C46.1902 57.3355 46.5934 56.4997 46.9701 55.6336C47.3466 54.7675 48.1271 53.1356 48.7049 52.0069C49.2825 50.8785 49.6754 49.8775 49.578 49.7825C49.3515 49.5615 43.5569 47.2472 42.6772 47.0265L42.0122 46.8596L42.0226 49.1269L42.0328 51.394L42.9493 50.3508L43.8655 49.3079L45.2244 50.4502L46.583 51.5927L45.8436 53.068C45.4368 53.8794 45.0664 54.5851 45.0201 54.6359C44.8479 54.8256 41.2256 51.8732 41.0504 51.4008C40.9504 51.1304 40.7946 50.2009 40.704 49.3348C40.6134 48.4687 40.477 47.4057 40.4009 46.9727L40.2624 46.1854H43.4549H46.6474L48.9932 47.9115C50.2835 48.8609 51.432 49.7224 51.5457 49.8258C51.659 49.9293 51.3165 50.7605 50.7845 51.6731C50.2522 52.5854 49.1357 54.6403 48.303 56.2392C47.4704 57.8381 46.7092 59.2362 46.6115 59.346C46.5137 59.456 45.3901 59.2195 44.1146 58.821C42.1438 58.2049 41.5076 57.8655 39.8796 56.5619C38.826 55.7181 37.684 54.8099 37.3419 54.5434C36.7309 54.0676 36.7145 53.9721 36.4342 49.2703L36.1483 44.4821L37.0602 43.4561C37.5616 42.8919 38.4643 41.8962 39.0666 41.2435L40.1611 40.0567L44.0259 40.2161L47.8907 40.3752L51.0607 42.4868C52.8042 43.6482 54.7081 44.9629 55.292 45.4085C55.8756 45.854 56.4083 46.1633 56.4757 46.096C56.543 46.0287 56.0963 44.4678 55.4827 42.6273L54.367 39.281L51.5207 37.6556C49.9552 36.7619 48.5109 35.984 48.311 35.9271C48.1111 35.8702 47.4025 35.9237 46.7363 36.046ZM140.087 44.9457C140.797 46.3167 141.325 47.4912 141.261 47.5556C141.197 47.6201 140.526 47.834 139.771 48.0312C138.435 48.38 138.346 48.3716 136.478 47.7116C134.287 46.9379 134.25 46.8594 135.112 44.7708C135.597 43.5968 135.769 43.4246 136.979 42.9037C137.711 42.5881 138.42 42.3574 138.553 42.3913C138.686 42.4253 139.377 43.5748 140.087 44.9457ZM135.162 50.5226L136.373 50.9095L136.494 54.0589C136.561 55.791 136.602 57.2398 136.585 57.2783C136.539 57.3883 129.599 58.9838 129.514 58.9041C129.472 58.8651 129.874 57.4319 130.408 55.7191C130.941 54.0065 131.552 51.9742 131.765 51.2031L132.152 49.8009L133.051 49.9683C133.546 50.0606 134.495 50.3099 135.162 50.5226ZM105.368 84.4762C105.565 85.0353 105.727 85.7241 105.728 86.0073C105.73 87.1873 102.149 98.6911 100.754 101.986L99.8474 104.126L98.4014 103.958L96.9553 103.79L97.0878 104.483C97.161 104.864 97.3519 106.511 97.5123 108.144L97.8039 111.111H99.5533H101.302L100.981 109.727C100.649 108.298 100.818 107.81 101.552 108.08C101.721 108.142 105.128 108.201 109.123 108.211C113.118 108.222 116.386 108.287 116.386 108.355C116.386 108.424 116.049 108.971 115.636 109.571C115.224 110.17 114.943 110.718 115.013 110.788C115.194 110.969 119.067 111.418 119.21 111.275C119.275 111.21 119.391 109.514 119.469 107.505L119.609 103.852L118.325 103.909L117.04 103.965L115.505 98.0292C114.661 94.7648 113.682 90.9409 113.33 89.5317L112.689 86.9698L109.187 85.2921C104.747 83.1653 104.919 83.2019 105.368 84.4762ZM58.486 85.4254C58.486 85.5552 58.813 86.4845 59.2127 87.4909L59.9395 89.3204V97.8294V106.338L59.1628 107.867C58.7355 108.708 58.4358 109.441 58.4966 109.497C58.6044 109.595 66.4978 108.025 66.647 107.876C66.6884 107.835 66.1075 106.624 65.356 105.185C64.6047 103.746 64.087 102.615 64.2057 102.672C66.2385 103.639 67.0826 103.915 68.323 104.021C70.952 104.244 72.8954 103.167 74.1673 100.781C75.1128 99.0065 75.4733 97.4718 75.4837 95.1761C75.4907 93.6516 75.3764 93.1702 74.6394 91.6183C73.7334 89.7107 72.1691 87.8099 71.013 87.2123C70.4004 86.8954 60.2373 85.1894 58.9625 85.1894C58.7004 85.1894 58.486 85.2955 58.486 85.4254ZM140.612 85.5063C140.612 85.577 141.228 86.6405 141.98 87.8695L143.348 90.1044L142.975 97.897L142.602 105.69L141.587 107.709L140.571 109.729L142.227 109.571C143.138 109.485 145.108 109.288 146.605 109.135L149.326 108.856L148.634 107.622C148.035 106.555 147.894 105.915 147.594 102.912C147.365 100.622 147.334 99.5514 147.503 99.775C153.274 107.413 154.505 108.942 154.974 109.054C156.621 109.446 161.34 110.315 161.42 110.241C161.473 110.194 160.927 108.787 160.209 107.115L158.903 104.076L154.3 100.405C151.769 98.3861 149.643 96.6903 149.578 96.6367C149.512 96.5829 150.659 95.3639 152.126 93.9278L154.793 91.3164L157.272 91.1405C158.635 91.0439 159.751 90.9167 159.751 90.8578C159.751 90.799 159.129 89.569 158.368 88.1246L156.985 85.4988L155.643 85.8234C154.904 86.0019 153.89 86.219 153.388 86.3057C152.675 86.4293 152.443 86.5986 152.321 87.0849C152.235 87.4264 151.228 88.8538 150.083 90.2568L148.001 92.8073L147.934 89.7592L147.866 86.7113L145.148 86.2071C140.782 85.3975 140.612 85.3713 140.612 85.5063ZM20.6572 86.3401C20.9217 86.7064 21.6378 87.4923 22.2483 88.0864L23.3581 89.1664V97.2564V105.346L22.0155 108.38C21.2771 110.049 20.7163 111.457 20.7691 111.51C20.8924 111.634 31.3026 109.304 31.4969 109.11C31.5771 109.03 31.038 107.785 30.2991 106.343L28.9556 103.722L28.3303 97.0873C27.9865 93.4379 27.7355 90.4302 27.7726 90.4036C27.8097 90.3769 29.0183 90.6376 30.4588 90.9828L33.0776 91.6105L34.1789 92.9425C34.7846 93.6748 35.3057 94.302 35.337 94.3362C35.368 94.3704 35.9068 92.6484 36.5342 90.5097C37.1617 88.3708 37.7351 86.4647 37.8085 86.2735C37.9195 85.9843 37.6443 85.9487 36.1614 86.0596C29.9842 86.5223 28.2767 86.5308 25.0539 86.1151C23.2552 85.883 21.4217 85.6887 20.9796 85.6836L20.1758 85.6739L20.6572 86.3401ZM71.3115 93.4144C71.3035 93.6208 70.8815 94.9343 70.3735 96.3334L69.45 98.8771L67.399 98.9467L65.348 99.016L64.9422 94.7071C64.7188 92.3371 64.5376 90.2703 64.5393 90.1143C64.541 89.9586 66.0687 90.5528 67.9341 91.4351C70.1915 92.5028 71.3209 93.1646 71.3115 93.4144ZM109.589 97.6847C110.929 100.427 112.026 102.83 112.026 103.027C112.026 103.223 111.863 103.698 111.664 104.083C111.371 104.649 111.088 104.814 110.174 104.952C109.05 105.12 105.022 104.915 104.784 104.678C104.716 104.609 105.127 102.076 105.698 99.0501C106.779 93.3148 106.911 92.6995 107.061 92.6995C107.112 92.6995 108.249 94.9428 109.589 97.6847Z" fill="#F9AC02"/>
</svg>
