<svg width="180" height="140" viewBox="0 0 180 140" fill="none" xmlns="http://www.w3.org/2000/svg">
<path fill-rule="evenodd" clip-rule="evenodd" d="M67.6515 15.0715L46.4524 15.1093L45.6859 15.2903C44.2864 15.6209 43.4211 15.9316 42.2945 16.5079C39.8189 17.7742 37.8549 19.7083 36.5442 22.1708C35.8414 23.4912 35.45 24.6592 35.1723 26.2652L35 27.2616V63.1113V98.9611L83.6466 98.9599C115.104 98.9591 132.527 98.9345 132.955 98.8901C136.132 98.5605 139.106 97.1129 141.279 94.8383C143.119 92.9136 144.187 90.861 144.806 88.0613L144.96 87.3695L144.98 51.1847L145 15L116.925 15.0168C101.484 15.0261 79.3111 15.0507 67.6515 15.0715ZM66.2592 56.9109V86.4296H59.4018H52.5443L52.5268 64.2804L52.5093 42.1311L50.0331 44.2822C48.6712 45.4652 47.2248 46.723 46.8189 47.0772C46.4129 47.4313 46.0469 47.7212 46.0055 47.7212C45.9521 47.7212 45.9303 45.6137 45.9303 40.4505V33.1797L46.7135 32.4878C47.3424 31.9322 50.4172 29.259 52.2296 27.6922L52.5766 27.3923H59.4179H66.2592V56.9109ZM93.7014 43.9965C97.752 53.1097 101.086 60.613 101.109 60.6704C101.14 60.744 101.191 60.6927 101.284 60.4963C101.431 60.1863 103.162 56.2943 103.993 54.4046C104.288 53.7346 104.975 52.1838 105.52 50.9585C107.175 47.2399 108.653 43.9181 109.825 41.2814C110.438 39.9029 111.386 37.7725 111.932 36.5472C112.478 35.3219 113.215 33.6615 113.569 32.8574C113.923 32.0533 114.605 30.5182 115.084 29.446L115.955 27.4967L123.132 27.4789L130.309 27.4613V56.9454V86.4296H123.452H116.594V71.8095C116.594 63.7685 116.57 57.1894 116.54 57.1894C116.511 57.1894 116.035 58.1215 115.482 59.2606C114.93 60.3997 114.089 62.1307 113.614 63.1071C113.138 64.0835 112.538 65.321 112.279 65.857C112.021 66.3931 110.955 68.5861 109.911 70.7304C108.867 72.8747 107.785 75.099 107.508 75.6734C107.23 76.2478 106.667 77.4069 106.256 78.2493C105.845 79.0917 105.328 80.1569 105.106 80.6164C104.294 82.301 102.67 85.6397 102.481 86.0119L102.287 86.3948L101.156 86.4139L100.024 86.4331L99.8583 86.0659C99.767 85.8639 99.309 84.9154 98.8406 83.9581C98.3723 83.0009 97.7613 81.7477 97.4831 81.1733C97.2047 80.599 96.7114 79.5808 96.3867 78.9107C96.0619 78.2406 94.6602 75.3584 93.2718 72.5057C91.8834 69.6531 90.5511 66.9118 90.3112 66.414C90.0714 65.9162 89.4628 64.6631 88.9589 63.6292C88.455 62.5954 87.7389 61.1236 87.3676 60.3586C86.9963 59.5936 86.4831 58.5441 86.2272 58.0263L85.762 57.085L85.7573 71.7573L85.7526 86.4296H78.8951H72.0376V56.9106V27.3916L79.1871 27.4093L86.3366 27.4271L93.7014 43.9965ZM136.437 106.671C136.438 107.035 136.616 107.752 136.788 108.09C136.983 108.473 137.465 108.941 137.874 109.147C138.937 109.683 140.787 109.659 141.744 109.097C142.514 108.645 142.983 107.865 143.036 106.949L143.068 106.407L141.999 106.426L140.93 106.445L140.88 106.737C140.779 107.331 140.505 107.524 139.765 107.524C139.038 107.524 138.724 107.298 138.629 106.706L138.582 106.41H137.509H136.436L136.437 106.671ZM55.0504 110.351C54.3383 110.48 53.8117 110.645 53.2487 110.914C52.7075 111.173 52.4983 111.323 52.0264 111.794C51.4122 112.408 51.0847 112.948 50.7962 113.825C50.6415 114.295 50.635 114.411 50.6104 117.152C50.5838 120.132 50.6148 120.614 50.8847 121.399C51.1288 122.109 51.4236 122.565 52.0256 123.165C52.4936 123.632 52.7138 123.791 53.2548 124.054C54.1786 124.504 54.7119 124.611 56.0251 124.611C57.3318 124.611 57.874 124.503 58.769 124.066C60.1072 123.412 60.9362 122.393 61.3244 120.926C61.4556 120.431 61.4757 120.119 61.5069 118.102C61.5468 115.528 61.4757 114.465 61.211 113.677C60.6858 112.112 59.4078 110.949 57.7308 110.509C57.1904 110.367 55.5085 110.268 55.0504 110.351ZM80.8792 110.456C79.3736 110.767 78.0978 111.707 77.4823 112.957C76.9414 114.055 76.8988 114.422 76.928 117.722C76.9522 120.45 76.9604 120.601 77.111 121.099C77.3745 121.97 77.7109 122.535 78.3426 123.165C79.2985 124.12 80.3852 124.551 82.0365 124.632C83.2718 124.692 84.4927 124.446 85.3349 123.968C85.7979 123.705 86.452 123.174 86.712 122.85C87.0966 122.37 87.4802 121.581 87.6473 120.924C87.7999 120.325 87.8064 120.187 87.8064 117.515C87.8064 114.345 87.7756 114.09 87.265 113.024C87.0342 112.543 86.8703 112.322 86.3845 111.838C85.8914 111.347 85.6722 111.187 85.126 110.918C83.9198 110.325 82.3409 110.153 80.8792 110.456ZM35 117.479V124.442H36.6354H38.2709L38.2889 120.958L38.3069 117.473L38.7141 118.817C39.1626 120.297 40.3549 124.217 40.3984 124.355C40.419 124.42 40.7147 124.442 41.5642 124.442H42.7025L42.8776 123.833C42.9739 123.498 43.4574 121.898 43.952 120.279L44.8512 117.334L44.8692 120.888L44.8872 124.442H46.5227H48.1581V117.48V110.518H46.109C44.2177 110.518 44.0571 110.527 44.0238 110.64C43.9185 110.995 43.3782 112.977 43.0038 114.382C42.7691 115.263 42.5216 116.187 42.4537 116.436C42.3858 116.685 42.1615 117.523 41.9552 118.298C41.7488 119.073 41.5634 119.708 41.5431 119.708C41.5227 119.708 41.1326 118.306 40.6762 116.592C40.2199 114.879 39.6706 112.819 39.4557 112.015L39.065 110.553L37.0325 110.534L35 110.516V117.479ZM65.0547 115.165C65.0303 118.98 65.0056 119.915 64.9168 120.386C64.6994 121.538 64.2785 121.929 63.2481 121.934L62.9174 121.936V123.189V124.442H63.6025C65.1961 124.442 66.4001 123.83 67.2207 122.603C68.1468 121.218 68.4678 119.192 68.3991 115.165L68.3636 113.094H69.6784H70.9933V118.768V124.442H72.6293H74.2654V117.48V110.518H69.675H65.0845L65.0547 115.165ZM90.0174 113.146C90.0497 115.522 90.067 115.826 90.1984 116.317C90.7276 118.296 92.2402 119.358 94.6987 119.476C95.4496 119.513 96.8665 119.418 97.1381 119.314C97.2262 119.28 97.2398 119.621 97.2398 121.858V124.442H98.8759H100.512V117.48V110.518H98.8759H97.2398V113.609C97.2398 116.363 97.2279 116.704 97.1296 116.741C96.8774 116.838 95.6561 116.937 95.025 116.912C94.1677 116.877 93.7984 116.694 93.5413 116.177C93.3772 115.846 93.3758 115.824 93.3554 113.181L93.3349 110.518H91.6584H89.9818L90.0174 113.146ZM103.645 117.48V124.442H105.281H106.917V121.657V118.872H108.971H111.024V121.657V124.442H112.661H114.297V117.48V110.518H112.661H111.024V113.407V116.296H108.971H106.917V113.407V110.518H105.281H103.645V117.48ZM117.098 117.463L117.116 124.407L119.971 124.427C122.646 124.446 122.865 124.438 123.455 124.303C125.675 123.797 127.035 122.104 127.035 119.847C127.035 118.531 126.644 117.56 125.756 116.671C125.148 116.062 124.621 115.747 123.73 115.459C123.31 115.323 123.049 115.297 121.833 115.269L120.423 115.236V112.877V110.518H118.752H117.081L117.098 117.463ZM128.429 117.48V124.442H130.065H131.701V117.48V110.518H130.065H128.429V117.48ZM134.347 117.481V124.444L135.964 124.426L137.581 124.407L138.474 122.736C140.837 118.314 141.609 116.883 141.665 116.822C141.701 116.784 141.727 118.377 141.727 120.599V124.442H143.363H144.999V117.48V110.518L143.415 110.518L141.831 110.519L141.719 110.715C141.658 110.823 140.734 112.55 139.666 114.553L137.724 118.195L137.706 114.356L137.688 110.518H136.017H134.347V117.481ZM56.7956 112.997C57.3758 113.169 57.8414 113.668 58.0544 114.347C58.2141 114.856 58.2181 114.933 58.2181 117.48C58.2181 119.996 58.2124 120.109 58.0608 120.591C57.7484 121.585 57.2136 122.008 56.2035 122.061C55.0952 122.119 54.426 121.74 54.0675 120.85C53.9019 120.439 53.9017 120.435 53.9017 117.48C53.9017 114.566 53.9041 114.516 54.0585 114.153C54.3455 113.478 54.6576 113.18 55.2818 112.985C55.6858 112.859 56.3466 112.864 56.7956 112.997ZM83.0776 112.987C83.9304 113.24 84.3694 113.877 84.5057 115.057C84.6249 116.089 84.5532 120.041 84.4059 120.561C84.1138 121.591 83.455 122.075 82.3476 122.074C81.4954 122.074 80.9772 121.826 80.6008 121.24C80.2142 120.637 80.1714 120.212 80.1978 117.237C80.2231 114.381 80.239 114.249 80.6308 113.673C81.0864 113.002 82.1372 112.708 83.0776 112.987ZM122.797 117.99C123.934 118.59 124.103 120.623 123.089 121.516C122.703 121.856 122.356 121.936 121.255 121.936H120.423V119.882V117.828H121.456C122.404 117.828 122.515 117.842 122.797 117.99Z" fill="#004E99"/>
<path fill-rule="evenodd" clip-rule="evenodd" d="M88.7033 15.042C80.582 15.0513 73.0075 15.0616 67.6516 15.0712L46.4524 15.109L45.6859 15.29C44.2864 15.6206 43.4211 15.9313 42.2945 16.5076C39.8189 17.7739 37.8549 19.708 36.5442 22.1705C35.8414 23.4909 35.45 24.6589 35.1723 26.2649L35 27.2613V63.111V98.9119C40.6914 96.4689 46.9461 92.2429 53.1362 86.4293H52.5443L52.5268 64.2801L52.5093 42.1308L50.0331 44.2819C48.6713 45.4649 47.2248 46.7227 46.8189 47.0769C46.4129 47.431 46.0469 47.7209 46.0055 47.7209C45.9521 47.7209 45.9303 45.6134 45.9303 40.4502V33.1794L46.7135 32.4875C47.3424 31.9319 50.4172 29.2587 52.2296 27.6919L52.5766 27.392H59.4179H66.2592V56.9106V71.3549C68.2563 68.5796 70.1912 65.6309 72.0376 62.5168V56.9103V27.3914L79.1871 27.409L86.2859 27.4267C87.2642 23.4284 88.0781 19.2976 88.7033 15.042Z" fill="#EE3123"/>
</svg>
