<svg width="180" height="140" viewBox="0 0 180 140" fill="none" xmlns="http://www.w3.org/2000/svg">
<path fill-rule="evenodd" clip-rule="evenodd" d="M163.089 28.6399C161.022 30.5647 159.096 31.9261 157.207 32.7991C156.591 33.0837 156.048 33.3788 156.001 33.4547C155.954 33.5306 155.857 34.5088 155.785 35.6286C155.611 38.3393 155.202 41.6422 154.771 43.8129L154.42 45.5828L153.542 45.8911L152.665 46.1996L152.314 47.6666C152.012 48.9326 151.991 49.1549 152.157 49.2892C152.304 49.4089 152.454 49.4007 152.805 49.254C153.057 49.1488 153.262 49.1212 153.262 49.1925C153.262 49.6959 150.97 54.1029 150.584 54.3413C150.504 54.3905 150.533 54.2498 150.647 54.0286C151.018 53.312 151.538 51.2934 151.618 50.2619C151.714 49.0354 151.439 47.9479 150.898 47.4065C150.581 47.089 150.452 47.0478 149.952 47.1042C148.878 47.2253 147.735 48.5212 146.87 50.599C146.214 52.1727 146.027 53.272 146.095 55.135C146.16 56.9266 146.456 57.9513 147.111 58.6523C148.598 60.244 151.453 57.8712 153.885 53.0223C154.587 51.6224 155.929 48.4204 155.929 48.1454C155.929 48.046 158.24 47.1998 158.512 47.1998C158.537 47.1998 158.6 48.085 158.651 49.1669C158.771 51.6888 159.233 57.7122 159.317 57.8478C159.405 57.9912 164.003 57.2781 163.975 57.1254C163.963 57.0575 163.802 56.2219 163.617 55.2683C163.201 53.1296 162.9 50.5268 162.783 48.0544L162.693 46.1751L163.512 46.014L164.331 45.8527V44.0023V42.1519L163.515 42.4716L162.699 42.7914L162.788 41.2281C163.021 37.1394 163.775 29.9007 164.135 28.2956C164.246 27.8021 163.849 27.933 163.089 28.6399ZM25.9912 30.883C25.9537 31.0186 25.8844 31.3577 25.8373 31.6367L25.7515 32.1439L25.1922 32.0694C23.9533 31.9044 20.7904 31.7307 19.0148 31.7302L17.1312 31.7297L16.3767 33.8148C15.9617 34.9616 15.6433 35.9209 15.6689 35.9466C15.6946 35.9722 16.1608 35.9084 16.7051 35.8047C17.2492 35.701 17.7096 35.6311 17.7279 35.6495C17.7463 35.6678 17.6737 36.5488 17.5668 37.6071C16.4446 48.7158 17.5175 56.3816 20.6833 59.8742L21.432 60.7002L22.4322 60.0301C26.8138 57.0941 28.9635 53.479 28.9661 49.0422C28.9675 46.8296 28.5623 45.117 27.4966 42.8315L26.9833 41.7307L25.7414 42.1844C21.9188 43.5809 22.102 43.3943 22.9246 45.0496C23.239 45.6822 23.6166 46.6732 23.7638 47.2521C24.3143 49.4171 24.342 52.2778 23.8312 54.2014C23.5864 55.1234 22.7479 56.9354 22.566 56.9354C22.4001 56.9354 21.9393 55.4101 21.6599 53.9361C21.3341 52.218 21.3431 45.01 21.675 41.7986C21.9117 39.5092 22.2369 36.7508 22.3786 35.8306L22.4557 35.3305H23.8443C24.6081 35.3305 25.2329 35.3689 25.2329 35.4157C25.2329 35.5397 24.7086 38.6775 24.6287 39.0313C24.5618 39.3275 24.5786 39.3314 25.9305 39.3294C26.6837 39.3282 27.3663 39.2832 27.4474 39.2294C27.6329 39.1061 29.6696 32.0804 29.6099 31.7702C29.562 31.5214 27.8019 30.8959 26.6797 30.7288C26.1446 30.6492 26.05 30.6702 25.9912 30.883ZM45.2547 36.2008C43.7767 36.6764 41.9406 36.9465 40.3578 36.9211C39.5825 36.9087 38.8961 36.9509 38.8325 37.0147C38.7687 37.0786 38.6503 37.9411 38.5692 38.9313C38.3682 41.3851 37.9608 44.1762 37.5522 45.8995L37.2124 47.3332H36.3609H35.5093L35.2935 48.1C35.175 48.5217 34.9965 49.1516 34.8972 49.4997C34.7282 50.0914 34.7334 50.1414 34.9777 50.2721C35.1247 50.3508 35.4517 50.372 35.7258 50.3205L36.2127 50.2292L35.5108 51.5429C34.4702 53.4904 32.7148 55.8584 33.562 54.1719C34.1061 53.0885 34.477 51.3001 34.3931 50.1632C34.1942 47.4659 32.3713 46.6006 30.7552 48.4366C29.5477 49.8084 28.8325 51.9768 28.8357 54.2561C28.8397 57.1001 29.6449 58.8841 31.0433 59.1464C31.4131 59.2157 31.6879 59.1471 32.3546 58.8188C34.0267 57.9957 36.1305 55.3401 37.9591 51.7441C38.7667 50.1556 38.8778 50.0003 39.2075 49.9995C39.4066 49.999 39.9651 49.9613 40.4487 49.9155L41.3278 49.8324L41.42 51.4835C41.5467 53.7562 42.0225 59.0718 42.1123 59.2171C42.1994 59.358 43.0213 59.3667 45.1932 59.25L46.7913 59.164L46.4246 57.6606C46.0285 56.0369 45.6978 53.6896 45.5536 51.4804L45.4632 50.093L46.2839 50.1674L47.1045 50.2418V48.7875V47.3332H46.2923H45.4801L45.5664 46.1663C45.7486 43.7022 46.0689 41.0402 46.4613 38.7313C46.6857 37.411 46.8771 36.2407 46.8868 36.1307C46.9139 35.8234 46.3532 35.8474 45.2547 36.2008ZM143.09 37.1029C141.422 37.74 140.974 37.964 140.922 38.1854C140.886 38.3389 140.803 40.0143 140.737 41.9085C140.671 43.8028 140.586 45.383 140.549 45.4204C140.477 45.4926 136.561 46.1227 136.144 46.1292C135.921 46.1325 135.905 46.0486 135.975 45.2327C136.017 44.7375 136.091 42.9681 136.138 41.3005C136.212 38.6731 136.197 38.2583 136.023 38.1917C135.907 38.1471 135.41 38.3952 134.84 38.7814C134.3 39.1479 133.287 39.7699 132.59 40.1633L131.323 40.8788L131.24 43.2725C131.194 44.589 131.149 45.9813 131.14 46.3663C131.128 46.864 131.07 47.0665 130.94 47.0665C130.543 47.0665 130.245 47.8806 129.994 49.6533L129.901 50.3065L130.5 50.2244L131.099 50.1422L131.175 51.3717C131.216 52.0479 131.288 53.6213 131.335 54.8682C131.381 56.1152 131.458 57.5555 131.505 58.0689L131.59 59.0025L133.751 59.0392C135.727 59.0726 135.923 59.0549 136.042 58.8326C136.126 58.6762 136.129 57.5683 136.053 55.7286C135.905 52.1756 135.893 49.3346 136.025 49.3308C136.079 49.3292 137.085 49.18 138.258 48.9992C139.432 48.8185 140.428 48.6696 140.471 48.6687C140.514 48.6676 140.59 50.9175 140.64 53.6682C140.73 58.5699 140.813 59.4297 141.183 59.2936C141.261 59.2648 142.279 59.0712 143.445 58.8633L145.564 58.4854L145.48 56.8101C145.434 55.8889 145.356 53.5295 145.307 51.5675L145.218 48H145.628C146.446 48 146.46 47.9725 146.46 46.3932C146.46 44.8061 146.423 44.7293 145.679 44.7794L145.222 44.8102L145.319 40.6186C145.372 38.3133 145.366 36.3983 145.305 36.3633C145.243 36.3282 144.247 36.6609 143.09 37.1029ZM57.3074 37.631C57.2594 37.8693 57.1937 38.1599 57.1613 38.2765C57.1103 38.4597 56.6433 38.5027 53.737 38.5912C51.8862 38.6476 49.9534 38.7322 49.4418 38.7791L48.5116 38.8646L47.7369 40.5827C47.3108 41.5278 46.9794 42.3182 47.0005 42.3393C47.0215 42.3603 47.4784 42.287 48.0158 42.1764C48.5532 42.0659 49.0197 42.0024 49.0525 42.0352C49.0855 42.0681 49.0218 42.8384 48.9112 43.7472C47.9319 51.7927 48.7426 57.602 51.2409 60.4403C51.5384 60.7784 52.0199 61.2434 52.3107 61.4737L52.8396 61.8926L53.8063 61.3354C55.3119 60.4676 56.424 59.6349 57.4455 58.6105C58.584 57.4685 59.2918 56.4151 59.8201 55.0757C60.1577 54.2199 60.2265 53.8368 60.2764 52.5344C60.3203 51.3892 60.2793 50.7812 60.1151 50.1338C59.8918 49.2535 58.6956 46.665 58.4014 46.425C58.2905 46.3344 57.5775 46.5331 56.1129 47.0626C53.7476 47.9177 53.5347 48.089 54.0064 48.7571C55.5506 50.944 55.9991 54.0324 55.153 56.6528C54.8997 57.4365 54.1902 58.6906 53.9579 58.765C53.7445 58.8331 53.2996 57.7162 53.0165 56.4019C52.817 55.4752 52.7728 54.6719 52.7747 52.0009C52.776 50.1565 52.8531 48.0946 52.9518 47.2665C53.1576 45.5404 53.7529 41.438 53.804 41.3951C53.8235 41.3787 54.4581 41.3226 55.2144 41.2706L56.5896 41.1759L56.4998 41.6874C56.4503 41.9685 56.3267 42.6077 56.2249 43.1076C55.9253 44.5792 55.8382 44.4838 57.3837 44.38C58.123 44.3302 58.768 44.2496 58.8174 44.2005C58.8667 44.1515 59.3945 42.7208 59.9899 41.0212C60.797 38.7178 61.0347 37.8908 60.9235 37.7729C60.789 37.6303 58.3391 37.1976 57.667 37.1976C57.4665 37.1976 57.3716 37.312 57.3074 37.631ZM128.901 37.7797C128.053 38.4901 127.006 39.1876 126.11 39.6391C125.44 39.9766 125.426 39.9974 124.993 41.2233C123.89 44.3481 120.702 52.0243 120.339 52.4283C120.292 52.48 120.27 52.1199 120.288 51.6282C120.412 48.3245 120.556 40.7384 120.497 40.5847C120.388 40.3 120.149 40.355 117.92 41.1783L115.853 41.942L115.897 43.5373C115.959 45.8338 115.684 53.9144 115.446 56.7799C115.334 58.1247 115.279 59.34 115.323 59.4805C115.399 59.7171 115.55 59.736 117.371 59.736H119.338L120.384 57.3021C121.428 54.8694 123.419 50.5778 124.401 48.6394L124.922 47.6118L124.944 52.8403C124.957 55.716 125.006 58.4413 125.054 58.8965L125.142 59.7241L125.966 59.6645C126.418 59.6317 127.37 59.569 128.08 59.5254C129.007 59.4682 129.39 59.3932 129.442 59.2589C129.481 59.1561 129.452 57.586 129.377 55.7698C129.189 51.2373 129.369 45.0357 129.849 39.5314C130.012 37.6554 129.977 37.19 129.674 37.2005C129.627 37.202 129.28 37.4627 128.901 37.7797ZM111.615 38.4543C110.533 38.8992 109.509 39.734 108.506 40.9874C106.445 43.5629 105.311 46.8915 104.789 51.8972C104.528 54.3991 104.522 55.453 104.769 55.5478C104.872 55.5871 105.658 55.4913 106.517 55.3351C107.376 55.179 108.115 55.0876 108.16 55.132C108.204 55.1764 108.371 56.3214 108.531 57.6763C108.691 59.0313 108.896 60.229 108.987 60.338C109.12 60.4988 109.57 60.5362 111.375 60.5362C114.179 60.5362 114.199 60.5224 113.592 59.0053C113.167 57.9427 112.787 56.2144 112.522 54.1347C112.405 53.2179 112.279 52.2747 112.242 52.0388L112.175 51.6099L110.292 52.2726C109.256 52.6371 108.373 52.8996 108.33 52.856C108.287 52.8126 108.258 51.4471 108.266 49.8218C108.277 47.3713 108.327 46.6416 108.558 45.5508C108.853 44.1578 109.524 42.5989 110.116 41.932C110.463 41.541 110.47 41.5395 110.385 41.8653C110.337 42.0487 110.266 42.6488 110.227 43.1989C110.095 45.064 110.676 46.1329 111.822 46.1329C113.276 46.1329 114.312 44.5606 114.73 41.7175C114.987 39.973 114.563 38.7307 113.568 38.315C112.951 38.0571 112.504 38.0891 111.615 38.4543ZM64.375 39.8195C63.8951 39.9886 62.5612 40.2616 61.2093 40.4672C60.3704 40.5949 60.3669 40.8072 61.1702 42.8368C62.6172 46.4934 63.8357 51.1867 64.6379 56.1933C64.7547 56.922 64.9126 57.5935 64.9889 57.6854C65.0784 57.7932 65.5024 57.8534 66.1824 57.8549C66.7625 57.8562 67.4839 57.9237 67.7855 58.0049C68.4541 58.185 68.4589 58.15 67.4413 60.5019C66.6858 62.2478 65.8586 63.7452 65.305 64.3688C64.9916 64.7216 64.9942 64.7035 65.3693 63.9369C66.6149 61.391 66.051 59.0544 64.2717 59.3882C63.6685 59.5013 62.7573 60.3127 62.2128 61.2214C61.0883 63.0982 61.107 66.2735 62.2471 67.0204C63.6162 67.9176 65.6661 66.5717 67.8577 63.3368C70.749 59.0692 72.4922 54.6256 73.5604 48.8002C73.9405 46.7281 74.3106 43.3639 74.3106 41.9821V41.0344L73.6105 41.1134C73.2253 41.1569 72.4841 41.2308 71.9632 41.2774L71.0161 41.3624L70.9339 44.2478C70.8192 48.2761 70.2462 52.2844 69.3899 55.0511L69.1576 55.8018L69.0596 54.8015C68.7662 51.8073 68.1242 48.5756 67.2329 45.6067C66.7149 43.8812 65.1629 39.7767 64.9916 39.6789C64.9458 39.6528 64.6684 39.7161 64.375 39.8195ZM158.435 43.2192L158.396 44.2933L157.737 44.5431C157.375 44.6805 157.065 44.7793 157.049 44.7627C157.015 44.7271 157.976 41.1045 158.225 40.3316C158.395 39.8019 158.397 39.8064 158.435 40.9716C158.456 41.6171 158.456 42.6285 158.435 43.2192ZM103.527 41.1966C103.055 41.4837 102.046 42.0067 101.284 42.3587L99.8981 42.9989L99.9868 45.7328C100.106 49.4249 99.8045 55.1286 99.2508 59.635C99.0918 60.9292 99.1538 61.1191 99.7021 61.0173C99.93 60.9751 101.07 60.9003 102.236 60.851L104.356 60.7617L104.264 56.2813C104.167 51.5285 104.314 46.4035 104.647 42.9301C104.801 41.3181 104.808 40.854 104.68 40.7726C104.452 40.6274 104.476 40.6183 103.527 41.1966ZM96.1822 42.2498L93.9817 43.1548L93.8984 47.3445C93.8047 52.0552 93.559 56.6609 93.3681 57.2814L93.2412 57.6942L91.222 57.7815C90.1115 57.8297 89.1716 57.8377 89.1333 57.7994C89.0145 57.6805 88.8646 54.9685 88.8556 52.7784C88.8464 50.4991 89.0194 47.5286 89.3112 44.9555C89.4138 44.0511 89.4648 43.226 89.4248 43.1217C89.366 42.9683 88.9231 42.9322 87.0992 42.9322C85.8602 42.9322 84.8462 42.9773 84.8461 43.0322C84.8459 43.0872 84.758 44.0027 84.6509 45.0665C84.3593 47.9649 84.1623 53.1253 84.2514 55.535C84.2949 56.7086 84.2815 57.7289 84.2216 57.8022C84.155 57.884 83.3061 57.9202 82.0277 57.8958L79.9427 57.8561L79.8605 57.4457C79.6352 56.3184 79.8047 47.1259 80.1171 43.5323C80.2329 42.2007 80.1259 42.0948 78.9211 42.3489C78.4127 42.4561 77.3625 42.5863 76.5873 42.638L75.1775 42.7322L75.1108 51.5341C75.0741 56.3752 75.0741 60.3733 75.1108 60.4188C75.1703 60.4927 79.8367 60.6118 93.4601 60.8873C97.4858 60.9687 97.745 60.9597 97.8307 60.7365C97.8809 60.6059 97.9801 58.782 98.0513 56.6834C98.1944 52.4614 98.3544 49.3307 98.6606 44.7553C98.8175 42.413 98.8281 41.6668 98.7073 41.5212C98.6208 41.4171 98.5125 41.3348 98.4665 41.3382C98.4203 41.3417 97.3925 41.7519 96.1822 42.2498ZM41.2365 45.4661V47.3332H40.5697C40.2029 47.3332 39.9029 47.2993 39.9029 47.258C39.9029 47.2168 40.147 46.4515 40.4455 45.5576C40.744 44.6638 41.0122 43.8575 41.0415 43.7657C41.1855 43.315 41.2365 43.7595 41.2365 45.4661ZM173.333 57.9557C171.959 58.7862 169.264 60.0971 167.665 60.7131C165.767 61.4441 164.451 61.8082 162.503 62.1412C160.884 62.4181 160.331 62.6666 160.329 63.1188C160.326 63.6145 160.062 66.5385 159.857 68.3379C159.398 72.367 158.54 76.8956 157.738 79.5261L157.387 80.674H155.869H154.351L153.74 82.5079C153.403 83.5166 153.128 84.3853 153.128 84.4384C153.128 84.4913 153.304 84.6257 153.52 84.7371C153.811 84.8879 154.123 84.9173 154.743 84.8525L155.576 84.7654L155.173 85.463C154.379 86.8374 153.179 88.3264 151.815 89.6291C150.433 90.9482 149.999 91.2264 150.635 90.385C151.981 88.6048 152.756 85.5638 152.331 83.7262C152.019 82.3776 151.149 81.2779 150.127 80.9405C149.352 80.6848 147.986 80.829 147.087 81.261C145.565 81.9935 143.638 84.3335 143.013 86.2086C142.003 89.2429 142.604 92.9067 144.409 94.7105C146.331 96.6324 149.014 96.5244 152.193 94.3973C154.893 92.5902 157.312 89.7857 159.516 85.9086L160.217 84.6749H162.459H164.701L164.783 85.2417C164.829 85.5534 164.927 86.8588 165.002 88.1424C165.204 91.6066 165.974 99.9653 166.103 100.095C166.166 100.157 174.386 102.137 174.424 102.099C174.441 102.082 174.337 101.621 174.194 101.074C173.329 97.7591 172.601 93.2078 172.341 89.476C172.103 86.0731 172.102 85.4743 172.333 85.4758C172.551 85.4773 174.045 85.702 174.633 85.8217L175 85.8964V83.2185V80.5407H173.582H172.163L172.254 78.9737C172.532 74.1611 173.311 67.4555 174.273 61.6031C174.605 59.586 174.889 57.8456 174.905 57.7355C174.962 57.3365 174.175 57.4467 173.333 57.9557ZM26.7666 60.3881C25.0906 60.8763 23.6803 61.8273 21.9615 63.6285C20.507 65.1527 19.5864 66.4654 18.639 68.3659C16.3905 72.8767 15.0203 79.7349 14.6213 88.4758C14.4915 91.32 14.2576 91.2202 18.0131 89.9252C19.6404 89.364 20.9947 88.9283 21.0225 88.957C21.0503 88.9858 21.2931 90.8697 21.5619 93.1435C21.8308 95.4174 22.0839 97.4162 22.1244 97.5855C22.1651 97.7548 22.3264 97.9771 22.4829 98.0797C22.7359 98.2455 23.1589 98.1768 26.3007 97.4589C28.244 97.0149 30.0585 96.5952 30.3331 96.5263C30.6901 96.4368 30.8935 96.2828 31.047 95.986C31.256 95.5819 31.2489 95.5457 30.7815 94.6124C29.6511 92.3557 28.7883 88.6707 28.291 83.9748C28.1795 82.9231 28.0717 82.4078 27.9626 82.4078C27.8733 82.4078 26.3178 83.0432 24.5059 83.8201C22.6939 84.5968 21.1776 85.1985 21.1362 85.1571C21.0949 85.1157 21.0315 83.535 20.9957 81.6444C20.8418 73.5534 21.838 68.8188 24.2563 66.1465C24.6648 65.6951 25.0284 65.355 25.0643 65.3909C25.1002 65.4267 25.0328 65.74 24.9145 66.0869C24.3284 67.8074 24.3565 70.0519 24.9822 71.472C25.968 73.7095 28.5115 73.8757 30.4008 71.826C31.8032 70.3046 32.8285 66.9065 32.6668 64.3158C32.5023 61.6794 30.8938 60.1161 28.376 60.1455C27.931 60.1508 27.2067 60.26 26.7666 60.3881ZM137.991 60.9181C135.601 61.6027 133.083 63.4184 130.92 66.0166C127.872 69.6784 126.279 74.3027 125.527 81.6743C125.294 83.9581 125.303 84.6257 125.572 84.9227C125.8 85.1748 125.941 85.1829 128.834 85.1113L131.857 85.0364L132.365 88.8232C132.884 92.6868 132.995 93.1065 133.564 93.3452C133.832 93.4572 141.166 94.8106 141.506 94.8106C141.587 94.8106 141.748 94.6657 141.864 94.4888C142.062 94.1859 142.052 94.1208 141.684 93.3885C140.57 91.1735 139.716 87.6795 139.135 82.9736C139.007 81.9278 138.87 81.0409 138.832 81.0029C138.794 80.9648 137.253 81.185 135.409 81.4924C133.565 81.7996 132.011 82.0063 131.956 81.9518C131.747 81.7434 131.765 75.1609 131.979 73.516C132.425 70.0921 133.29 67.9628 134.883 66.3702C135.392 65.8606 135.83 65.4654 135.857 65.4918C135.883 65.5182 135.777 65.8994 135.621 66.3387C135.202 67.5168 135.208 69.6752 135.633 70.6051C136.064 71.5489 136.783 72.2395 137.58 72.4762C138.413 72.7236 138.774 72.7224 139.627 72.4693C141.707 71.8517 143.402 68.594 143.442 65.1372C143.464 63.3324 143.219 62.5089 142.411 61.6699C141.482 60.7051 139.758 60.4119 137.991 60.9181ZM13.0968 63.4816C11.5894 64.3756 8.80171 65.7784 7.52555 66.2853C6.95969 66.5102 6.46038 66.7529 6.41584 66.8249C6.37129 66.8969 6.36409 70.1175 6.3997 73.9816C6.48839 83.6034 6.22539 89.4083 5.21317 100.17C4.81948 104.356 4.82695 104.376 6.50466 103.601C8.31013 102.766 10.0232 102.108 12.2045 101.409L14.1795 100.776L14.0729 98.0265C13.9023 93.6244 13.9479 77.408 14.1405 74.0059C14.3203 70.8276 14.5821 67.4712 14.8521 64.8804L15.0158 63.3104L14.6898 63.0598C14.5105 62.922 14.3338 62.8094 14.2971 62.8094C14.2604 62.8095 13.7203 63.1119 13.0968 63.4816ZM47.3596 63.3343C46.1107 63.9793 43.146 65.2128 41.2646 65.8699L39.4832 66.4923L38.9401 67.3484C38.043 68.763 36.6359 71.6951 35.9693 73.5391C32.9157 81.9865 31.8533 92.2717 32.5804 106.347C32.8015 110.627 32.8766 111.371 33.1013 111.512C33.2486 111.604 33.6735 111.409 34.7109 110.774C41.3524 106.706 49.2478 103.093 56.1656 100.956C79.5729 93.7237 108.824 94.6381 130.315 103.274C135.546 105.376 141.56 108.426 145.925 111.191C146.427 111.509 146.839 111.689 146.907 111.621C147.089 111.439 147.248 110.444 147.255 109.449C147.261 108.401 147.531 108.643 144.319 106.811C130.547 98.9566 117.033 94.9591 99.4496 93.5385C95.8461 93.2475 87.5969 93.1373 83.8461 93.33C68.721 94.1075 56.0653 97.0819 42.8509 102.965C41.7217 103.468 40.7564 103.879 40.706 103.879C40.6554 103.879 40.423 102.604 40.1893 101.045C38.2569 88.1527 38.6726 79.5918 41.6091 71.8054C42.0733 70.5743 42.7996 68.9381 42.8818 68.9381C42.9127 68.9381 43.2672 69.4331 43.6697 70.0383C45.0918 72.1765 46.0141 74.3592 46.5933 76.9557C47.0327 78.9264 47.0362 82.6124 46.6005 84.6968C46.2542 86.3539 45.5388 88.4822 44.9052 89.7402C44.4041 90.7354 44.1422 91.0118 43.8184 90.8877C43.6212 90.8119 43.606 90.6198 43.6829 89.1724C43.7305 88.2758 43.914 86.8521 44.0905 86.0086L44.4115 84.4749L44.1403 84.2395C43.9764 84.0972 43.8101 84.0492 43.7198 84.1182C43.6376 84.181 42.9102 84.7583 42.1034 85.4012C40.4343 86.7313 40.4624 86.6722 40.4484 88.8759C40.4402 90.187 40.6516 91.3845 41.1029 92.5835C41.4449 93.4923 42.564 94.7616 43.1708 94.9293C44.7147 95.3556 47.7473 93.0292 49.9405 89.736C53.8488 83.8672 55.1104 76.5573 53.2191 70.7385C52.7375 69.2569 51.8637 67.4473 51.0147 66.1729C50.0865 64.7798 48.5395 62.9356 48.3054 62.9431C48.195 62.9467 47.7694 63.1228 47.3596 63.3343ZM81.6859 64.8438C77.4405 65.9677 77.6018 65.8636 77.3861 67.6175C76.8512 71.9661 76.5814 80.2834 76.7752 86.4517C76.8743 89.607 76.8772 89.6299 77.1862 89.7708C77.4159 89.8755 78.4166 89.8289 81.0052 89.5933L84.5129 89.2739L84.6052 86.4076C84.9118 76.8803 85.2143 71.7211 85.7739 66.4735C85.9146 65.1547 86.0183 64.0643 86.0045 64.0504C85.7932 63.8391 84.7734 64.0264 81.6859 64.8438ZM124.267 64.1571C122.834 64.913 118.071 66.6709 117.456 66.6709C117.103 66.6709 117.027 67.2066 117.152 68.8047C117.295 70.6224 117.188 78.648 116.992 80.7407C116.74 83.4408 116.431 86.0543 116.061 88.6092C115.745 90.7906 115.719 91.182 115.876 91.4233C116.045 91.6835 116.222 91.71 118.356 91.7964C119.62 91.8475 121.225 91.9454 121.921 92.0138C122.618 92.0822 123.603 92.1789 124.11 92.2285L125.031 92.3189L124.94 91.9977C124.89 91.8211 124.812 88.3458 124.767 84.2749C124.667 75.2862 124.866 70.8093 125.596 65.604C125.778 64.3038 125.776 64.1918 125.565 64.037C125.246 63.8032 124.873 63.8377 124.267 64.1571ZM58.2839 64.711L56.1937 64.986L56.1214 65.395C55.6535 68.0447 55.5561 76.2088 55.9535 79.4738C56.9018 87.2645 59.3158 92.0594 63.0767 93.6224L63.7412 93.8986L64.4229 93.5532C67.653 91.9163 70.8785 89.4003 72.7887 87.0275C75.0434 84.2268 76.0249 81.6356 75.8726 78.8859C75.7339 76.3815 74.7531 74.3345 72.7523 72.3731L71.9709 71.6072L68.6397 73.4634C66.8076 74.4841 65.2538 75.4062 65.1867 75.5123C65.0959 75.6562 65.2988 75.9403 65.9869 76.6319C67.0808 77.7315 67.7875 78.8816 68.2655 80.3406C68.9597 82.4592 68.7018 85.1405 67.6212 87.0415C67.1486 87.8727 66.0832 89.2093 65.893 89.2093C65.6604 89.2093 64.9804 87.5191 64.6432 86.1027C63.9548 83.211 63.8461 81.9181 63.856 76.7398C63.8625 73.3488 63.9272 71.3514 64.0764 69.939C64.1926 68.8391 64.2706 67.9222 64.2498 67.9014C64.229 67.8808 64.0498 67.9254 63.8515 68.0008C63.2153 68.2426 62.2576 68.1672 61.7673 67.8369C61.0735 67.3693 60.5742 66.2889 60.5742 65.2554C60.5742 64.787 60.5292 64.411 60.4742 64.4198C60.4191 64.4288 59.4335 64.5599 58.2839 64.711ZM94.7152 66.2955C93.8717 66.5841 92.1013 67.1017 90.781 67.4457L88.3805 68.0712L88.298 69.6049C88.2526 70.4484 88.2076 72.0538 88.198 73.1724L88.1804 75.2061H87.7715C87.0376 75.2061 86.8772 75.3979 86.4588 76.7764C86.2421 77.4897 86.0243 78.2762 85.9747 78.5238L85.8846 78.9742L87.0111 78.8804L88.1377 78.7866L88.2274 81.1639C88.3132 83.4396 88.6293 87.6678 88.7906 88.6988L88.8671 89.1884L89.8241 89.26C90.3504 89.2995 92.0637 89.3916 93.6314 89.465L96.4819 89.5983L96.7321 89.3037C96.9373 89.0621 96.9696 88.8658 96.9116 88.2091C96.7491 86.3696 96.586 82.5994 96.5843 80.6407L96.5823 78.5402H100.717H104.851L104.85 80.2406C104.85 81.1758 104.916 83.6514 104.996 85.7419C105.112 88.7883 105.185 89.635 105.363 90.0075L105.584 90.4723L109.585 90.4286C111.786 90.4046 113.596 90.3754 113.609 90.3637C113.621 90.352 113.551 89.1122 113.453 87.6087C113.356 86.1051 113.232 83.5031 113.178 81.8264L113.081 78.7778L114.2 78.8258C115.289 78.8723 115.32 78.8654 115.31 78.5736C115.305 78.4085 115.29 77.6863 115.277 76.9687C115.253 75.6801 115.248 75.6609 114.866 75.435C114.636 75.2994 114.202 75.2061 113.799 75.2061H113.119V73.7101C113.119 72.2886 113.328 67.6977 113.44 66.6445C113.545 65.6583 113.628 65.6689 109.447 66.1364C107.284 66.3783 105.652 66.6199 105.56 66.7121C105.397 66.8771 105.194 69.2667 105.034 72.9056L104.945 74.9394H100.759H96.5739L96.6519 73.5058C96.6949 72.7172 96.8204 70.7606 96.9309 69.1576C97.1194 66.4251 97.1176 66.2272 96.9032 65.9902C96.6074 65.6633 96.532 65.6737 94.7152 66.2955ZM164.7 76.5107L164.55 80.674H163.307C162.623 80.674 162.064 80.6492 162.064 80.6188C162.064 80.5884 162.355 79.7632 162.712 78.7851C163.324 77.1047 163.781 75.6824 164.471 73.3036C164.636 72.7339 164.789 72.2858 164.811 72.3076C164.833 72.3295 164.783 74.221 164.7 76.5107Z" fill="#0F7FFF"/>
</svg>
