<svg width="180" height="140" viewBox="0 0 180 140" fill="none" xmlns="http://www.w3.org/2000/svg">
<path d="M52.8968 128.636C52.8968 128.772 52.8968 128.841 52.8286 128.909C52.7604 128.977 52.6923 129.046 52.4879 129.113C52.3516 129.181 52.1472 129.181 51.8746 129.25C51.6021 129.25 51.2613 129.318 50.9206 129.318C50.5118 129.318 50.171 129.318 49.9666 129.25C49.694 129.25 49.4896 129.181 49.3533 129.113C49.217 129.046 49.0808 128.977 49.0126 128.909C48.9445 128.841 48.9445 128.705 48.9445 128.636V120.391C48.9445 119.914 48.8763 119.506 48.8082 119.097C48.74 118.687 48.6038 118.415 48.3993 118.074C48.1949 117.802 47.9905 117.598 47.7179 117.461C47.4453 117.324 47.1047 117.257 46.6957 117.257C46.2187 117.257 45.7417 117.461 45.2647 117.802C44.7877 118.143 44.2426 118.687 43.6975 119.369V128.636C43.6975 128.772 43.6975 128.841 43.6294 128.909C43.5612 128.977 43.4249 129.046 43.2886 129.113C43.1524 129.181 42.9479 129.181 42.6754 129.25C42.4028 129.25 42.1302 129.318 41.7213 129.318C41.3125 129.318 41.0399 129.318 40.7673 129.25C40.4948 129.25 40.2903 129.181 40.1541 129.113C40.0178 129.046 39.8815 128.977 39.8133 128.909C39.7452 128.841 39.7452 128.705 39.7452 128.636V120.391C39.7452 119.914 39.6771 119.506 39.6089 119.097C39.5408 118.687 39.4045 118.415 39.2001 118.074C38.9956 117.802 38.7912 117.598 38.5186 117.461C38.246 117.324 37.9053 117.257 37.4965 117.257C37.0195 117.257 36.5425 117.461 36.0655 117.802C35.5885 118.143 35.0434 118.687 34.4982 119.369V128.636C34.4982 128.772 34.4982 128.841 34.43 128.909C34.3619 128.977 34.2257 129.046 34.0894 129.113C33.9531 129.181 33.7487 129.181 33.4761 129.25C33.2035 129.25 32.9309 129.318 32.5221 129.318C32.1132 129.318 31.8406 129.318 31.5681 129.25C31.2954 129.25 31.0911 129.181 30.9548 129.113C30.8185 129.046 30.6822 128.977 30.6141 128.909C30.5459 128.841 30.5459 128.705 30.5459 128.636V114.735C30.5459 114.667 30.5459 114.531 30.6141 114.462C30.6822 114.395 30.7504 114.327 30.8866 114.258C31.0229 114.19 31.2274 114.19 31.4318 114.122C31.6362 114.122 31.9088 114.054 32.2495 114.054C32.5902 114.054 32.8627 114.054 33.0672 114.122C33.2716 114.122 33.4761 114.19 33.6124 114.258C33.7487 114.327 33.8167 114.395 33.8849 114.462C33.9531 114.531 33.9531 114.667 33.9531 114.735V116.37C34.7707 115.553 35.5204 114.94 36.2699 114.462C37.0195 114.054 37.8372 113.849 38.7231 113.849C39.3363 113.849 39.8133 113.917 40.2903 114.054C40.7673 114.19 41.1762 114.327 41.5169 114.599C41.8576 114.803 42.1983 115.076 42.4709 115.416C42.7434 115.757 42.9479 116.098 43.1524 116.439C43.5612 115.962 43.9701 115.621 44.3789 115.281C44.7877 114.94 45.1966 114.667 45.6055 114.462C46.0143 114.258 46.4232 114.122 46.7639 113.986C47.1728 113.917 47.5816 113.849 47.9905 113.849C48.9445 113.849 49.694 113.986 50.3755 114.327C50.9888 114.667 51.5339 115.076 51.9428 115.621C52.3516 116.166 52.6242 116.779 52.7604 117.529C52.8968 118.278 53.0331 119.028 53.0331 119.778V128.636H52.8968ZM60.8013 128.636C60.8013 128.772 60.8013 128.841 60.7331 128.909C60.665 128.977 60.5288 129.046 60.3925 129.113C60.2562 129.181 60.0518 129.181 59.7792 129.25C59.5066 129.25 59.234 129.318 58.8252 129.318C58.4163 129.318 58.1437 129.318 57.8712 129.25C57.5986 129.25 57.3942 129.181 57.2579 129.113C57.1216 129.046 56.9853 128.977 56.9172 128.909C56.849 128.841 56.849 128.705 56.849 128.636V114.735C56.849 114.599 56.849 114.531 56.9172 114.462C56.9853 114.395 57.0535 114.327 57.2579 114.258C57.3942 114.19 57.5986 114.19 57.8712 114.122C58.1437 114.122 58.4163 114.054 58.8252 114.054C59.234 114.054 59.5066 114.054 59.7792 114.122C60.0518 114.122 60.2562 114.19 60.3925 114.258C60.5288 114.327 60.665 114.395 60.7331 114.462C60.8013 114.531 60.8013 114.599 60.8013 114.735V128.636ZM61.142 109.965C61.142 110.783 61.0058 111.328 60.665 111.6C60.3243 111.873 59.711 112.078 58.8252 112.078C57.9393 112.078 57.326 111.941 56.9853 111.669C56.6446 111.396 56.5083 110.851 56.5083 110.102C56.5083 109.284 56.6446 108.738 56.9853 108.466C57.326 108.125 57.9393 107.989 58.8252 107.989C59.711 107.989 60.3243 108.125 60.665 108.466C60.9376 108.671 61.142 109.216 61.142 109.965ZM68.774 128.636C68.774 128.772 68.774 128.841 68.7059 128.909C68.6377 128.977 68.5015 129.046 68.3652 129.113C68.2289 129.181 68.0245 129.181 67.7519 129.25C67.4793 129.25 67.2067 129.318 66.7979 129.318C66.389 129.318 66.1164 129.318 65.8439 129.25C65.5713 129.25 65.3669 129.181 65.2306 129.113C65.0943 129.046 64.958 128.977 64.8899 128.909C64.8217 128.841 64.8217 128.705 64.8217 128.636V108.125C64.8217 107.989 64.8217 107.921 64.8899 107.853C64.958 107.784 65.0262 107.717 65.2306 107.649C65.3669 107.58 65.5713 107.58 65.8439 107.512C66.1164 107.512 66.389 107.444 66.7979 107.444C67.2067 107.444 67.4793 107.444 67.7519 107.512C68.0245 107.512 68.2289 107.58 68.3652 107.649C68.5015 107.717 68.6377 107.784 68.7059 107.853C68.774 107.921 68.774 108.057 68.774 108.125V128.636ZM85.946 128.636C85.946 128.772 85.946 128.841 85.8779 128.909C85.8097 128.977 85.7416 129.046 85.5371 129.113C85.4009 129.181 85.1964 129.181 84.9239 129.25C84.6513 129.25 84.3106 129.318 83.9017 129.318C83.4928 129.318 83.084 129.318 82.8114 129.318C82.5388 129.318 82.3344 129.25 82.13 129.25C81.9256 129.181 81.7893 129.113 81.7211 129.046C81.653 128.977 81.5167 128.841 81.4486 128.705L76.7467 121.345V128.705C76.7467 128.841 76.7467 128.909 76.6786 128.977C76.6104 129.046 76.4742 129.113 76.3379 129.181C76.2016 129.25 75.9972 129.25 75.7246 129.318C75.452 129.318 75.1794 129.386 74.7706 129.386C74.3617 129.386 74.0891 129.386 73.8166 129.318C73.544 129.318 73.3396 129.25 73.2033 129.181C73.067 129.113 72.9308 129.046 72.8626 128.977C72.7944 128.909 72.7944 128.772 72.7944 128.705V108.194C72.7944 108.057 72.7944 107.989 72.8626 107.921C72.9308 107.853 72.9989 107.784 73.2033 107.717C73.3396 107.649 73.544 107.649 73.8166 107.58C74.0891 107.58 74.3617 107.512 74.7706 107.512C75.1794 107.512 75.452 107.512 75.7246 107.58C75.9972 107.58 76.2016 107.649 76.3379 107.717C76.4742 107.784 76.6104 107.853 76.6786 107.921C76.7467 107.989 76.7467 108.125 76.7467 108.194V120.391L80.9716 114.871C81.0397 114.735 81.176 114.667 81.2441 114.531C81.3805 114.462 81.5167 114.395 81.653 114.327C81.8575 114.258 82.0618 114.258 82.3345 114.19C82.607 114.19 82.9478 114.122 83.3566 114.122C83.7654 114.122 84.1061 114.122 84.3787 114.19C84.6513 114.19 84.8557 114.258 85.0601 114.327C85.1964 114.395 85.3327 114.462 85.4009 114.531C85.469 114.599 85.469 114.735 85.469 114.803C85.469 114.94 85.4009 115.144 85.3327 115.281C85.2646 115.485 85.1283 115.621 84.992 115.825L80.8353 120.46L85.6053 127.751C85.7416 127.955 85.8097 128.159 85.8779 128.296C85.946 128.364 85.946 128.5 85.946 128.636ZM100.052 128.636C100.052 128.772 99.9838 128.909 99.9152 128.977C99.779 129.046 99.6427 129.113 99.4382 129.181C99.2339 129.25 98.8932 129.25 98.4161 129.25C97.9391 129.25 97.5984 129.25 97.394 129.181C97.1896 129.113 97.0533 129.113 96.9169 128.977C96.8489 128.909 96.7807 128.772 96.7807 128.636V127.546C96.1674 128.159 95.5541 128.636 94.8046 128.977C94.055 129.318 93.2373 129.522 92.3515 129.522C91.6018 129.522 90.9204 129.454 90.3072 129.25C89.6938 129.046 89.1487 128.772 88.6717 128.364C88.1947 127.955 87.854 127.478 87.5814 126.933C87.3089 126.388 87.1726 125.706 87.1726 124.956C87.1726 124.139 87.3089 123.457 87.6496 122.844C87.9902 122.231 88.4672 121.754 89.0805 121.345C89.6939 120.936 90.5115 120.664 91.4655 120.46C92.4195 120.255 93.5098 120.186 94.8046 120.186H96.1674V119.369C96.1674 118.96 96.0993 118.552 96.0311 118.211C95.9629 117.87 95.8267 117.597 95.5541 117.393C95.3497 117.189 95.0771 116.984 94.7364 116.916C94.3957 116.779 93.9868 116.779 93.4417 116.779C92.7603 116.779 92.147 116.848 91.67 116.984C91.1248 117.12 90.716 117.257 90.3072 117.461C89.8983 117.665 89.5575 117.802 89.285 117.938C89.0124 118.074 88.808 118.143 88.6035 118.143C88.4672 118.143 88.3992 118.143 88.2629 118.006C88.1947 117.938 88.1266 117.802 88.0584 117.665C87.9902 117.529 87.9221 117.393 87.9221 117.189C87.9221 116.984 87.854 116.779 87.854 116.507C87.854 116.166 87.854 115.962 87.9221 115.757C87.9902 115.553 88.0584 115.416 88.1947 115.281C88.331 115.144 88.6035 114.94 88.9443 114.803C89.285 114.599 89.762 114.462 90.239 114.327C90.716 114.19 91.2612 114.054 91.8745 113.917C92.4877 113.849 93.0328 113.781 93.7143 113.781C94.8046 113.781 95.7586 113.917 96.5763 114.122C97.394 114.327 98.0072 114.667 98.5524 115.076C99.0294 115.485 99.4382 116.098 99.6427 116.779C99.8472 117.461 99.9838 118.278 99.9838 119.232L100.052 128.636ZM96.1674 122.708H94.6683C94.055 122.708 93.4417 122.776 93.0328 122.844C92.5558 122.913 92.2151 123.048 91.9425 123.253C91.67 123.457 91.4655 123.662 91.3293 123.935C91.193 124.207 91.1248 124.48 91.1248 124.821C91.1248 125.434 91.3293 125.843 91.67 126.184C92.0107 126.524 92.5558 126.66 93.2373 126.66C93.7824 126.66 94.3276 126.524 94.8046 126.251C95.2816 125.979 95.7586 125.57 96.2356 125.025V122.708H96.1674ZM116.611 114.667C116.611 114.735 116.611 114.803 116.611 114.871C116.611 114.94 116.611 115.008 116.611 115.144C116.611 115.212 116.542 115.349 116.542 115.416C116.542 115.553 116.474 115.689 116.405 115.825L112.181 128.432C112.113 128.636 112.045 128.772 111.976 128.841C111.908 128.977 111.772 129.046 111.5 129.113C111.295 129.181 111.022 129.25 110.682 129.25C110.341 129.25 109.864 129.25 109.319 129.25C108.774 129.25 108.297 129.25 107.956 129.181C107.616 129.181 107.343 129.113 107.138 129.046C106.934 128.977 106.797 128.909 106.73 128.772C106.662 128.636 106.593 128.5 106.525 128.364L102.301 115.757C102.232 115.553 102.164 115.349 102.164 115.212C102.096 115.008 102.096 114.94 102.096 114.871C102.096 114.803 102.096 114.735 102.096 114.667C102.096 114.599 102.096 114.462 102.164 114.395C102.232 114.327 102.301 114.258 102.505 114.19C102.641 114.122 102.846 114.122 103.118 114.054C103.39 114.054 103.731 114.054 104.072 114.054C104.481 114.054 104.822 114.054 105.094 114.122C105.367 114.122 105.571 114.19 105.708 114.258C105.843 114.327 105.98 114.395 106.048 114.462C106.117 114.531 106.184 114.667 106.184 114.803L109.387 125.025L109.455 125.434L109.523 125.025L112.726 114.803C112.726 114.667 112.795 114.599 112.862 114.462C112.93 114.395 113.067 114.327 113.203 114.258C113.339 114.19 113.544 114.19 113.816 114.122C114.089 114.122 114.362 114.054 114.77 114.054C115.179 114.054 115.451 114.054 115.724 114.054C115.997 114.054 116.201 114.122 116.338 114.19C116.474 114.258 116.542 114.327 116.611 114.395C116.611 114.462 116.611 114.531 116.611 114.667ZM122.948 128.636C122.948 128.772 122.948 128.841 122.879 128.909C122.811 128.977 122.675 129.046 122.539 129.113C122.403 129.181 122.198 129.181 121.925 129.25C121.653 129.25 121.381 129.318 120.971 129.318C120.562 129.318 120.29 129.318 120.017 129.25C119.745 129.25 119.54 129.181 119.404 129.113C119.267 129.046 119.132 128.977 119.063 128.909C118.995 128.841 118.995 128.705 118.995 128.636V114.735C118.995 114.599 118.995 114.531 119.063 114.462C119.132 114.395 119.2 114.327 119.404 114.258C119.54 114.19 119.745 114.19 120.017 114.122C120.29 114.122 120.562 114.054 120.971 114.054C121.381 114.054 121.653 114.054 121.925 114.122C122.198 114.122 122.403 114.19 122.539 114.258C122.675 114.327 122.811 114.395 122.879 114.462C122.948 114.531 122.948 114.599 122.948 114.735V128.636ZM123.288 109.965C123.288 110.783 123.152 111.328 122.811 111.6C122.47 111.873 121.857 112.078 120.971 112.078C120.086 112.078 119.473 111.941 119.132 111.669C118.791 111.396 118.654 110.851 118.654 110.102C118.654 109.284 118.791 108.738 119.132 108.466C119.473 108.125 120.086 107.989 120.971 107.989C121.857 107.989 122.47 108.125 122.811 108.466C123.152 108.671 123.288 109.216 123.288 109.965ZM135.35 127.205C135.35 127.682 135.35 128.023 135.281 128.227C135.213 128.5 135.146 128.636 135.077 128.772C135.009 128.841 134.872 128.977 134.668 129.046C134.464 129.113 134.259 129.181 133.986 129.25C133.714 129.318 133.442 129.318 133.169 129.386C132.897 129.386 132.556 129.454 132.284 129.454C131.465 129.454 130.784 129.386 130.239 129.181C129.626 128.977 129.148 128.705 128.807 128.296C128.399 127.887 128.127 127.342 127.99 126.728C127.786 126.115 127.718 125.365 127.718 124.48V117.324H126.014C125.81 117.324 125.673 117.189 125.537 116.984C125.401 116.711 125.401 116.303 125.401 115.757C125.401 115.485 125.401 115.212 125.469 115.008C125.469 114.803 125.537 114.667 125.605 114.531C125.673 114.395 125.741 114.327 125.81 114.258C125.878 114.19 126.014 114.19 126.082 114.19H127.786V111.055C127.786 110.987 127.786 110.851 127.853 110.783C127.922 110.715 127.99 110.646 128.194 110.579C128.331 110.511 128.535 110.511 128.807 110.442C129.081 110.442 129.421 110.374 129.761 110.374C130.171 110.374 130.511 110.374 130.715 110.442C130.989 110.442 131.193 110.511 131.329 110.579C131.465 110.646 131.602 110.715 131.669 110.783C131.738 110.851 131.738 110.987 131.738 111.055V114.19H134.805C134.94 114.19 135.009 114.19 135.077 114.258C135.146 114.327 135.213 114.395 135.281 114.531C135.35 114.667 135.35 114.803 135.418 115.008C135.418 115.212 135.486 115.485 135.486 115.757C135.486 116.303 135.418 116.711 135.35 116.984C135.213 117.257 135.077 117.324 134.872 117.324H131.806V123.867C131.806 124.616 131.943 125.161 132.147 125.57C132.419 125.979 132.828 126.115 133.442 126.115C133.646 126.115 133.851 126.115 133.986 126.047C134.123 125.979 134.327 125.979 134.464 125.91C134.6 125.843 134.736 125.843 134.805 125.775C134.872 125.706 134.94 125.706 135.077 125.706C135.146 125.706 135.213 125.706 135.281 125.775C135.35 125.843 135.418 125.91 135.418 125.979C135.418 126.115 135.486 126.251 135.486 126.456C135.35 126.728 135.35 126.933 135.35 127.205ZM150 128.636C150 128.772 149.932 128.909 149.864 128.977C149.728 129.046 149.591 129.113 149.387 129.181C149.183 129.25 148.842 129.25 148.365 129.25C147.888 129.25 147.547 129.25 147.342 129.181C147.138 129.113 147.002 129.113 146.866 128.977C146.797 128.909 146.729 128.772 146.729 128.636V127.546C146.116 128.159 145.503 128.636 144.753 128.977C144.004 129.318 143.186 129.522 142.3 129.522C141.55 129.522 140.869 129.454 140.256 129.25C139.642 129.046 139.097 128.772 138.621 128.364C138.143 127.955 137.802 127.478 137.53 126.933C137.258 126.388 137.121 125.706 137.121 124.956C137.121 124.139 137.258 123.457 137.598 122.844C137.939 122.231 138.416 121.754 139.029 121.345C139.642 120.936 140.46 120.664 141.414 120.46C142.368 120.255 143.458 120.186 144.753 120.186H146.116V119.369C146.116 118.96 146.048 118.552 145.98 118.211C145.912 117.87 145.775 117.597 145.503 117.393C145.299 117.189 145.026 116.984 144.685 116.916C144.345 116.779 143.936 116.779 143.391 116.779C142.709 116.779 142.096 116.848 141.618 116.984C141.074 117.12 140.664 117.257 140.256 117.461C139.847 117.665 139.506 117.802 139.234 117.938C138.961 118.074 138.756 118.143 138.552 118.143C138.416 118.143 138.348 118.143 138.212 118.006C138.143 117.938 138.075 117.802 138.008 117.665C137.939 117.529 137.871 117.393 137.871 117.189C137.871 116.984 137.802 116.779 137.802 116.507C137.802 116.166 137.802 115.962 137.871 115.757C137.939 115.553 138.008 115.416 138.143 115.281C138.28 115.144 138.552 114.94 138.893 114.803C139.234 114.599 139.71 114.462 140.188 114.327C140.664 114.19 141.21 114.054 141.823 113.917C142.437 113.849 142.982 113.781 143.663 113.781C144.753 113.781 145.707 113.917 146.525 114.122C147.342 114.327 147.956 114.667 148.501 115.076C148.978 115.485 149.387 116.098 149.591 116.779C149.796 117.461 149.932 118.278 149.932 119.232L150 128.636ZM146.048 122.708H144.549C143.936 122.708 143.322 122.776 142.913 122.844C142.437 122.913 142.096 123.048 141.823 123.253C141.55 123.457 141.346 123.662 141.21 123.935C141.074 124.207 141.005 124.48 141.005 124.821C141.005 125.434 141.21 125.843 141.55 126.184C141.891 126.524 142.437 126.66 143.118 126.66C143.663 126.66 144.208 126.524 144.685 126.251C145.162 125.979 145.639 125.57 146.116 125.025L146.048 122.708Z" fill="url(#paint0_linear_192_4799)"/>
<path d="M96.7107 79.5059C115.927 75.69 135.62 71.7377 143.934 49.1143C134.735 54.702 123.422 56.3374 112.043 57.9729C90.5098 61.1074 68.4997 64.242 60.3906 94.4297C69.3173 84.9574 82.8778 82.2999 96.7107 79.5059Z" fill="#92C200"/>
<path d="M60.5967 90.2724C73.612 35.1446 131.329 24.5144 148.024 10C142.777 36.3712 127.99 48.1599 111.5 57.0866C90.7158 60.0849 69.6597 63.2876 60.5967 90.2724Z" fill="#DBE173"/>
<path d="M120.494 74.2588C109.864 103.833 81.653 93.339 57.5986 103.151C60.3925 86.6608 83.2203 83.1855 96.917 80.4598C104.958 78.8926 113.135 77.2571 120.494 74.2588Z" fill="#009A1A"/>
<path d="M34.3611 101.925C34.3611 102.947 33.4071 103.764 32.1806 103.764C30.954 103.764 30 102.947 30 101.925V94.3606C30 90.6133 31.9762 88.0916 34.4975 86.9331C35.5196 86.4561 36.678 86.1836 37.7683 86.1836C38.9267 86.1836 40.017 86.388 41.1073 86.7969C41.925 87.1376 42.6065 87.6146 43.2878 88.1597C43.9011 87.5464 44.6507 87.1376 45.4684 86.7969C46.4906 86.388 47.649 86.1836 48.8074 86.1836C49.9659 86.1836 51.0562 86.4561 52.0783 86.9331C54.5996 88.0916 56.5757 90.6133 56.5757 94.3606V101.925C56.5757 102.947 55.6217 103.764 54.3952 103.764C53.1685 103.764 52.2145 102.947 52.2145 101.925V94.3606C52.2145 92.1116 51.2606 90.6811 49.9659 90.1358C49.557 89.9314 49.08 89.8636 48.6711 89.8636C48.2623 89.8636 47.8534 89.9314 47.4446 90.068C46.3543 90.5445 45.5366 91.6351 45.5366 93.4753C45.5366 93.5431 45.4684 101.993 45.4684 101.993C45.4684 102.06 45.4684 102.06 45.4684 102.129C45.4684 102.129 45.4684 102.129 45.4684 102.197C45.4684 102.197 45.4684 102.197 45.4684 102.266C45.4684 102.266 45.4684 102.266 45.4684 102.334C45.4003 102.47 45.264 102.674 45.1278 102.81C45.1278 102.81 45.1277 102.81 45.0596 102.81C45.0596 102.81 45.0596 102.81 44.9915 102.81C44.9915 102.81 44.9915 102.81 44.9233 102.81C44.7188 102.947 44.4463 103.083 44.1737 103.22C44.1737 103.22 44.1737 103.22 44.1056 103.22C44.1056 103.22 44.1056 103.22 44.0375 103.22C43.9011 103.22 43.7648 103.288 43.6286 103.288H43.2197C43.0835 103.288 42.9472 103.288 42.8108 103.288C42.7427 103.288 42.6746 103.288 42.6746 103.288C42.6746 103.288 42.6745 103.288 42.6065 103.288C42.6065 103.288 42.6065 103.288 42.5383 103.288C42.4702 103.288 42.4702 103.288 42.402 103.22C42.402 103.22 42.402 103.22 42.3339 103.22C42.1295 103.151 41.9932 103.083 41.8569 102.947C41.8569 102.947 41.8569 102.947 41.7887 102.947C41.7205 102.947 41.7205 102.879 41.6525 102.879C41.5843 102.879 41.5843 102.81 41.5162 102.81C41.3799 102.674 41.3117 102.538 41.2435 102.401C41.2435 102.401 41.2435 102.401 41.2435 102.334C41.2435 102.334 41.1754 102.266 41.1754 102.197C41.1754 102.197 41.1754 102.197 41.1754 102.129C41.1754 102.06 41.1754 102.06 41.1073 101.993C41.1073 101.925 41.1073 93.4066 41.1073 93.3387C41.0392 91.4985 40.2214 90.408 39.1993 89.9314C38.7904 89.7949 38.3816 89.7271 37.9727 89.7271C37.5639 89.7271 37.0869 89.8636 36.6781 89.9993C35.4514 90.6133 34.4293 91.976 34.4293 94.224L34.3611 101.925Z" fill="#FFA9AB"/>
<defs>
<linearGradient id="paint0_linear_192_4799" x1="18.6005" y1="105.457" x2="26.3853" y2="153.13" gradientUnits="userSpaceOnUse">
<stop stop-color="#3AA6AD"/>
<stop offset="1" stop-color="#62C4D3"/>
</linearGradient>
</defs>
</svg>
