<svg width="180" height="140" viewBox="0 0 180 140" fill="none" xmlns="http://www.w3.org/2000/svg">
<path fill-rule="evenodd" clip-rule="evenodd" d="M84.418 32.1178C83.7069 32.3059 82.6846 32.8293 82.2204 33.243C81.9325 33.4996 81.4432 33.5853 79.9313 33.6437C78.2796 33.7076 77.854 33.7924 76.9137 34.2445C75.5182 34.9159 74.281 36.1533 73.6117 37.5476C73.1751 38.4567 73.0734 38.9374 73.0121 40.3821C72.8779 43.5426 73.8235 46.1562 75.8493 48.2239L76.9866 49.3846L75.9264 50.7894C74.2012 53.0752 73.3135 54.665 72.1353 57.5793L71.3647 59.4851L69.9253 59.4518C61.1317 59.248 44.7704 57.9307 31.8597 56.3869C25.7783 55.6599 22.9986 55.62 20.1394 56.2186C11.7154 57.9827 4.5404 64.0456 1.48305 71.9832C0.37145 74.8693 -0.00561401 77.0317 6.30108e-05 80.4876C0.00574004 83.9306 0.275673 85.5485 1.31402 88.3621C2.55637 91.7284 4.3417 94.4756 7.03298 97.1619C10.2918 100.415 14.1109 102.557 18.7778 103.748C22.263 104.638 40.9431 106.615 54.11 107.488C65.9248 108.271 72.0917 108.498 85.0589 108.627C102.322 108.799 117.571 108.25 134.412 106.849C144.67 105.996 158.646 104.406 160.918 103.834C165.757 102.614 169.676 100.444 172.973 97.1579C176.311 93.8308 178.371 90.2101 179.491 85.7016C179.933 83.9221 179.991 83.3363 180 80.5791C180.01 77.1769 179.792 75.7597 178.818 72.8761C176.32 65.4876 170.155 59.4214 162.658 56.9753C158.444 55.6002 155.673 55.4876 148.147 56.3855C136.192 57.8117 122.645 58.9352 112.325 59.3564L109.283 59.4805L109.15 58.7674C108.79 56.8281 106.766 52.3262 105.403 50.4314L104.715 49.4754L105.85 48.3624C107.932 46.3199 108.961 43.5607 108.826 40.3821C108.765 38.9374 108.663 38.4567 108.226 37.5476C107.57 36.1806 106.227 34.8181 104.966 34.2409C103.852 33.731 101.904 33.4093 100.814 33.5556C100.22 33.6351 99.9756 33.5781 99.6562 33.2858C97.9291 31.7041 94.7853 31.5628 92.5629 32.9666C90.7669 34.1013 90.8907 34.0826 89.8914 33.3684C89.3991 33.0166 88.6666 32.5903 88.2637 32.4209C87.4334 32.0722 85.2428 31.8995 84.418 32.1178ZM87.3757 38.442C87.9648 38.886 88.6466 39.4628 88.8907 39.724C89.3002 40.1622 89.4539 40.199 90.8695 40.199H92.4041L93.6957 39.0874C95.1417 37.8428 95.6955 37.5315 96.1516 37.7066C96.4143 37.8073 96.4452 37.9904 96.3492 38.8751C96.2864 39.4522 96.1842 40.1455 96.122 40.416L96.0086 40.9077L97.5026 40.2618C98.3243 39.9065 99.6423 39.4886 100.431 39.3332C101.789 39.0656 101.904 39.0691 102.573 39.3958L103.28 39.7412L103.268 41.1146C103.259 42.1328 103.157 42.6777 102.874 43.2206C102.089 44.7269 101.287 45.1435 99.1744 45.1435H97.7476L98.3765 47.4784C99.3291 51.0145 99.8087 52.3551 100.981 54.7578C102.301 57.4639 102.63 58.5319 102.759 60.5264C103.119 66.1196 99.3326 71.0816 93.6182 72.5057C90.9749 73.1644 87.737 72.8093 85.7458 71.6424C83.2954 70.2063 81.695 66.9933 82.0373 64.1967C82.2796 62.2165 83.0348 61.4019 84.6608 61.3673C85.3519 61.3527 85.5332 61.4378 86.0801 62.0345C86.6241 62.6282 86.7071 62.8432 86.7071 63.661C86.7071 64.5011 86.6373 64.6693 86.0661 65.2081C85.3217 65.9102 85.3083 65.989 85.7783 66.9099C86.6507 68.6202 88.3967 69.4998 90.9191 69.4998C93.3133 69.4998 95.1056 68.7696 96.9204 67.055C99.6205 64.504 100.261 60.759 98.5933 57.2769C97.6793 55.3686 95.0884 53.3475 92.913 52.8461C90.8729 52.3757 87.9954 52.7214 86.031 53.6729C83.0509 55.1162 80.3682 59.437 79.2742 64.5553C78.779 66.8715 78.8221 71.3333 79.3641 73.8872C79.8586 76.217 80.8283 79.2174 81.6452 80.9454L82.2512 82.2273L82.8485 81.0532C83.6593 79.4596 85.0558 78.095 86.4381 77.5458C87.3133 77.1978 87.8788 77.1101 89.2749 77.1055C90.8792 77.1002 91.1156 77.1475 92.231 77.6967C94.2998 78.7152 95.4955 80.4551 95.8513 82.9651C96.4633 87.2824 93.9455 91.104 90.1866 91.5629C88.8396 91.7273 86.8292 91.2926 85.3796 90.5233C82.1809 88.8255 79.1294 84.4686 77.3019 78.9906C74.1501 69.5421 75.3706 60.5856 80.7541 53.659C82.2944 51.677 82.5641 51.0897 83.3926 47.9144L84.1067 45.1776L82.4164 45.1147C80.9101 45.0587 80.6547 44.9975 80.0727 44.5533C79.2361 43.9147 78.6402 42.6778 78.5175 41.3254C78.3989 40.0164 78.6267 39.5405 79.4861 39.3033C80.601 38.9955 83.2214 39.6119 85.2441 40.6579L85.8455 40.9689L85.7171 40.2635C85.1783 37.3032 85.4572 36.997 87.3757 38.442ZM80.2237 41.0861C80.0179 41.4188 80.5212 42.5811 81.0711 43.0439C81.6245 43.5096 81.7133 43.5259 83.0344 43.4036C84.504 43.2677 84.9179 43.0857 84.7505 42.6493C84.6099 42.283 83.0978 41.5379 81.8188 41.2047C80.6127 40.8905 80.3563 40.8714 80.2237 41.0861ZM99.7093 41.2769C98.1318 41.7869 97.1455 42.3552 97.1455 42.7542C97.1455 43.1507 97.3616 43.234 98.8197 43.3996C100.312 43.5688 101.038 43.2248 101.446 42.1546C101.944 40.85 101.587 40.6696 99.7093 41.2769ZM88.0612 46.1546C87.8949 46.4084 87.7504 46.9347 87.7401 47.324C87.7044 48.6869 88.5518 49.4752 89.5592 49.0163C89.9705 48.829 90.0034 48.7147 90.0034 47.4731C90.0034 45.9617 89.8465 45.6929 88.9638 45.6929C88.5245 45.6929 88.2827 45.8165 88.0612 46.1546ZM92.1224 45.9806C91.7338 46.3694 91.732 48.2117 92.1199 48.7653C92.8333 49.7842 94.2154 48.9053 94.2154 47.4326C94.2154 46.0284 92.9515 45.1516 92.1224 45.9806ZM86.3 56.4164C86.9452 56.8682 86.7901 57.151 85.5105 57.8542C84.1295 58.6132 83.8475 58.6561 83.6812 58.1322C83.273 56.8462 85.1542 55.6138 86.3 56.4164ZM96.3963 56.3974C97.275 56.8517 97.5938 58.3008 96.8756 58.5764C96.7347 58.6305 96.4287 58.5257 96.1958 58.3439C95.9627 58.1618 95.4217 57.8351 94.9937 57.6178C94.1237 57.176 94.0195 56.8387 94.6225 56.4164C95.1314 56.0599 95.7314 56.0535 96.3963 56.3974ZM27.3309 68.761C28.587 69.3086 29.9746 70.8113 30.4212 72.1072C30.9197 73.5543 30.8595 75.3857 30.2716 76.6418C30.0125 77.1958 29.546 77.9034 29.2353 78.2142L28.6701 78.7793L29.7358 79.8752C31.177 81.3571 31.6429 82.5584 31.6429 84.7911C31.6429 86.0551 31.5486 86.6827 31.2378 87.4835C29.9903 90.6991 26.034 92.5221 22.3723 91.5684C19.3724 90.7871 17.3465 88.8718 16.6299 86.14C16.2382 84.6466 16.4665 83.8842 17.4256 83.4836C18.6192 82.9847 19.4878 83.6059 19.8665 85.2291C20.5644 88.2208 24.6938 89.5638 27.0991 87.5813C27.4761 87.2705 27.8982 86.7447 28.0367 86.4131C28.3361 85.6963 28.3672 84.0159 28.0944 83.2922C27.5631 81.883 25.819 80.934 23.2878 80.6767C21.5295 80.4982 20.9635 80.0854 20.9635 78.9822C20.9635 77.8785 21.5065 77.4588 23.1076 77.3245C24.8262 77.1804 25.7468 76.8891 26.5341 76.24C27.3393 75.5764 27.6545 74.5743 27.3794 73.5526C26.9844 72.0857 25.9102 71.3838 24.3323 71.5616C23.344 71.673 22.74 72.0563 22.0991 72.9792C21.2528 74.1978 20.1438 74.3738 19.208 73.438C18.6608 72.8908 18.6419 72.1812 19.1516 71.3311C19.957 69.9873 21.0915 69.0658 22.6261 68.5079C23.7851 68.0867 26.0662 68.2094 27.3309 68.761ZM157.249 73.9788C157.634 74.1113 157.99 74.1529 158.04 74.0714C158.213 73.7918 159.251 73.6773 159.747 73.883C160.02 73.9962 160.348 74.256 160.476 74.4604C160.604 74.6648 160.873 76.4959 161.075 78.5297C161.48 82.6137 161.675 83.255 162.706 83.9137C163.765 84.5898 163.988 84.8931 163.988 85.656C163.988 86.7011 163.263 87.3317 162.199 87.2123C161.769 87.1639 161.103 86.9165 160.719 86.6621L160.02 86.1999L159.211 86.7024C158.005 87.4512 156.44 87.9799 155.045 88.1096C152.062 88.3869 149.636 86.6975 148.571 83.6008C147.999 81.9352 148.003 79.193 148.58 77.7137C149.06 76.4843 150.169 75.1658 151.263 74.5247C152.859 73.5891 155.436 73.3541 157.249 73.9788ZM42.4254 74.6682C43.2887 75.0647 43.5037 75.1045 43.6741 74.8992C44.0133 74.4904 44.8744 74.3939 45.4637 74.6986C46.4334 75.2 46.4478 75.3726 46.1482 82.8468C45.8854 89.4014 45.8549 89.7338 45.43 90.6619C44.7933 92.0528 43.6917 93.1643 42.3433 93.7766C38.2746 95.6241 30.9096 92.517 33.4163 90.0103C34.1001 89.3265 34.6198 89.3543 36.2274 90.1607C37.9164 91.0078 39.1963 91.2419 40.3961 90.9234C41.5976 90.6044 42.5728 89.5342 42.5728 88.5345C42.5728 88.1946 42.5023 88.157 42.0692 88.2667C39.9352 88.8068 37.916 88.7114 36.4484 88.001C36.0091 87.7882 35.265 87.2031 34.7949 86.7004C31.2391 82.8992 32.5735 75.9362 37.1436 74.4448C38.7577 73.9181 40.9986 74.0128 42.4254 74.6682ZM146.055 74.9796C146.706 75.6299 146.724 76.0749 146.164 77.6168C145.597 79.1802 144.955 80.244 143.849 81.4536L142.934 82.4549L143.893 83.3583C144.42 83.8553 145.386 84.6193 146.041 85.0563C147.853 86.2655 148.056 86.4915 148.056 87.3036C148.056 88.2292 147.413 88.9115 146.542 88.9115C145.492 88.9115 142.534 86.8896 140.672 84.899C140.192 84.3864 139.776 83.967 139.746 83.967C139.716 83.967 139.73 85.0339 139.777 86.3378L139.863 88.7086L139.281 89.2904C138.774 89.797 138.611 89.8583 138.021 89.7644C137.095 89.6169 136.522 88.9273 136.506 87.9398C136.499 87.5174 136.389 84.8232 136.261 81.9526C136.075 77.771 136.074 76.618 136.258 76.1529C136.516 75.5 136.996 75.1768 137.709 75.1768C139.01 75.1768 139.448 76.0529 139.448 78.6504C139.448 79.6609 139.494 80.4876 139.549 80.4876C139.884 80.4876 140.766 79.8495 141.439 79.1192C142.211 78.281 143.294 76.2842 143.294 75.6967C143.294 75.5293 143.548 75.1792 143.858 74.9184C144.621 74.2762 145.373 74.2972 146.055 74.9796ZM51.1455 75.4506C51.6669 75.8893 51.7152 75.8965 52.351 75.6308C53.3084 75.2308 54.9522 75.1068 56.2041 75.3403C59.7916 76.0095 61.8324 78.8991 61.5705 82.9389C61.2918 87.239 58.2864 90.0945 54.3867 89.7649C53.673 89.7047 52.7292 89.5283 52.2891 89.373C51.8491 89.2177 51.4489 89.1307 51.4 89.1798C51.3511 89.2287 51.2709 90.2802 51.222 91.5165C51.1204 94.0837 50.9228 94.6468 50.0191 94.9451C49.3056 95.1806 48.702 95.0108 48.1757 94.4265C47.8731 94.0904 47.8314 93.7782 47.8607 92.0705C47.9519 86.7808 48.4421 76.2344 48.6117 75.9176C49.1336 74.9424 50.2886 74.7296 51.1455 75.4506ZM131.343 75.8231C131.914 76.2228 132.12 77.1773 132.133 79.4803C132.151 82.6827 132.385 85.0773 132.756 85.8533C132.97 86.3001 133.34 86.6772 133.79 86.9068C134.607 87.3234 134.872 87.7367 134.864 88.579C134.858 89.2547 134.61 89.662 134.012 89.9805C133.226 90.3991 132.19 90.0931 131.173 89.1415L130.68 88.681L129.896 89.3525C128.359 90.6681 125.695 90.9327 123.779 89.9601C123.27 89.7012 122.744 89.3591 122.612 89.2C122.398 88.9417 122.296 88.9787 121.673 89.5415C120.406 90.6857 119.965 90.8344 117.839 90.8344C116.217 90.8344 115.8 90.7723 115.176 90.4377C114.203 89.9169 112.957 88.5491 112.481 87.4787C112.075 86.5651 111.828 83.7229 111.807 79.6951C111.796 77.7417 111.804 77.7045 112.331 77.1771C112.972 76.5362 113.91 76.4585 114.568 76.9918C114.951 77.3018 115.014 77.5476 115.12 79.1436C115.185 80.1345 115.247 81.97 115.257 83.2224C115.272 85.1378 115.337 85.626 115.66 86.295C116.116 87.2372 116.78 87.6296 117.915 87.6296C118.57 87.6296 118.87 87.517 119.358 87.089C120.333 86.2325 120.449 85.5399 120.376 80.9847L120.311 76.9784L120.825 76.5354C121.108 76.2919 121.545 76.0924 121.796 76.0924C122.4 76.0924 123.256 76.5466 123.422 76.9555C123.495 77.1355 123.613 79.0546 123.685 81.2201C123.825 85.4462 123.901 85.7925 124.887 86.714C125.283 87.0839 125.564 87.1718 126.355 87.1718C127.145 87.1718 127.426 87.0841 127.822 86.714C128.905 85.7007 128.988 85.1998 128.821 80.6549C128.676 76.7094 128.75 76.1855 129.514 75.7408C129.989 75.4641 130.888 75.5046 131.343 75.8231ZM71.6456 76.8266C72.0639 76.9336 72.4014 76.8995 72.777 76.7122C73.3908 76.4058 74.0883 76.5211 74.5224 77.0008C74.6846 77.18 75.0139 78.0585 75.2542 78.9529C76.2079 82.504 77.2581 84.8574 79.0757 87.5164C80.3845 89.4311 80.514 90.1434 79.683 90.8582C78.7616 91.6506 77.7647 91.3642 76.8511 90.0444C75.6959 88.3757 75.9164 88.4456 74.5975 89.33C72.8868 90.4773 71.6308 90.8344 69.3098 90.834C67.1367 90.8338 66.721 90.6846 65.3344 89.4063C62.4909 86.7852 62.3197 81.1774 64.9991 78.4246C66.5918 76.7881 69.1195 76.1805 71.6456 76.8266ZM108.913 76.838C109.784 77.2348 109.8 77.3665 109.914 84.7986C110.014 91.321 109.998 91.8841 109.686 92.7008C109.245 93.8564 107.802 95.3652 106.674 95.8503C103.943 97.0255 99.672 96.4991 97.8461 94.7625C97.1098 94.0621 97.003 93.6366 97.3643 92.8437C97.5755 92.38 98.3556 91.8416 98.8158 91.8416C98.9389 91.8416 99.5817 92.1088 100.244 92.4355C101.261 92.9367 101.695 93.0393 103.025 93.0937C104.348 93.1477 104.722 93.0962 105.356 92.7726C106.006 92.4412 106.839 91.4017 106.626 91.1886C106.587 91.1503 106.232 91.2085 105.835 91.318C104.63 91.6508 102.467 91.4301 101.291 90.8547C99.2562 89.8592 98.3496 88.1717 98.0421 84.808C97.8363 82.5564 97.4998 80.8886 96.9565 79.4281C96.6331 78.559 96.6228 78.3973 96.8554 77.8406C97.2469 76.9037 98.2776 76.5358 99.1713 77.0141C100.009 77.4622 101.059 80.8181 101.27 83.7172C101.494 86.803 102.071 87.9299 103.525 88.125C104.572 88.2654 105.471 88.055 106.105 87.5214L106.652 87.0617L106.54 82.4157L106.428 77.7699L106.992 77.2059C107.586 76.6114 108.17 76.4997 108.913 76.838ZM154.096 76.9916C152.383 77.3322 151.486 78.5218 151.475 80.4683C151.463 82.443 152.183 83.996 153.401 84.6261C154.132 85.0039 155.522 84.8455 156.765 84.243C158.256 83.5196 158.349 83.4015 158.15 82.4776C158.055 82.0377 157.92 80.895 157.85 79.9382C157.75 78.5564 157.647 78.1147 157.349 77.7917C156.756 77.1469 155.218 76.7686 154.096 76.9916ZM38.0861 77.6329C36.8297 78.1913 36.1612 79.4867 36.1673 81.3516C36.1722 82.8541 36.5676 83.824 37.5144 84.6554C38.1347 85.2 38.2918 85.2486 39.4202 85.2449C40.7269 85.2407 41.8727 84.849 42.4137 84.2218C42.86 83.7044 43.0709 79.99 42.695 79.2699C41.8544 77.66 39.7261 76.9041 38.0861 77.6329ZM53.6952 78.7072C52.9085 78.9625 51.9589 79.792 51.713 80.4388C51.6213 80.6802 51.5462 81.8055 51.5462 82.9398C51.5462 84.8446 51.5777 85.0306 51.9582 85.3788C53.0927 86.416 55.1952 86.8151 56.3075 86.2039C58.7309 84.873 58.9796 80.1233 56.6881 78.9383C55.9578 78.5607 54.4949 78.4477 53.6952 78.7072ZM68.4857 79.9759C67.1552 80.4409 66.3899 81.7528 66.3837 83.5795C66.3764 85.7242 67.2027 87.2595 68.5611 87.6252C69.8982 87.9853 72.4838 87.1604 73.5692 86.0274L74.0633 85.5117L73.3397 83.6863C72.9416 82.6824 72.6138 81.7279 72.611 81.5653C72.6013 80.9838 71.86 80.3145 70.9147 80.0338C69.844 79.7158 69.2691 79.7021 68.4857 79.9759ZM87.7068 80.6487C86.411 81.2373 85.1879 83.1583 84.9351 85.0019C84.8359 85.7258 84.882 85.8774 85.3534 86.377C86.613 87.7126 88.8167 88.5478 90.1404 88.1915C90.9636 87.9699 91.884 87.0821 92.2832 86.1247C92.6802 85.1731 92.648 83.1521 92.2211 82.2273C91.428 80.5088 89.4993 79.8343 87.7068 80.6487Z" fill="#08338F"/>
</svg>
