<svg width="180" height="140" viewBox="0 0 180 140" fill="none" xmlns="http://www.w3.org/2000/svg">
<path fill-rule="evenodd" clip-rule="evenodd" d="M85.771 15.0145C83.0982 15.1667 78.9175 16.0148 76.1709 16.9619C73.1169 18.015 70.0977 19.5231 67.4851 21.3003C66.1498 22.2086 65.8854 22.4011 65.0138 23.0988C57.267 29.3001 52.316 38.1859 51.1608 47.9611C50.8517 50.5775 50.7928 52.4351 50.9496 54.619C51.2521 58.8296 52.0421 62.408 53.489 66.1211C54.9338 69.8285 57.1731 73.5574 59.8258 76.6732C60.6657 77.6597 62.8484 79.866 63.7864 80.6767C69.1586 85.3197 75.7114 88.3615 82.5709 89.3966C84.9353 89.7534 85.7104 89.8085 88.306 89.805C90.9604 89.8016 91.7588 89.7413 94.2489 89.3571C100.167 88.444 106.219 85.825 111.039 82.0914C117.763 76.882 122.511 69.6497 124.539 61.5265C125.724 56.7795 125.979 51.9666 125.302 47.1705C124.33 40.2891 121.515 33.9157 117.065 28.5145C115.992 27.2132 113.86 25.0415 112.609 23.9758C108.12 20.1535 102.925 17.4621 97.3658 16.078C94.2838 15.3108 92.1425 15.042 88.8463 15.0091C87.452 14.9951 86.0681 14.9975 85.771 15.0145ZM92.6281 15.8767C94.1461 16.058 94.2685 16.0794 96.2853 16.5183C98.3243 16.9622 101.052 17.8344 102.581 18.5318C102.793 18.6288 102.987 18.7081 103.012 18.7081C103.08 18.7081 105.447 19.8846 106.01 20.1986C112.459 23.7948 117.62 29.1333 121.003 35.7076C122.468 38.555 123.553 41.6435 124.242 44.9235C126.277 54.6201 124.231 64.8777 118.623 73.0946C114.355 79.3489 108.159 84.2084 101.065 86.8659C98.9811 87.6464 97.45 88.0731 95.1217 88.5219C92.6718 88.9942 91.2205 89.1222 88.306 89.1231C85.0772 89.1241 83.3046 88.9418 80.4099 88.311C75.5096 87.2433 70.6829 85.0646 66.6754 82.1115C60.8025 77.7838 56.4276 72.0272 53.8775 65.2716C53.3707 63.9292 52.6985 61.7238 52.5236 60.8303C52.4822 60.6181 52.3706 60.0888 52.2758 59.654C51.472 55.9679 51.3429 50.9377 51.9503 46.9624C53.4115 37.3987 58.4503 28.9269 66.1669 23.0598C71.7777 18.7938 78.6722 16.1925 85.6463 15.7103C87.2989 15.5961 91.0208 15.6847 92.6281 15.8767ZM86.0203 18.2065C75.3145 18.9079 65.5764 24.6215 59.6338 33.6883C53.5267 43.0058 52.3687 54.8556 56.5514 65.2299C60.9472 76.1329 70.7243 84.0581 82.368 86.1566C85.8168 86.7782 90.7029 86.7761 94.2074 86.1516C103.405 84.5125 111.545 79.1812 116.747 71.3885C117.651 70.0338 118.076 69.3017 118.847 67.7697C123.696 58.1372 123.714 46.7337 118.894 37.1005C117.191 33.6961 115.209 30.954 112.455 28.19C107.543 23.2622 101.444 20.0289 94.5773 18.7129C92.233 18.2636 88.5107 18.0433 86.0203 18.2065ZM92.2957 20.1182C99.8031 21.1049 106.31 24.3671 111.579 29.7866C119.42 37.8499 122.51 49.302 119.796 60.2342C118.69 64.6922 116.713 68.7499 113.876 72.3872C105.92 82.5868 92.711 87.1131 80.2436 83.9118C76.9061 83.0548 73.4839 81.5564 70.6972 79.7318C59.6692 72.5112 54.0985 59.8302 56.2652 46.8792C57.8387 37.4743 63.7841 28.9844 72.1729 24.1634C76.3491 21.7634 81.2865 20.261 86.1034 19.9243C87.3746 19.8355 91.011 19.9493 92.2957 20.1182ZM78.4139 38.9522C78.5622 40.1091 79.0418 41.077 79.9007 41.9528C80.9796 43.0528 82.3502 43.7982 84.1722 44.2757C85.1035 44.5198 85.2264 44.5317 86.893 44.5401C89.2272 44.552 90.225 44.3477 91.9632 43.5026C93.3915 42.8081 94.6258 41.6592 95.1754 40.5126C95.3893 40.0663 95.6619 39.0786 95.6619 38.7498V38.5153H94.916C94.18 38.5153 94.1685 38.5184 94.0476 38.7525C93.8423 39.1499 93.1849 39.7345 92.6004 40.0393C91.0322 40.8568 89.4405 41.1836 87.0177 41.1852C85.0689 41.1864 83.8735 41.0087 82.5318 40.5184C81.2892 40.0644 80.514 39.5542 80.1041 38.9208L79.8416 38.5153H79.0998H78.3579L78.4139 38.9522ZM60.5032 51.9974V60.2365H63.4124H66.3215V51.9974V43.7583H63.4124H60.5032V51.9974ZM67.8176 49.8753V56.0168L68.4617 55.964C70.7439 55.7769 72.8549 54.1182 73.5874 51.9369C74.3981 49.5227 73.8035 47.119 71.9661 45.3811C70.9841 44.4523 69.7622 43.9027 68.4202 43.7862L67.8176 43.7339V49.8753ZM76.2124 51.9974V60.2365H81.1906C85.0978 60.2365 86.1768 60.2142 86.2061 60.1325C86.2266 60.0753 86.2399 59.5978 86.2357 59.0714L86.2281 58.1144L83.9759 53.9532C82.7372 51.6645 81.4316 49.249 81.0746 48.5853C80.7176 47.9216 80.2724 47.0963 80.0852 46.7512C79.898 46.4062 79.4644 45.592 79.1216 44.9419L78.4982 43.76L77.3553 43.7592L76.2124 43.7583V51.9974ZM95.0592 44.6531C94.7963 45.1451 94.458 45.7723 94.3073 46.047C93.9322 46.7307 92.6916 49.0454 92.211 49.9585C91.9941 50.3704 91.771 50.7824 91.7152 50.8739C91.6594 50.9655 91.414 51.4149 91.17 51.8726C90.9259 52.3303 90.0601 53.9363 89.246 55.4414L87.7658 58.1779V59.2072V60.2365H92.7944H97.823V51.9974V43.7583L96.6801 43.7584L95.5373 43.7585L95.0592 44.6531ZM100.732 51.9974V60.2365H103.641H106.55V51.9974V43.7583H103.641H100.732V51.9974ZM108.051 46.6711L108.051 49.584H108.675C109.715 49.584 111.274 49.166 112.286 48.616C114.106 47.6264 115.346 45.9579 115.501 44.29L115.551 43.7583H111.801H108.051L108.051 46.6711ZM108.099 51.3137C108.071 51.3588 108.057 53.3755 108.068 55.7953L108.088 60.1949L111.807 60.2166L115.527 60.2383L115.527 59.7588C115.526 59.2142 115.326 57.8843 115.159 57.3208C114.44 54.888 112.799 52.8383 110.822 51.9031C109.906 51.4701 108.227 51.1066 108.099 51.3137Z" fill="#1A428A"/>
<path fill-rule="evenodd" clip-rule="evenodd" d="M25.1131 83.7171C24.0558 83.9185 22.4391 84.6317 21.9181 85.1266C21.3356 85.6798 20.9153 86.3463 20.6892 87.0751C20.4917 87.7113 20.4692 88.8553 20.4692 98.2854V108.787L21.0959 108.204C21.9394 107.418 22.4581 107.117 23.6679 106.711C25.7352 106.017 28.7043 106.018 31.4856 106.713C32.2112 106.894 33.7603 107.368 34.928 107.766C36.9167 108.443 38.7517 109.029 39.6654 109.281C39.8831 109.34 40.8924 109.635 41.9083 109.935C43.8498 110.508 48.5553 111.702 50.6818 112.161C51.3711 112.31 52.4992 112.554 53.1885 112.702C58.0856 113.757 65.4952 114.789 72.7145 115.423C78.4462 115.926 92.0527 116.171 98.8372 115.894C116.277 115.182 129.479 112.899 144.358 108.021C148.399 106.696 149.466 106.428 151.412 106.249C154.868 105.931 157.603 106.691 159.164 108.405L159.66 108.949L159.626 98.1201C159.592 87.3867 159.59 87.2858 159.312 86.6968C158.667 85.3315 157.355 84.3313 155.568 83.8437C154.94 83.6722 154.2 83.6079 152.798 83.6028C150.527 83.5945 149.198 83.8483 146.207 84.8614C133.228 89.2576 120.755 91.7683 106.621 92.8298C101.183 93.2383 97.5128 93.3561 90.1296 93.359C81.1504 93.3627 76.0578 93.1402 68.8885 92.4309C61.1849 91.6689 51.4295 89.9682 45.8663 88.4174C45.3583 88.2758 44.4381 88.035 43.8213 87.8823C42.0006 87.4314 38.4366 86.3568 35.0478 85.237C33.3063 84.6614 31.3471 84.0654 30.694 83.9125C29.164 83.5544 26.4633 83.4597 25.1131 83.7171ZM141.188 89.7342C141.188 90.125 141.129 90.3945 141.043 90.3945C140.963 90.3945 140.576 90.4884 140.181 90.6032L139.464 90.8118L139.478 93.5182C139.494 96.6739 139.446 96.5572 140.897 96.9897C142.004 97.3195 142.728 97.3324 143.765 97.0404C144.198 96.9186 144.787 96.8145 145.074 96.8093C145.922 96.7934 145.947 96.9191 145.906 100.938C145.866 104.968 145.96 104.707 144.375 105.179C142.54 105.724 134.737 107.665 134.666 107.593C134.571 107.498 134.572 106.92 134.668 106.564C134.724 106.354 134.921 106.254 135.523 106.129L136.306 105.967V98.7926V91.6178L135.613 91.7808C134.714 91.9926 134.067 92.2774 133.713 92.6174C133.308 93.0061 132.69 94.3911 132.417 95.5194C132.244 96.2344 132.103 96.5377 131.87 96.6905C131.438 96.9733 131.212 96.7596 131.105 95.9699C130.915 94.5554 130.865 94.3604 130.623 94.0805C130.171 93.5588 130.305 91.6303 130.818 91.2879C130.897 91.2345 131.319 91.1874 131.754 91.183C132.287 91.1779 133.885 90.8355 136.636 90.1375C138.885 89.5669 140.83 89.094 140.957 89.0868C141.147 89.0761 141.188 89.1884 141.188 89.7342ZM42.4128 89.5135C44.5406 90.2866 45.7713 91.4575 46.6007 93.4979C47.0259 94.5439 47.0827 96.0659 46.7424 97.2942C46.6076 97.7811 46.5334 98.2202 46.5775 98.27C46.6217 98.3198 46.5837 98.3178 46.4929 98.2655C46.4023 98.2133 46.328 98.2236 46.328 98.2883C46.328 98.3532 46.1098 98.6247 45.8432 98.8916C44.8571 99.8786 43.4545 99.832 42.2127 98.7709C41.8362 98.4492 41.4914 98.1861 41.4463 98.1861C41.3633 98.1861 40.9714 98.6826 40.4254 99.4795C40.1412 99.8943 40.1272 100.034 40.1272 102.457V104.999L40.8858 105.191L41.6444 105.383L41.6847 106.011C41.7186 106.541 41.6881 106.638 41.4885 106.638C41.2728 106.638 39.9864 106.296 36.565 105.33L35.3117 104.976L35.2708 104.338L35.2299 103.7L35.6666 103.787C35.9068 103.835 36.2572 103.907 36.4454 103.948L36.7873 104.021L36.8634 97.9316C36.9364 92.0952 36.951 91.8193 37.2164 91.2835C37.6847 90.3377 38.5059 89.6178 39.4364 89.3375C40.1773 89.1142 41.5346 89.1943 42.4128 89.5135ZM40.8358 90.8137C40.2207 91.4889 40.1951 91.639 40.1495 94.8516C40.1104 97.6072 40.1273 97.9137 40.3144 97.8418C40.4292 97.7977 40.5239 97.6938 40.5251 97.6107C40.5263 97.5277 40.706 97.2567 40.9246 97.0085L41.322 96.5572L41.7087 96.8435C42.2029 97.2091 42.4014 97.2036 42.8574 96.811L43.2276 96.4922V94.5329C43.2276 92.2564 43.0467 91.5648 42.3032 90.9971C41.646 90.4953 41.179 90.4369 40.8358 90.8137ZM54.848 92.4745C55.0523 92.7469 55.2529 92.9994 55.2936 93.0357C55.3344 93.072 55.5157 93.3242 55.6964 93.5961C55.8772 93.868 56.0695 94.0908 56.124 94.0913C56.1785 94.0918 56.223 94.1543 56.223 94.2302C56.223 94.3062 56.3673 94.5128 56.5438 94.6895C56.7202 94.8661 57.032 95.2348 57.2365 95.5088C57.441 95.7829 57.6825 96.0857 57.7732 96.1816C57.8639 96.2776 57.9381 96.4347 57.9381 96.5306C57.9381 96.6266 58.0124 96.7337 58.103 96.7687C58.1938 96.8037 58.3911 97.0626 58.5417 97.3441C58.6923 97.6257 58.8802 97.9748 58.9592 98.1201C59.689 99.4616 60.0358 101.467 59.8121 103.05C59.4962 105.286 59.0461 106.032 56.5494 108.457C54.3632 110.579 54.3433 110.585 53.2793 109.378C52.879 108.924 52.4138 108.375 52.2455 108.157C52.077 107.939 51.8923 107.701 51.8348 107.629C51.7774 107.556 51.3772 107.051 50.9457 106.506C50.5142 105.961 50.1595 105.47 50.1576 105.414C50.1556 105.358 50.0041 105.074 49.8208 104.784C49.6374 104.493 49.3009 103.707 49.073 103.036C48.7134 101.979 48.6581 101.634 48.6554 100.431C48.6527 99.098 48.9536 97.3829 49.2454 97.0702C49.3098 97.0011 49.3625 96.8635 49.3625 96.7642C49.3625 96.665 49.5109 96.389 49.6923 96.1509C49.8737 95.9128 50.0221 95.6766 50.0221 95.6259C50.0221 95.4259 51.8997 93.4338 52.092 93.4297C52.1509 93.4285 52.4767 93.1666 52.8162 92.8479C53.1557 92.5291 53.4588 92.2938 53.49 92.3251C53.5212 92.3563 53.6218 92.2912 53.7136 92.1805C54.0058 91.828 54.4493 91.9429 54.848 92.4745ZM127.06 92.7243C128.602 93.3548 129.255 95.782 128.406 97.726C127.75 99.229 125.821 100.2 124.441 99.7232C124.119 99.612 123.807 99.5515 123.746 99.5889C123.623 99.665 123.071 100.71 123.137 100.741C123.16 100.752 123.297 100.835 123.443 100.924C124.566 101.619 125.531 101.805 126.979 101.607C128.108 101.453 128.154 101.457 128.432 101.735C128.709 102.012 128.721 102.142 128.76 105.078C128.803 108.346 128.745 108.739 128.187 108.993C128.013 109.073 127.052 109.289 126.052 109.475C125.052 109.66 123.789 109.896 123.245 109.998C122.418 110.154 121.336 110.334 117.737 110.912C117.463 110.956 117.44 110.909 117.44 110.32C117.44 109.763 117.478 109.673 117.737 109.619C117.9 109.586 118.271 109.508 118.561 109.447L119.089 109.336L119.164 104.058C119.214 100.501 119.293 98.5436 119.407 98.0541C119.71 96.7436 119.963 95.9411 120.073 95.9411C120.133 95.9411 120.219 95.7916 120.265 95.609C120.353 95.2573 120.507 95.0408 121.294 94.1597C122.553 92.7497 125.393 92.0428 127.06 92.7243ZM66.2461 94.5529C68.7274 94.921 69.8036 95.0238 70.8951 94.9968C72.1743 94.9651 72.3348 94.9873 72.5108 95.2203C72.7801 95.5767 72.762 96.4077 72.4679 97.1957C72.2485 97.7835 72.1257 98.3608 71.8579 100.063C71.7674 100.639 71.6571 100.733 71.2044 100.619C70.9503 100.555 70.834 100.403 70.7216 99.988C70.6402 99.687 70.5424 99.3516 70.5043 99.2426C70.4661 99.1337 70.4221 98.9554 70.4061 98.8464C70.3445 98.4242 69.91 97.5312 69.7995 97.5995C69.7355 97.6391 69.715 97.5883 69.7541 97.4865C69.7939 97.3825 69.6237 97.0997 69.3669 96.8425C68.8905 96.3657 68.1621 96.1297 66.9095 96.0466L66.3158 96.0071L66.2816 103.097L66.2476 110.187L66.8753 110.273C67.9702 110.422 67.965 110.417 67.965 111.137C67.965 111.495 67.9105 111.788 67.844 111.788C67.7775 111.788 66.7173 111.64 65.4881 111.459C64.2588 111.278 62.9329 111.096 62.5416 111.055C61.4219 110.939 61.3681 110.907 61.3703 110.36C61.3736 109.576 61.4875 109.492 62.3434 109.64L63.0857 109.768L63.0517 102.623L63.0175 95.4789L62.2919 95.3583C61.8928 95.292 61.5226 95.1731 61.4693 95.0942C61.3422 94.9059 61.3408 94.1646 61.4673 94.0342C61.6005 93.897 62.44 93.9882 66.2461 94.5529ZM123.476 94.1919C122.765 94.6331 122.493 95.6294 122.366 98.2506C122.283 99.9745 122.292 100.083 122.497 99.8777C122.618 99.7567 122.717 99.6261 122.717 99.5876C122.717 99.549 122.88 99.2439 123.08 98.9096C123.438 98.31 123.45 98.3029 123.996 98.383C124.498 98.4567 124.584 98.4256 124.92 98.0505C125.569 97.325 125.771 96.2903 125.495 95.1029C125.253 94.0578 124.349 93.6501 123.476 94.1919ZM112.629 94.9328C113.389 95.1354 114.333 95.6916 114.768 96.1929C114.932 96.3812 115.229 96.8472 115.428 97.2284C115.766 97.8755 115.988 98.0979 115.988 97.7899C115.988 97.7173 116.137 97.6579 116.318 97.6579C116.624 97.6579 116.648 97.7034 116.648 98.2947V98.9315L114.438 99.2323C113.223 99.3977 112.095 99.5633 111.931 99.6002C111.654 99.6631 111.635 99.6243 111.635 98.9928C111.635 98.4934 111.684 98.3182 111.825 98.3182C112.17 98.3182 112.176 98.0723 111.848 97.4317C111.314 96.3872 110.612 95.9888 109.59 96.1499C108.549 96.314 107.802 97.0453 107.285 98.4064C106.871 99.4991 106.58 102.28 106.88 102.28C106.95 102.28 107.113 102.173 107.243 102.042C108.149 101.129 109.949 100.45 111.012 100.62C112.058 100.787 113.475 101.669 113.486 102.16C113.495 102.549 113.876 102.872 114.278 102.83C114.666 102.789 114.669 102.794 114.669 103.459C114.669 103.906 114.614 104.129 114.504 104.13C114.414 104.131 113.393 104.25 112.236 104.395C109.37 104.752 109.578 104.78 109.636 104.047C109.673 103.584 109.745 103.421 109.934 103.371C110.267 103.284 110.248 103.15 109.848 102.748C109.639 102.539 109.364 102.412 109.121 102.412C108.602 102.412 107.67 102.861 107.227 103.324L106.869 103.697L107.205 105.267C107.39 106.13 107.633 107.252 107.747 107.761C107.867 108.299 107.942 109.181 107.927 109.874L107.901 111.062L108.36 111.102C108.612 111.124 109.165 111.012 109.588 110.853C110.616 110.468 111.369 109.701 111.815 108.584C112.006 108.106 112.162 107.681 112.162 107.639C112.162 107.597 111.934 107.563 111.655 107.563H111.148L111.173 107.028C111.187 106.734 111.252 106.446 111.318 106.389C111.437 106.284 113.978 105.913 115.633 105.758L116.516 105.675L116.516 106.322C116.516 106.932 116.496 106.969 116.157 106.989C115.96 107.001 115.781 107.063 115.759 107.128C115.738 107.193 115.498 107.622 115.228 108.082C114.023 110.126 112.234 111.699 110.641 112.114C109.88 112.313 107.384 112.394 106.808 112.239C106.572 112.176 106.532 112.061 106.526 111.416C106.518 110.467 106.349 110.09 105.106 108.233C103.309 105.55 103.12 104.986 103.233 102.641C103.33 100.632 103.73 99.1347 104.345 98.4759C104.436 98.3788 104.51 98.2144 104.51 98.1107C104.51 98.0069 104.57 97.922 104.642 97.922C104.715 97.922 104.774 97.8569 104.774 97.7774C104.774 97.5466 105.84 96.4903 106.503 96.0644C107.229 95.598 108.575 95.0355 109.318 94.8879C110.177 94.7173 111.908 94.7408 112.629 94.9328ZM52.1842 95.338C51.0023 95.8529 50.4043 97.4849 50.8261 99.0445C51.014 99.7396 51.9501 101.647 52.2738 101.995C52.4141 102.146 52.5289 102.331 52.5289 102.407C52.5289 102.482 52.5733 102.545 52.6278 102.545C52.6823 102.546 52.9626 102.917 53.2508 103.371C53.5391 103.824 53.8062 104.225 53.8445 104.261C54.2903 104.684 55.1675 106.255 55.1675 106.631C55.1675 107.173 55.9826 106.885 56.82 106.047C57.5689 105.297 57.7357 104.923 57.7341 103.997C57.7321 102.894 57.3342 102.093 55.1978 98.8907C54.3336 97.5953 53.4836 96.2234 53.3092 95.842C52.9721 95.1049 52.8475 95.049 52.1842 95.338ZM80.0844 95.5988C82.1849 95.7302 82.9321 95.8214 83.0179 95.9571C83.0813 96.0573 83.134 96.3612 83.1352 96.6324L83.1372 97.1255L82.3303 97.0412C81.5782 96.9624 81.5287 96.9738 81.6022 97.2082C81.6454 97.3466 81.8617 98.2026 82.0827 99.1106C82.7419 101.82 83.6342 105.457 84.4317 108.685L85.1822 111.722L85.8393 111.764C86.5887 111.811 86.6945 111.918 86.6974 112.629L86.6994 113.138L83.8298 113.048C82.2517 112.998 80.8564 112.928 80.7294 112.892C80.5541 112.843 80.4986 112.686 80.4986 112.242V111.656H81.2396C81.9449 111.656 81.9766 111.642 81.8969 111.359C81.8272 111.112 81.1423 108.287 80.7575 106.661C80.6026 106.006 80.5445 106.026 80.3653 106.796C80.152 107.713 79.4428 109.565 78.965 110.453C78.5313 111.259 77.5146 112.347 76.8953 112.669C76.0647 113.101 74.8699 112.843 74.2229 112.094C74.0729 111.92 73.8419 111.476 73.7096 111.108C73.3627 110.143 73.5284 108.223 74.1009 106.572C74.2897 106.028 75.2831 103.664 75.3497 103.601C75.4147 103.539 75.7853 102.863 76.2541 101.95C76.3662 101.732 76.6572 101.24 76.9009 100.857C77.7832 99.4712 78.3876 98.0994 78.3876 97.4832C78.3876 96.9341 78.3626 96.8935 77.9753 96.816C77.7486 96.7706 77.3923 96.7335 77.1837 96.7335C76.8166 96.7335 76.8044 96.7125 76.8044 96.0731C76.8044 95.5305 76.8456 95.4138 77.0353 95.4177C77.1622 95.4204 78.5345 95.5018 80.0844 95.5988ZM101.582 96.5684L101.542 97.1957L100.75 97.2617L99.9586 97.3277V104.393V111.458L100.783 111.498L101.608 111.537V112.107V112.676L100.783 112.757C100.33 112.801 98.9049 112.877 97.6168 112.927L95.275 113.017V112.544C95.275 111.948 95.5924 111.608 96.0614 111.702C96.7243 111.834 96.7342 111.787 96.6959 108.676L96.6603 105.78L94.9452 105.623C93.0625 105.452 92.2994 105.256 91.4301 104.721C89.8965 103.777 89.1314 102.142 88.807 99.1152C88.7256 98.355 88.6301 97.6865 88.5949 97.6295C88.5596 97.5724 88.297 97.5258 88.0109 97.5258H87.491V96.9457C87.491 96.5385 87.5532 96.3416 87.6997 96.2854C87.8145 96.2413 89.1742 96.2052 90.7213 96.2052H93.5344L93.5801 96.8598L93.6258 97.5145L92.9662 97.5532L92.3065 97.5919L92.3246 99.1106C92.3673 102.697 93.5327 104.393 95.9534 104.393H96.7306L96.6955 100.926L96.6603 97.4598H96.0666C95.6725 97.4598 95.4774 97.4043 95.4861 97.2947C95.4933 97.204 95.5083 96.9797 95.5191 96.7967C95.5313 96.5911 95.6525 96.4127 95.8357 96.3304C96.1815 96.1752 98.4699 95.9864 100.329 95.9597L101.622 95.9411L101.582 96.5684ZM139.523 98.2452C139.489 98.3343 139.478 99.8876 139.5 101.697L139.538 104.987L140 104.952C140.748 104.894 142.1 104.392 142.448 104.044C142.764 103.727 142.771 103.677 142.771 101.548C142.771 99.0221 142.737 98.9418 141.607 98.8079C141.235 98.7636 140.627 98.5826 140.257 98.4054C139.772 98.1728 139.568 98.1283 139.523 98.2452ZM16.9989 100.182C15.0258 100.479 12.8372 101.023 11.1778 101.628L10 102.058L11.2596 102.475C13.6581 103.268 16.9309 105.048 18.8337 106.594C19.1314 106.836 19.4283 107.034 19.4933 107.034C19.561 107.034 19.598 105.549 19.5795 103.568C19.5618 101.661 19.547 100.056 19.5465 100.002C19.5453 99.8521 18.8615 99.9003 16.9989 100.182ZM78.3618 100.926C77.8512 101.792 76.7915 103.921 76.4065 104.855C76.0841 105.638 75.8585 106.535 75.7911 107.304C75.7217 108.096 75.7434 108.202 76.0489 108.557C76.3214 108.874 76.48 108.943 76.9147 108.931C77.4958 108.916 78.1788 108.479 78.3305 108.025C78.3791 107.879 78.5 107.668 78.5991 107.554C78.8271 107.293 79.3709 105.815 79.7132 104.525L79.9761 103.535L79.5447 101.72C79.3073 100.722 79.08 99.905 79.0395 99.9043C78.9989 99.9036 78.694 100.364 78.3618 100.926ZM160.538 99.991C160.489 100.039 160.45 101.681 160.45 103.639C160.45 107.094 160.457 107.193 160.697 107.017C164.163 104.476 165.62 103.64 168.285 102.667L170 102.041L169.486 101.826C167.817 101.128 164.967 100.433 162.45 100.111C160.572 99.871 160.652 99.8761 160.538 99.991ZM122.321 105.251V108.751H122.627C123.026 108.751 124.386 108.508 124.907 108.344C125.137 108.272 125.383 108.069 125.468 107.883C125.625 107.538 125.681 104.304 125.539 103.775C125.488 103.587 125.136 103.318 124.518 102.995C123.999 102.724 123.326 102.334 123.023 102.127C122.72 101.921 122.438 101.752 122.396 101.752C122.355 101.752 122.321 103.327 122.321 105.251ZM25.6806 107.107C25.5355 107.141 25.0902 107.235 24.6911 107.315C23.6247 107.53 22.3799 108.138 21.7945 108.729C20.9598 109.573 20.5659 110.488 20.4968 111.742C20.4444 112.694 20.4765 112.901 20.7749 113.532C21.8296 115.764 24.6693 117.074 28.5171 117.104C30.1086 117.116 31.1786 116.965 32.607 116.527C33.0787 116.382 33.952 116.229 34.5475 116.186C36.067 116.077 37.0649 116.313 38.1084 117.028L38.9398 117.597V113.851C38.9398 111.007 38.9001 110.074 38.7749 109.981C38.6842 109.914 38.1647 109.719 37.6205 109.547C37.0763 109.376 35.5623 108.885 34.2562 108.456C30.7814 107.316 30.07 107.165 27.8575 107.101C26.8053 107.071 25.8257 107.073 25.6806 107.107ZM150.885 107.125C149.62 107.287 148.116 107.698 144.849 108.774L141.188 109.98V113.79C141.188 115.885 141.209 117.599 141.236 117.599C141.262 117.599 141.485 117.421 141.73 117.204C142.407 116.605 143.458 116.249 144.75 116.182C145.366 116.15 146.109 116.183 146.399 116.255C146.689 116.327 147.402 116.508 147.982 116.657C151.237 117.495 154.675 117.179 157.075 115.822C158.936 114.771 159.786 113.34 159.604 111.567C159.301 108.603 156.807 106.992 152.618 107.054C151.882 107.065 151.102 107.097 150.885 107.125ZM19.2818 113.516C17.6521 114.831 15.2458 117.255 15.276 117.551C15.2859 117.648 15.2455 117.698 15.1863 117.662C14.9712 117.529 11.9636 121.618 12.1064 121.849C12.1578 121.932 12.1395 121.962 12.0653 121.916C11.8964 121.811 11.0574 122.967 11.1698 123.149C11.2159 123.223 11.1911 123.268 11.1148 123.248C10.98 123.213 10.1426 124.343 10.235 124.435C10.2603 124.46 10.9107 124.27 11.6803 124.012C13.1851 123.508 15.3642 123.034 17.8966 122.66C19.1853 122.47 20.3754 122.426 24.2953 122.425C28.5885 122.424 29.3308 122.456 31.1381 122.719C33.4725 123.058 34.131 123.074 35.5371 122.823C37.1793 122.53 38.1522 121.929 38.6893 120.875C39.0137 120.238 39.0063 119.669 38.6643 118.962C37.8238 117.224 35.5551 116.575 32.9436 117.326C29.3203 118.368 25.6456 118.162 22.8848 116.761C22.1119 116.369 20.6249 115.175 20.5008 114.847C20.4553 114.726 20.3421 114.551 20.2493 114.457C20.1564 114.363 20.0101 114.051 19.9241 113.763C19.8382 113.476 19.7327 113.243 19.6898 113.246C19.6468 113.248 19.4633 113.37 19.2818 113.516ZM160.188 113.67C160.1 113.906 159.964 114.233 159.887 114.396C159.64 114.917 158.18 116.256 157.423 116.656C155.828 117.498 153.626 117.996 151.502 117.995C150.316 117.994 148.216 117.697 147.436 117.419C147.136 117.312 146.444 117.15 145.898 117.058C144.354 116.798 142.893 117.208 141.975 118.159C140.412 119.779 141.215 121.855 143.705 122.631C145.088 123.062 146.51 123.09 148.906 122.733C150.841 122.445 151.416 122.42 155.832 122.427C160.374 122.435 160.779 122.455 162.956 122.79C165.528 123.185 167.454 123.634 168.802 124.151C169.296 124.34 169.735 124.461 169.778 124.418C169.838 124.357 167.813 121.231 167.287 120.572C166.409 119.472 166.005 118.933 165.873 118.685C165.785 118.519 165.649 118.424 165.568 118.474C165.486 118.525 165.459 118.504 165.508 118.426C165.603 118.271 163.832 116.209 162.627 115.074C161.859 114.351 160.513 113.241 160.404 113.241C160.374 113.241 160.277 113.434 160.188 113.67Z" fill="#E1251B"/>
</svg>
