<svg width="180" height="140" viewBox="0 0 180 140" fill="none" xmlns="http://www.w3.org/2000/svg">
<path fill-rule="evenodd" clip-rule="evenodd" d="M52.4767 35.0303C51.8785 35.1135 50.6511 35.4851 49.4387 35.9502C46.0909 37.2342 42.1653 39.3159 40.9661 40.4432C40.5918 40.795 40.5397 40.8811 39.4116 43.0141L38.2444 45.221L37.9662 45.258C37.8131 45.2783 35.6502 45.3104 33.1596 45.3294C27.8355 45.3697 25.8014 45.4457 22.8705 45.7134C15.9642 46.3444 11.337 47.7109 8.02442 50.0976C6.71493 51.0411 5.12542 52.8189 5.05818 53.4151C5.00447 53.8921 3.52766 53.8477 19.4788 53.8477C32.9602 53.8477 33.6572 53.8527 33.6207 53.9481C33.5996 54.0032 32.9811 55.1833 32.2462 56.5705C30.0838 60.6523 29.0094 62.7211 27.0963 66.487C26.1032 68.4416 24.8864 70.8276 24.392 71.7892C21.6877 77.0501 20.293 80.4349 19.4677 83.7406C18.354 88.2015 18.6604 92.6346 20.3154 96.0072C22.0399 99.5212 25.0131 101.74 29.0612 102.534C30.119 102.742 30.9074 102.811 32.1565 102.808C35.0734 102.799 37.761 102.139 40.7682 100.693L41.6703 100.26L42.0006 100.519C44.045 102.123 47.3262 103.302 51.2157 103.83C53.8078 104.182 56.799 104.109 57.1505 103.686C57.2542 103.561 57.1365 103.458 56.4319 103.056C55.0354 102.261 54.137 101.575 52.9891 100.425C51.9688 99.4039 51.3637 98.6138 50.7369 97.4844C50.124 96.3801 49.6291 94.991 49.4651 93.915C49.3914 93.4307 49.2948 93.2272 49.1388 93.2272C49.0939 93.2272 48.7046 93.3283 48.2735 93.452C47.2505 93.7454 46.0927 93.9934 45.025 94.1476C43.8159 94.3223 41.6391 94.3653 40.64 94.2343C37.9888 93.8865 36.0614 93.0124 34.5061 91.4526C33.4862 90.4297 32.8243 89.356 32.3301 87.9228C31.9116 86.7091 31.8412 86.2345 31.8414 84.629C31.8416 83.0681 31.9079 82.4405 32.2488 80.7729C33.5046 74.6306 37.3519 65.5438 43.0058 55.3667L43.8337 53.8764L47.6107 53.8477L51.3876 53.8191L51.9895 53.6102C55.8472 52.2715 62.7466 47.8005 63.6853 46.0308C63.7966 45.8209 63.8116 45.7426 63.7656 45.6116C63.6421 45.2605 64.0769 45.2798 55.9016 45.2627C51.7953 45.2541 48.4356 45.2364 48.4356 45.2234C48.4356 45.2102 49.5738 43.0506 50.9649 40.424C53.1411 36.3152 53.4952 35.6127 53.5013 35.3932C53.5075 35.1751 53.4876 35.1272 53.3652 35.0644C53.2281 34.9941 52.8433 34.9793 52.4767 35.0303ZM168.237 43.487C168.24 43.6893 168.414 44.3432 168.542 44.6318C168.919 45.4838 169.697 46.1127 170.58 46.2802C170.971 46.3544 171.686 46.3533 172.013 46.278C172.754 46.1071 173.618 45.389 173.96 44.659C174.122 44.3147 174.309 43.6895 174.311 43.487C174.312 43.433 174.108 43.4154 173.482 43.4154H172.652L172.618 43.573C172.512 44.0727 172.119 44.5978 171.744 44.7404C171.512 44.8285 171.021 44.8113 170.822 44.7082C170.441 44.5116 169.958 43.8455 169.956 43.5157C169.956 43.4246 169.876 43.4154 169.096 43.4154C168.446 43.4154 168.236 43.4328 168.237 43.487ZM113.81 46.6571C113.747 46.6717 113.554 46.712 113.38 46.7466C112.116 46.9983 111.299 47.8469 110.959 49.2621C110.848 49.7224 110.84 49.9675 110.816 53.6921C110.789 57.9162 110.825 58.87 111.033 59.5519C111.363 60.6298 112.038 61.2727 113.151 61.5685C113.672 61.7071 115.094 61.7072 115.616 61.5687C116.756 61.2663 117.47 60.5566 117.791 59.4075C118.003 58.6487 118.035 57.774 118.006 53.6118C117.977 49.5368 117.962 49.2775 117.718 48.5973C117.371 47.6328 116.676 47.0122 115.67 46.7693C115.307 46.6816 114.035 46.6049 113.81 46.6571ZM136.151 46.685C135.084 46.8767 134.295 47.4341 133.833 48.3232C133.355 49.2423 133.318 49.7283 133.341 54.7938C133.36 58.8367 133.363 58.9298 133.486 59.3685C133.823 60.5714 134.508 61.2588 135.678 61.568C135.945 61.6386 136.286 61.6673 136.882 61.6693C137.804 61.6723 138.283 61.5683 138.863 61.2388C139.708 60.7588 140.299 59.7111 140.406 58.5053L140.447 58.0418L140.111 58.001C139.927 57.9786 139.415 57.9042 138.974 57.8356L138.171 57.7109L138.108 58.1438C138 58.8751 137.803 59.2138 137.369 59.4142C136.916 59.6233 136.249 59.4986 135.978 59.1538C135.666 58.7573 135.673 58.8787 135.69 54.163L135.707 49.8066L135.87 49.4741C136.076 49.0548 136.361 48.8515 136.793 48.8157C137.59 48.7496 138.074 49.253 138.177 50.256L138.215 50.6253L139.296 50.3449C139.891 50.1907 140.391 50.0646 140.407 50.0646C140.467 50.0646 140.432 49.5274 140.345 49.102C140.098 47.8982 139.321 47.0845 138.114 46.7664C137.699 46.6571 136.567 46.6101 136.151 46.685ZM79.2998 46.8132C79.2842 46.8539 79.2785 47.3378 79.2871 47.8884L79.3029 48.8895L80.4923 48.905L81.6817 48.9205V55.2533V61.5861H82.8281H83.9745V55.2521V48.9182H85.1795H86.3845L86.3689 47.8434L86.3533 46.7686L82.8408 46.7538C80.011 46.742 79.3228 46.7535 79.2998 46.8132ZM94.5241 47.2702C93.3849 52.2439 92.8775 54.3711 92.8306 54.3711C92.7884 54.3712 90.9942 47.1038 90.9714 46.8403C90.9672 46.7918 88.7322 46.7799 88.7322 46.8284C88.7322 46.8454 89.4296 49.3079 90.282 52.3004L91.8319 57.7414L91.7393 58.0731C91.5717 58.6729 91.3585 59.1833 91.1752 59.4237C90.9018 59.7821 90.6839 59.8838 90.1271 59.913L89.6493 59.9381V60.8481V61.758L90.3228 61.7572C91.0882 61.7562 91.5934 61.6582 92.0145 61.4291C92.6191 61.1 93.1825 60.2531 93.5454 59.1278C93.8183 58.2815 96.8077 46.8097 96.7661 46.7682C96.7506 46.7526 96.2672 46.74 95.6918 46.74H94.6456L94.5241 47.2702ZM100.082 54.1559V61.5861H101.228H102.375V58.7577V55.9292L103.277 55.8934C104.744 55.835 105.455 55.5851 106.159 54.8811C106.717 54.3231 107.013 53.6953 107.161 52.7586C107.289 51.9419 107.321 51.052 107.246 50.3462C107.035 48.3435 106.28 47.3253 104.696 46.9052C104.281 46.7952 104.039 46.7808 102.16 46.7547L100.082 46.7258V54.1559ZM122.208 54.1631V61.5983L124.171 61.5701C126.4 61.5381 126.64 61.505 127.415 61.1227C128.543 60.5668 129.102 59.5603 129.263 57.7952C129.364 56.6953 129.214 55.6382 128.853 54.8961C128.654 54.487 128.219 54.0701 127.84 53.9253C127.705 53.8741 127.596 53.8135 127.596 53.7906C127.596 53.7678 127.762 53.6418 127.964 53.5106C128.561 53.1249 128.888 52.6087 129.065 51.7743C129.195 51.1609 129.145 49.7351 128.974 49.1478C128.611 47.9032 127.85 47.1703 126.621 46.8797C126.266 46.7958 125.843 46.7737 124.199 46.753L122.208 46.7279V54.1631ZM144.219 54.163V61.5861H145.365H146.512V58.3474V55.1088H146.961C148.018 55.1088 148.564 55.5193 148.893 56.5609C148.998 56.8924 149.951 61.4002 149.951 61.564C149.951 61.5761 150.467 61.5861 151.097 61.5861C151.728 61.5861 152.244 61.5659 152.244 61.5413C152.244 61.3811 151.183 56.4772 151.063 56.0833C150.761 55.0916 150.294 54.4422 149.634 54.0977C149.462 54.0075 149.321 53.9208 149.322 53.9051C149.322 53.8893 149.454 53.799 149.615 53.7044C150.149 53.3901 150.673 52.6332 150.924 51.8129C151.018 51.505 152.014 46.947 152.014 46.8232C152.014 46.809 151.529 46.7973 150.936 46.7973H149.857L149.522 48.4166C148.784 51.985 148.624 52.4105 147.864 52.8015C147.629 52.9225 147.469 52.9565 147.042 52.9766L146.512 53.0016V49.8708V46.74H145.365H144.219V54.163ZM155.606 46.7782C155.585 46.7992 155.568 50.1395 155.568 54.2012V61.5861H156.678H157.788L159.322 57.0147C160.166 54.5005 160.878 52.4047 160.904 52.3574C160.931 52.3098 160.954 54.3524 160.955 56.9287L160.956 61.5861H162.074H163.192V54.163V46.74H162.1H161.008L160.932 46.9263C160.89 47.0287 160.189 49.1439 159.375 51.6266C158.561 54.1093 157.875 56.1406 157.85 56.1406C157.824 56.1406 157.804 54.0254 157.804 51.4403V46.74H156.724C156.13 46.74 155.627 46.7572 155.606 46.7782ZM167.376 54.1643V61.5885L168.48 61.573L169.583 61.5574L171.131 56.9608C171.982 54.4326 172.698 52.3455 172.721 52.3226C172.745 52.2997 172.764 54.3746 172.764 56.9335V61.5861H173.882H175V54.163V46.74H173.886H172.772L171.675 50.0789C171.071 51.9153 170.383 54.0111 170.146 54.7362C169.908 55.4613 169.691 56.0791 169.663 56.1091C169.633 56.1408 169.612 54.1975 169.612 51.4517V46.74H168.494H167.376V54.1643ZM115.072 48.9539C115.244 49.0426 115.343 49.1549 115.472 49.4065L115.644 49.741L115.66 54.0092C115.678 58.6218 115.679 58.6079 115.373 59.0676C115.187 59.3468 114.811 59.5225 114.398 59.5225C113.806 59.5225 113.474 59.2897 113.262 58.7267C113.15 58.4257 113.147 58.3124 113.163 54.141L113.179 49.8639L113.311 49.578C113.477 49.218 113.634 49.0468 113.925 48.9087C114.222 48.7676 114.752 48.7886 115.072 48.9539ZM103.995 49.0384C104.842 49.3195 105.27 50.6661 104.985 52.1558C104.879 52.7077 104.703 53.063 104.412 53.3119C104.096 53.5829 103.734 53.6758 102.995 53.6758H102.375V51.2892V48.9027L103.077 48.9347C103.463 48.9523 103.876 48.9989 103.995 49.0384ZM125.773 48.9825C126.157 49.0637 126.324 49.1496 126.552 49.3819C126.831 49.6673 126.934 50.045 126.935 50.7811C126.937 51.7357 126.707 52.2517 126.154 52.534C125.905 52.6609 125.172 52.7757 124.785 52.7482L124.529 52.73L124.514 50.8241L124.499 48.9182H124.984C125.251 48.9182 125.606 48.9471 125.773 48.9825ZM126.125 54.9366C126.426 55.0265 126.809 55.4233 126.933 55.7718C127.065 56.1418 127.116 57.2853 127.027 57.857C126.913 58.5912 126.664 59.0058 126.191 59.2504C126.006 59.3464 125.822 59.3742 125.231 59.3961L124.5 59.4231V57.1149V54.8067L125.203 54.8386C125.589 54.8561 126.004 54.9002 126.125 54.9366ZM167.492 63.7197C167.493 63.953 167.657 64.5556 167.799 64.8501C168.209 65.6989 168.891 66.2455 169.776 66.4329C170.81 66.6521 171.802 66.4058 172.528 65.7501C172.994 65.3285 173.394 64.543 173.531 63.7786L173.564 63.5923H172.719H171.874L171.805 63.8842C171.598 64.7554 170.729 65.215 170.008 64.8348C169.703 64.6744 169.351 64.2322 169.246 63.8789L169.17 63.6209L168.33 63.6051L167.491 63.5892L167.492 63.7197ZM43.5633 64.0795C42.9728 64.2135 42.5168 64.4707 42.0552 64.9303C41.4116 65.571 41.1545 66.1722 41.1572 67.0292C41.16 67.8772 41.4104 68.4813 42.0118 69.0912C42.8731 69.9645 44.1006 70.2631 45.2411 69.8766C45.8067 69.6849 46.0886 69.5064 46.503 69.0773C48.0205 67.506 47.3549 64.8959 45.2497 64.1625C44.8011 64.0061 44.0496 63.9692 43.5633 64.0795ZM44.9725 64.9003C45.8863 65.1805 46.5432 66.3405 46.376 67.3789C46.1926 68.5175 45.3499 69.2646 44.2471 69.2664C42.819 69.2688 41.8285 67.9603 42.1538 66.5013C42.4455 65.1926 43.6655 64.4997 44.9725 64.9003ZM43.2481 65.6496L43.0188 65.6845L43.0034 67.0745L42.9881 68.4646H43.419H43.8499V67.9409V67.4172L44.1199 67.4542C44.2684 67.4746 44.4167 67.5172 44.4495 67.5489C44.4823 67.5806 44.5736 67.7931 44.6524 68.0212L44.7957 68.4359L45.2686 68.4525C45.5288 68.4617 45.7415 68.4548 45.7415 68.4372C45.7415 68.358 45.5015 67.5197 45.4527 67.4286C45.4228 67.3727 45.3152 67.262 45.2137 67.1825L45.0291 67.0381L45.1704 66.9842C45.447 66.8788 45.6269 66.6363 45.6269 66.3689C45.6269 66.0338 45.4262 65.8005 45.0389 65.6854C44.7419 65.5972 43.7265 65.5769 43.2481 65.6496ZM44.5596 66.3456C44.6372 66.4192 44.6569 66.4901 44.6297 66.5984C44.5871 66.7679 44.4026 66.8596 44.1042 66.8596H43.9073V66.5485C43.9073 66.2996 43.9273 66.2327 44.0076 66.2135C44.1763 66.1733 44.446 66.2378 44.5596 66.3456ZM97.2341 66.8652C95.8951 67.0887 94.9617 68.0087 94.6517 69.4104C94.5593 69.828 94.5502 70.2803 94.5502 74.4832C94.5502 78.7108 94.5587 79.1307 94.6517 79.4931C94.8069 80.0979 95.0648 80.5831 95.4294 80.9556C96.0449 81.5847 96.7812 81.8326 98.0468 81.837C98.9655 81.8402 99.426 81.7523 100.02 81.4604C100.751 81.1013 101.244 80.439 101.529 79.4324C101.656 78.9851 101.657 78.9607 101.657 74.3973C101.658 70.2013 101.649 69.7702 101.555 69.3244C101.193 67.6105 100.073 66.7948 98.1041 66.811C97.7888 66.8135 97.3973 66.838 97.2341 66.8652ZM120.12 66.8879C118.908 67.1404 118.023 67.9814 117.711 69.1772C117.523 69.9005 117.497 70.6629 117.52 74.9132C117.542 78.9939 117.546 79.1087 117.667 79.5455C118.003 80.7576 118.707 81.4526 119.892 81.7429C120.171 81.8114 120.522 81.839 121.09 81.837C122.346 81.8326 123.079 81.5883 123.699 80.9682C124.116 80.5507 124.41 79.9596 124.558 79.2409C124.664 78.7281 124.671 78.4408 124.672 74.3203C124.672 70.1197 124.668 69.9209 124.554 69.362C124.405 68.6342 124.181 68.1586 123.784 67.7299C123.444 67.3622 122.972 67.0923 122.408 66.942C121.923 66.8127 120.628 66.7821 120.12 66.8879ZM80.306 74.3411V81.7654L81.4381 81.7499L82.5702 81.7343L82.5848 77.4496C82.5929 75.093 82.6187 73.165 82.6422 73.1651C82.6656 73.1653 82.8991 73.7779 83.1611 74.5265C83.423 75.2751 83.8624 76.468 84.1375 77.1773L84.6376 78.467H85.3448H86.052L86.6081 77.034C86.914 76.2459 87.3526 75.0658 87.5827 74.4116C87.8128 73.7574 88.0237 73.2222 88.0514 73.2222C88.0797 73.2222 88.1016 75.0828 88.1016 77.4938V81.7654L89.2337 81.7499L90.3658 81.7343L90.3804 74.3256L90.3949 66.9169H89.2811H88.1673L87.9958 67.3611C87.9015 67.6055 87.5495 68.5147 87.2136 69.3817C86.8777 70.2487 86.3347 71.7008 86.0069 72.6087C85.6791 73.5166 85.3937 74.2873 85.3726 74.3214C85.3161 74.4129 85.2886 74.3484 84.7776 72.9311C84.5227 72.2242 83.9108 70.5819 83.4178 69.2814L82.5214 66.9169H81.4137H80.306V74.3411ZM106.714 72.1474C106.687 77.5823 106.682 77.7014 106.441 78.5244C106.254 79.1646 105.736 79.8603 105.185 80.2145L104.901 80.3967L105.329 81.2518C105.564 81.7221 105.771 82.1069 105.787 82.1069C105.87 82.1069 106.463 81.7726 106.836 81.5159C107.359 81.1557 107.7 80.7705 107.987 80.2153C108.655 78.9272 108.794 77.5192 108.794 72.0328L108.794 69.0951H109.883H110.972L110.987 75.4147L111.001 81.7343H112.148H113.294L113.309 74.3256L113.323 66.9169H110.031H106.739L106.714 72.1474ZM128.642 70.1973C128.661 73.0733 128.676 73.5228 128.761 73.8241C129.194 75.3474 130.213 75.9813 132.095 75.8981C132.505 75.88 132.989 75.8285 133.17 75.7837L133.499 75.7023L133.514 78.7183L133.528 81.7343L134.66 81.7499L135.793 81.7654V74.3411V66.9169H134.646H133.5V70.2913V73.6656L133.141 73.767C132.941 73.8237 132.578 73.87 132.318 73.872C131.714 73.8768 131.364 73.7158 131.15 73.3337L131.006 73.0789L130.978 70.0122L130.949 66.9456L129.784 66.93L128.619 66.9145L128.642 70.1973ZM140.149 74.3411V81.7654L141.281 81.7499L142.413 81.7343L142.428 78.51L142.443 75.2857H143.761H145.079V78.5256V81.7654L146.211 81.7499L147.343 81.7343L147.357 74.3256L147.372 66.9169H146.225H145.079V70.0122V73.1075H143.76H142.442V70.0122V66.9169H141.295H140.149V74.3411ZM151.67 74.3399V81.763L153.175 81.7621C156.116 81.7603 156.894 81.5854 157.742 80.7349C158.492 79.9832 158.839 78.8385 158.84 77.1097C158.841 74.8702 158.296 73.6724 156.991 73.0508C156.386 72.7626 155.746 72.649 154.73 72.649H153.963V69.7829V66.9169H152.817H151.67V74.3399ZM159.996 74.3244L160.011 81.7343H161.157H162.303V74.3399V66.9456L161.142 66.93L159.981 66.9145L159.996 74.3244ZM166.6 66.9885C166.585 67.028 166.58 70.3619 166.588 74.3973L166.602 81.7343H167.715H168.828L170.381 77.0913L171.933 72.4484L171.962 77.0913L171.991 81.7343H173.108H174.226L174.241 74.3244L174.255 66.9145L173.124 66.93L171.993 66.9456L170.46 71.6107C169.617 74.1765 168.914 76.2895 168.897 76.3062C168.88 76.323 168.867 74.2172 168.867 71.6268V66.9169H167.747C166.904 66.9169 166.621 66.9346 166.6 66.9885ZM98.6675 69.0586C98.9188 69.1636 99.1318 69.4287 99.2596 69.7955C99.3584 70.0788 99.3652 70.3676 99.3652 74.3113C99.3652 78.255 99.3584 78.5437 99.2596 78.8271C99.0651 79.3853 98.6631 79.6959 98.1328 79.6978C97.5475 79.7 97.2019 79.4904 96.9797 78.9986L96.8431 78.6963V74.4546C96.8431 70.4885 96.8499 70.1924 96.9485 69.8976C97.1622 69.2589 97.5102 68.9873 98.1203 68.983C98.3183 68.9816 98.5646 69.0156 98.6675 69.0586ZM121.657 69.0601C121.921 69.1705 122.11 69.3916 122.24 69.7425C122.346 70.0276 122.351 70.2327 122.351 74.3457V78.6506L122.15 79.0413C121.893 79.5414 121.675 79.6708 121.09 79.6708C120.603 79.6708 120.326 79.5498 120.13 79.251C119.824 78.7856 119.833 78.9094 119.813 74.8591C119.792 70.7072 119.819 70.1222 120.057 69.6367C120.274 69.1938 120.613 68.9804 121.101 68.9804C121.302 68.9804 121.552 69.0163 121.657 69.0601ZM155.609 74.951C155.792 75.0191 156.021 75.1545 156.118 75.2519C156.814 75.9483 156.786 78.3291 156.073 79.1033C155.773 79.4287 155.468 79.5274 154.637 79.5684L153.963 79.6017V77.2144V74.8272H154.62C155.153 74.8272 155.34 74.8506 155.609 74.951ZM94.2636 87.0632C93.5257 87.2191 93.0356 87.4866 92.5855 87.9791C92.0878 88.5236 91.8226 89.2141 91.7145 90.2465C91.6401 90.9573 91.64 98.3045 91.7144 99.0166C91.8156 99.9852 92.1126 100.673 92.6479 101.18C93.2637 101.762 93.9987 102 95.188 102.001C95.6789 102.002 96.0873 101.969 96.363 101.908C97.6497 101.621 98.425 100.793 98.7096 99.3996C98.82 98.8593 98.8238 98.6568 98.8055 94.2981C98.7843 89.2522 98.7922 89.362 98.3929 88.5504C98.0079 87.768 97.2826 87.2439 96.3364 87.0644C95.7998 86.9626 94.7422 86.9619 94.2636 87.0632ZM80.3633 94.4882V101.883H81.5097H82.6562V98.6726V95.4627H83.1915C83.674 95.4627 83.7616 95.48 84.0779 95.6381C84.4221 95.8101 84.6698 96.0575 84.8492 96.4085C85.0257 96.7541 85.1893 97.4287 85.6275 99.6184L86.0749 101.854L87.233 101.869L88.391 101.885L88.3601 101.755C88.3432 101.683 88.0975 100.525 87.8142 99.1802C87.5309 97.8358 87.245 96.5589 87.1788 96.3428C86.8982 95.4263 86.3639 94.7134 85.7223 94.3995L85.3949 94.2393L85.6141 94.1268C85.9416 93.9588 86.4476 93.4211 86.6945 92.9788C87.0118 92.4101 87.1242 92.0043 87.6417 89.5556C87.898 88.3435 88.1219 87.2937 88.1395 87.2228L88.1714 87.0938H87.076C86.4737 87.0938 85.9808 87.1111 85.9808 87.1322C85.9808 87.2028 85.2873 90.497 85.1442 91.1063C84.759 92.7465 84.2983 93.2555 83.1337 93.3282L82.6562 93.358V90.2259V87.0938H81.5097H80.3633V94.4882ZM103.005 94.4882V101.883H104.151H105.298V97.6122C105.298 95.2635 105.32 93.3418 105.347 93.3418C105.373 93.3418 105.605 93.9415 105.861 94.6745C106.117 95.4075 106.556 96.6005 106.837 97.3256L107.348 98.644H108.051H108.753L109.278 97.2969C109.567 96.5561 110.005 95.3759 110.253 94.6745C110.5 93.9731 110.724 93.3991 110.751 93.3991C110.778 93.3991 110.801 95.3058 110.801 97.6409V101.883H111.947H113.094V94.4882V87.0938H111.982C111.146 87.0938 110.863 87.1116 110.842 87.1655C110.444 88.1587 109.018 91.9159 108.623 93.0143C108.33 93.8273 108.065 94.4839 108.033 94.4734C108.002 94.4628 107.647 93.5526 107.245 92.4507C106.678 90.896 105.674 88.2257 105.268 87.1941C105.232 87.1034 105.122 87.0938 104.117 87.0938H103.005V94.4882ZM117.335 94.492V101.89L119.47 101.869C121.817 101.845 121.894 101.835 122.648 101.468C123.442 101.081 124.058 100.24 124.325 99.1781C124.579 98.1706 124.593 96.6394 124.357 95.4913C124.159 94.522 123.583 93.6846 122.848 93.2958C122.192 92.9487 121.82 92.8708 120.674 92.84L119.628 92.8119V91.042V89.272H121.72H123.812V88.1829V87.0938H120.574H117.335V94.492ZM128.112 94.4894V101.885L129.24 101.869L130.369 101.854L131.92 97.2396L133.471 92.6253L133.486 97.2539L133.5 101.883H134.646H135.793V94.4882V87.0938H134.66L133.528 87.0939L132.014 91.7067C131.181 94.2437 130.478 96.3523 130.453 96.3926C130.427 96.4329 130.406 94.3571 130.405 91.7798L130.404 87.0938H129.258H128.112V94.4894ZM140.034 94.4882V101.883H141.181H142.327V98.6726V95.4627H143.646H144.964V98.6726V101.883H146.11H147.257V94.4882V87.0938H146.111H144.965L144.95 90.1748L144.935 93.2558L143.631 93.2712L142.327 93.2867V90.1902V87.0938H141.181H140.034V94.4882ZM152.17 94.4442C151.358 98.488 150.694 101.816 150.695 101.84C150.695 101.863 151.219 101.883 151.859 101.883H153.021L153.268 100.493C153.403 99.728 153.527 99.0445 153.544 98.9736L153.574 98.8446H154.932H156.289L156.569 100.364L156.848 101.883H158.014C158.909 101.883 159.179 101.866 159.178 101.811C159.178 101.772 158.511 98.4505 157.697 94.4309L156.218 87.1225L154.932 87.1071L153.646 87.0918L152.17 94.4442ZM160.956 88.1829V89.272H162.131H163.307V95.5773V101.883H164.482H165.657V95.5773V89.272H166.832H168.007V88.1829V87.0938H164.482H160.956V88.1829ZM95.888 89.2593C96.1355 89.373 96.3287 89.6706 96.4414 90.1116C96.5199 90.4189 96.5293 90.9969 96.5152 94.6399L96.4991 98.8159L96.3673 99.1019C96.1108 99.6584 95.8359 99.8376 95.2381 99.8376C94.679 99.8376 94.3893 99.6681 94.1545 99.2035C93.9642 98.8269 93.9399 98.2042 93.9617 94.2568C93.985 90.0459 93.9791 90.1222 94.3167 89.612C94.6189 89.1554 95.3193 88.9982 95.888 89.2593ZM155.421 93.4708C155.672 95.0865 155.887 96.4665 155.901 96.5374L155.926 96.6664H154.915H153.904L153.933 96.5374C154.001 96.2415 154.376 93.8887 154.593 92.396C154.857 90.5851 154.867 90.5331 154.924 90.5331C154.948 90.5332 155.171 91.8551 155.421 93.4708ZM120.816 95.0042C121.569 95.102 121.943 95.4115 122.165 96.1219C122.268 96.4516 122.291 96.6611 122.291 97.2969C122.291 98.1768 122.17 98.6988 121.872 99.1106C121.592 99.497 120.998 99.6989 120.13 99.7023L119.628 99.7044V97.3256V94.9468L120.015 94.9486C120.228 94.9495 120.588 94.9745 120.816 95.0042Z" fill="#63523E"/>
</svg>
