<svg width="180" height="140" viewBox="0 0 180 140" fill="none" xmlns="http://www.w3.org/2000/svg">
<path fill-rule="evenodd" clip-rule="evenodd" d="M151.434 33.1612C150.259 33.6389 147.337 38.856 143.091 48.0584C138.417 58.1896 137.751 59.5009 137.417 59.2324C137.244 59.0932 136.25 58.6675 135.208 58.2863C131.656 56.9874 127.203 57.4477 123.622 59.4837C119.23 61.9805 115.291 66.9448 113.446 72.309C112.713 74.4383 112.618 75.0223 112.61 77.4875C112.6 80.0331 112.659 80.3875 113.31 81.7122C114.632 84.4045 116.903 85.6974 120.31 85.6974C121.671 85.6974 122.277 85.5541 123.485 84.9481C125.385 83.994 127.201 82.3983 128.643 80.415L129.777 78.8549L129.922 81.2024C130.082 83.7896 130.453 84.7594 131.674 85.787C132.875 86.7975 134.255 87.0819 136.298 86.7396C139.761 86.1594 141.436 84.6432 140.515 82.9227C140.15 82.2404 138.962 82.0631 137.856 82.5253C136.002 83.3001 134.703 82.8467 134.703 81.4245C134.703 79.6145 136.882 75.1054 140.698 69.0165C142.774 65.7045 145.102 62.2844 153.775 49.8004C158.367 43.1918 158.947 42.1741 158.948 40.7327C158.949 39.1781 157.991 37.231 156.395 35.5438C154.382 33.4148 152.744 32.6284 151.434 33.1612ZM86.6322 35.6042C86.1487 35.7297 85.866 36.2951 81.388 46.0986C75.3183 59.3867 71.93 69.0013 70.9077 75.8385C70.6902 77.2933 70.4901 78.4997 70.4628 78.5194C70.4358 78.5391 69.3337 78.9122 68.0138 79.3485C66.6939 79.7848 65.2416 80.3688 64.7867 80.6462C63.4284 81.4745 63.0704 83.1046 63.9904 84.2739C64.6076 85.0588 65.4258 85.127 67.0346 84.528C68.9057 83.8316 74.6284 83.7785 80.1552 84.4065C85.4755 85.0113 86.9045 85.0542 88.7193 84.6652C91.455 84.0784 94.2133 81.4169 97.2534 76.4303C98.7143 74.0341 98.9656 72.7367 98.1176 71.9692C97.1393 71.0838 95.8409 71.7187 94.7114 73.6342C94.3628 74.2253 93.7343 75.0352 93.3145 75.4343L92.5513 76.1598L87.1662 76.2134C82.9084 76.2555 81.1543 76.3813 78.7879 76.8141C77.1413 77.1149 75.749 77.3612 75.6934 77.3612C75.3799 77.3612 75.7404 76.376 76.9713 73.8679C78.9089 69.9201 81.3354 65.9624 88.2274 55.5104C94.6556 45.7619 95.5483 44.2323 95.5483 42.968C95.5483 41.6971 94.5869 40.0198 92.9146 38.373C90.705 36.1976 88.3482 35.1588 86.6322 35.6042ZM49.6017 36.7442C49.0402 37.0473 42.196 49.7355 32.3515 68.7234C30.8169 71.6835 29.5152 74.0596 29.4591 74.0035C29.403 73.9474 29.7594 70.6256 30.251 66.6217C31.5103 56.371 32.3957 47.4221 32.3957 44.949C32.3957 43.0375 32.3262 42.7356 31.6535 41.7232C29.5644 38.5799 25.9976 36.7268 24.763 38.1434C24.5511 38.3864 23.2762 41.8252 21.93 45.7849C16.0078 63.2029 12.5945 76.3844 12.0461 83.9551C11.7849 87.5611 12.3061 88.7287 14.1769 88.7287C15.4369 88.7287 16.0957 87.8612 16.6712 85.4448C16.9526 84.2638 17.7187 81.8231 18.3743 80.021C19.6969 76.3839 26.0168 61.207 26.3676 60.8253C26.4977 60.6839 26.5356 61.0519 26.4586 61.7095C25.65 68.6191 24.6812 81.5859 24.9068 82.4829C25.3195 84.1269 26.9378 84.6581 28.5456 83.6777C29.5682 83.0546 29.3209 83.4688 34.9256 72.9815C37.4891 68.1844 39.6044 64.28 39.6256 64.3055C39.6471 64.3311 39.3223 65.9432 38.9034 67.8883C38.2269 71.0305 38.1385 71.9344 38.1107 75.9964L38.0794 80.5679L38.9636 82.3041C40.1395 84.6132 41.091 85.182 43.7859 85.1881C45.4238 85.1916 45.9285 85.0795 47.2492 84.4197C49.7821 83.1538 50.6566 81.6677 49.6212 80.389C49.0147 79.64 48.1654 79.6739 46.4451 80.5153C44.034 81.6953 43.3079 81.0958 43.5755 78.1463C43.8657 74.944 46.5532 68.5557 53.0143 55.709C57.4731 46.8431 58.4146 44.7323 58.4146 43.6003C58.4146 42.5593 56.9156 40.0367 55.5874 38.8424C53.4662 36.9354 50.9082 36.0387 49.6017 36.7442ZM63.4433 42.5836C59.7175 44.5506 59.8017 50.1604 63.5827 51.8779C64.8076 52.4344 66.6247 52.4851 67.796 51.9958C70.4416 50.8904 71.7367 47.6959 70.5704 45.1534C69.2569 42.29 66.1328 41.1636 63.4433 42.5836ZM114.115 44.3991C112.095 45.485 111.21 46.9661 111.21 49.2638C111.21 53.7803 116.68 55.9403 119.851 52.6761C120.992 51.503 121.316 50.6833 121.311 48.9893C121.306 47.4094 120.603 46.0494 119.216 44.9323C118.396 44.272 118.006 44.1457 116.564 44.075C115.36 44.0159 114.655 44.1093 114.115 44.3991ZM57.631 55.9598C56.9545 56.4135 56.5801 57.0162 55.8652 58.8017C53.9845 63.4995 52.316 69.9984 51.8275 74.5294C51.3445 79.0087 52.2418 82.884 54.0335 84.0582C56.1898 85.471 61.9589 83.4153 61.9473 81.2385C61.9377 79.4455 60.2675 78.9926 58.335 80.2589C57.9781 80.4928 57.4236 80.6469 57.103 80.6015C56.5938 80.5292 56.5228 80.3824 56.5422 79.4405C56.5657 78.2954 57.5782 76.1406 62.7041 66.3264C65.4553 61.059 65.6248 60.4224 64.7384 58.6852C63.3385 55.9408 59.7251 54.5553 57.631 55.9598ZM107.778 56.9925C106.638 57.5091 106.093 58.3371 104.659 61.733C103.083 65.4643 101.786 69.3002 100.91 72.8142C100.375 74.965 100.247 76.0878 100.236 78.7506C100.223 81.7673 100.273 82.1363 100.853 83.2844C101.781 85.1204 102.541 85.5751 104.643 85.5521C106.048 85.537 106.674 85.3841 107.99 84.7367C109.726 83.8819 110.318 83.098 110.046 82.0133C109.769 80.9124 108.199 80.5431 106.916 81.2767C106.568 81.4752 105.915 81.6417 105.463 81.6468C104.734 81.6546 104.642 81.578 104.643 80.9609C104.643 79.8583 105.893 77.4906 109.79 71.2152C114.455 63.7021 114.838 62.9397 114.676 61.5038C114.338 58.5033 110.289 55.8552 107.778 56.9925ZM158.322 61.8199C151.276 63.3671 145.058 69.0594 142.601 76.2134C142.01 77.9326 141.902 78.6574 141.902 80.9233C141.902 83.4873 141.94 83.6745 142.787 85.3235C143.862 87.4187 145.258 88.4872 147.556 88.9747C150.714 89.6452 152.734 88.8997 155.709 85.9659L157.389 84.308L157.527 86.0303C157.685 88.0171 158.223 89.0998 159.472 89.9516C160.249 90.4811 160.56 90.5333 162.364 90.4389C164.433 90.3308 165.622 89.9129 166.721 88.9078C167.444 88.2467 167.479 86.9574 166.791 86.3345C166.28 85.8727 166.245 85.8729 163.156 86.3625C161.974 86.5499 161.672 86.2033 162.053 85.0926C162.401 84.0759 162.652 83.6795 165.43 79.757C169.372 74.1932 169.961 72.5912 168.735 70.7714C167.639 69.1451 164.827 68.1184 163.254 68.7702C162.353 69.143 161.818 70.0148 160.355 73.4869C156.666 82.2404 151.928 87.2605 149.576 84.9082C149.103 84.4356 149.053 84.1585 149.155 82.5716C149.247 81.1471 149.485 80.3142 150.297 78.5806C151.593 75.8165 152.524 74.465 154.742 72.1304C157.849 68.8591 161.112 67.0375 164.928 66.4444C166.613 66.1824 167.062 66.2125 169.48 66.7493C171.887 67.2836 172.23 67.3068 172.821 66.9772C173.807 66.426 173.856 65.052 172.923 64.0547C172.195 63.2759 169.58 62.272 166.835 61.7173C165.027 61.3518 160.188 61.4101 158.322 61.8199ZM136.071 62.4221C136.145 62.5418 135.316 64.1618 134.23 66.0218C133.143 67.882 131.542 70.7112 130.671 72.309C126.86 79.3005 123.447 82.7916 121.294 81.8996C119.538 81.1724 119.831 77.8121 122.057 73.1532C122.758 71.6853 123.831 69.7864 124.441 68.9336C126.522 66.0263 129.628 63.453 132.137 62.5567C133.182 62.1834 135.867 62.0917 136.071 62.4221ZM63.2142 88.3932C41.5445 89.1854 25.4418 90.9512 14.4603 93.7397C9.45409 95.0109 7.92226 95.6027 6.78879 96.7036C5.45071 98.003 5.01496 98.9839 5.00031 100.728C4.98339 102.729 5.6576 104.025 7.22076 104.995C8.21402 105.612 8.66417 105.727 10.1028 105.729C11.5273 105.731 12.2444 105.554 14.4603 104.657C43.1384 93.0509 95.5486 90.1499 156.049 96.8203C159.8 97.2338 165.37 97.9124 168.426 98.3282C171.483 98.7439 174.171 99.0845 174.399 99.085C174.868 99.0857 175.159 98.5454 174.908 98.1395C174.559 97.5749 160.357 94.7494 150.617 93.3065C133.149 90.7188 116.063 89.2279 95.2957 88.4791C89.1818 88.2586 68.4162 88.203 63.2142 88.3932Z" fill="#01A0E2"/>
</svg>
