<svg width="180" height="140" viewBox="0 0 180 140" fill="none" xmlns="http://www.w3.org/2000/svg">
<path fill-rule="evenodd" clip-rule="evenodd" d="M64.6492 18.1568C65.379 17.345 66.1963 16.4438 67.4875 15.8106C68.7545 15.1892 69.5986 14.9753 71.0097 15.0022C72.8367 15.0371 73.9619 15.4585 75.4241 16.5545C76.6519 17.4751 77.2423 18.3124 77.8721 19.6285C78.3666 20.6623 78.3816 20.7596 78.3816 22.9733C78.3817 24.4149 78.4448 25.274 78.5532 25.3101C78.6474 25.3417 78.9423 25.0529 79.2085 24.6688C79.4746 24.2847 80.2203 23.4433 80.8658 22.7994C82.4029 21.2654 83.4909 20.8688 85.4261 20.8602C86.4038 20.8559 87.0147 20.9131 87.8835 21.3389C89.9067 22.3303 91.4414 24.5941 91.4262 26.5644C91.4126 28.3375 90.608 29.9532 89.0126 31.4115C87.4829 32.8094 86.5814 33.3343 83.7891 34.4529C82.9789 34.7777 82.0206 35.2164 81.6594 35.428C80.6187 36.0382 79.2457 37.6068 78.3698 39.1867C77.4124 40.9132 76.4851 41.7447 75.5166 41.7447C74.6136 41.7447 73.3228 40.8196 70.6945 38.2888C65.5575 33.3429 63.1607 29.5747 62.5629 25.5036C62.1888 22.955 63.0444 19.9416 64.6492 18.1568ZM73.5489 19.4725C73.5489 19.0188 73.0398 18.4579 72.3394 18.14C71.5411 17.7771 69.7274 17.7368 68.6991 18.0587C67.6098 18.3996 66.5843 19.2178 65.8631 20.3215C65.2057 21.3278 65.0317 21.9662 65.3597 22.169C65.451 22.2253 65.9118 22.0894 66.3836 21.867C67.7614 21.2173 69.4178 20.788 71.1396 20.6345C72.472 20.5157 72.8122 20.4273 73.1464 20.1134C73.3678 19.9053 73.5489 19.617 73.5489 19.4725ZM102.803 36.6247C102.816 36.5652 102.803 36.2971 102.999 36.1475C103.458 35.8875 115.509 36.3994 117.799 36.6796C118.555 36.7719 119.911 36.9117 120.812 36.9899C124.827 37.339 132.18 38.673 136.703 39.8725C137.604 40.1114 138.62 40.3734 138.96 40.4544C139.626 40.6128 143.644 41.924 144.321 42.2035C144.546 42.2964 145.91 42.8349 147.351 43.4C158.797 47.8863 167.323 55.2489 170.151 63.0889C171.151 65.8621 171.267 66.619 171.266 70.4136C171.266 73.5371 171.226 74.0656 170.917 75.0826C170.725 75.7134 170.52 76.4506 170.461 76.7208C170.228 77.7854 169.188 80.1757 168.322 81.6355C168.109 81.996 167.812 82.5012 167.664 82.7583C167.515 83.0154 166.576 84.3055 165.577 85.6252C162.569 89.5978 161.844 90.8927 162.628 90.8909C163.318 90.8895 165.079 89.5034 166.498 87.8434C169.62 83.8377 172.037 80.5624 173.654 75.0826C174.665 71.6561 175.018 69.8254 174.999 66.0336C174.983 62.7894 174.818 61.5812 174.131 59.6832C173.968 59.2327 173.782 58.6798 173.717 58.4545C173.652 58.2292 173.243 57.3079 172.808 56.4069C171.348 53.3837 169.989 51.4989 167.429 48.9518C163.716 45.2566 158.789 42.0451 153.249 39.7077C152.258 39.2897 151.226 38.8419 150.956 38.713C150.327 38.4132 144.998 36.6661 144.712 36.6661C144.593 36.6661 144.253 36.5613 143.958 36.4334C142.75 35.911 136.193 34.4955 132.853 34.0358C132.177 33.9429 131.182 33.7912 130.641 33.6992C129.511 33.5064 127.948 33.3391 124.85 33.0796C123.646 32.9788 122.587 32.8502 122.495 32.7932C122.403 32.7366 118.707 32.6627 114.28 32.6291C106.689 32.5715 103.594 32.608 102.292 32.6233C101.998 32.6267 101.796 32.6291 101.654 32.6291C101.011 32.6291 100.645 32.6528 100.373 32.6704C100.056 32.6908 99.0557 32.6667 98.7071 32.6233L102.803 36.6247ZM12.4817 70.5774C14.3364 68.0865 16.5721 65.7608 17.6851 65.1652C18.0004 64.9962 18.353 64.855 18.4684 64.851C18.7873 64.8399 18.8813 65.2639 18.6548 65.6911C18.3718 66.2244 16.549 68.7 14.5741 71.2327C12.7107 73.6227 11.2921 76.4516 10.4151 79.342C7.68004 88.3577 10.5888 96.9516 18.758 103.991C22.975 107.625 28.0058 110.515 34.9685 113.302C43.3809 116.67 52.7684 118.52 61.7536 119.233C70.3089 119.912 78.9978 120.288 87.5558 119.397C96.0441 118.513 104.508 117.461 112.785 115.301C115.439 114.609 118.055 113.806 120.672 113.002C122.394 112.474 124.116 111.945 125.85 111.448C128.425 110.708 130.929 109.554 133.397 108.416C134.159 108.065 134.918 107.715 135.674 107.38C135.952 107.257 136.334 107.052 136.771 106.818C138.324 105.984 140.57 104.78 141.332 105.541C141.686 105.896 140.258 107.173 138.177 108.365C135.978 109.624 130.492 112.152 128.266 112.933C120.973 115.494 113.623 118.031 106.068 119.724C92.9251 122.669 79.7067 124.366 66.2598 124.271C58.499 124.217 50.7793 123.53 43.1597 122.077C27.4728 119.087 15.0452 112.418 9.18565 103.846C1.79055 93.0289 5.01439 80.6076 12.4817 70.5774Z" fill="#FF0000"/>
<path fill-rule="evenodd" clip-rule="evenodd" d="M98.5003 32.5086C97.3383 32.2658 96.1287 32.377 95.4605 32.5086C90.9425 33.3978 88.0035 34.4874 84.5797 37.0514C83.9767 37.5029 82.2919 39.0074 80.8355 40.3947C77.8972 43.1938 76.0727 44.5511 75.2539 44.5471C74.2239 44.542 71.3716 41.0096 70.7232 40.3742C67.6471 37.3597 66.651 36.5784 64.7467 35.6861C62.745 34.748 61.5122 34.5056 59.2555 34.6063C56.6499 34.7226 54.6473 35.4128 52.0378 37.0935C50.4508 38.1157 46.9362 41.6422 46.4845 42.6656C45.65 44.557 45.4613 45.4003 45.3759 47.6237C45.2999 49.6031 45.326 49.8879 45.6679 50.8183C46.5887 53.3235 48.2248 54.6213 50.701 54.8108C52.0263 54.9122 52.8369 54.7461 59.9927 52.9069C62.876 52.1657 65.7038 51.456 66.2765 51.3297C66.8493 51.2034 67.3879 51.057 67.4736 51.0041C67.5591 50.9511 67.8137 50.9543 68.0394 51.0108C68.3861 51.0978 68.4418 51.1952 68.3987 51.6405C68.3423 52.2239 68.3359 52.2267 64.5798 53.3752C61.3987 54.3479 58.9965 55.8006 57.6856 57.5445C54.2319 62.1388 55.196 67.3749 59.9357 69.7663C62.4352 71.0272 64.682 71.0221 67.2801 69.7499C70.8054 68.0237 73.2952 64.1666 74.3299 58.8287C74.5087 57.9067 74.6549 56.9428 74.6549 56.6868C74.6549 56.1072 75.0201 55.7862 75.533 55.915C75.979 56.0269 76.0085 56.0935 76.9519 59.1299C78.731 64.8558 81.1373 67.7924 84.9613 68.9041C88.1701 69.8369 94.4655 67.4844 97.1283 64.3573C98.6015 62.6272 99.6243 60.2892 100.143 57.4651C101.01 52.747 99.2447 49.934 94.5559 48.5629C92.8862 48.0747 88.7161 47.5064 86.6239 47.482C84.8695 47.4617 84.4703 47.351 84.1608 46.7997C83.9377 46.4023 83.9406 46.3336 84.1916 46.0828C84.4465 45.8277 84.6407 45.8228 86.5898 46.0215C90.3383 46.4037 94.3148 46.0399 97.2626 45.0448C99.4803 44.2963 101.3 43.0322 102.344 41.5151C103.002 40.5585 103.286 39.0881 103.102 37.505C102.96 36.2888 102.723 35.5031 102.037 34.5562C101.1 33.2639 100.18 32.8594 98.5003 32.5086ZM78.4229 46.5867C76.1992 47.4429 74.835 47.8346 73.2905 48.0605C71.368 48.3416 70.9881 48.4777 70.7179 48.9828C70.342 49.685 71.0998 50.7323 72.4433 51.3674C73.1031 51.6793 73.5332 51.7549 74.6549 51.756C75.854 51.7573 76.1874 51.6915 77.0541 51.2813C78.897 50.4095 80.5526 48.5534 80.5526 47.3593C80.5526 46.866 80.4695 46.6464 80.2358 46.5212C79.8103 46.2936 79.1195 46.3185 78.4229 46.5867ZM149.604 62.5752C149.058 62.8305 148.704 62.8662 147.475 62.789C142.325 62.4663 138.075 66.5063 136.74 72.9941C135.978 76.6976 136.517 79.8724 138.194 81.5488C139.317 82.6723 140.247 83.0859 141.848 83.1731C143.102 83.2416 143.366 83.2042 144.141 82.8484C145.239 82.3446 146.341 81.2801 147.029 80.0583C147.595 79.0521 148.048 78.8229 148.048 79.5421C148.048 80.2246 148.52 81.0344 149.044 81.2516C149.78 81.5565 151.047 81.3692 151.806 80.8434C152.615 80.2823 152.872 79.6032 152.651 78.6055C152.257 76.8279 152.1 73.5145 152.179 68.602C152.257 63.7666 152.246 63.5192 151.942 63.1324C151.601 62.6989 150.822 62.234 150.472 62.2558C150.355 62.263 149.965 62.4068 149.604 62.5752ZM145.293 65.4472C143.135 66.0281 141.673 67.7996 141.016 70.6317C140.515 72.7908 140.45 74.0781 140.75 75.9206C141.091 78.0138 141.628 79.0441 142.654 79.5705C143.167 79.834 143.522 79.9119 143.87 79.8373C145.593 79.4686 146.983 77.751 147.48 75.3784C147.72 74.2285 147.85 66.342 147.637 65.8089C147.575 65.653 147.255 65.4507 146.926 65.3592C146.222 65.1638 146.377 65.1554 145.293 65.4472ZM131.633 66.0175C130.745 66.4862 130.125 67.506 129.703 69.1899C129.258 70.9676 128.802 72.1985 127.892 74.0745C127.219 75.4632 126.761 75.9157 126.397 75.552C126.248 75.4026 126.426 71.6135 126.687 69.3962C126.792 68.5002 126.781 68.4649 126.194 67.878C125.602 67.2865 125.577 67.2784 124.552 67.3607C123.741 67.4257 123.347 67.5564 122.773 67.9519C121.804 68.6185 121.632 69.1231 121.858 70.647C121.953 71.2956 122.055 74.8995 122.084 78.6557C122.113 82.4118 122.198 85.5951 122.273 85.7296C122.479 86.0985 123.326 86.4863 123.927 86.4874C124.67 86.4887 125.834 85.9052 126.421 85.2369C126.992 84.5867 127.049 83.9721 126.669 82.5566C126.282 81.1165 126.346 80.7926 127.258 79.5569C127.772 78.8608 128.179 78.4602 128.34 78.492C128.483 78.52 128.887 79.0175 129.24 79.5975C131.59 83.4644 134.153 85.0366 136.48 84.0391C137.251 83.7086 137.536 83.2286 137.329 82.6094C137.275 82.4452 136.685 81.9244 136.018 81.452C135.245 80.9041 134.506 80.1922 133.977 79.4861C132.958 78.1265 131.338 75.1262 131.338 74.5992C131.338 74.3863 131.66 73.712 132.055 73.1009C133.003 71.6325 134.942 67.7442 134.942 67.3127C134.942 66.756 134.643 66.3592 133.96 66.0109C133.158 65.6017 132.416 65.6037 131.633 66.0175ZM117.526 68.6398C116.82 68.761 115.721 69.4791 115.232 70.1381C114.92 70.5597 114.913 70.6758 115.095 72.6774C115.345 75.4346 115.34 77.0643 115.078 77.2781C114.966 77.3703 114.21 77.5644 113.399 77.7096C112.588 77.8547 111.432 78.096 110.83 78.2461C109.185 78.6553 109.148 78.5993 109.289 75.9259C109.351 74.7542 109.472 73.4805 109.559 73.0952C109.83 71.8839 109.196 70.9119 107.976 70.6678C107.397 70.5521 105.847 70.9766 105.359 71.3843C104.487 72.1139 104.487 72.1158 104.626 77.0685C104.697 79.5914 104.714 82.9826 104.665 84.6044C104.521 89.2747 104.49 88.9163 105.089 89.4516C105.845 90.1271 106.292 90.1893 107.339 89.7642C108.285 89.3804 109.148 88.5594 109.318 87.8815C109.374 87.6601 109.339 86.1542 109.24 84.5351C109.142 82.9161 109.103 81.4834 109.153 81.3517C109.281 81.0191 109.915 80.8004 111.351 80.5934C112.027 80.4959 113.116 80.278 113.771 80.1093C114.823 79.8386 114.991 79.8309 115.205 80.0444C115.498 80.3375 115.523 81.8337 115.278 84.4137C115.118 86.1083 115.126 86.2153 115.469 86.769C115.981 87.5988 117.022 88.0365 117.912 87.797C118.703 87.584 119.747 86.6901 120.045 85.9705C120.22 85.5482 120.22 85.1755 120.043 83.8836C119.735 81.6395 119.621 73.9316 119.863 71.7418C120.034 70.1991 120.026 69.9098 119.802 69.4766C119.661 69.2035 119.462 68.9288 119.361 68.8661C118.996 68.6405 118.138 68.5346 117.526 68.6398ZM99.8019 71.7336C98.0827 72.1522 96.9184 73.5678 97.2533 74.8318C97.5508 75.9544 97.7885 79.7382 97.7303 82.4233C97.673 85.0684 97.6651 85.1175 97.1347 86.1948C96.5123 87.4589 95.331 88.6166 94.2374 89.0342C93.5507 89.2965 93.4848 89.295 92.9036 89.005C91.7986 88.4539 91.7447 88.2012 91.6072 82.9215C91.5198 79.566 91.5409 77.7836 91.6805 76.7111C91.9079 74.966 91.7378 74.4028 90.844 73.9407C89.3645 73.1756 86.6514 74.5443 86.5862 76.0885C86.5749 76.3572 86.6508 77.7566 86.755 79.1982C86.8591 80.6399 87.0104 83.6256 87.0908 85.8331C87.1714 88.0406 87.3162 90.0489 87.4125 90.296C87.7486 91.157 88.8884 92.2039 89.7772 92.4678C91.9418 93.1106 95.1132 92.2574 96.7891 90.5815C97.2383 90.1323 97.6848 89.7649 97.7813 89.7649C97.8776 89.7649 98.2085 89.986 98.5163 90.2563C99.2414 90.8929 100.205 90.9226 101.348 90.3437C102.833 89.5909 103.082 88.8855 102.565 86.8979C102.359 86.106 102.299 84.6301 102.253 79.3042C102.191 71.9661 102.243 72.2973 101.077 71.8036C100.501 71.56 100.513 71.5606 99.8019 71.7336ZM76.0309 77.0834C74.4249 77.9327 74.1853 78.3464 73.1651 82.026C71.4547 88.1967 71.1563 89.2503 70.6036 91.0754C70.2897 92.1116 69.812 93.5235 69.5422 94.2128C69.0984 95.3465 69.0727 95.5108 69.273 95.933C69.3949 96.1897 69.7781 96.5383 70.1249 96.7075C70.6731 96.9752 70.8439 96.9895 71.4355 96.817C73.1684 96.3116 74.0619 95.1653 74.2284 93.2343C74.3258 92.1034 74.6777 90.2753 75.2274 88.0447C75.3605 87.5041 75.6564 86.1771 75.8846 85.0959C76.113 84.0147 76.3366 82.9642 76.3815 82.7614C76.4305 82.5407 76.5854 82.3928 76.7678 82.3928C77.1254 82.3928 77.3554 82.6448 77.5155 83.2119C77.6791 83.792 78.7168 87.2017 79.086 88.3724C79.2564 88.913 79.6142 90.2214 79.8811 91.2801C80.6055 94.1542 81.0932 94.6355 83.1166 94.4731C84.3466 94.3744 85.3808 93.7864 85.7794 92.9589C85.9948 92.5117 85.9719 92.4078 85.4178 91.3279C85.0925 90.6934 84.6298 89.7321 84.3897 89.1915C83.8835 88.0514 80.8802 79.8224 80.8802 79.5752C80.8802 79.4838 80.6578 78.9428 80.386 78.3732C79.7523 77.0454 79.1724 76.659 77.8136 76.659C77.0746 76.659 76.6359 76.7635 76.0309 77.0834ZM46.2842 77.2152C45.3726 77.4606 44.4416 78.1314 44.1025 78.7875C43.9679 79.0479 43.7862 79.7628 43.6989 80.3763C43.3815 82.6068 42.6078 84.2484 39.9863 88.2536C37.8494 91.5184 37.585 91.5469 37.6133 88.5101C37.6233 87.4433 37.7124 85.2353 37.8112 83.6038C37.9708 80.9685 37.9614 80.5801 37.7273 80.1273C37.3448 79.3878 36.9238 79.2223 35.712 79.3355C34.1078 79.4853 32.7323 80.6309 32.6868 81.8551C32.6775 82.1058 32.7543 83.1587 32.8575 84.1949C33.1566 87.1971 33.2831 97.5195 33.0503 99.922C32.9412 101.048 32.8585 102.149 32.8665 102.368C32.89 103.005 33.3018 103.472 34.1129 103.782C34.8347 104.058 34.9086 104.058 35.7988 103.778C36.8592 103.444 38.0245 102.416 38.2185 101.643C38.2843 101.381 38.2157 100.286 38.0651 99.1941C37.6415 96.1225 37.6752 95.7187 38.445 94.6437C39.4784 93.2007 39.6942 93.2181 40.717 94.826C41.646 96.2867 43.5491 98.3427 45.1803 99.6477C46.861 100.993 47.9324 101.358 49.4261 101.094C49.9861 100.996 50.7128 100.784 51.0409 100.623C51.5557 100.372 51.6377 100.254 51.6377 99.7665C51.6377 99.2855 51.5281 99.1216 50.9005 98.6652C47.3785 96.1038 45.1685 93.7631 43.5311 90.8602C42.9107 89.7603 42.9415 89.5951 44.0064 88.3153C45.8645 86.0821 49.3383 80.3376 49.6722 78.9461C49.9122 77.946 48.9358 76.9788 47.706 76.9983C47.3456 77.004 46.7057 77.1016 46.2842 77.2152ZM64.7115 79.108C64.1558 79.3603 63.7921 79.4025 62.814 79.3285C58.7195 79.0189 55.0089 81.4469 53.0312 85.7297C51.9882 87.9887 51.2798 91.4467 51.4497 93.4509C51.7265 96.7169 53.2247 98.8188 55.8426 99.6138C56.8259 99.9126 57.1119 99.937 57.859 99.7871C59.7297 99.4113 61.3115 98.2457 62.1226 96.6453C62.6913 95.5231 63.1873 95.4607 63.1873 96.5114C63.1873 96.6933 63.438 97.0927 63.7443 97.399C64.2277 97.8825 64.4084 97.956 65.1122 97.956C65.7521 97.956 66.0654 97.853 66.5971 97.4678C67.7989 96.5973 67.8727 96.375 67.5371 94.6314C67.2988 93.3927 67.2491 92.2424 67.2536 88.0557C67.2567 85.2648 67.3042 82.3882 67.3592 81.6631C67.4747 80.146 67.3304 79.7366 66.4782 79.1622C65.809 78.7112 65.5995 78.7048 64.7115 79.108ZM60.0378 82.0817C58.2816 82.7103 56.9215 84.3597 56.2015 86.7341C55.966 87.5113 55.9029 88.2829 55.9003 90.4202C55.8967 93.4746 56.1059 94.4166 57.0185 95.4561C58.202 96.804 59.4107 96.7202 60.912 95.1863C61.9034 94.1732 62.4375 93.0487 62.7091 91.4031C62.9529 89.9257 62.9014 82.5124 62.6449 82.1618C62.3209 81.7185 61.1528 81.6826 60.0378 82.0817Z" fill="#EDEBEB"/>
<path fill-rule="evenodd" clip-rule="evenodd" d="M139.211 87.8443C137.909 88.1564 136.816 88.728 133.59 90.7846C129.871 93.1555 124.693 95.9682 120.043 98.1434C118.382 98.9207 117.591 99.2612 114.432 100.558C111.331 101.832 107.615 103.1 101.531 104.963C98.4167 105.917 90.1218 107.681 86.1319 108.238C82.4474 108.752 81.8864 108.819 79.8247 108.989C78.6534 109.085 76.8104 109.24 75.7291 109.334C73.4882 109.528 60.3993 109.379 59.3468 109.147C58.9864 109.068 57.5857 108.889 56.2341 108.749C53.9786 108.516 52.3536 108.204 50.1582 107.582C49.0211 107.26 48.6085 107.291 48.1024 107.737C47.3865 108.368 47.2833 108.693 47.6005 109.318C47.8423 109.794 48.042 109.916 49.1078 110.241C49.7836 110.448 50.49 110.618 50.6776 110.619C50.865 110.621 51.4916 110.761 52.0701 110.93C52.6484 111.1 53.5269 111.318 54.0225 111.417C54.9705 111.604 57.74 112.141 59.2649 112.433C59.7604 112.528 61.0505 112.71 62.1318 112.837C63.213 112.963 64.6874 113.139 65.4082 113.227C67.1892 113.445 73.6181 113.735 76.6608 113.735C80.237 113.735 88.7447 113.285 90.4732 113.005C91.2841 112.873 92.5374 112.723 93.2582 112.672C93.9791 112.621 95.1954 112.474 95.9613 112.344C96.7272 112.215 98.091 111.994 98.9921 111.854C101.35 111.488 103.906 111.019 105.135 110.728C105.721 110.589 106.901 110.314 107.757 110.116C111.219 109.317 114.244 108.493 117.095 107.574C118.041 107.269 119.183 106.9 119.634 106.755C120.571 106.454 124.782 104.83 125.556 104.472C125.84 104.341 126.117 104.233 126.171 104.233C126.422 104.233 130.993 101.934 132.904 100.847C140.59 96.4732 143.47 93.7981 143.47 91.0315C143.47 88.833 141.436 87.3111 139.211 87.8443Z" fill="#0085E9"/>
</svg>
