<svg width="81" height="80" viewBox="0 0 81 80" fill="none" xmlns="http://www.w3.org/2000/svg">
<path fill-rule="evenodd" clip-rule="evenodd" d="M33.1915 0.488657C6.67176 5.30055 -7.73479 33.9548 4.2884 57.9764C13.6939 76.7681 36.1342 85.0135 55.7017 76.8676C59.3323 75.3562 64.6998 71.8411 67.6126 69.0671C75.5056 61.5509 80.076 50.9232 80.0749 40.089C80.0738 31.9063 77.8609 24.5529 73.2895 17.5402C71.5194 14.8241 65.1961 8.50229 62.4772 6.72962C57.4222 3.43461 51.4068 1.11428 45.8257 0.306471C42.5438 -0.16867 36.3193 -0.0786703 33.1915 0.488657ZM50.0145 4.4461C62.5358 8.03189 72.2055 17.8448 75.7439 30.5563C76.4942 33.2515 76.6064 34.4569 76.6101 39.8478C76.6133 45.215 76.4982 46.4801 75.7476 49.3214C73.5697 57.5654 67.9358 65.653 61.1727 70.2433C57.8908 72.4707 52.7608 74.7954 48.9214 75.7953C44.233 77.0163 35.8459 77.0144 31.0672 75.7916C18.0638 72.4634 7.69127 62.0497 4.24613 48.8631C3.28091 45.1687 2.94532 38.3994 3.54253 34.673C5.50759 22.4071 12.6708 12.5763 23.7838 6.89322C29.3459 4.04857 33.4367 3.20797 40.9052 3.37594C45.821 3.48635 47.2493 3.65432 50.0145 4.4461ZM32.3425 5.76331C26.2265 7.06995 19.9936 10.4856 15.369 15.0654C8.68528 21.6842 5.01423 30.5366 5.01641 40.0299C5.02042 59.4211 20.6032 75.0038 39.9943 75.0078C49.5102 75.01 58.2402 71.3915 64.98 64.6513C69.2439 60.3878 72.2011 55.2993 73.9953 49.1393C74.6833 46.7774 74.7911 45.5163 74.7904 39.8478C74.7893 32.5986 74.4162 30.7188 71.8874 25.2284C67.2151 15.0847 57.4758 7.45436 46.8019 5.57602C42.7224 4.85784 36.1833 4.94274 32.3425 5.76331ZM46.9174 6.70412C61.4791 9.75391 72.0805 21.4892 73.8787 36.5495C75.3027 48.4772 69.3623 61.1719 59.1238 68.08C55.7949 70.3264 54.657 70.8948 51.0501 72.114C46.6969 73.5857 43.2314 74.0481 38.2635 73.8204C23.8096 73.1583 11.6975 63.5403 7.31852 49.2475C6.43273 46.3558 6.33435 45.4715 6.31467 40.2121C6.29755 35.5857 6.43528 33.8557 6.98184 31.8316C9.65633 21.9301 16.1604 13.9325 25.3076 9.29735C27.6519 8.10913 32.8005 6.59517 35.9698 6.16193C38.7995 5.77497 43.6213 6.014 46.9174 6.70412ZM50.1993 11.6989C49.3824 12.9444 48.7392 14.5279 48.7392 15.2946C48.7392 15.6724 48.4966 15.9814 48.2 15.9814C47.9034 15.9814 47.003 16.2445 46.1992 16.5662C45.0718 17.0173 44.4389 17.6426 43.4325 19.299C42.7151 20.4803 41.9882 21.447 41.8176 21.447C41.6471 21.447 41.0094 21.866 40.4006 22.3783L39.2936 23.31L37.9134 21.0545C35.9159 17.7916 35.0239 16.81 33.6426 16.3538C31.4319 15.6243 28.7024 16.7444 27.6505 18.8129C27.2701 19.5603 26.361 21.9243 25.63 24.0668C23.8104 29.399 20.2082 39.4218 19.2502 41.8168C18.7868 42.9759 18.5969 43.92 18.7889 44.112C18.9682 44.2913 20.2355 44.3893 21.6048 44.3292C23.9754 44.2253 24.107 44.1725 24.3609 43.2182C24.6229 42.2337 24.5992 42.2162 22.9807 42.2162C21.5611 42.2162 21.3672 42.128 21.5789 41.5785C22.3183 39.6568 27.2919 25.5618 28.1242 23.0283C29.3055 19.4335 30.3439 18.1676 32.1122 18.1676C33.1397 18.1676 33.5708 18.4216 34.4318 19.534C35.6834 21.1515 37.8981 24.7577 37.7381 24.9176C37.3741 25.2805 33.6823 26.9217 32.0069 27.4649C28.7596 28.5183 25.7237 31.8549 26.7865 33.2027C27.2963 33.8491 26.4123 39.0593 25.4034 41.3552C24.2432 43.9947 24.5019 44.3962 27.3003 44.2993L29.578 44.2202L31.7799 40.4949C32.9911 38.446 34.0642 36.7692 34.1644 36.7692C34.2646 36.7688 35.2484 38.4453 36.3506 40.4945L38.3546 44.2202L40.4115 44.3284L42.4684 44.4367L44.7483 40.5761C46.0024 38.4529 47.1375 36.8468 47.2708 37.0064C47.5405 37.3303 49.5839 41.8394 50.1679 43.4004L50.5429 44.4024H55.9571C58.9347 44.4024 61.4697 44.3033 61.5906 44.1827C61.7116 44.0617 61.3144 42.6268 60.7078 40.9944C60.1015 39.3617 59.1439 36.7142 58.5802 35.1109C58.0165 33.5077 56.5423 29.3265 55.3041 25.8194C53.0851 19.534 53.0592 19.4152 53.4794 17.5016C53.9472 15.3703 53.8004 14.8941 52.9051 15.6371C52.3771 16.0754 52.3283 15.9668 52.4289 14.5753C52.4904 13.7197 52.3607 12.9116 52.1396 12.7724C51.9191 12.6335 51.6786 12.2054 51.6054 11.8214C51.4119 10.808 50.8176 10.7563 50.1993 11.6989ZM49.613 18.923C50.7885 19.6164 51.6127 20.8811 51.1747 21.3191C51.0749 21.4189 50.4609 21.2254 49.8105 20.8891C49.1601 20.5528 47.9048 20.1717 47.0216 20.0423L45.4154 19.8073L46.1806 18.9875C47.1309 17.9694 47.9704 17.9537 49.613 18.923ZM50.1202 28.7486C50.4674 30.7917 51.4083 31.0544 53.0122 29.5561L54.1214 28.5198L55.2852 31.9602C56.3065 34.9794 57.9983 39.6546 58.7704 41.5924C59.0109 42.1954 58.7646 42.2359 55.4513 42.1389L51.8721 42.034L49.9559 37.718L48.04 33.402L48.7902 32.3872C49.7697 31.062 49.2628 30.0068 47.4865 29.6738C45.8472 29.3662 45.6705 29.0285 46.5581 27.9C46.956 27.3939 47.2817 26.8335 47.2817 26.6546C47.2817 26.476 47.4807 26.1306 47.7241 25.8872C48.4226 25.1887 49.7937 26.8258 50.1202 28.7486ZM43.3276 31.8666C44.1999 31.7281 45.2821 31.5226 45.7332 31.4104C46.1843 31.2978 46.553 31.3604 46.553 31.5488C46.553 31.7376 45.5626 32.2062 44.3522 32.5906C42.6637 33.1266 42.1022 33.484 41.9401 34.126C41.6161 35.4075 42.0166 35.4975 44.334 34.6635L46.4703 33.895L43.8956 38.0736C40.5332 43.5308 40.2847 43.5432 37.4299 38.3954L35.4116 34.7571L37.1978 33.9296C38.1801 33.4745 39.482 32.6827 40.0909 32.1704C40.8877 31.5004 41.2743 31.3623 41.47 31.6789C41.6562 31.9802 42.2418 32.0393 43.3276 31.8666ZM30.0761 39.3263C28.9586 41.3206 26.8769 43.5578 26.8769 42.7642C26.8769 42.4363 27.2868 41.6303 27.7878 40.9733C28.2889 40.3163 28.6988 39.5949 28.6988 39.3697C28.6988 39.052 30.2521 37.9374 30.8048 37.8583C30.861 37.8503 30.533 38.5109 30.0761 39.3263ZM18.7394 46.4673C18.6057 46.6007 18.4964 46.9286 18.4964 47.1961C18.4964 47.5954 22.3223 47.6818 39.9943 47.6818C61.2492 47.6818 61.4923 47.6734 61.4923 46.953C61.4923 46.2327 61.2492 46.2243 40.2373 46.2243C28.5468 46.2243 18.8728 46.3336 18.7394 46.4673ZM18.5656 49.0482C18.6807 49.6454 20.0402 49.6916 40.0905 49.7798C61.309 49.8731 61.4923 49.8676 61.4923 49.1422C61.4923 48.4178 61.278 48.4105 39.9677 48.4105C19.6642 48.4105 18.4497 48.4466 18.5656 49.0482ZM26.6703 51.7667C26.0618 52.4259 24.7566 53.949 23.7692 55.1514C22.7821 56.3538 21.8861 57.4196 21.779 57.5198C21.3968 57.8762 18.6159 61.3534 18.3546 61.8012C18.1673 62.1226 18.4045 62.2566 19.161 62.2566C20.0045 62.2566 20.4946 61.9098 21.4598 60.6283C22.581 59.1398 22.824 58.9988 24.2826 58.9886L25.8785 58.9773L25.6938 60.617L25.5091 62.2566H27.2861H29.0631V56.7911C29.0631 53.785 29.1043 51.2023 29.1542 51.0522C29.2042 50.9021 28.9148 50.7316 28.5108 50.6736C28.0564 50.6084 27.3542 51.0256 26.6703 51.7667ZM45.9394 51.0799C43.6664 51.918 41.5965 53.7169 40.597 55.7224C39.0094 58.9081 39.3811 61.1566 41.6515 62.1054C43.8997 63.0444 47.4344 62.5398 48.2962 61.1562C49.0526 59.9414 48.4773 59.7017 46.6966 60.4894C45.2613 61.1242 44.8805 61.1628 43.9303 60.7693C42.8863 60.3368 42.8368 60.2234 42.9916 58.6126C43.1705 56.7524 44.8565 53.9238 46.3828 52.9236C47.6071 52.1216 49.809 52.1034 50.2503 52.8919C50.7498 53.7843 51.4542 53.6553 52.0383 52.564C52.4937 51.7132 52.474 51.5645 51.8481 51.1065C51.0042 50.49 47.582 50.4743 45.9394 51.0799ZM57.8653 50.9611L54.7849 51.1433L52.5185 56.4267C51.272 59.3326 50.2397 61.8332 50.2244 61.9834C50.2091 62.1335 51.7544 62.2566 53.6583 62.2566C55.5621 62.2566 57.1198 62.1062 57.1198 61.9222C57.1198 61.7381 57.2193 61.3282 57.341 61.0112C57.5232 60.5361 57.2623 60.4348 55.8591 60.4348C54.2598 60.4348 54.1713 60.3845 54.411 59.6149C55.174 57.1664 55.1857 57.1554 57.0524 57.1554C58.5893 57.1554 58.8797 57.0345 59.2397 56.2445C59.6518 55.3401 59.6416 55.3336 57.8678 55.3336H56.081L56.6913 53.8863L57.302 52.439L59.161 52.6547C60.8903 52.8555 61.0357 52.811 61.2441 52.0134C61.3676 51.5416 61.3509 51.0712 61.207 50.9673C61.0634 50.8638 59.5596 50.8609 57.8653 50.9611ZM34.5131 52.1453C34.2554 52.7965 33.3562 54.9692 32.5148 56.9733C30.0601 62.8189 29.9318 62.2566 33.7169 62.2566C36.825 62.2566 36.9799 62.218 37.3774 61.3457C37.7891 60.4421 37.7782 60.4348 36.0201 60.4348H34.2478L35.878 56.5178C36.7747 54.3636 37.6539 52.232 37.8314 51.7809C38.1364 51.0067 38.0661 50.9611 36.5681 50.9611C35.1172 50.9611 34.9416 51.0624 34.5131 52.1453ZM25.8614 56.4267C25.731 57.3165 25.5266 57.5198 24.7632 57.5198H23.8257L24.8729 56.4267C25.4489 55.8255 25.943 55.3336 25.9711 55.3336C25.9991 55.3336 25.9496 55.8255 25.8614 56.4267Z" fill="white"/>
</svg>
