<svg width="400" height="225" viewBox="0 0 400 225" fill="none" xmlns="http://www.w3.org/2000/svg">
<g clip-path="url(#clip0_133_1624)">
<rect width="399" height="225" transform="translate(0.5)" fill="url(#paint0_linear_133_1624)"/>
<path fill-rule="evenodd" clip-rule="evenodd" d="M-9.905 -29.715C-4.906 -26.346 -4.932 -24.345 -9.969 -24.826L-14 -25.21V-16.461V-7.713L-7.072 -8.357C2.134 -9.212 3.194 -8.222 2.793 0.865002L2.5 7.5L-3.862 10.479L-10.224 13.459L-9.644 18.355C-9.023 23.598 -10.161 27 -12.535 27C-13.79 27 -14 31.374 -14 57.441C-14 79.791 -13.686 88.076 -12.817 88.613C-11.315 89.542 -3.226 80.747 -2.341 77.224C-1.838 75.219 -2.278 74.158 -4.349 72.377C-5.807 71.122 -6.995 69.737 -6.989 69.298C-6.983 68.859 -5.408 66.974 -3.489 65.11C-1.57 63.245 0 60.858 0 59.805C0 58.752 -2.7 54.754 -6 50.92C-9.574 46.768 -12 43.019 -12 41.649C-12 38.525 -8.437 35.55 -2.919 34.066C4.29 32.128 7.194 32.873 9.31 37.203C11.373 41.423 10.9 42.946 6.013 47.833C4.356 49.49 2.993 51.668 2.985 52.673C2.976 53.678 4.846 56.114 7.139 58.087C11.023 61.428 11.238 61.878 10.276 64.639C9.707 66.27 7.838 69.009 6.121 70.725C3.676 73.17 3 74.705 3 77.809C3 79.988 2.328 83.06 1.506 84.636C0.684999 86.211 0.00999928 88.963 0.00599957 90.75C0.000999451 93.649 0.304001 94 2.818 94C4.623 94 7.05 92.742 9.568 90.501C11.731 88.576 13.74 87.001 14.034 87.001C14.328 87 15.318 88.268 16.234 89.819C17.799 92.468 17.79 92.814 16.085 95.569C13.639 99.522 0.532 111.628 -2.027 112.297C-3.154 112.592 -4.494 112.308 -5.004 111.666C-9.265 106.302 -12.351 103 -13.104 103C-13.597 103 -14 107.906 -14 113.902V124.804L-10.851 125.902C-9.119 126.506 -5.519 127 -2.851 127C1.264 127 2 127.291 2 128.918C2 134.935 -1.402 136.778 -7.435 134.03C-9.885 132.913 -12.365 132 -12.945 132C-13.641 132 -14 137.445 -14 148C-14 158.878 -13.651 164 -12.91 164C-11.597 164 -8.08 159.95 -8.033 158.385C-7.954 155.744 -3.788 152 -0.927 152C1.957 152 2 152.081 2 157.55C2 166.914 -2.382 172 -10.45 172H-14V185C-14 195.024 -13.701 198 -12.695 198C-11.978 198 -8.628 199.945 -5.252 202.323C-1.876 204.7 2.712 207.468 4.943 208.474C8.952 210.282 9 210.367 9 215.652C9 219.809 9.344 221 10.545 221C11.395 221 13.233 222.142 14.628 223.537L17.165 226.075L13.833 229.88C12 231.974 9.717 234.657 8.76 235.843C6.591 238.532 4.578 238.578 2 236C0.319 234.319 0 232.667 0 225.635C0 215.807 -1.691 212.656 -7.553 211.556C-9.527 211.186 -11.785 210.636 -12.571 210.334C-13.763 209.877 -14 211.876 -14 222.393V235H-11.155C-9.59 235 -7.512 235.882 -6.536 236.96C-3.829 239.952 -5.219 243.475 -9.972 245.667C-13.784 247.424 -13.949 247.696 -13.974 252.25L-14 257H-9.5C-5.667 257 -5 256.704 -5 255C-5 253.9 -4.656 253 -4.237 253C-3.817 253 -1.454 250.99 1.013 248.533C5.972 243.596 7.699 243.126 11.016 245.812C13.903 248.15 13.008 251.34 9 253C7.386 253.668 5.546 254.842 4.911 255.608C3.928 256.792 8.233 257 33.761 257C62.926 257 63.781 256.944 64.29 255C64.69 253.468 65.654 253 68.406 253C70.667 253 72.742 253.742 74 255C75.832 256.832 77.281 256.994 91.25 256.93C100.701 256.886 105.739 256.533 104.5 256C103.4 255.527 100.025 255.099 97 255.047C93.975 254.996 88.376 254.155 84.559 253.178C78.465 251.619 77.386 250.981 75.721 247.951C74.678 246.053 72.205 242.821 70.227 240.768C68.249 238.716 66.826 236.885 67.065 236.699C68.697 235.431 76.794 234 82.338 234H88.944L91.082 238.97C92.377 241.979 94.853 245.266 97.36 247.303C103.974 252.676 104.845 252.967 109.432 251.337C114.682 249.471 119.065 250.324 122.971 253.973L126.085 256.881L171.564 256.948L217.044 257.014L217.982 254.548C218.498 253.191 220.85 250.851 223.21 249.348C234.18 242.358 235.483 238.811 228.85 234.006C224.545 230.888 219.712 230.083 218.309 232.25C217.864 232.938 217.05 234.85 216.5 236.5C215.744 238.767 214.889 239.5 213 239.5C209.657 239.5 209.261 236.369 211.941 231.117C216.134 222.896 213.825 218 205.753 218C198.051 218 198.064 217.982 198.717 228.055C199.22 235.827 199.078 237.033 197.596 237.602C193.69 239.1 185.32 227.675 183.91 218.92C182.75 211.721 181.872 210.142 177.394 207.207C175.527 205.983 174 204.591 174 204.113C174 202.721 176.298 201.22 179 200.846C181.086 200.557 181.551 199.885 181.808 196.786C182.113 193.115 182.044 193.04 175.801 190.209C170.95 188.01 167.845 185.566 162.415 179.673C156.932 173.722 154.735 172 152.625 172C149.782 172 145.552 175.686 144.465 179.111C144.135 180.15 143.457 181 142.958 181C141.177 181 139.267 186.616 138.636 193.708C138.05 200.286 138.186 201.095 140.185 202.958C141.391 204.081 142.688 205 143.067 205C144.807 205 148.451 219.004 147.495 222.017C146.851 224.045 142.997 225.32 140.456 224.345C139.52 223.985 137.695 221.297 136.4 218.371C133.432 211.66 131.161 210.907 124.526 214.435C121.873 215.846 119.105 217 118.374 217C117.644 217 116.329 218.095 115.452 219.433C113.032 223.126 114.873 225.54 121.229 227.008C127.882 228.544 131 230.483 131 233.083C131 235.036 130.614 235.092 121.692 234.437L112.385 233.754L109.692 236.954C108.212 238.714 107 240.555 107 241.045C107 241.536 106.325 241.678 105.5 241.362C103.233 240.492 103.695 236.377 106.618 231.388C108.504 228.17 109.366 225.044 109.698 220.21C109.952 216.52 110.804 211.792 111.591 209.704C113.287 205.2 112.518 203.218 107.752 199.821C105.209 198.008 103.175 197.503 98.417 197.502C92.957 197.5 91.947 197.839 88.568 200.807C84.602 204.289 81.443 204.68 79.705 201.905C77.964 199.126 79.811 195.153 84.193 192.252C87.773 189.881 89.328 189.507 95.424 189.551C105.708 189.626 115.821 191.079 117.144 192.674C118.01 193.716 118.01 194.682 117.147 196.577C114.505 202.374 116.973 207 122.706 207C126.844 207 128.178 205.032 128.64 198.248C128.881 194.727 130.028 190.526 131.601 187.406C133.234 184.166 134.048 181.115 133.835 179.025C133.513 175.863 133.688 175.685 138.5 174.279C144.764 172.448 147.183 170.353 146.797 167.094C146.561 165.094 145.514 164.232 141.658 162.857C138.995 161.907 136.196 160.313 135.44 159.315C132.596 155.564 134.393 152 139.127 152C142.293 152 146 156.052 146 159.512C146 162.208 147.499 163.588 151.506 164.582C153.153 164.991 156.117 166.39 158.093 167.692C162.452 170.563 163.827 170.139 167.027 164.941C168.979 161.77 170.02 160.985 171.968 161.212C173.408 161.38 175.055 162.607 175.92 164.155C177.305 166.633 177.224 167.069 174.702 170.709C171.053 175.974 171.266 177.489 175.915 179.349C180.416 181.15 181.168 182.097 181.961 186.966C182.507 190.32 182.746 190.506 186.639 190.609C192.519 190.766 195.687 191.741 196.407 193.618C197.298 195.939 195.492 197.685 191.409 198.451C189.473 198.814 187.026 199.974 185.971 201.029C184.081 202.919 184.104 203.031 187.58 208.866C193.933 219.531 196.453 220.285 199.876 212.548C202.082 207.559 204.378 206.026 206.886 207.866C211.751 211.435 217.4 213.139 224.955 213.316C231.589 213.471 233.277 213.166 235.702 211.376C237.284 210.207 240.039 208.931 241.823 208.539C245.676 207.693 248.452 204 247.497 200.992C246.796 198.781 243.38 197.022 239.685 196.968C236.434 196.921 233.75 194.44 233.75 191.484C233.75 188.578 238.546 182.888 240.396 183.598C241.037 183.845 243.028 186.286 244.82 189.023C249.034 195.459 253.51 195.782 256.567 189.871L258.06 186.984L260.869 189.061C264.05 191.413 269.688 192.941 275.316 192.976C278.885 192.998 279.112 193.178 278.816 195.75C278.508 198.432 278.303 198.516 270.5 199.138C260.403 199.943 259 200.525 259 203.907C259 207.708 260.588 208.865 264.992 208.274C268.282 207.833 269.032 208.119 270.513 210.38C271.831 212.391 272.067 214.069 271.533 217.63C270.178 226.661 269.972 226.7 264.212 219.003C258.316 211.124 257.513 210.856 249.239 214.001C246.346 215.1 242.844 216 241.457 216C240.07 216 237.375 216.652 235.468 217.449C232.67 218.618 232 219.444 232 221.726C232 227.544 238.603 232.862 243.509 230.997C246.585 229.827 252.004 229.67 251.991 230.75C251.987 231.163 250.524 233.075 248.741 235C245.105 238.926 243.754 241.466 241.827 248C240.663 251.947 240.009 252.66 236.5 253.804C228.389 256.448 230.376 257 248 257C260.545 257 265.096 256.696 264.311 255.911C263.713 255.313 261.148 254.791 258.611 254.753L254 254.683V251.064C254 246.844 256.341 243 258.912 243C260.611 243 266 248.464 266 250.187C266 250.627 267.868 252.34 270.15 253.994C274.05 256.819 274.857 257 283.533 257C291.926 257 292.814 256.818 293.29 255C293.577 253.9 294.22 253 294.718 253C295.216 253 296.589 253.9 297.77 255C299.328 256.452 301.299 257 304.958 257H310V253.5C310 250.511 310.337 250 312.309 250C313.579 250 315.491 250.661 316.559 251.468C319.072 253.369 323.747 253.38 327.364 251.494C330.924 249.638 340.949 249.46 341.118 251.25C341.283 252.99 341.238 253.27 340.467 255.25C339.836 256.872 340.953 257 355.732 257H371.679L372.818 254.5C373.569 252.852 374.769 252 376.339 252C377.649 252 380.379 253.125 382.405 254.5C388.505 258.64 389.034 258.209 390.522 247.882C391.248 242.842 389.412 237.756 386.455 236.621C381.605 234.76 375.131 236.906 367.682 242.846C365.582 244.52 362.384 246.378 360.576 246.975C353.707 249.242 349.185 244.411 352.384 238.225C354.304 234.512 357.397 233.677 363.991 235.092C370.58 236.505 373.787 235.696 374.611 232.413C375.117 230.396 374.576 229.158 372.051 226.552C369.065 223.472 368.866 222.828 369.102 217.043C369.384 210.118 368.608 209.041 363.315 209.015C357.779 208.989 355.269 207.397 353.126 202.551C352.018 200.048 350.589 198 349.95 198C349.311 198 347.148 196.743 345.144 195.206C339.89 191.178 336.778 190.086 332.275 190.69C327.764 191.295 326.403 189.7 327.953 185.623C329.316 182.038 333.542 179.237 339.429 178.015C342.349 177.409 345.584 176.292 346.618 175.532C348.445 174.192 348.419 173.922 345.74 166.326C344.222 162.022 342.985 157.251 342.99 155.725C342.998 153.421 342.476 152.845 339.911 152.332C337.181 151.786 336.894 151.411 337.442 149.107C339.665 139.77 339.462 138.462 335.117 134.117C332.853 131.853 331 129.161 331 128.135C331 125.723 334.715 121 336.612 121C337.419 121 339.79 120.127 341.881 119.061C344.727 117.609 346.105 116.014 347.367 112.71C349.359 107.494 352.532 105.647 357.854 106.605C362.387 107.421 363.76 108.491 365.445 112.522C366.97 116.174 370.761 119.124 376.484 121.114C378.676 121.876 382.311 124.412 384.563 126.75C387.576 129.878 389.442 131 391.629 131C395.573 131 397 129.375 397 124.884C397 121.743 396.381 120.678 393 118C390.107 115.709 389 114.086 389 112.138C389 106.822 398.779 91 402.065 91C402.925 91 404.381 92.575 405.299 94.5C406.534 97.09 407.603 98 409.412 98C413.992 98 415 95.731 415 85.426V75.994L411.372 80.01C405.413 86.606 400 86.336 400 79.445C400 77.028 400.532 75.966 401.974 75.508C407.456 73.768 409.72 65.457 406 60.727C404.9 59.329 404 57.991 404 57.755C404 57.518 406.475 56.484 409.5 55.455L415 53.586V40.793C415 29.177 414.836 28 413.214 28C412.231 28 408.744 26.963 405.464 25.696C400.364 23.726 399.453 22.989 399.175 20.608C398.98 18.935 399.578 17.019 400.672 15.81C402.5 13.79 406.061 13.73 412.75 15.603C414.965 16.223 415 16.09 415 7.136C415 -1.89 414.979 -1.967 412.329 -2.632C409.043 -3.457 405.688 -0.0300007 403.883 5.995C402.521 10.541 400.856 11.393 396.033 10.009C394.151 9.47 390.303 9.299 387.482 9.631C377.563 10.797 372.761 5.481 379.324 0.599998C381.533 -1.042 383.364 -1.447 387.723 -1.255C393.571 -0.998999 401.727 -2.936 405.665 -5.516C408.441 -7.335 410.441 -11.787 411.422 -18.329C412.376 -24.693 411.202 -26 404.528 -26C400.306 -26 398.503 -26.577 395.159 -29C391.248 -31.833 390.488 -32 381.499 -32H371.98L367.49 -27.775C365.02 -25.451 363 -22.956 363 -22.229C363 -21.503 364.132 -19.777 365.516 -18.393C367.352 -16.557 368.881 -15.961 371.167 -16.188C372.891 -16.36 374.476 -15.999 374.688 -15.388C374.901 -14.776 373.114 -11.851 370.717 -8.888C366.273 -3.393 363.169 1.913 360.961 7.788C359.417 11.898 357.404 12.952 353.25 11.825C348.101 10.427 348.8 8.362 356 3.698C358.034 2.381 359.642 0.440998 359.839 -0.933001C360.168 -3.227 360.015 -3.281 354.754 -2.738C346.292 -1.865 346.015 -2.53 350.832 -12.163C354.884 -20.268 355.753 -24.588 354.37 -29.75C353.792 -31.907 353.33 -31.999 343.133 -31.964L332.5 -31.928L335.5 -29.443C337.15 -28.076 339.455 -26.708 340.622 -26.402C341.789 -26.097 343.343 -24.728 344.076 -23.359C345.204 -21.25 345.186 -20.73 343.954 -19.95C340.722 -17.906 337.603 -18.976 333.377 -23.579C329.302 -28.018 329.014 -28.149 323.925 -27.879C319.454 -27.642 318.461 -27.926 317.217 -29.8C315.829 -31.891 315.067 -32 301.878 -32C290.073 -32 288 -31.771 288 -30.466C288 -29.623 286.475 -28.033 284.611 -26.933C281.003 -24.804 276.48 -18.761 275.464 -14.712C274.94 -12.624 275.259 -12.184 277.624 -11.732C280.832 -11.118 283.646 -12.039 286.551 -14.654C289.419 -17.235 292.684 -19 294.593 -19C295.483 -19 297.973 -17.605 300.126 -15.901C304.49 -12.444 306.201 -12.591 308.165 -16.594C308.899 -18.091 310.319 -19.807 311.321 -20.408C312.85 -21.325 313.671 -20.876 316.432 -17.617C319.684 -13.78 319.786 -13.742 325.111 -14.375C332.304 -15.23 333.915 -14.18 332.135 -9.795C329.653 -3.682 329.635 -1.985 332.015 1.234C335.529 5.987 333.862 7.567 325.683 7.233C318.256 6.931 317.812 7.278 317.026 14C316.532 18.227 316.301 18.519 313.223 18.815C311.421 18.989 307.484 18.619 304.473 17.994C299.357 16.932 299 16.669 299 13.949C299 11.348 299.686 10.718 305.458 8.019C309.01 6.359 312.991 5 314.303 5C317.752 5 319.77 2.212 320.544 -3.62C321.157 -8.239 320.997 -8.889 318.888 -10.366C315.543 -12.709 310.498 -12.451 308.039 -9.811C306.918 -8.608 306 -7.088 306 -6.434C306 -5.78 305.392 -4.74 304.649 -4.123C303.61 -3.262 302.338 -3.697 299.157 -6.001C293.338 -10.217 290.895 -9.928 286.446 -4.5C283.271 -0.625 282.239 0 279.017 0C276.365 0 274.176 -0.874001 271.5 -3C266.054 -7.328 262.754 -7.024 259.006 -1.85C257.353 0.432999 256 2.614 256 2.997C256 4.38 259.549 7.729 261.75 8.424C262.988 8.815 264 9.779 264 10.567C264 12.149 264.112 12.11 258.585 12.449C254.692 12.688 254.199 13.075 249.735 19.411C247.35 22.796 241.635 23.885 238.96 21.464C236.071 18.85 236.521 14.494 240.21 9.358C243.899 4.22 243.406 2.121 238.193 0.77C236.372 0.298 233.883 -1.574 232.275 -3.68C230.749 -5.68 226.847 -10.033 223.603 -13.355C219.033 -18.035 217.725 -20.046 217.789 -22.297C217.874 -25.276 220.453 -29.012 222.405 -28.984C224.408 -28.956 232.681 -19.563 235.36 -14.276C237.117 -10.809 239.79 -7.713 243.342 -5.032C250.846 0.633999 251.67 0.461998 256.264 -7.722C257.494 -9.913 260.96 -15.642 263.966 -20.453L269.432 -29.2L274.307 -28.554C279 -27.931 282 -28.933 282 -31.122C282 -31.605 275.025 -32 266.5 -32C252.449 -32 250.989 -31.836 250.885 -30.25C250.642 -26.565 251.245 -24.428 253.089 -22.436C255.34 -20.003 255.537 -17.69 253.627 -16.105C251.838 -14.621 249.513 -15.568 247.536 -18.586C246.664 -19.916 244.136 -22.205 241.916 -23.674C239.28 -25.419 237.685 -27.325 237.316 -29.172L236.75 -32H222.497C211.011 -32 208.002 -31.707 206.993 -30.491C206.304 -29.661 203.96 -28.697 201.784 -28.35C198.88 -27.885 197.526 -27.054 196.693 -25.225C195.67 -22.979 195.901 -22.441 199.029 -19.776C204.608 -15.023 206.944 -13.694 210.835 -13.062C216.263 -12.18 218.137 -7.864 217.377 2C216.866 8.623 217.044 9.811 218.899 12.158C220.055 13.619 221 15.809 221 17.023C221 18.238 223.022 22.272 225.493 25.989C228.877 31.08 230.697 32.889 232.872 33.324C235.237 33.797 235.882 34.558 236.439 37.527C237.147 41.302 235.896 44 233.438 44C232.714 44 230.042 42.2 227.5 40C224.958 37.8 222.038 36 221.011 36C219.053 36 216 38.481 216 40.071C216 41.926 211.888 40.925 205.431 37.5C201.803 35.575 197.762 34 196.452 34C193.805 34 192 36.564 192 40.323C192 44.201 188.838 47.427 185.788 46.662C182.972 45.955 182.035 43.675 182.014 37.482C182.005 34.861 181.131 32.185 179.5 29.785C176.595 25.51 176.438 22.85 178.804 18C180.316 14.899 181.081 14.419 185.506 13.788C188.253 13.396 192.198 12.783 194.272 12.426C198.448 11.707 204 13.469 204 15.514C204 17.118 201.744 18 197.641 18C195.883 18 193.416 18.721 192.159 19.601C189.988 21.122 189.959 21.297 191.586 23.096C195.124 27.005 204.698 27.637 211.15 24.387C213.659 23.123 213.749 22.826 212.843 18.776C212.317 16.424 210.696 12.142 209.24 9.26L206.592 4.019L208.796 -0.517C211.481 -6.044 211.519 -7.137 209.129 -10.089C207.301 -12.346 207.196 -12.359 204.552 -10.626C203.064 -9.651 200.957 -7.347 199.871 -5.506C196.481 0.239998 188.459 1.775 185.2 -2.7L183.234 -5.399L176.367 -2.489C169.82 0.285999 168.516 1.294 164.144 6.957C162.422 9.187 161.89 9.323 158.374 8.438C155.057 7.603 154.538 7.107 154.766 4.982C155.224 0.711998 158.376 -2.283 167.079 -6.714C176.508 -11.516 178.883 -11.892 181.5 -9C183.884 -6.365 185.626 -6.477 189.616 -9.521C193.877 -12.77 193.183 -15 187.912 -15C184.645 -15 183.943 -15.38 183.429 -17.426C182.521 -21.045 184.988 -25.253 188.555 -26.17C190.235 -26.603 192.676 -28.091 193.979 -29.478L196.349 -32L171.924 -31.968C144.641 -31.933 144 -31.788 144 -25.679C144 -21.065 147.179 -17.882 151.495 -18.173C155.609 -18.45 157 -17.431 157 -14.141C157 -8.057 151.626 -7.179 147.5 -12.589C145.051 -15.8 144.409 -16.112 141.409 -15.549C136.847 -14.693 133.006 -16.865 130.176 -21.901C126.954 -27.634 124.723 -28.63 119.935 -26.471C114.917 -24.208 112.637 -25.07 113.215 -29.012L113.654 -32H102.327C96.097 -32 91 -31.611 91 -31.135C91 -30.659 91.787 -29.197 92.75 -27.885C93.713 -26.573 95.375 -23.781 96.445 -21.681C98.982 -16.697 101.071 -15.685 107.098 -16.514C112.011 -17.189 112.026 -17.183 113.497 -13.662C115.49 -8.891 118.509 -7 124.134 -7C128.098 -7 129.206 -6.544 131.304 -4.05C133.425 -1.53 134.421 -1.129 138.143 -1.3C141.438 -1.451 142.5 -1.134 142.5 0C142.5 1.808 138.208 2.608 136.685 1.085C134.586 -1.014 131.657 0.0509987 125.111 5.295C121.475 8.208 116.925 11.654 115 12.953C110.822 15.772 107 19.548 107 20.855C107 21.374 105.098 22.79 102.772 24.002C97.955 26.513 95.964 28.883 94.416 33.951C93.53 36.852 92.79 37.555 90.365 37.799C83.667 38.472 81.828 30.301 88.179 28.087C93.26 26.316 94.996 24.166 95.035 19.595C95.055 17.343 95.714 14.375 96.5 13C99.107 8.439 98.367 6.583 91.92 1.518C88.576 -1.109 83.964 -3.822 81.67 -4.512C77.805 -5.674 77.512 -6.009 77.67 -9.087C77.842 -12.465 78.473 -13.183 83.925 -16.203C86.454 -17.605 87 -18.532 87 -21.43C87 -25.31 84.48 -27.686 80 -28.029C75.587 -28.368 74.969 -28.062 72.867 -24.5C70.937 -21.229 67 -19.581 67 -22.045C67 -22.62 65.895 -24.195 64.545 -25.545C60.158 -29.933 52 -28.14 52 -22.788C52 -19.322 55.916 -13.814 59.749 -11.887C61.514 -11 63.81 -9.221 64.852 -7.935C65.894 -6.648 68.266 -5.097 70.123 -4.489C74.314 -3.114 77.186 2.202 77.812 9.743C78.229 14.774 78.02 15.357 73.854 20.777C67.814 28.634 67.715 31.081 73.2 36.876C78.671 42.657 84 50.323 84 52.413C84 54.81 77.768 54.507 75.5 52C73.715 50.027 69.702 49.41 66.545 50.621C63.842 51.658 61.579 57.143 61.025 64C60.508 70.398 60.452 70.505 57.417 70.801C54.768 71.059 53.449 70.191 48.06 64.64C41.549 57.933 38 52.962 38 50.547C38 49.775 37.296 48.439 36.436 47.579C35.046 46.188 34.556 46.178 32.024 47.487C27.48 49.837 25 53.726 25 58.5C25 63.562 27.532 67.211 32.971 69.985C37.033 72.057 38 73.586 38 77.932C38 82.062 43.11 88.391 48.583 91.04C51.203 92.308 54.168 94.168 55.173 95.173C57.704 97.704 57.562 102.629 54.919 104.044C53.774 104.656 52.301 106.432 51.646 107.99L50.455 110.823L46.728 105.785C44.677 103.014 43 99.673 43 98.361C43 96.43 41.95 95.511 37.5 93.542C34.475 92.205 32 90.61 32 89.999C32 89.387 29.665 86.648 26.811 83.912L21.621 78.936L20.997 69.454C20.654 64.24 19.839 59.439 19.186 58.786C16.481 56.081 18.481 48.59 23 44.5C26.24 41.568 28 37.606 28 33.244C28 28.648 24.449 17.618 22.43 15.942C20.081 13.992 20.76 12.63 25.514 9.759C27.997 8.259 30.53 5.93 31.144 4.584C31.757 3.237 33.553 1.599 35.135 0.944C38.701 -0.532999 47.215 0.186001 52.257 2.39L56.013 4.032L54.383 7.766C51.556 14.239 51.556 15.663 54.383 17.515C56.593 18.963 57.655 19.042 61.733 18.064L66.5 16.921L66.411 7.816C66.327 -0.906998 66.208 -1.373 63.587 -3.282C62.083 -4.378 59.727 -7.057 58.352 -9.235C56.07 -12.849 55.567 -13.141 52.594 -12.584C46.647 -11.468 44.193 -17.335 48.714 -21.857C49.739 -22.881 49.967 -24.363 49.492 -26.896C48.566 -31.829 48.385 -32 44.101 -32C41.039 -32 40.105 -31.525 39.182 -29.5C38.555 -28.125 37.374 -27 36.557 -27C34.91 -27 32.706 -30.373 33.702 -31.369C34.049 -31.716 31.558 -32 28.167 -32H22V-28C22 -25.308 21.558 -24 20.649 -24C18.24 -24 12.608 -26.284 7.889 -29.175C3.806 -31.677 2.331 -32 -5.008 -32H-13.296L-9.905 -29.715ZM172.5 -21.5C172.5 -17.024 172.256 -16.465 170.168 -16.17C167.34 -15.769 164 -18.562 164 -21.326C164 -24.371 167.01 -27.14 169.948 -26.797C172.304 -26.523 172.5 -26.116 172.5 -21.5ZM30.128 -20.006C33.127 -19.999 34.553 -18.63 35.504 -14.841C36.045 -12.685 35.471 -11.421 32.421 -8.044C26.083 -1.029 22.628 -0.424999 20.201 -5.907C18.914 -8.816 14.837 -11 10.696 -11C8.803 -11 8.785 -11.105 10.375 -12.861C11.301 -13.885 13.794 -15.505 15.914 -16.461C18.034 -17.417 20.319 -19.228 20.992 -20.485C22.119 -22.591 22.422 -22.662 24.857 -21.391C26.311 -20.633 28.682 -20.01 30.128 -20.006ZM390.418 -15.393C392.389 -14.637 392.495 -11.404 390.573 -10.666C388.744 -9.965 386.599 -12.513 387.357 -14.487C388.009 -16.188 388.199 -16.244 390.418 -15.393ZM99.2 -9.8C97.773 -8.373 97.606 0.833 98.943 4.349C100.242 7.767 103.392 8.511 108.348 6.573C113.541 4.542 116.072 1.138 116.313 -4.138C116.497 -8.169 116.43 -8.254 112 -9.601C106.42 -11.298 100.786 -11.386 99.2 -9.8ZM-13.892 6.5C-13.932 14.623 -13.793 15.311 -12.468 13.559C-10.675 11.188 -10.689 5.703 -12.5 1C-13.793 -2.358 -13.85 -2.134 -13.892 6.5ZM10.962 11.669C10.507 13.687 10.392 17.512 10.706 20.169C11.149 23.908 10.965 24.993 9.889 24.968C7.785 24.92 5 22.481 5 20.687C5 18.532 7.125 14 8.136 14C8.583 14 8.68 12.65 8.35 11C7.842 8.459 8.059 8 9.77 8C11.579 8 11.703 8.382 10.962 11.669ZM31.557 10.223C29.249 13.517 29.58 14.602 34.25 19.066C42.242 26.705 46.687 27.584 49.006 21.986C50.778 17.708 49.516 14.386 44.829 10.991C39.615 7.214 33.896 6.883 31.557 10.223ZM150 13.433C150 14.987 149.278 16.094 148 16.5C146.002 17.134 145.461 19.432 146.607 22.418C147.455 24.628 151.22 24.392 153.268 22C155.274 19.657 160.52 19.307 161.347 21.461C161.664 22.288 160.389 24.739 158.411 27.107C156.487 29.409 154.468 32.126 153.922 33.146C152.648 35.526 148.147 35.597 147.322 33.25C145.981 29.435 141.696 26 138.278 26C134.277 26 130 28.557 130 30.948C130 33.898 128.91 33.988 123.911 31.455C121.247 30.105 118.602 29 118.033 29C117.465 29 116.994 30.913 116.986 33.25C116.979 35.588 116.712 38.471 116.394 39.658C115.71 42.206 112.676 43.262 110.686 41.644C107.745 39.252 108.113 37.204 112.5 31.554C114.903 28.46 117.402 24.257 118.055 22.214C118.708 20.171 119.581 18.129 119.996 17.675C120.411 17.221 123.452 17.382 126.754 18.031C134.349 19.526 142.804 17.474 145.404 13.507C147.524 10.271 150 10.231 150 13.433ZM344.442 13.25C344.705 14.487 345.441 18.2 346.076 21.5C347.744 30.164 350.314 34.609 355.051 37.026L359.075 39.079L362.146 36.008C364.766 33.388 365.115 32.463 364.521 29.718C364.138 27.948 363.752 24.475 363.662 22C363.513 17.855 363.704 17.476 366.086 17.199C369.732 16.776 371.64 19.301 370.147 22.577C368.672 25.815 368.694 29.826 370.219 35.527C371.091 38.789 371.135 40.569 370.373 41.792C369.313 43.494 360.878 48.459 353.75 51.577C349.68 53.357 349.529 53.764 350.991 59.026C351.953 62.491 356.109 66 359.249 66C361.214 66 363.483 68.803 364.879 72.957C367.234 79.966 372.251 82.79 376.559 79.532C379.376 77.401 379.616 77.556 380.967 82.384C382.889 89.248 380.762 91.789 373.63 91.149C372.601 91.057 369.302 88.735 366.299 85.99C363.296 83.246 360.491 81 360.065 81C358.588 81 354.438 76.483 353.176 73.5C351.4 69.305 348.907 66.521 345.22 64.614C341.507 62.694 340 60.257 340 56.173C340 52.867 341.374 52 346.613 52C351.718 52 352.016 49.625 347.493 44.993C344.186 41.606 343.788 40.693 344.286 37.625C344.898 33.851 344.107 32.721 340 31.504C335.429 30.15 334 28.064 334 22.745C334 18.455 334.45 17.35 337.4 14.4C341.342 10.458 343.762 10.063 344.442 13.25ZM279.102 19.75C279.651 21.263 281.54 23.407 283.3 24.517C286.411 26.477 287.557 28.28 292.069 38.305C294.797 44.366 302.007 49.952 311.228 53.147C317.847 55.44 318.012 55.448 321.361 53.645C326.839 50.695 328.471 45.471 325 42C322.191 39.191 318.591 39.449 316.522 42.607C315.217 44.599 314.541 44.936 313.657 44.036C312.777 43.141 313.1 42.377 315 40.853C322.376 34.937 322.206 35.227 321.842 29.199C321.545 24.295 321.751 23.495 323.396 23.171C324.896 22.875 325.136 23.184 324.547 24.649C324.138 25.667 323.578 28.075 323.304 30C322.878 32.987 323.373 34.16 326.677 38C328.807 40.475 331.807 44.45 333.343 46.832L336.137 51.165L332.569 54.63C328.337 58.74 328.177 60.232 331.5 64.589C332.875 66.392 334 68.141 334 68.477C334 68.812 331.547 71.599 328.549 74.669C324.897 78.411 322.58 80.053 321.527 79.649C318.748 78.582 318.699 76.083 321.389 72.557C322.825 70.674 324 68.384 324 67.468C324 65.642 317.565 59.39 314.702 58.435C311.758 57.452 309.769 59.923 310.266 63.944C311.135 70.975 308.811 73.128 302.25 71.37C300.185 70.816 299.999 70.179 299.985 63.633C299.969 56.094 299.532 54.734 296.807 53.73C295.876 53.387 293.401 50.903 291.307 48.21C287.387 43.167 283.361 40.602 280.267 41.173C277.526 41.68 271 55.411 271 60.67C271 64.296 270.683 65 269.051 65C267.979 65 265.901 63.426 264.434 61.503C261.897 58.176 261.846 57.885 263.383 55.538C265.66 52.063 265.397 48.927 262.5 45C261.125 43.136 260 41.094 260 40.461C260 38.251 263.538 36.172 268.5 35.467C271.25 35.075 274.288 34.066 275.25 33.223C277.391 31.348 277.503 26.488 275.494 22.636C273.45 18.717 273.62 17 276.052 17C277.382 17 278.455 17.968 279.102 19.75ZM388.927 22.635C391.245 25.582 391.61 28.99 389.8 30.8C387.899 32.701 383.208 32.258 382.035 30.066C380.879 27.906 380.636 21.698 381.667 20.667C383.191 19.142 386.99 20.172 388.927 22.635ZM45.768 29.059C39.674 32.276 37.881 37.429 40.088 45.378C42.362 53.567 47.697 55.774 56.301 52.085C64.411 48.609 70.004 37.707 66.455 32.291C63.025 27.056 52.636 25.433 45.768 29.059ZM305.8 30.2C308.256 32.656 306.636 36 302.99 36C301.448 36 299 32.889 299 30.929C299 29.483 299.701 29 301.8 29C303.34 29 305.14 29.54 305.8 30.2ZM135.056 37.844C137.771 40.042 137.169 42.605 133.623 43.953C127.919 46.122 129.114 50.49 135.68 51.475C141.774 52.389 144 53.899 144 57.119C144 60.318 141.21 61.598 132.559 62.367C123.22 63.197 119.057 67.386 122.44 72.549C123.852 74.703 124.779 75 130.093 75C135.677 75 136.115 75.161 135.82 77.109C135.622 78.411 133.803 80.122 131.059 81.585C124.532 85.066 123.715 86.119 124.973 89.428C125.656 91.225 126.536 92.008 127.47 91.65C128.263 91.346 131.587 90.544 134.857 89.869C140.1 88.786 141.11 88.842 143.401 90.343C148.463 93.66 145.533 99.705 136.508 104.566C132.112 106.933 130.586 106.072 128.401 99.994C125.917 93.088 124.305 92.362 118.41 95.497C115.821 96.873 112.673 98 111.416 98C108.442 98 103.746 99.803 102.786 101.313C102.37 101.966 102.017 104.525 102 107C101.963 112.365 100.926 114.325 98.382 113.835C96.426 113.458 93.335 107.923 92.361 103.054C91.895 100.724 92.423 99.663 95.397 96.958C97.376 95.156 100.11 91.781 101.472 89.458C105.058 83.339 106.786 83.066 110.992 87.954C115.074 92.699 118.927 93.371 121.443 89.777C123.899 86.271 123.301 84.215 119.043 81.527C114.239 78.494 113.389 77.003 111.598 68.46C110.288 62.208 110.319 61.681 112.101 59.899C113.145 58.855 115.098 58 116.441 58C119.371 58 120.403 56.572 120.558 52.298C120.715 47.981 122.589 46 126.515 46C130.153 46 131 44.757 131 39.418C131 35.533 131.813 35.218 135.056 37.844ZM408 40.481C408 42.387 407.362 43.09 405.25 43.516C403.738 43.82 401.118 44.504 399.429 45.035C397.74 45.566 395.588 46 394.648 46C391.574 46 391.682 48.874 394.894 52.532C396.602 54.478 398 57.144 398 58.457C398 61.922 392.269 68.935 385.966 73.185C381.272 76.349 380.429 76.629 380 75.165C379.229 72.536 376.859 69.767 372.758 66.705C368.757 63.717 367.083 59.81 368.876 57.649C369.481 56.92 371.728 55.799 373.869 55.157C378.731 53.701 379.873 52.337 380.823 46.857C381.652 42.068 381.109 42.248 392.11 43.126C394.843 43.344 396.501 42.756 398.936 40.707C400.828 39.115 403.358 38 405.077 38C407.522 38 408 38.405 408 40.481ZM168.418 44.607C169.288 44.941 170 45.755 170 46.416C170 47.077 171.575 50.233 173.5 53.43C175.425 56.627 177 59.395 177 59.582C177 60.601 172.383 64 170.999 64C170.107 64 168.378 62.65 167.158 61C164.651 57.609 162.994 57.302 159.514 59.583C153.84 63.301 150.968 58.071 155.167 51.666C159.009 45.806 164.257 43.01 168.418 44.607ZM99.735 49.079C101.724 52.976 101.198 58.256 98.25 63.996C95.43 69.485 93.282 70.448 93.779 66C94.456 59.951 94.444 54.299 93.749 51.822C93.214 49.914 93.463 48.68 94.615 47.528C96.635 45.508 98.147 45.966 99.735 49.079ZM225.965 51.934C226.534 52.998 227 55.223 227 56.878C227 60.035 229.958 63 233.107 63C234.022 63 235.557 64.237 236.519 65.75C237.482 67.263 239.785 69.963 241.637 71.75C245.785 75.753 249.515 75.963 255 72.5C259.52 69.647 260.34 69.5 261.816 71.279C262.583 72.202 262.339 73.761 260.939 76.888C259.872 79.27 259 82.291 259 83.602C259 85.811 259.345 85.967 263.736 85.742C268.435 85.502 268.479 85.529 269.408 89.234C270.315 92.849 270.461 92.95 273.971 92.389C276.595 91.969 277.959 92.246 278.91 93.392C280.972 95.876 279.495 97.841 275.306 98.186C271.855 98.471 271.472 98.791 271.196 101.626C270.942 104.231 271.58 105.34 275.021 108.286C278.3 111.093 279.083 112.384 278.825 114.559C278.342 118.629 275.971 119.675 270.527 118.219C268.022 117.548 263.834 117 261.222 117C258.609 117 254.009 116.1 251 115C247.991 113.9 245.409 113 245.264 113C245.119 113 245 111.27 245 109.155C245 101.778 249.98 100.345 254.71 106.359C257.314 109.669 260.395 110.462 262.495 108.362C264.59 106.267 263.945 100.773 260.903 94.81C259.22 91.51 258.475 90.91 256.68 91.41C249.889 93.298 250.191 93.372 248.3 89.345C247.104 86.797 244.579 84.225 240.815 81.72C236.768 79.027 234.815 76.968 234.019 74.558C232.683 70.51 231.127 69.748 227.209 71.227C224.52 72.242 224.028 72.063 221.386 69.117C218.957 66.407 217.583 65.804 212.708 65.304C206.342 64.653 204.63 63.036 205.188 58.201C205.478 55.687 205.898 55.465 211.233 54.989C215.372 54.621 217.588 53.857 219.205 52.239C221.957 49.488 224.592 49.369 225.965 51.934ZM382.2 54.2C380.663 55.737 380.719 58.046 382.345 60.185C383.42 61.6 384.017 61.676 386.054 60.66C387.39 59.995 388.636 58.652 388.824 57.677C389.537 53.972 384.875 51.525 382.2 54.2ZM288.985 55.75C288.941 60.689 283.742 61.578 283.184 56.741C282.899 54.28 283.18 54 285.934 54C288.193 54 288.996 54.46 288.985 55.75ZM254.37 57.222C255.802 59.495 254.173 61.119 251.233 60.351C249.096 59.792 248.225 57.109 249.701 55.632C250.806 54.527 253.183 55.337 254.37 57.222ZM188.8 58.2C190.848 60.248 190.26 66.68 187.817 68.956L185.633 70.99L183.846 68.265C180.969 63.879 180.456 59.871 182.573 58.323C184.823 56.678 187.23 56.63 188.8 58.2ZM279.379 73.001C283.907 77.668 286.15 77.942 291.286 74.452C295.471 71.608 297 71.917 297 75.607C297 79.019 292.495 82.996 288.604 83.017C283.974 83.043 271.095 77.875 270.41 75.717C269.754 73.648 272.427 69 274.273 69.001C274.948 69.001 277.246 70.801 279.379 73.001ZM163.282 70.926C167.379 71.877 175.806 78.835 177.564 82.719C178.149 84.011 180.849 86.522 183.564 88.297C187.556 90.909 188.524 92.097 188.627 94.513C188.792 98.408 187.419 100 183.892 100C181.403 100 180.642 99.233 178.067 94.133C174.68 87.424 170.058 83.052 166.173 82.885C164.703 82.821 163.05 82.665 162.5 82.537C161.95 82.409 159.83 82.236 157.789 82.152C153.323 81.969 150 78.849 150 74.84C150 72.56 150.587 71.888 153.25 71.119C157.484 69.896 158.743 69.872 163.282 70.926ZM205.872 74.345C206.486 75.085 207.267 77.087 207.609 78.794C208.294 82.218 210.476 84.605 213.417 85.147C216.982 85.804 216.167 87.911 211.498 90.106C207.319 92.071 206.92 92.548 207.506 94.894C208.529 98.994 210.939 101 214.843 101C219.133 101 223.559 98.103 227.24 92.885C230.377 88.439 234.202 87.641 236.028 91.052C238.047 94.825 236.816 97.349 231.783 99.754C229.189 100.993 226.58 102.917 225.985 104.028C225.082 105.716 224.005 106.018 219.431 105.869C214.047 105.693 213.871 105.778 208.641 111.095C203.237 116.589 189.849 124.643 188.01 123.506C184.951 121.615 188.959 113.846 195.74 108.524C201.099 104.318 203.446 101.085 205.055 95.693C206.273 91.613 205.454 90.438 199.678 87.986C193.785 85.483 190 82.387 190 80.067C190 79.117 192.301 77.407 195.75 75.794C202.31 72.726 204.292 72.442 205.872 74.345ZM88.248 76.639C90.626 77.312 91.488 81.407 90.006 84.986C87.916 90.03 84.084 89.947 79.226 84.752C76.814 82.172 74.753 76.581 75.82 75.513C76.44 74.893 84.731 75.644 88.248 76.639ZM308.5 93.955V103.41L313.75 107.345C321.86 113.425 320.481 117.544 310.719 116.397C306.454 115.896 304.67 116.118 302.876 117.374C301.6 118.268 299.803 119 298.884 119C295.512 119 295.889 115.767 299.971 109.687C302.187 106.387 304 103.138 304 102.466C304 100.647 301.987 99.326 297.31 98.075C292.715 96.847 291.19 94.383 292.968 91.061C294.639 87.937 302.654 83.937 306.5 84.308C308.345 84.485 308.5 85.231 308.5 93.955ZM347.961 89.189C349.082 90.392 350 91.763 350 92.234C350 93.902 345.324 97.732 340.057 100.378C337.121 101.852 333.394 104.173 331.775 105.536C330.156 106.899 328.368 107.727 327.802 107.378C327.236 107.028 325.858 104.674 324.74 102.146L322.707 97.549L325.786 95.071C328.926 92.543 341.113 87.267 344.211 87.095C345.152 87.043 346.84 87.985 347.961 89.189ZM75.039 91C75.446 91.825 76.567 94.113 77.528 96.085C78.49 98.057 80.563 100.532 82.136 101.585C83.708 102.638 84.996 104.27 84.997 105.211C85.003 108.52 77.413 113.756 74.328 112.572C73.5 112.254 73 110.389 73 107.615C73 103.622 72.592 102.845 69 100C64.704 96.597 64.348 95.524 66.183 91.498C67.175 89.321 67.927 88.95 70.832 89.201C72.738 89.365 74.631 90.175 75.039 91ZM162.671 99.775C163.315 100.185 164.133 101.684 164.49 103.106C164.847 104.528 166.683 107.147 168.57 108.927C170.456 110.706 172 112.629 172 113.199C172 113.769 170.65 115.774 169 117.653C165.453 121.692 165.314 123.155 168.057 127.592C170.319 131.253 169.659 134.042 166.077 135.959C164.529 136.787 163.578 136.275 160.656 133.041C155.47 127.301 153.689 123.348 154.37 119.091C154.687 117.106 154.356 113.237 153.635 110.492C152.127 104.756 152.41 103.174 155.37 100.772C157.615 98.951 160.71 98.528 162.671 99.775ZM377.985 102.785C377.928 105.421 374.352 107.168 371.75 105.83C369.307 104.573 369.567 102.099 372.25 101.086C374.443 100.258 378.016 101.317 377.985 102.785ZM28.585 107C30.549 112.444 30.232 116.194 27.464 120.268C24.985 123.915 21.811 125.121 20.457 122.93C18.984 120.547 15.479 120.257 10.713 122.124C3.057 125.124 2.391 124.509 6.408 118.146C8.008 115.611 10.716 113.37 14.483 111.464C17.601 109.887 21.065 107.313 22.181 105.745C24.765 102.117 26.981 102.552 28.585 107ZM403.138 105.537C397.423 110.346 398.107 115.019 405.016 118.373C407.426 119.543 409.547 120.993 409.73 121.595C409.914 122.197 407.349 125.552 404.032 129.049C397.524 135.909 396.874 138.018 399.386 144.128C401.125 148.357 399.997 151.712 396.546 152.578C392.727 153.536 391.096 152.471 388.947 147.614C386.78 142.713 381.299 137.364 377.457 136.4C375.529 135.916 373.881 136.604 370.311 139.385C366.885 142.055 364.702 143 361.962 143C354.822 143 347 146.924 347 150.506C347 151.124 348.624 152.404 350.61 153.351C353.776 154.861 354.144 155.405 353.603 157.786C351.316 167.856 351.479 168.384 358.206 172.63C363.092 175.715 362.402 178 356.584 178C350.327 178 348.54 179.724 349.376 184.953C350.898 194.466 355.214 198 365.313 198C369.321 198 371.127 198.483 372.405 199.895C374.739 202.474 378.179 202.967 384.325 201.603C389.125 200.538 389.595 200.167 390.81 196.478C392.359 191.777 391.676 186.922 389.144 184.63C387.447 183.094 387.136 183.151 384.414 185.492C380.689 188.695 379.49 188.644 375.974 185.128C371.969 181.123 371.232 177.5 373.744 174.163C375.339 172.044 376.438 171.562 379.124 171.804C394.1 173.153 397.663 173.111 398.942 171.57C400.78 169.356 404.14 169.62 408.102 172.29C410.685 174.03 411.5 175.29 411.5 177.54C411.5 179.971 410.826 180.829 407.731 182.341C396.415 187.87 394.117 204.44 403.629 211.922C406.512 214.191 410.046 214.581 413.066 212.965C414.583 212.153 415 210.849 415 206.915C415 202.538 414.556 201.443 411.5 198.297C407.867 194.556 406.935 190.465 409.2 188.2C411.01 186.39 412.573 186.749 413.78 189.25C414.619 190.991 414.88 188.392 414.932 177.763L415 164.027L411.458 162.547C409.44 161.704 406.65 161.32 404.973 161.655C401.254 162.399 399.926 159.845 402.534 156.963C403.877 155.479 405.614 155 409.655 155H415V132.051V109.102L411.75 106.698C406.594 102.886 406.331 102.85 403.138 105.537ZM66 117C67.1 118.1 68 119.9 68 121C68 125.94 60.646 128.8 56.829 125.345C53.016 121.895 56.129 115 61.5 115C62.875 115 64.9 115.9 66 117ZM227.8 116.2C228.46 116.86 229 118.494 229 119.832C229 122.225 225.549 128.857 223.62 130.172C222.15 131.174 214 125.188 214 123.107C214 120.872 216.508 118.545 221.03 116.583C225.303 114.73 226.275 114.675 227.8 116.2ZM112.454 119.912C115.029 124.891 118.636 127 124.576 127C127.494 127 130.174 127.472 130.53 128.049C131.515 129.643 133.763 127.358 134.497 124.014C135.741 118.349 139.625 119.08 143.097 125.633C144.419 128.129 146.056 131.144 146.735 132.335C149.829 137.757 147.102 145 141.966 145C138.427 145 136.707 142.589 135.013 135.25C133.727 129.683 131.587 128.383 128.945 131.566C125.425 135.808 118.972 137.071 113.989 134.494C111.162 133.032 106.915 126.868 105.521 122.202C103.982 117.05 109.954 115.077 112.454 119.912ZM356.822 119.352C347.997 123.271 345.626 129.78 351.048 135.202C353.662 137.816 354.639 138.178 357.903 137.74C362.198 137.164 365.472 134.803 367.61 130.74C369.47 127.203 369.687 121.533 368.038 119.546C366.527 117.725 360.712 117.624 356.822 119.352ZM91.468 122.571C92.526 124.535 95.103 127.498 97.196 129.155C100.353 131.655 101.003 132.792 101.015 135.834C101.035 140.63 101.816 141.695 106.504 143.318C111.836 145.164 114.305 148.748 114.424 154.816C114.542 160.874 115.892 162.588 121.092 163.286C126.868 164.06 129.122 166.324 131.397 173.633C131.97 175.476 131.563 175.859 128.404 176.452C123.057 177.455 119.716 175.653 117.157 170.387C115.257 166.475 114.598 165.913 112.232 166.185C110.074 166.434 109.432 167.091 109.177 169.315C109 170.863 109.601 173.268 110.512 174.659C112.481 177.663 111.755 182 109.285 182C107.412 182 94 168.417 94 166.52C94 164.333 97.772 161.84 101.922 161.284C104.64 160.919 106 160.236 106 159.234C106 156.625 97.933 141.64 94.704 138.25C89.675 132.971 88.011 133.628 76.331 145.508C67.284 154.709 66 156.441 66 159.436C66 165.37 70.496 167.647 76 164.5C79.895 162.274 81.639 162.706 83.061 166.25C83.778 168.037 85.183 170.573 86.183 171.885C88.191 174.521 88.554 177.539 86.979 178.513C86.418 178.86 85.309 177.591 84.516 175.693C82.381 170.583 77.626 169.374 73.985 173.015C71.787 175.213 72.058 178.557 74.776 182.755C76.603 185.575 75.329 187.406 70.412 189.029C66.309 190.383 65 192.52 65 197.863C65 200.161 64.333 202.525 63.429 203.429C60.436 206.421 58.825 205.065 57.082 198.084L55.73 192.669L59.115 189.861C60.977 188.317 62.817 187.042 63.205 187.027C65.132 186.953 65.106 179.92 63.163 175.81C62.042 173.439 60.86 169.856 60.536 167.847C59.893 163.865 58.622 163 53.418 163C51.538 163 50 162.774 50 162.497C50 162.221 51.8 160.369 54 158.381C56.2 156.393 58 154.333 58 153.803C58 153.273 59.688 150.292 61.75 147.18C65.735 141.166 86.792 119 88.52 119C89.084 119 90.411 120.607 91.468 122.571ZM45.82 122.241C45.478 124.638 41.036 127.35 38.324 126.818C36.989 126.556 37.186 125.929 39.441 123.25C42.697 119.384 46.309 118.812 45.82 122.241ZM246.114 125.184C249.869 127.294 251.416 131.007 249.129 132.42C247.691 133.309 246.985 138.831 247.977 141.44C248.487 142.781 249.846 144.382 250.996 144.998C252.784 145.955 253.503 145.673 255.945 143.059C259.186 139.59 259.721 139.443 261.921 141.415C262.79 142.193 265.075 143.231 267 143.723C269.774 144.43 270.566 145.173 270.816 147.299C271.067 149.434 270.555 150.233 268.316 151.207C264.522 152.856 260.201 157.351 259.421 160.461C258.652 163.521 256.622 163.677 252.25 161.011C248.347 158.631 248.185 157.115 251.5 154C255.848 149.915 254.217 146 248.168 146C238.105 146 231.165 132 237.667 124.816C239.801 122.457 241.385 122.526 246.114 125.184ZM292.569 127.306C296.033 130.285 296.024 133.915 292.541 138.941C288.188 145.222 285.967 145.144 280.137 138.503C278.167 136.26 277 133.854 277 132.038C277 125.638 287.071 122.577 292.569 127.306ZM192.466 132.331C194.647 133.524 197.467 136.075 198.733 138C199.999 139.925 203.126 143.668 205.682 146.317C210.352 151.159 211.179 151.403 216.284 149.445C217.326 149.045 218.987 151.129 221.995 156.608C227.199 166.091 228.429 169.898 226.523 170.629C224.214 171.516 220.797 169.11 213.5 161.461C204.153 151.662 199.728 150.708 192.833 157.005C188.942 160.559 187.927 160.681 185.407 157.898C181.975 154.104 178.216 152.783 172.931 153.51C167.404 154.27 161 152.613 161 150.422C161 149.64 161.953 148.047 163.118 146.882C165.026 144.974 165.926 144.833 172.212 145.452C181.385 146.356 183 145.093 183 137.012C183 133.889 183.3 131.033 183.667 130.667C184.878 129.456 188.442 130.13 192.466 132.331ZM319.174 131.464C327.949 131.629 331.093 138.663 325 144.5C323.35 146.081 322 148.362 322 149.568C322 152.134 327.613 158 330.067 158C330.996 158 332.291 158.646 332.946 159.435C334.598 161.426 333.86 167.073 331.776 168.378C330.357 169.266 329.333 168.709 325.989 165.228C323.494 162.632 321.027 161 319.598 161C316.336 161 312 157.319 312 154.55C312 151.85 313.471 150.422 317.22 149.481C318.709 149.107 320.185 147.993 320.498 147.006C321.4 144.165 316.511 134.19 313.557 132.844C312.151 132.203 311 131.253 311 130.732C311 130.195 311.756 130.129 312.75 130.581C313.712 131.018 316.603 131.415 319.174 131.464ZM54.497 137.99C55.308 140.545 54.448 141.879 51.192 143.117C47.891 144.372 44 143.445 44 141.404C44 140.547 45.338 138.508 46.973 136.873C49.417 134.429 50.294 134.087 51.905 134.949C52.983 135.526 54.149 136.894 54.497 137.99ZM30.79 139.894C35.664 142.381 37.517 144.554 39.408 150C41.541 156.143 41.402 157.69 38.549 159.56C35.151 161.786 32.991 160.755 29.5 155.239C25.832 149.445 22.331 148.493 19.222 152.445C18.117 153.85 16.602 154.982 15.856 154.959C14.173 154.908 5.847 147.486 6.613 146.72C6.92 146.413 9.566 146.409 12.493 146.711C17.738 147.253 17.838 147.212 19.532 143.88C22.925 137.204 24.457 136.662 30.79 139.894ZM242.944 153.895C244.451 156.711 241.554 158.983 239.313 156.742C237.504 154.932 238.197 152 240.433 152C241.256 152 242.386 152.853 242.944 153.895ZM291.073 155.561C293.417 157.52 296.596 159.774 298.138 160.571C302.126 162.634 303.265 165.177 301.396 167.845C299.601 170.408 294.857 170.738 292.945 168.434C289.482 164.262 281.382 162.63 278.912 165.607C277.782 166.968 277.916 167.8 279.789 171.055C282.506 175.776 282.549 177.194 280.039 179.464C277.985 181.324 276.895 181.271 267.62 178.868C262.42 177.521 261.993 177.732 258.5 183.38C257.618 184.806 256.759 184.556 251.212 181.258C246.42 178.408 244.992 177.041 245.212 175.509C245.464 173.749 246.276 173.493 251.76 173.44C258.321 173.377 259.577 172.789 260.162 169.5C260.453 167.863 261.515 167.409 266.009 167C271.415 166.508 271.535 166.427 273.754 161.784C276.023 157.035 281.881 152 285.138 152C286.058 152 288.729 153.602 291.073 155.561ZM373.5 156.476C373.5 159.86 373.112 160.588 370.89 161.37C366.891 162.776 363.332 161.46 362.534 158.28C361.597 154.547 364.955 151.783 369.923 152.2C373.376 152.49 373.5 152.638 373.5 156.476ZM20.35 164.844C21.849 166.408 23.331 169.267 23.645 171.197C24.186 174.534 24.049 174.74 20.874 175.375C14.478 176.654 8.997 169.706 12.357 164.577C14.547 161.235 16.97 161.316 20.35 164.844ZM54.226 172.5C56.526 175.594 53.602 183.579 50 184.044C46.978 184.433 46.196 183.933 44.614 180.599C42.271 175.662 42.59 172.461 45.712 169.566L48.425 167.051L50.954 169.275C52.345 170.499 53.817 171.95 54.226 172.5ZM209.092 171.404C215.957 173.319 219.202 175.782 222.681 181.718C228.654 191.912 225.16 201.299 215.34 201.434C211.256 201.491 210.42 201.154 209.337 199.014C207.906 196.184 208.51 194.867 213.862 189.144C215.588 187.299 217 185.187 217 184.451C217 182.659 213.073 180 210.427 180C205.883 180 202.394 177.978 201.189 174.647C199.548 170.108 199.689 168.778 201.75 169.354C202.713 169.623 206.017 170.546 209.092 171.404ZM315.496 172.561C319.009 175.874 319.186 176.31 318.04 178.811C314.157 187.283 314.213 187.23 307.5 188.653C304.112 189.37 303.194 190.145 301.5 193.714C299.678 197.554 299.165 197.931 295.725 197.964C292.553 197.994 291.791 197.58 290.95 195.368C290.399 193.92 290.207 191.923 290.522 190.93C291.612 187.498 297.687 183.233 303.158 182.06C308.917 180.824 313 178.639 313 176.791C313 176.152 312.053 174.621 310.895 173.388C308.965 171.334 308.978 169 310.919 169C311.36 169 313.419 170.603 315.496 172.561ZM191.5 176.5C191.5 177.938 190.728 178.589 188.75 178.816C186.604 179.063 186 178.716 186 177.233C186 174.714 186.983 173.853 189.459 174.208C190.736 174.391 191.5 175.249 191.5 176.5ZM31.418 175.607C32.431 175.995 33 177.435 33 179.607C33 182.538 32.667 183 30.559 183C27.857 183 27.239 182.319 25.991 177.967C25.219 175.278 25.36 175 27.488 175C28.78 175 30.548 175.273 31.418 175.607ZM10.443 183.223C13.969 188.256 10.999 198 5.939 198C1.347 198 -2.103 191.998 0.0699997 187.788C1.959 184.125 5.204 181 7.118 181C8.091 181 9.587 182 10.443 183.223ZM43.543 192.084C44.42 193.78 45.219 197.017 45.319 199.277C45.498 203.34 45.444 203.408 40.5 205.254C37.75 206.281 34.879 207.731 34.12 208.476C32.304 210.259 33.286 213.998 36.605 217.943C38.73 220.468 38.984 221.314 37.983 222.52C35.895 225.037 32.38 224.331 31.054 221.13C29.782 218.06 26.372 216 22.56 216C19.402 216 18.885 214.122 20.43 208.264C22.218 201.488 24.456 198.435 28.956 196.634C31.067 195.79 33.771 193.727 34.965 192.049C37.892 187.939 41.407 187.953 43.543 192.084ZM158.81 194.25C159.115 197.935 159.059 198 155.583 198C152.917 198 151.644 197.387 150.413 195.508C147.886 191.651 149.199 189.828 154.241 190.192C158.377 190.491 158.509 190.609 158.81 194.25ZM315 200.731C322.385 202.756 330.918 206.979 332.105 209.197C332.736 210.375 332.712 211.67 332.035 212.934C331.466 213.998 331 216.248 331 217.934C331 220.823 330.778 221 327.16 221C322.347 221 312.21 226.028 309.519 229.749C308.147 231.647 307.42 234.566 307.156 239.245L306.774 246H303.438C299.218 246 295.295 241.277 294.824 235.626C294.505 231.807 294.565 231.733 299.092 230.392C303.005 229.233 303.909 228.459 305.207 225.156C306.649 221.484 306.996 221.255 311.808 220.793C318.157 220.182 322 217.801 322 214.477C322 210.087 315.067 205.209 310.768 206.574C309.685 206.917 307.924 209.179 306.853 211.599C304.79 216.263 304.122 216.722 302.2 214.8C300.689 213.289 300.676 209.557 302.159 203.133C303.468 197.463 303.238 197.505 315 200.731ZM383.229 206.75C379.034 212.101 377.8 214.794 378.512 217.039C379.542 220.284 386.156 226.026 391.858 228.627L397.217 231.071L396.556 235.473C396.052 238.833 396.36 240.785 397.853 243.711C398.929 245.821 400.128 249.674 400.518 252.273L401.227 257H408.114H415L414.985 247.75C414.974 241.408 414.665 238.972 414 240C413.467 240.825 413.024 242.288 413.015 243.25C413.007 244.212 412.55 245 412 245C410.638 245 410.742 239.994 412.219 234.473C413.708 228.904 413.114 227.767 406.215 222.976C401.351 219.599 399.512 217.568 392.218 207.521C390.413 205.034 388.314 203 387.552 203C386.791 203 384.845 204.688 383.229 206.75ZM98.965 209.934C99.534 210.998 100 214.612 100 217.966C100 222.628 99.624 224.207 98.403 224.676C96.53 225.394 93.015 221.447 90.367 215.652C88.613 211.816 88.615 211.799 91.054 209.924C94.223 207.489 97.658 207.493 98.965 209.934ZM289.284 211.176C290.39 212.658 291.493 216.076 291.759 218.843C292.222 223.659 292.077 224.006 287.66 228.668C285.141 231.325 282.034 235.072 280.755 236.993C276.375 243.573 271.668 241.308 270.793 232.199L270.294 227H275.456C282.578 227 284.525 225.415 283.561 220.4C283.149 218.255 282.578 215.258 282.291 213.741C281.707 210.648 283.539 207.761 285.802 208.207C286.619 208.368 288.186 209.704 289.284 211.176ZM346.75 212.047C350.39 213.606 350.659 214.208 348.513 215.989C346.392 217.749 344.424 216.654 343.152 213.005C342.547 211.27 342.378 210.032 342.776 210.253C343.174 210.474 344.962 211.281 346.75 212.047ZM63.347 214C67.51 217.655 70.394 217.776 75.215 214.5C81.318 210.353 84.953 212.09 81.427 217.47C79.416 220.541 75.819 222.581 70.189 223.846C66.887 224.588 65.66 224.409 63.334 222.844C61.35 221.51 59.529 221.111 57.264 221.512C49.523 222.884 47.608 217.189 54.5 213.293C56.7 212.05 58.822 211.025 59.215 211.016C59.609 211.007 61.468 212.35 63.347 214ZM346.417 222.514C347.599 223.408 348.333 225.181 348.333 227.14C348.333 231.676 344.219 235 338.605 235C334.985 235 334.141 234.605 333.161 232.453C332.522 231.052 332 227.902 332 225.453V221L338.25 221.032C342.118 221.051 345.23 221.616 346.417 222.514ZM63 228.257C63 228.398 63.403 229.918 63.896 231.636C64.682 234.377 64.571 234.7 62.988 234.287C60.012 233.508 56.749 237.58 57.523 241.106C58.365 244.937 55.842 249 52.623 249C51.341 249 49.024 247.825 47.475 246.389C45.076 244.166 44.003 243.852 40.239 244.277C37.809 244.55 32.711 246.318 28.91 248.205C24.792 250.249 22 251.151 22 250.438C22 249.78 23.178 246.669 24.617 243.525C26.789 238.782 27.044 237.392 26.117 235.357C24.562 231.945 24.51 232 29.322 232C32.567 232 34.622 232.74 37.572 234.972C39.732 236.607 42.455 237.957 43.623 237.972C47.004 238.016 54.609 234.235 57.677 230.984C59.95 228.576 63 227.013 63 228.257ZM170.454 229.416C175.169 231.386 177.407 235.102 176.659 239.716C175.785 245.101 172.174 248.208 165.844 249.02C161.014 249.64 160.408 249.487 158.539 247.174C157.417 245.788 155.037 243.186 153.25 241.394C151.463 239.601 150 237.711 150 237.195C150 236.678 152.015 234.397 154.478 232.127C158.19 228.706 159.649 228 163.01 228C165.24 228 168.59 228.637 170.454 229.416ZM325.947 236.436C327.712 238.563 325.562 242 322.465 242C320.425 242 320 241.511 320 239.167C320 237.608 320.3 236.033 320.667 235.667C321.816 234.518 324.704 234.938 325.947 236.436ZM139.923 243.589C142.252 245.548 143 247.008 143 249.589C143 254.202 140.218 254.152 136.104 249.465C130.196 242.737 133.277 237.996 139.923 243.589ZM191.608 245.75C193.482 248.218 193.309 250.41 191.082 252.425C188.143 255.086 184.738 254.099 183.644 250.27C182.986 247.964 183.083 246.605 183.983 245.52C185.687 243.467 189.973 243.597 191.608 245.75ZM207.608 249.573C208.353 252.543 206.853 254.541 204.545 253.655C201.058 252.318 201.382 247 204.95 247C206.277 247 207.182 247.875 207.608 249.573Z" fill="white"/>
</g>
<defs>
<linearGradient id="paint0_linear_133_1624" x1="-59.85" y1="-15.75" x2="156.796" y2="385.14" gradientUnits="userSpaceOnUse">
<stop stop-color="#348ABB"/>
<stop offset="1" stop-color="#009FE3"/>
</linearGradient>
<clipPath id="clip0_133_1624">
<rect width="399" height="225" fill="white" transform="translate(0.5)"/>
</clipPath>
</defs>
</svg>
