<svg width="399" height="225" viewBox="0 0 399 225" fill="none" xmlns="http://www.w3.org/2000/svg">
<rect width="399" height="225" fill="url(#paint0_linear_133_1629)"/>
<path fill-rule="evenodd" clip-rule="evenodd" d="M-17.9877 275.116C-17.9877 272.72 -18.6467 272.754 -10.2997 274.722C-5.01074 275.969 -0.468746 276.201 10.0123 275.759C17.4373 275.447 25.0873 274.741 27.0123 274.192C29.7603 273.408 28.9003 273.326 23.0123 273.811C11.8983 274.728 -3.58074 274.359 -11.2377 272.997C-17.7047 271.846 -17.9877 271.677 -17.9877 268.956C-17.9877 265.635 -17.3257 265.532 -9.32675 267.616C-2.07174 269.506 11.5443 269.532 26.1743 267.684C32.4103 266.897 42.2373 265.714 48.0123 265.057C53.7873 264.4 63.0123 262.817 68.5123 261.541C88.7263 256.848 96.0592 256.166 132.012 255.633C161.82 255.191 168.892 254.778 184.012 252.596C193.637 251.207 204.891 249.663 209.02 249.165C213.15 248.666 219.675 247.674 223.52 246.96C227.366 246.246 237.037 245.661 245.012 245.659C258.28 245.656 260.532 245.933 271.512 248.924C278.112 250.722 284.637 252.592 286.012 253.079C293.039 255.57 316.327 261.147 322.038 261.707C339.351 263.403 357.187 252.719 365.586 235.622C370.39 225.841 371.821 219.403 372.956 202.453C374.161 184.473 375.916 179.933 383.04 176.377C390.549 172.629 397.931 171.746 406.659 173.551C410.802 174.408 414.601 175.362 415.102 175.671C415.602 175.981 416.012 178.713 416.012 181.742C416.012 187.03 415.922 187.218 413.762 186.433C412.524 185.984 408.328 185.616 404.436 185.616C391.702 185.616 388.348 189.617 383.057 211.116C379.427 225.869 378.994 227.118 373.78 237.847C368.441 248.837 360.204 257.317 350.012 262.321C335.602 269.395 322.168 269.732 298.512 263.61C269.204 256.025 251.108 254.122 231.512 256.564C224.362 257.455 214.462 258.616 209.512 259.144C204.562 259.672 197.362 260.534 193.512 261.061C180.762 262.806 172.881 263.126 130.325 263.632C93.8843 264.066 86.8023 264.4 78.3253 266.083C72.9283 267.155 64.6113 268.509 59.8443 269.092C50.9902 270.175 48.3973 270.518 37.0123 272.115L30.5123 273.027L38.5123 272.534C51.3283 271.745 64.6903 270.32 76.5123 268.48C85.7533 267.041 96.0663 266.74 141.012 266.597C196.353 266.42 197.108 266.377 230.796 261.477C248.035 258.969 248.118 258.966 263.296 260.583C281.06 262.476 292.663 264.354 303.052 267.018C307.155 268.07 314.188 269.408 318.68 269.991C341.428 272.944 364.622 261.172 376.847 240.469C379.073 236.7 383.672 226.522 387.067 217.852C391.728 205.949 394.09 201.238 396.711 198.617C400.691 194.637 405.755 192.813 411.512 193.287L415.512 193.616L415.808 200.366L416.103 207.116H413.258C411.693 207.116 408.583 208.302 406.347 209.752C402.334 212.354 399.513 216.516 391.19 232.116C378.023 256.793 363.158 269.411 340.512 275.134C336.796 276.073 318.947 276.462 271.012 276.651C235.537 276.79 208.312 276.731 210.512 276.518C212.712 276.305 219.462 275.457 225.512 274.632C248.827 271.456 252.499 271.116 263.545 271.116C276.76 271.116 292.459 272.575 302.675 274.752C306.614 275.591 310.889 276.116 312.175 275.918C313.46 275.719 307.053 274.084 297.935 272.283C282.3 269.196 280.028 269.001 257.935 268.86C243.078 268.765 232.866 269.13 230.012 269.859C227.537 270.491 219.437 271.763 212.012 272.686C200.575 274.107 194.08 274.241 169.512 273.562C128.948 272.441 86.1273 273.471 64.0123 276.101C59.8873 276.591 39.7503 277.02 19.2623 277.054C-17.3417 277.115 -17.9877 277.081 -17.9877 275.116ZM110.512 275.958C133.615 274.884 146.925 274.884 160.012 275.958C167.876 276.603 160.721 276.816 131.512 276.807C96.7973 276.797 94.4902 276.703 110.512 275.958ZM345.785 275.614C358.079 272.19 370.663 264.453 379.754 254.729C382.921 251.342 389.007 243.406 393.278 237.093C403.924 221.358 405.776 219.366 412.276 216.65L416.012 215.089L415.985 222.353L415.958 229.616L411.86 232.116C409.606 233.491 404.847 237.991 401.284 242.116C389.343 255.941 379.576 265.251 371.029 270.955L362.547 276.616L351.529 276.849L340.512 277.082L345.785 275.614ZM368.753 274.917C375.117 271.659 386.547 262.749 397.944 252.162C403.541 246.962 409.896 241.649 412.067 240.355L416.012 238.003V244.992C416.012 251.174 415.774 252.057 413.949 252.636C412.814 252.996 406.386 257.427 399.663 262.483C381.684 276.004 379.524 277.119 371.334 277.102L364.512 277.088L368.753 274.917ZM385.539 275.757C386.624 275.01 391.337 272.245 396.012 269.613C400.687 266.982 404.746 264.471 405.032 264.035C405.495 263.33 414.543 259.116 415.595 259.116C415.824 259.116 416.012 262.031 416.012 265.593C416.012 271.364 415.745 272.245 413.561 273.676C412.152 274.599 410.26 275.012 409.111 274.647C408.012 274.298 405.762 274.711 404.112 275.564C402.069 276.621 398.31 277.116 392.339 277.116C384.646 277.116 383.81 276.949 385.539 275.757ZM414.406 269.866C415.83 267.592 414.141 264.74 411.105 264.289C406.944 263.672 404.391 268.095 407.255 270.959C408.94 272.644 413.061 272.014 414.406 269.866ZM-7.48775 266.045C-17.0267 264.014 -17.4657 263.748 -17.7977 259.802C-18.0997 256.219 -18.0387 256.146 -15.5287 257.101C-5.10275 261.064 8.69326 262.008 28.0123 260.079C48.6103 258.022 59.1833 255.853 77.0123 250.026C89.5543 245.926 102.783 243.116 109.534 243.116C111.9 243.116 117.363 242.389 121.674 241.5C125.985 240.611 135.812 239.587 143.512 239.223C158.903 238.496 159.962 238.147 176.512 228.344C183.647 224.118 194.146 220.875 211.106 217.658C217.397 216.464 222.733 216.214 232.5 216.656C253.511 217.606 259.937 219.684 274.742 230.315C293.159 243.539 311.319 250.995 325.324 251.08C336.329 251.148 346.227 244.359 352.245 232.616C354.871 227.491 355.386 225.231 355.775 217.116C356.156 209.159 355.873 206.563 354.031 201.13C352.165 195.628 347.625 184.702 343.772 176.446C342.26 173.205 342.361 166.605 343.953 164.687C346.223 161.952 351.863 160.095 362.512 158.578C375.365 156.746 394.315 156.729 404.512 158.539C415.974 160.574 416.012 160.598 416.012 165.723C416.012 170.771 415.764 170.854 407.944 168.437C397.463 165.198 379.169 166.598 370.913 171.271C364.429 174.941 363.696 178.581 365.69 197.208C367.253 211.804 367.252 213.338 365.676 221.208C361.832 240.393 350.718 253.428 334.512 257.757C322.661 260.922 312.35 258.678 276.512 245.133C258.831 238.45 253.569 237.196 243.012 237.15C229.537 237.092 195.614 241.774 180.012 245.846C163.425 250.174 161.828 250.394 145.512 250.604C110.647 251.051 92.7573 253.046 69.5123 259.076C65.1123 260.217 52.1543 262.493 40.7163 264.134C19.5113 267.175 1.22326 267.9 -7.48775 266.045ZM-3.98775 257.561C-7.56275 256.793 -12.1747 255.411 -14.2377 254.489C-17.8167 252.888 -17.9877 252.594 -17.9877 248.013V243.215L-10.7377 246.655C-6.75074 248.547 -0.787745 250.604 2.51225 251.226C13.7983 253.352 43.2183 251.014 56.0123 246.974C67.2693 243.419 102.653 226.524 123.512 214.743C131.305 210.342 142.012 200.443 142.012 197.64C142.012 196.292 150.689 184.737 154.165 181.457C156.006 179.719 159.894 176.906 162.806 175.207C170.129 170.931 176.455 170.993 188.512 175.459C203.633 181.058 207.893 181.524 222.198 179.138C242.8 175.703 249.849 173.091 256.012 166.611C265.195 156.957 285.236 142.219 295.868 137.302C300.871 134.988 302.761 134.692 312.512 134.693C321.861 134.695 325.688 135.244 338.012 138.353C355.056 142.653 368.557 144.643 390.512 146.091C399.312 146.672 408.649 147.407 411.262 147.725L416.012 148.304V152.777C416.012 156.698 415.78 157.177 414.136 156.655C408.833 154.972 392.843 153.101 379.512 152.603C355.855 151.719 343.23 150.377 317.611 146.026C308.339 144.451 301.579 146.753 294.829 153.781C287.156 161.771 289.099 165.765 302.016 168.556C331.066 174.833 353.956 201.792 349.037 223.935C345.018 242.03 332.211 249.528 313.604 244.682C302.406 241.765 294.788 237.218 286.73 228.641C282.823 224.483 280.281 220.696 273.202 208.49C269.766 202.564 268.265 200.97 264.291 199.029C259.627 196.752 258.959 196.705 236.512 197.071C204.702 197.589 196.982 197.595 185.809 197.105C176.584 196.701 175.975 196.801 173.458 199.148C172.003 200.505 168.785 204.766 166.308 208.616C163.831 212.466 160.614 216.895 159.158 218.459C155.904 221.956 148.727 225.71 143.457 226.673C141.287 227.069 135.912 228.721 131.512 230.344C127.112 231.967 117.662 234.809 110.512 236.66C103.362 238.51 88.9622 242.932 78.5123 246.485C54.3493 254.702 49.9733 255.715 30.5853 257.582C11.5213 259.418 4.63926 259.414 -3.98775 257.561ZM5.32925 247.613C-2.60575 245.888 -8.90374 243.082 -13.9627 239.016L-17.9877 235.781V215.028V194.275L-14.8157 185.446C-10.2937 172.862 -10.2787 164.384 -14.7657 157.167C-17.3637 152.987 -17.9877 150.931 -17.9877 146.55C-17.9877 143.561 -17.5737 141.116 -17.0687 141.116C-15.0417 141.116 -5.31275 151.176 -3.14875 155.508C-0.223745 161.365 0.617254 169.369 -0.970745 176.249C-1.65174 179.201 -4.44275 189.041 -7.17375 198.116C-12.5387 215.946 -12.7247 218.791 -9.00475 226.082C-3.26475 237.333 13.5223 242.82 34.2803 240.229C43.6973 239.054 49.9963 237.522 56.0123 234.944C58.3043 233.961 59.9983 233.113 66.3113 229.787C72.3043 226.628 78.9873 220.729 87.2093 211.337C98.0502 198.954 105.701 192.63 121.012 183.397C127.337 179.583 136.399 173.951 141.151 170.883C158.959 159.383 163.595 157.442 175.525 156.494C181.274 156.037 186.502 156.373 194.025 157.683C206.393 159.837 223.282 160.077 231.012 158.21C237.987 156.525 249.592 151.158 263.012 143.413C268.787 140.08 275.226 136.393 277.321 135.218C279.417 134.044 284.142 131.387 287.821 129.314C302.278 121.17 312.971 120.101 329.85 125.116C335.404 126.766 340.288 128.116 340.703 128.116C342.744 128.116 336.594 125.196 329.012 122.565C322.129 120.177 318.895 119.623 312.012 119.65C302.327 119.689 297.485 121.211 286.512 127.663C259.057 143.808 246.149 150.16 233.654 153.673C227.673 155.355 217.378 155.324 185.424 153.529C171.428 152.742 163.446 154.724 148.166 162.779C142.306 165.867 130.762 171.762 122.512 175.877C114.262 179.992 105.262 184.952 102.512 186.899C96.1333 191.417 83.6073 203.986 78.3203 211.174C64.0533 230.573 38.8893 240.121 16.8433 234.502C6.84126 231.953 1.08825 228.075 -1.05575 222.438C-2.82475 217.786 -2.11275 204.971 0.408255 196.073C4.31326 182.292 6.30326 170.258 5.72725 163.909C4.88425 154.609 1.65825 150.195 -11.4877 140.351C-12.0377 139.939 -13.7247 139.052 -15.2377 138.38C-17.5737 137.343 -17.9877 136.559 -17.9877 133.169C-17.9877 128.485 -18.1197 128.475 -7.07475 133.945C1.90326 138.391 10.7203 146.238 13.9063 152.618C17.5383 159.89 17.6783 167.329 14.5323 185.697C11.2203 205.032 11.4303 212.353 15.4493 217.622C19.6543 223.135 23.2033 224.492 33.5123 224.528C41.3073 224.554 43.2493 224.197 48.0123 221.855C54.5123 218.66 59.0573 214.503 66.6883 204.774C77.0413 191.573 91.0953 179.817 103.012 174.389C105.487 173.262 112.687 170.443 119.012 168.124C125.337 165.805 135.866 161.229 142.41 157.955C148.955 154.681 157.73 150.798 161.91 149.327C169.328 146.717 169.959 146.663 188.012 147.093C233.939 148.188 236.133 147.886 257.732 137.495C261.704 135.584 265.235 133.563 265.581 133.004C265.927 132.445 263.577 133.306 260.361 134.918C253.732 138.239 241.946 142.415 234.488 144.083C231.208 144.817 219.234 145.104 199.988 144.911L170.512 144.616L162.101 147.433C157.475 148.982 151.175 151.515 148.101 153.06C140.18 157.043 128.684 161.67 120.512 164.165C96.3753 171.534 82.5143 177.848 69.8313 187.25C66.1553 189.975 59.4043 196.305 54.8293 201.316C45.9523 211.04 42.5853 213.125 35.7943 213.101C30.0613 213.082 27.0203 211.373 24.2203 206.597C21.9753 202.767 21.9153 202.123 22.6373 189.616C24.0313 165.5 23.7903 161.363 20.5843 154.343C15.5713 143.37 4.85526 134.92 -11.9877 128.66C-16.9257 126.825 -17.5197 126.29 -17.7967 123.428C-18.0697 120.605 -17.8407 120.275 -15.7967 120.546C-14.5267 120.714 -12.5877 121.209 -11.4877 121.646C-10.3877 122.082 -6.11975 123.718 -2.00275 125.281C13.1573 131.035 22.4743 138.651 30.5643 151.901C33.0103 155.908 35.0123 159.418 35.0123 159.7C35.0123 161.673 42.5193 171.327 45.0863 172.654C50.3703 175.387 64.4942 172.754 98.5123 162.695C105.112 160.743 111.249 159.139 112.15 159.131C116.727 159.089 140.959 150.73 139.817 149.587C139.554 149.324 135.778 150.381 131.425 151.935C127.073 153.488 120.137 155.337 116.012 156.042C111.887 156.747 104.237 158.226 99.0123 159.329C79.3033 163.486 73.2743 164.381 65.0123 164.373C52.6063 164.362 46.5223 161.799 38.6263 153.256C22.8663 136.207 16.4953 130.54 8.96626 126.872C4.86625 124.875 -2.87275 121.975 -8.23175 120.428C-17.5087 117.751 -17.9757 117.484 -17.9817 114.866C-17.9857 113.153 -17.4517 112.116 -16.5667 112.116C-13.3477 112.116 3.04726 116.503 10.3963 119.331C20.8093 123.338 25.4573 126.594 38.0123 138.675C43.7873 144.233 49.6373 149.404 51.0123 150.168C58.8873 154.542 70.4183 155.944 84.5123 154.241C100.394 152.323 115.413 150.088 119.012 149.107C122.872 148.056 124.888 147.957 94.8123 150.291C75.7553 151.77 62.9813 150.732 55.4653 147.093C52.2953 145.559 46.9563 141.046 40.5233 134.463C27.4943 121.132 20.2203 117.471 -2.54475 112.791L-17.9857 109.616L-17.9867 106.75L-17.9877 103.883L-11.2377 104.544C-7.52474 104.908 -2.23775 105.616 0.512255 106.119C3.26225 106.621 11.5763 107.545 18.9893 108.173C37.3133 109.724 38.5263 110.303 44.5863 120.395C53.4473 135.152 57.9502 138.904 70.6263 142.098C79.5403 144.344 87.5312 144.561 107.044 143.084C128.488 141.461 128.232 140.447 106.491 140.894C84.5102 141.346 75.4273 140.175 67.7903 135.907C62.2093 132.788 57.9773 127.271 57.3013 122.234C56.7853 118.386 57.0352 117.838 61.1302 113.866C63.5403 111.529 67.6562 107.877 70.2763 105.751C76.4902 100.71 79.2523 96.7162 79.7132 92.1082C80.1693 87.5472 76.3163 82.0402 65.7253 72.1162C56.3173 63.3012 52.5783 61.1272 46.8133 61.1212C42.6803 61.1172 41.8183 61.5072 39.6553 64.3662C37.3713 67.3852 33.0123 78.7892 33.0123 81.7462C33.0123 84.1502 29.7933 92.5912 27.8093 95.3892C23.3193 101.722 13.1703 103.865 -6.50775 102.636L-17.9877 101.919V99.1272C-17.9877 95.9052 -16.6797 95.5842 -1.98775 95.2042C3.92025 95.0512 7.88026 94.3792 11.0003 93.0012C18.8573 89.5292 19.6153 88.3492 27.4953 67.3132C31.5563 56.4722 36.9353 51.1022 43.7123 51.1262C48.3993 51.1422 56.9023 55.8082 65.6152 63.1452C70.1683 66.9792 74.1073 70.1162 74.3693 70.1162C75.0423 70.1162 86.9912 82.6412 88.8493 85.2932C90.8232 88.1122 90.7282 95.8322 88.6693 99.8122C87.8002 101.492 84.5973 106.836 81.5513 111.688C78.5043 116.54 76.0123 121.287 76.0123 122.236C76.0123 126.104 80.7943 129.811 89.2483 132.498C96.2053 134.71 99.3313 135.122 109.012 135.108C125.881 135.082 136.641 131.294 148.875 121.071C160.848 111.066 160.888 108.095 149.262 92.0482C144.606 85.6222 144.012 84.2402 144.012 79.8362C144.012 75.5632 144.654 73.9452 148.606 68.2432L153.201 61.6162L146.724 68.3762C143.161 72.0942 139.664 76.5422 138.952 78.2612C137.804 81.0332 137.904 81.8482 139.844 85.5002C141.047 87.7642 143.28 90.9662 144.808 92.6162C152.006 100.392 154.058 108.258 150.622 114.904C148.328 119.339 141.51 124.773 133.012 128.939C125.567 132.589 125.42 132.616 113.012 132.576C99.2973 132.533 93.9743 131.019 89.1343 125.786C85.4493 121.802 86.4393 114.857 92.3283 103.369C99.7683 88.8582 99.3363 87.1952 85.5123 77.1382C82.2122 74.7372 78.1263 71.6122 76.4323 70.1942C74.7383 68.7762 71.4303 66.0412 69.0813 64.1162C66.7333 62.1912 63.6133 59.4912 62.1483 58.1162C60.6843 56.7412 56.9583 53.8912 53.8683 51.7822C46.7613 46.9312 38.4333 45.7772 33.4133 48.9462C29.9143 51.1552 25.0373 60.1052 20.5233 72.6012C18.3283 78.6752 16.5453 81.6782 13.0723 85.1522C7.83426 90.3902 3.99825 91.7262 -9.23775 92.9222L-17.9877 93.7132V90.4332C-17.9877 86.8462 -18.2797 86.9962 -7.76274 85.1812C-1.19074 84.0472 2.58225 82.3022 5.71125 78.9512C7.90725 76.5992 13.0123 66.0832 13.0123 63.9112C13.0123 61.9192 20.8033 46.7322 23.2093 44.0332C27.5273 39.1912 30.8113 37.7392 37.3733 37.7722C42.6003 37.7982 44.4043 38.3352 49.5123 41.3822C52.8123 43.3502 57.9113 47.0202 60.8443 49.5382C63.7763 52.0562 66.4293 54.1162 66.7383 54.1162C67.8932 54.1162 53.5303 41.4632 47.8123 37.4422C41.1463 32.7562 36.4333 31.5622 30.1593 32.9722C25.2773 34.0692 18.0123 38.7222 18.0123 40.7522C18.0123 41.5022 17.6173 42.1162 17.1353 42.1162C15.9933 42.1162 13.0013 49.1872 8.94025 61.4842C6.15825 69.9082 4.98425 72.0482 0.915255 76.1182C-3.77075 80.8042 -4.91875 81.3032 -16.2377 83.5772C-17.6677 83.8642 -17.9877 83.2092 -17.9877 79.9912C-17.9877 77.1222 -17.5127 75.9012 -16.2377 75.4912C-5.87975 72.1622 -3.02674 68.7662 1.59225 54.2652C6.41225 39.1322 9.07026 33.3622 13.0893 29.3052C17.6283 24.7222 22.3413 22.9902 30.2233 23.0062C39.2563 23.0252 46.0933 26.3432 55.9083 35.4702C63.9133 42.9142 59.9433 38.0122 49.8813 28.0292C41.5233 19.7362 37.2213 17.7472 27.5123 17.6822C20.2203 17.6342 19.1143 17.8972 15.0123 20.6562C8.82826 24.8152 4.65625 31.6392 1.02625 43.5362C-3.97975 59.9362 -7.70774 66.2342 -14.8897 70.4232L-17.9877 72.2292V66.1732C-17.9877 62.8412 -17.6507 60.1152 -17.2377 60.1142C-15.8037 60.1112 -11.1477 51.5642 -7.97775 43.1162C-2.54074 28.6242 2.76625 19.0192 8.15026 13.9282C14.2213 8.18723 18.2223 6.77521 26.8533 7.3262C35.4543 7.87521 41.3753 10.7592 49.0133 18.1172C57.6893 26.4762 56.3913 23.3032 47.3223 13.9842C34.8853 1.20322 25.5323 -1.74478 14.6573 3.68622C9.42426 6.29922 1.01225 14.3772 1.01225 16.7892C1.01225 17.5192 0.649256 18.1162 0.205256 18.1162C-0.238745 18.1162 -2.11175 21.3792 -3.95775 25.3662C-5.80375 29.3542 -9.60275 37.3412 -12.4007 43.1162L-17.4877 53.6162L-17.7767 44.8502C-18.0577 36.3502 -17.9447 35.8442 -14.0497 28.1202C-9.27575 18.6522 -0.654745 4.52121 2.27325 1.36621C4.30025 -0.81778 4.92626 -0.883789 23.7853 -0.883789H43.2093L46.6363 2.86621C48.5213 4.92822 52.1593 9.42221 54.7203 12.8512C57.2803 16.2802 59.5823 18.8802 59.8333 18.6282C60.0853 18.3762 59.1033 16.6132 57.6513 14.7102C56.2003 12.8072 55.0123 10.9672 55.0123 10.6232C55.0123 10.2782 53.4373 7.9332 51.5123 5.4122C49.5872 2.8912 48.0123 0.443207 48.0123 -0.0278015C48.0123 -0.49881 49.5743 -0.883789 51.4823 -0.883789C54.4823 -0.883789 55.2613 -0.342773 57.2323 3.10822C60.2013 8.30722 61.6633 8.3132 59.0123 3.11621L56.9713 -0.883789H59.6313C61.0943 -0.883789 62.9403 -0.0957947 63.7333 0.866211C65.1073 2.5332 65.1493 2.5332 64.6253 0.866211C64.1923 -0.51178 64.6643 -0.883789 66.8503 -0.883789C68.9283 -0.883789 69.9213 -0.191803 70.7973 1.86621L71.9683 4.61621L71.4543 1.7962C70.9833 -0.781799 71.1712 -0.995789 73.6423 -0.703796C75.6882 -0.461792 76.6633 0.468201 77.6493 3.11621L78.9533 6.61621L78.3713 2.86621C77.8123 -0.739777 77.9013 -0.883789 80.6933 -0.883789C83.3112 -0.883789 83.7223 -0.417786 84.8623 3.84421C87.3483 13.1392 97.0513 26.1162 101.515 26.1162C102.338 26.1162 103.012 26.4942 103.012 26.9572C103.012 28.3072 113.372 30.2442 119.179 29.9792C125.617 29.6862 134.899 27.6292 136.355 26.1732C137.763 24.7652 137.055 24.8372 132.012 26.6162C129.385 27.5432 124.156 28.1162 118.324 28.1162C110.304 28.1162 108.085 27.7362 103.539 25.5852C95.1093 21.5982 88.3112 12.8512 86.1432 3.2052L85.2253 -0.883789H89.1183C92.3143 -0.883789 93.0123 -0.533783 93.0123 1.06921C93.0123 4.62021 99.2253 16.1162 101.145 16.1162C101.622 16.1162 102.894 16.9982 103.973 18.0772C105.051 19.1552 108.511 20.7872 111.663 21.7032C125.682 25.7782 144.355 17.2712 152.912 2.91022L155.121 -0.795776L181.066 -0.848785C200.714 -0.888794 207.012 -0.607788 207.012 0.30722C207.012 1.24722 207.279 1.24924 208.212 0.316223C209.096 -0.56778 217.989 -0.883789 242.01 -0.883789H274.608L278.06 2.5842C282.535 7.0802 283.999 7.09821 280.58 2.61621L277.91 -0.883789H285.101C290.763 -0.883789 292.581 -0.51178 293.654 0.866211C294.952 2.5332 294.988 2.5332 294.407 0.866211C293.867 -0.684784 294.544 -0.883789 300.346 -0.883789C303.947 -0.883789 307.172 -0.433777 307.512 0.116211C307.852 0.666199 308.58 1.11621 309.13 1.11621C309.68 1.11621 309.852 0.666199 309.512 0.116211C309.145 -0.477783 310.317 -0.883789 312.4 -0.883789C315.037 -0.883789 317.468 0.298218 322.209 3.88721C330.431 10.1102 343.398 16.4782 354.258 19.6262C365.991 23.0282 370.995 23.6072 375.581 22.0932C381.051 20.2882 388.253 13.0922 392.104 5.58521L395.421 -0.883789H400.796H406.171L405.484 2.36621C404.179 8.5332 398.662 21.2762 395.061 26.4382C392.817 29.6542 389.394 32.8472 386.025 34.8662C381.333 37.6772 379.688 38.1162 373.841 38.1162C366.305 38.1162 360.852 36.5782 350.507 31.5352C337.024 24.9622 314.048 8.23721 312.498 3.86621C312.157 2.90421 311.442 2.11621 310.909 2.11621C307.478 2.11621 324.835 19.7152 338.692 30.2862C363.997 49.5912 380.21 52.5572 392.838 40.1932C399.651 33.5212 407.498 16.1072 409.656 2.86621C410.198 -0.454803 410.596 -0.883789 413.14 -0.883789C415.97 -0.883789 416.012 -0.799774 416.009 4.86621C416.006 12.7252 411.837 27.9022 406.931 37.9182C400.125 51.8102 388.395 61.1162 377.689 61.1162C369.293 61.1162 351.688 52.9452 341.241 44.1982C328.201 33.2812 305.641 8.78421 302.717 2.36722C302.153 1.12921 301.287 0.116211 300.792 0.116211C300.298 0.116211 300.217 0.678223 300.612 1.36621C301.62 3.12021 308.173 12.2112 310.163 14.6162C311.073 15.7162 314.618 20.1282 318.041 24.4212C327.188 35.8952 343.64 52.3532 350.512 56.9062C371.86 71.0482 385.379 71.4612 398.345 58.3672C402.926 53.7402 409.031 44.6432 410.258 40.6162C410.594 39.5162 411.999 35.4662 413.381 31.6162L415.895 24.6162L415.953 35.9702C416.011 47.1972 415.97 47.4032 412.273 54.4382C407.602 63.3282 398.943 72.3102 391.87 75.6022C385.328 78.6482 374.978 79.0032 367.44 76.4412C362.376 74.7202 348.46 67.0822 344.012 63.5832C337.227 58.2452 325.25 44.5772 313.012 28.2072C311.637 26.3682 309.828 24.1232 308.992 23.2192C308.155 22.3152 306.256 19.5592 304.771 17.0962C301.65 11.9152 297.294 6.41422 298.85 9.61621C300.559 13.1352 314.534 33.6662 322.121 43.8042C329.704 53.9372 340.89 65.8412 347.012 70.2912C351.866 73.8202 362.403 79.0322 368.452 80.8962C374.837 82.8642 386.45 82.9952 391.018 81.1502C399.253 77.8242 408.563 68.6252 413.822 58.6162L415.924 54.6162L415.968 61.9362C416.007 68.4742 415.691 69.7222 413.007 73.6232C400.799 91.3672 379.882 95.0592 355.574 83.7622C351.208 81.7332 345.177 78.2162 342.171 75.9462C331.392 67.8082 317.764 51.3202 306.015 32.2012C302.607 26.6542 299.621 22.1162 299.382 22.1162C298.568 22.1162 308.258 39.5682 313.818 48.1162C325.53 66.1242 337.124 76.9452 353.267 84.9352C366.36 91.4152 370.383 92.4702 382.012 92.4752C390.617 92.4782 392.124 92.1832 398.012 89.3412C404.393 86.2602 410.851 80.9762 414.21 76.0872C415.899 73.6282 415.907 73.6442 415.96 79.2992C416.01 84.7962 415.873 85.0962 411.762 88.4652C401.935 96.5172 391.405 99.7652 378.558 98.7062C367.556 97.8002 360.065 95.6372 349.262 90.2492C345.825 88.5342 343.012 87.5252 343.012 88.0072C343.012 88.4892 343.8 89.1732 344.762 89.5272C345.724 89.8812 348.087 91.0472 350.012 92.1182C351.937 93.1902 357.939 95.4752 363.35 97.1962C372.473 100.098 374.001 100.297 384.35 99.9192C393.307 99.5922 396.599 99.0402 401.012 97.1222C406.639 94.6772 412.557 90.7922 414.73 88.1162C415.733 86.8812 415.954 87.3582 415.98 90.8152C416.007 94.4032 415.539 95.3702 412.762 97.4572C410.974 98.8002 406.362 101.089 402.512 102.543C397.876 104.294 396.694 105.01 399.012 104.662C400.937 104.374 405.55 102.6 409.262 100.719L416.012 97.3002V100.586C416.012 103.301 415.486 104.091 412.991 105.125C411.329 105.813 409.713 106.791 409.4 107.298C409.087 107.804 410.474 107.532 412.483 106.693L416.135 105.167L415.823 108.391C415.529 111.441 415.117 111.746 408.239 114.01C404.239 115.327 401.154 116.591 401.382 116.819C401.738 117.176 411.012 114.787 414.762 113.373C415.589 113.062 416.012 113.917 416.012 115.901C416.012 118.776 415.732 118.968 409.262 120.533C405.55 121.432 399.812 122.55 396.512 123.019C391.44 123.74 391.131 123.888 394.512 123.977C396.712 124.035 402.45 123.253 407.262 122.241L416.012 120.4V123.22C416.012 127.668 411.143 128.578 387.224 128.599C367.031 128.616 364.911 129.549 383.012 130.452C391.608 130.881 408.034 129.885 413.762 128.588C415.752 128.137 416.012 128.468 416.012 131.462V134.846L403.632 135.323C391.248 135.8 369.161 134.81 363.512 133.525C361.819 133.14 360.868 133.222 361.33 133.714C363.338 135.853 374.741 136.991 394.762 137.052L416.012 137.116V141.116C416.012 145.926 418.315 145.72 388.012 143.624C362.588 141.865 364.017 142.14 330.512 132.553C309.198 126.455 302.422 128.156 272.15 147.207C238.645 168.292 232.583 170.658 212.512 170.481C202.554 170.394 199.078 169.928 192.086 167.746C176.946 163.021 165.977 164.55 153.488 173.126C150.751 175.005 143.419 181.383 137.194 187.299C130.97 193.215 121.52 200.986 116.194 204.568C110.869 208.151 102.271 214.726 97.0872 219.18C75.9443 237.348 60.3483 244.63 36.0503 247.678C22.1823 249.418 13.5483 249.4 5.32925 247.613ZM329.876 231.411C336.999 226.211 337.487 217.754 331.27 207.244C322.851 193.013 307.006 187.013 300.47 195.582C293.896 204.201 296.148 218.75 305.286 226.69C313.591 233.906 323.78 235.863 329.876 231.411ZM143.505 148.127C143.855 147.561 143.454 147.393 142.564 147.734C140.832 148.399 140.515 149.116 141.953 149.116C142.471 149.116 143.169 148.671 143.505 148.127ZM131.175 146.232C134.187 145.196 140.445 142.531 145.081 140.31C165.288 130.631 168.463 129.81 185.597 129.839C193.344 129.851 205.792 130.448 213.259 131.165C228.785 132.655 236.575 131.791 248.262 127.286C257.989 123.537 256.573 122.963 246.262 126.477C238.554 129.103 236.083 129.467 225.512 129.537C218.912 129.58 207.887 128.942 201.012 128.118C194.137 127.293 185.812 126.674 182.512 126.742C176.755 126.86 164.157 129.497 161.016 131.242C156.624 133.681 136.515 142.723 130.012 145.183C121.659 148.341 122.593 149.185 131.175 146.232ZM148.562 146.239C150.13 144.792 162.035 140.958 169.512 139.491C177.717 137.882 194.625 137.742 211.512 139.144C228.361 140.542 239.928 138.374 256.523 130.706C260.489 128.874 264.065 126.839 264.47 126.184C264.875 125.529 262.014 126.601 258.113 128.565C249.233 133.037 244.763 134.528 233.823 136.667C225.656 138.263 223.936 138.264 205.149 136.677C189.769 135.378 183.476 135.227 177.838 136.024C169.989 137.134 159.774 139.553 156.512 141.074C155.412 141.587 152.375 142.943 149.762 144.086C147.149 145.23 145.012 146.38 145.012 146.641C145.012 147.451 147.561 147.163 148.562 146.239ZM133.216 138.328C138.259 136.413 141.158 134.36 137.016 135.637C133.166 136.825 126.391 139.966 127.512 140.045C128.062 140.083 130.629 139.31 133.216 138.328ZM146.761 131.758C158.739 124.987 169.664 120.236 175.763 119.146C181.031 118.203 183.86 118.343 193.763 120.034C220.898 124.667 227.063 125.024 238.424 122.617C245.835 121.047 256.027 116.688 262.512 112.314C264.712 110.83 272.326 104.787 279.432 98.8842C294.492 86.3732 298.995 84.1622 305.735 85.9642C308.211 86.6272 312.119 88.0262 314.42 89.0742C316.721 90.1222 319.258 91.1232 320.058 91.2982C320.857 91.4732 321.754 91.9382 322.05 92.3322C322.756 93.2712 341.166 102.295 341.565 101.897C341.733 101.728 338.881 100.021 335.227 98.1032C331.573 96.1852 325.694 92.9552 322.163 90.9242C318.632 88.8942 312.204 85.8062 307.879 84.0622C296.314 79.4012 295.719 79.6302 279.696 94.9112C256.87 116.679 245.173 121.94 222.122 120.809C209.61 120.196 199.798 117.996 190.421 113.703C183.639 110.598 181.012 108.484 181.012 106.131C181.012 102.673 194.115 95.1702 211.512 88.6672C227.623 82.6442 231.095 81.1552 239.012 76.8762C254.582 68.4612 267.121 57.4982 271.032 48.8822C273.273 43.9452 273.679 33.0762 271.851 26.9742C269.99 20.7612 264.719 15.4042 258.702 13.6112C234.414 6.37021 216.017 6.7092 206.512 14.5722C204.532 16.2092 204.534 16.2162 206.643 15.2002C218.012 9.72324 230.865 9.1582 243.462 13.5822C256.643 18.2122 260.941 21.1002 264.224 27.5342C266.969 32.9122 266.358 41.5832 262.668 49.5922C260.123 55.1172 251.051 65.2002 245.382 68.8052C232.596 76.9352 229.816 78.1602 200.012 88.7902C179.814 95.9942 169.035 95.7862 161.05 88.0372C155.467 82.6192 154.081 77.4352 156.426 70.7492C157.417 67.9262 158.966 64.7242 159.869 63.6332C161.428 61.7522 161.418 61.7242 159.668 63.0842C156.532 65.5212 152.031 74.3802 152.021 78.1342C152.005 84.1692 157.429 90.7942 169.661 99.6802C175.885 104.202 177.366 106.1 176.436 108.366C176.021 109.378 148.659 129.251 141.408 133.807C137.261 136.413 141.179 134.913 146.761 131.758ZM359.512 133.116C359.172 132.566 358.133 132.148 357.203 132.186C355.824 132.244 355.882 132.415 357.512 133.116C360.188 134.266 360.223 134.266 359.512 133.116ZM277.012 126.505C278.937 125.466 280.737 124.344 281.012 124.011C282.723 121.942 297.636 114.959 303.434 113.513C311.042 111.615 316.631 112.226 327.954 116.193C330.947 117.241 332.918 117.622 332.334 117.038C330.554 115.258 314.739 110.143 311.012 110.141C307.024 110.14 298.607 112.214 294.966 114.095C290.548 116.378 267.012 131.268 267.012 131.78C267.012 132.054 268.474 131.405 270.262 130.337C272.05 129.269 275.087 127.545 277.012 126.505ZM351.156 130.488C349.31 129.683 346.385 128.814 344.656 128.558C342.32 128.213 342.798 128.591 346.512 130.027C352.327 132.276 356.114 132.652 351.156 130.488ZM120.547 126.025C134.2 123.501 144.304 114.277 142.486 105.997C141.664 102.257 134.714 95.0142 129.302 92.2592C121.114 88.0912 115.268 89.7012 107.593 98.2372C101.955 104.508 99.0123 110.607 99.0123 116.022C99.0123 120.925 101.446 123.51 107.943 125.505C113.831 127.313 113.626 127.304 120.547 126.025ZM360.512 126.116C359.412 125.643 357.837 125.257 357.012 125.257C356.067 125.257 356.251 125.574 357.512 126.116C358.612 126.589 360.187 126.975 361.012 126.975C361.957 126.975 361.773 126.658 360.512 126.116ZM268.512 124.116C268.852 123.566 268.68 123.116 268.13 123.116C267.58 123.116 266.852 123.566 266.512 124.116C266.172 124.666 266.344 125.116 266.894 125.116C267.444 125.116 268.172 124.666 268.512 124.116ZM353.012 124.116C352.187 123.583 351.062 123.147 350.512 123.147C349.962 123.147 350.187 123.583 351.012 124.116C351.837 124.649 352.962 125.085 353.512 125.085C354.062 125.085 353.837 124.649 353.012 124.116ZM390.012 124.116C390.012 123.543 387.341 123.167 383.762 123.234C378.787 123.328 378.124 123.508 380.512 124.116C384.98 125.253 390.012 125.253 390.012 124.116ZM113.512 122.045C108.912 120.584 106.968 118.647 106.419 114.972C105.373 107.987 111.895 100.856 120.51 99.5642C128.516 98.3632 136.012 102.869 136.012 108.883C136.012 117.052 122.564 124.919 113.512 122.045ZM261.012 121.675C261.012 121.432 260.562 120.956 260.012 120.616C259.462 120.276 259.012 120.475 259.012 121.057C259.012 121.639 259.462 122.116 260.012 122.116C260.562 122.116 261.012 121.918 261.012 121.675ZM344.012 121.116C343.187 120.583 342.062 120.147 341.512 120.147C340.962 120.147 341.187 120.583 342.012 121.116C342.837 121.649 343.962 122.085 344.512 122.085C345.062 122.085 344.837 121.649 344.012 121.116ZM366.929 121.757C366.7 121.559 365.162 121.095 363.512 120.726C361.321 120.236 360.917 120.329 362.012 121.07C363.362 121.984 367.932 122.622 366.929 121.757ZM265.14 118.452C266.395 116.93 266.299 116.899 264.012 118.088C260.66 119.83 260.407 120.116 262.223 120.116C263.072 120.116 264.385 119.367 265.14 118.452ZM276.012 119.116C276.012 118.566 275.814 118.116 275.571 118.116C275.328 118.116 274.852 118.566 274.512 119.116C274.172 119.666 274.371 120.116 274.953 120.116C275.535 120.116 276.012 119.666 276.012 119.116ZM340.012 119.714C340.012 119.493 338.662 118.841 337.012 118.266C333.539 117.055 332.913 117.739 336.262 119.085C338.795 120.103 340.012 120.307 340.012 119.714ZM357.512 119.116C356.412 118.643 354.837 118.232 354.012 118.202C352.679 118.153 352.679 118.254 354.012 119.116C354.837 119.649 356.412 120.061 357.512 120.03L359.512 119.975L357.512 119.116ZM372.012 116.58C364.848 115.102 362.406 114.843 363.207 115.645C363.978 116.415 372.02 117.895 375.512 117.908C377.162 117.915 375.587 117.317 372.012 116.58ZM397.281 117.46C396.604 117.186 395.254 117.169 394.281 117.423C393.308 117.677 393.862 117.901 395.512 117.921C397.162 117.941 397.958 117.734 397.281 117.46ZM272.012 113.466C272.012 112.742 268.158 115.071 267.445 116.225C267.071 116.829 267.946 116.55 269.389 115.605C270.832 114.659 272.012 113.697 272.012 113.466ZM283.033 114.483C285.222 113.035 287.012 111.673 287.012 111.457C287.012 110.903 281.903 113.662 279.512 115.508C276.216 118.053 278.756 117.314 283.033 114.483ZM344.012 114.714C344.012 114.493 342.55 113.824 340.762 113.228C337.789 112.236 337.677 112.27 339.453 113.63C341.242 115 344.012 115.658 344.012 114.714ZM237.512 112.523C252.519 110.04 268.09 98.0742 276.672 82.4262C283.556 69.8742 283.224 66.6482 275.349 69.5772C270.93 71.2212 248.991 81.6652 223.401 94.3072C214.135 98.8852 207.989 103.123 208.027 104.906C208.049 105.917 209.227 107.392 211.338 109.052C213.6 110.83 227.615 114.029 231.012 113.542C232.387 113.346 235.312 112.887 237.512 112.523ZM295.54 98.1032C301.192 95.3662 306.967 94.5562 310.942 95.9422C312.63 96.5302 314.012 96.6762 314.012 96.2652C314.012 94.9852 307.57 93.1162 303.16 93.1162C298.724 93.1162 294.761 95.4042 279.777 106.616C269.89 114.013 271.588 114.048 282.023 106.662C286.979 103.154 293.061 99.3022 295.54 98.1032ZM385.762 112.427C384.8 112.175 383.224 112.175 382.262 112.427C381.3 112.678 382.087 112.884 384.012 112.884C385.937 112.884 386.724 112.678 385.762 112.427ZM336.012 111.675C336.012 111.432 335.562 110.956 335.012 110.616C334.462 110.276 334.012 110.475 334.012 111.057C334.012 111.639 334.462 112.116 335.012 112.116C335.562 112.116 336.012 111.918 336.012 111.675ZM376.774 111.429C375.818 111.179 374.018 111.17 372.774 111.409C371.53 111.648 372.312 111.853 374.512 111.864C376.712 111.875 377.73 111.679 376.774 111.429ZM401.865 110.667C404.81 109.884 407.51 108.926 407.865 108.539C408.221 108.151 407.162 108.19 405.512 108.625C403.862 109.06 399.812 109.979 396.512 110.668C392.573 111.49 391.542 111.95 393.512 112.006C395.162 112.054 398.921 111.451 401.865 110.667ZM308.512 104.644C313.893 104.625 317.91 105.189 320.782 106.366C325.546 108.318 326.875 108.558 325.462 107.209C323.787 105.611 310.442 102.116 306.014 102.116C301.478 102.116 295.137 104.794 290.38 108.719C287.939 110.733 288.479 110.608 294.012 107.878C299.662 105.091 301.559 104.668 308.512 104.644ZM331.571 109.584C329.604 108.096 328.012 107.678 328.012 108.648C328.012 109.134 331.831 110.946 333.012 111.021C333.287 111.038 332.638 110.392 331.571 109.584ZM347.512 110.116C347.172 109.566 346.358 109.123 345.703 109.131C344.987 109.141 345.111 109.534 346.012 110.116C347.933 111.358 348.279 111.358 347.512 110.116ZM369.741 110.512C369.409 110.18 368.546 110.144 367.825 110.433C367.027 110.752 367.264 110.989 368.429 111.037C369.483 111.08 370.073 110.844 369.741 110.512ZM363.012 109.116C359.593 108.021 356.964 108.021 359.512 109.116C360.612 109.589 362.412 109.962 363.512 109.946C365.12 109.922 365.022 109.76 363.012 109.116ZM338.512 106.116C338.172 105.566 337.468 105.116 336.948 105.116C336.428 105.116 333.67 103.991 330.82 102.616C327.97 101.241 325.159 100.154 324.575 100.2C323.5 100.284 336.825 106.923 338.321 107.048C338.766 107.085 338.852 106.666 338.512 106.116ZM394.675 105.787C394.989 105.473 389.68 105.266 382.879 105.328C373.945 105.409 371.761 105.642 375.012 106.168C379.944 106.965 393.764 106.697 394.675 105.787ZM346.571 103.584C345.503 102.777 344.153 102.132 343.571 102.151C342.988 102.171 343.637 102.83 345.012 103.616C348.251 105.468 349.04 105.452 346.571 103.584ZM368.012 104.116C366.637 103.676 364.837 103.277 364.012 103.231C362.679 103.156 362.679 103.254 364.012 104.116C364.837 104.649 366.637 105.047 368.012 105.001L370.512 104.917L368.012 104.116ZM44.3333 102.927C41.0413 101.335 39.5123 96.4812 39.5123 87.6162C39.5123 78.2262 41.4553 70.6202 44.3763 68.5732C51.1463 63.8322 65.6093 71.6152 70.4723 82.6162C72.9523 88.2282 73.0233 89.3042 71.1803 93.4702C69.8043 96.5812 68.2213 98.1882 64.9253 99.8262C56.7053 103.908 48.8183 105.096 44.3333 102.927ZM239.155 102.277C236.806 100.7 238.81 97.6182 244.011 94.8092C251.458 90.7872 257.731 91.3902 254.94 95.8602C252.11 100.391 242.291 104.383 239.155 102.277ZM358.012 101.723C358.012 101.507 357.337 101.071 356.512 100.754C355.687 100.438 355.012 100.615 355.012 101.147C355.012 101.68 355.687 102.116 356.512 102.116C357.337 102.116 358.012 101.939 358.012 101.723ZM323.012 99.2842C323.012 98.3752 315.873 95.9212 315.197 96.5982C314.798 96.9962 320.695 99.8642 322.262 100.034C322.675 100.079 323.012 99.7422 323.012 99.2842ZM351.012 99.7152C351.012 98.9792 343.767 95.0272 343.292 95.5032C343.034 95.7612 344.553 96.8842 346.668 98.0002C350.939 100.253 351.012 100.282 351.012 99.7152ZM339.012 92.9592C333.793 89.7932 318.679 79.7762 317.379 78.6222C316.757 78.0692 314.282 76.0602 311.879 74.1582C300.314 65.0012 293.431 54.6592 289.556 40.6162C283.155 17.4192 276.621 7.38724 265.09 3.05322C260.359 1.27521 257.045 0.990234 239.09 0.816223L218.512 0.616211L212.161 3.93121C208.668 5.75522 205.997 7.4342 206.225 7.6622C206.454 7.8912 209.087 6.84122 212.076 5.32922C215.066 3.81723 218.862 2.3652 220.512 2.10321C227.973 0.91922 246.391 2.31921 260.91 5.17621C269.191 6.80521 274.817 11.7522 279.421 21.4562C283.986 31.0792 286.012 40.8702 286.012 53.3152V63.6192L290.762 66.1172C293.375 67.4912 299.337 70.8152 304.012 73.5032C308.687 76.1922 314.087 79.2732 316.012 80.3502C317.937 81.4282 323.337 84.6352 328.012 87.4772C340.064 94.8042 340.402 94.9942 341.512 95.0402C342.062 95.0632 340.937 94.1272 339.012 92.9592ZM342.012 87.2492C342.012 86.7722 340.123 85.1322 337.815 83.6042C331.635 79.5152 331.407 79.3202 322.499 70.4892C312.332 60.4112 305.409 49.9532 296.103 30.6162C288.366 14.5402 284.09 6.7052 283.418 7.3772C283.188 7.60721 284.024 9.78021 285.276 12.2052C286.529 14.6312 289.524 21.1162 291.932 26.6162C301.371 48.1722 306.533 57.6782 312.083 63.7252C318.866 71.1162 335.269 84.9262 336.173 84.0072C336.385 83.7922 337.646 84.6282 338.974 85.8662C341.643 88.3532 342.012 88.5202 342.012 87.2492ZM195.102 82.1842C207.34 77.9172 227.821 69.3742 232.919 66.4102C242.104 61.0702 251.091 49.8372 252.546 41.8812C253.882 34.5762 247.475 26.3932 236.259 21.0792C231.089 18.6292 228.731 18.1162 222.636 18.1162C214.355 18.1162 208.985 19.9822 200.262 25.8922C193.772 30.2882 194.007 31.3432 200.551 27.1932C209.528 21.5002 220.329 19.6792 227.457 22.6582C232.305 24.6832 239.957 31.7822 241.66 35.8342C245.392 44.7162 240.811 54.5832 228.878 63.3662C223.283 67.4842 208.541 74.5642 198.012 78.1902C182.417 83.5612 170.978 82.2762 167.884 74.8062C166.43 71.2982 168.094 63.5882 171.484 58.1162C174.901 52.6022 175.159 52.1162 174.667 52.1162C173.735 52.1162 164.295 67.6972 163.669 70.2682C162.483 75.1392 164.026 79.1132 168.307 82.2152C173.978 86.3232 183.262 86.3122 195.102 82.1842ZM123.295 77.4982C127.918 75.1782 143.012 64.4352 143.012 63.4652C143.012 63.2592 141.325 64.1312 139.262 65.4032C132.46 69.5952 123.623 72.9302 116.012 74.1772C109.537 75.2382 107.487 75.1742 101.012 73.7102C96.8873 72.7772 90.3623 70.4582 86.5123 68.5572C80.7402 65.7072 80.0153 65.5202 82.3802 67.4902C88.7162 72.7692 106.239 79.8692 113.295 80.0162C116.613 80.0852 119.677 79.3142 123.295 77.4982ZM196.58 70.5542C220.747 61.4582 233.022 47.1042 225.762 36.4322C220.952 29.3622 211.926 28.3762 201.726 33.8062C194.128 37.8512 183.147 49.2672 179.247 57.1762C175.46 64.8542 175.28 66.9162 178.085 70.4812C179.81 72.6752 180.962 73.1162 184.966 73.1162C187.688 73.1162 192.727 72.0042 196.58 70.5542ZM119.733 66.8892C122.636 66.2142 125.012 65.3612 125.012 64.9952C125.012 64.6282 123.325 64.7072 121.262 65.1692C116.173 66.3102 102.286 66.6092 98.1373 65.6682C95.7343 65.1232 94.9622 65.2262 95.4563 66.0252C95.8383 66.6432 96.4782 66.9462 96.8792 66.6982C97.2803 66.4512 98.2612 66.6612 99.0602 67.1672C101.153 68.4912 113.557 68.3242 119.733 66.8892ZM184.235 66.5592C179.099 62.9622 182.555 52.2952 191.347 44.6042C197.774 38.9822 202.366 36.7842 207.683 36.7832C216.768 36.7822 220.36 43.4332 215.633 51.5002C212.635 56.6152 207.624 60.8492 199.526 65.1092C193.166 68.4542 187.682 68.9742 184.235 66.5592ZM93.0123 64.1162C91.0543 62.8502 89.7303 62.8502 90.5123 64.1162C90.8522 64.6662 91.8913 65.1092 92.8213 65.1012C94.2783 65.0872 94.3053 64.9512 93.0123 64.1162ZM132.512 63.0442C134.712 61.9862 135.387 61.4002 134.012 61.7422C130.249 62.6772 125.301 64.9522 127.012 64.9602C127.837 64.9642 130.312 64.1022 132.512 63.0442ZM88.9293 62.7942C87.5742 61.7472 78.6353 56.9582 79.2153 57.5902C80.8873 59.4112 86.6313 63.0222 87.9293 63.0672C88.7083 63.0942 89.1582 62.9712 88.9293 62.7942ZM110.512 60.6132C108.222 59.8222 98.0263 59.5082 99.2193 60.2652C99.9303 60.7162 102.987 61.0572 106.012 61.0222C109.037 60.9872 111.062 60.8032 110.512 60.6132ZM164.512 58.1162C165.507 57.0162 165.91 56.1162 165.408 56.1162C164.905 56.1162 163.931 57.0162 163.244 58.1162C162.557 59.2162 162.154 60.1162 162.349 60.1162C162.543 60.1162 163.517 59.2162 164.512 58.1162ZM92.0123 57.7232C92.0123 57.5072 91.3142 57.0622 90.4603 56.7342C89.5703 56.3932 89.1693 56.5612 89.5193 57.1272C90.1063 58.0782 92.0123 58.5332 92.0123 57.7232ZM69.0123 39.7382C69.0123 39.5312 68.2253 38.7432 67.2623 37.9882C65.6763 36.7452 65.6413 36.7802 66.8843 38.3662C68.1913 40.0322 69.0123 40.5612 69.0123 39.7382ZM120.276 35.4122C119.046 35.1752 116.796 35.1692 115.276 35.3982C113.756 35.6282 114.762 35.8222 117.512 35.8302C120.262 35.8372 121.506 35.6492 120.276 35.4122ZM107.012 34.1162C103.593 33.0212 100.964 33.0212 103.512 34.1162C104.612 34.5892 106.412 34.9622 107.512 34.9462C109.12 34.9222 109.022 34.7602 107.012 34.1162ZM63.0123 32.8102C63.0123 32.6422 61.8873 30.9802 60.5123 29.1162C59.1373 27.2522 58.0123 26.0582 58.0123 26.4622C58.0123 26.8662 58.9973 28.5292 60.2003 30.1562C62.1993 32.8602 63.0123 33.6272 63.0123 32.8102ZM-17.9757 19.4252C-17.9647 12.4542 -17.6057 10.9722 -14.6317 5.61621L-11.2997 -0.383789L-5.98275 -0.691803L-0.666746 -0.999786L-2.27275 1.3082C-5.15574 5.4512 -15.9877 24.2832 -15.9877 25.1512C-15.9877 25.6172 -16.4377 26.2762 -16.9877 26.6162C-17.6217 27.0082 -17.9837 24.3792 -17.9757 19.4252ZM64.3573 24.5732C64.0313 23.7242 63.5503 23.2442 63.2883 23.5062C63.0263 23.7682 63.1083 24.4632 63.4713 25.0492C64.4573 26.6452 65.0333 26.3352 64.3573 24.5732ZM200.14 19.3662C201.383 17.7802 201.348 17.7452 199.762 18.9882C198.096 20.2952 197.567 21.1162 198.39 21.1162C198.597 21.1162 199.385 20.3282 200.14 19.3662ZM297.828 18.6122C297.201 17.2342 296.499 16.2962 296.269 16.5262C295.801 16.9932 297.829 21.1162 298.526 21.1162C298.77 21.1162 298.456 19.9892 297.828 18.6122ZM66.3573 17.5732C66.0313 16.7242 65.5503 16.2442 65.2883 16.5062C65.0263 16.7682 65.1083 17.4632 65.4713 18.0492C66.4573 19.6452 67.0333 19.3352 66.3573 17.5732ZM112.378 18.4622C108.211 17.8562 101.188 11.7142 98.8983 6.67221C95.4203 -0.984802 95.2632 -0.883789 110.703 -0.883789C123.069 -0.883789 124.206 -0.7388 122.453 0.616211C120.532 2.1012 120.532 2.13123 122.453 3.61621C125.996 6.35422 135.075 4.73621 137.068 1.0112C137.915 -0.570801 139.235 -0.883789 145.047 -0.883789C148.878 -0.883789 152.012 -0.50177 152.012 -0.033783C152.012 1.16721 146.742 8.1972 143.898 10.7912C138.922 15.3282 131.767 18.0172 123.443 18.4782C119.081 18.7202 114.102 18.7132 112.378 18.4622ZM295.374 13.6162C295.057 12.7912 294.341 12.1162 293.783 12.1162C293.197 12.1162 293.294 12.7512 294.012 13.6162C294.697 14.4412 295.413 15.1162 295.603 15.1162C295.793 15.1162 295.69 14.4412 295.374 13.6162ZM73.6302 7.45422C71.8483 4.16623 71.5543 4.78122 73.0403 8.69022C73.6053 10.1772 74.3163 11.1462 74.6183 10.8432C74.9213 10.5402 74.4762 9.01624 73.6302 7.45422ZM344.512 9.52222C337.551 7.86621 329.015 4.59421 324.012 1.66522L320.512 -0.383789L352.414 -0.647797C369.961 -0.793793 384.55 -0.678802 384.835 -0.393799C385.759 0.529205 380.641 5.25519 375.512 8.2132C370.878 10.8862 369.781 11.0922 360.512 11.0232C355.012 10.9832 347.812 10.3072 344.512 9.52222ZM62.0123 9.11621C62.0123 8.56622 61.5353 8.11621 60.9533 8.11621C60.3713 8.11621 60.1723 8.56622 60.5123 9.11621C60.8522 9.6662 61.3283 10.1162 61.5713 10.1162C61.8142 10.1162 62.0123 9.6662 62.0123 9.11621ZM66.8283 6.61221C66.2013 5.23422 65.4993 4.2962 65.2693 4.52621C64.8013 4.99323 66.8293 9.11621 67.5263 9.11621C67.7703 9.11621 67.4563 7.98923 66.8283 6.61221ZM298.012 5.6752C298.012 5.43219 297.562 4.95621 297.012 4.61621C296.462 4.27621 296.012 4.47522 296.012 5.05722C296.012 5.63922 296.462 6.11621 297.012 6.11621C297.562 6.11621 298.012 5.91821 298.012 5.6752ZM161.045 1.61621C162.402 -0.233795 162.381 -0.280792 160.762 0.98822C159.799 1.74323 159.012 2.83121 159.012 3.40521C159.012 3.97922 159.139 4.26221 159.295 4.0332C159.451 3.80319 160.238 2.71622 161.045 1.61621ZM-17.9877 1.11621C-17.9877 0.0162048 -17.5797 -0.883789 -17.0817 -0.883789C-16.5827 -0.883789 -16.4107 0.0162048 -16.6977 1.11621C-16.9857 2.21622 -17.3937 3.11621 -17.6047 3.11621C-17.8147 3.11621 -17.9877 2.21622 -17.9877 1.11621ZM288.012 1.11621C288.012 0.566223 287.535 0.116211 286.953 0.116211C286.371 0.116211 286.172 0.566223 286.512 1.11621C286.852 1.6662 287.328 2.11621 287.571 2.11621C287.814 2.11621 288.012 1.6662 288.012 1.11621Z" fill="white"/>
<defs>
<linearGradient id="paint0_linear_133_1629" x1="-59.85" y1="-15.75" x2="156.796" y2="385.14" gradientUnits="userSpaceOnUse">
<stop stop-color="#348ABB"/>
<stop offset="1" stop-color="#009FE3"/>
</linearGradient>
</defs>
</svg>
