<svg width="399" height="225" viewBox="0 0 399 225" fill="none" xmlns="http://www.w3.org/2000/svg">
<g clip-path="url(#clip0_133_1618)">
<rect width="399" height="225" fill="url(#paint0_linear_133_1618)"/>
<path fill-rule="evenodd" clip-rule="evenodd" d="M-1 -2.77806C-1 0.193771 -0.0992127 2.7187 2.09904 5.90265C3.80351 8.37197 5.19808 11.4046 5.19808 12.6413C5.19808 14.5535 4.73529 14.8212 2.09904 14.4361C-0.835751 14.0067 -1 14.1715 -1 17.5521C-1 24.4792 6.57405 26.4316 10.2764 20.458C14.114 14.2683 14.1667 10.9824 10.5005 6.434C8.72065 4.22624 7.2641 1.69719 7.2641 0.814705C7.2641 -1.8029 11.047 -1.03265 14.9435 2.37682C18.3328 5.34351 18.9165 5.50003 24.1497 4.8482C29.7187 4.15415 29.7476 4.16548 32.7051 8.09188C38.3888 15.6399 44.4443 20.3623 56.888 26.9495C67.3741 32.5009 70.3461 34.6396 75.1434 40.087C78.2951 43.6653 83.0222 47.7709 85.6481 49.2094C88.7037 50.8838 91.996 54.0245 94.7965 57.9365C97.818 62.1564 100.926 65.0355 104.839 67.2371C107.956 68.9897 111.405 71.4302 112.504 72.6597C113.603 73.8893 116.137 76.7488 118.136 79.0143C121.375 82.6843 122.258 83.1209 126.24 83.021C132.471 82.8634 138.457 80.1841 138.457 77.552C138.457 74.7182 134.015 64.9181 131.966 63.2314C131.053 62.4807 129.235 62.0174 127.925 62.2017C124.726 62.6537 124.283 66.4185 127.021 69.8887C129.453 72.9697 129.753 75.0271 127.868 75.7006C125.647 76.4935 123.048 74.4669 120.898 70.2656C119.257 67.06 117.378 65.4989 111.856 62.7536C105.729 59.7087 104.289 58.3958 99.9801 51.9259C96.5763 46.8153 93.8327 43.931 91.0125 42.4966C88.7771 41.3597 85.4053 38.495 83.5201 36.1297C77.7714 28.9215 74.9141 26.5737 69.6467 24.7315C62.7359 22.3136 49.6683 14.397 43.5745 8.93524C40.368 6.06124 37.6419 2.35726 36.0717 -1.2561C33.7134 -6.68593 33.4365 -6.93513 29.7321 -6.9516C26.6135 -6.96602 25.8583 -6.58913 25.8583 -5.01981C25.8583 -1.81525 22.7676 -1.53413 18.6696 -4.36592C15.4352 -6.59943 13.7721 -6.96911 6.95007 -6.96911H-1V-2.77806ZM56.8487 -6.01866C56.8487 -5.49555 60.1007 -2.91296 64.0747 -0.27888C74.3903 6.55757 79.575 11.9328 79.575 15.7923C79.575 17.5068 80.108 19.9216 80.7599 21.1593C82.9044 25.2278 92.1829 35.2966 96.5474 38.2901C99.1682 40.087 101.972 43.3636 103.773 46.7339C107.898 54.4508 112.367 58.9343 115.933 58.9343C118.276 58.9343 118.83 58.4771 118.83 56.5391C118.83 55.2221 117.62 53.0215 116.142 51.6479C114.663 50.2752 111.99 46.2551 110.202 42.7159C107.824 38.01 105.293 34.9599 100.784 31.3692C95.816 27.4129 93.7077 24.7191 89.9372 17.5099C84.5665 7.24132 81.3446 3.31286 73.3769 -2.68436C68.3937 -6.43467 67.028 -6.96087 62.272 -6.96499C59.2887 -6.96705 56.8487 -6.54177 56.8487 -6.01866ZM83.7721 -2.07784C86.2256 0.611846 90.0188 4.66697 92.2015 6.9324C94.3833 9.19783 96.4513 12.2098 96.7974 13.6257C97.9978 18.5407 100.463 22.1654 107.403 29.2232C111.887 33.7819 114.806 37.7299 115.568 40.2641C119.328 52.7775 136.391 63.3581 136.391 53.177C136.391 51.0898 135.479 50.1784 131.734 48.5267C126.781 46.3437 122.962 42.9435 122.962 40.7192C122.962 39.0902 127.262 38.9192 128.834 40.4865C129.45 41.1002 131.054 41.4483 132.398 41.2588C134.163 41.0096 134.929 40.1539 135.158 38.1819C135.58 34.5511 132.096 32.1611 126.385 32.1611C122.447 32.1611 121.294 31.5092 114.994 25.7252C106.355 17.7951 106.763 18.379 105.914 12.734C105.316 8.75504 104.13 6.95093 97.9007 0.546972L90.589 -6.96911H84.9508H79.3116L83.7721 -2.07784ZM103.928 -2.8038C107.03 0.289537 109.657 1.76618 114.128 2.92979C117.44 3.79169 120.666 5.07886 121.297 5.78938C121.929 6.50093 125.1 9.82906 128.346 13.186C133.064 18.068 134.533 20.423 135.684 24.9529C137.145 30.7019 140.131 33.6707 143.253 32.4772C146.276 31.3208 144.24 21.1037 139.756 14.9252C131.798 3.95541 121.105 -4.90963 115.833 -4.90963C114.707 -4.90963 113.499 -5.37301 113.148 -5.93937C112.797 -6.50572 109.639 -6.96911 106.13 -6.96911H99.7487L103.928 -2.8038ZM135.026 0.765278C140.634 6.92107 142.599 8.44406 144.655 8.2309C146.76 8.01156 147.298 7.32782 147.568 4.52486C147.846 1.63026 147.227 0.450176 143.651 -2.94076C139.761 -6.62929 138.921 -6.96911 133.691 -6.96911H127.979L135.026 0.765278ZM150.382 -4.85917C152.765 -2.23436 158.407 -2.43722 158.926 -5.16706C159.217 -6.69726 158.453 -6.96911 153.867 -6.96911C148.489 -6.96911 148.475 -6.95984 150.382 -4.85917ZM165.905 -5.35138C165.012 -4.46066 164.282 -3.3887 164.282 -2.96959C164.282 -1.39718 170.225 3.11927 178.081 7.51626C183.077 10.313 187.247 13.5176 188.928 15.851C190.429 17.9362 194.678 21.5032 198.372 23.7769C202.065 26.0506 209.735 31.4186 215.416 35.7065C221.098 39.9933 228.653 45.6991 232.206 48.3857C239.485 53.8906 242.503 58.7129 240.731 62.0112C239.245 64.7802 237.914 64.6216 235.223 61.3583C229.982 54.9997 219.533 45.9802 210.949 40.4041C207.724 38.3086 202.994 34.6705 200.438 32.3186C197.444 29.563 194.824 28.0421 193.075 28.0421C187.246 28.0421 186.687 33.9662 192.245 36.832C193.908 37.6887 196.781 40.0602 198.628 42.1001C200.476 44.14 204 46.6773 206.461 47.7369C208.922 48.7975 215.544 53.9154 221.177 59.1094C226.811 64.3044 233.941 70.1729 237.022 72.151C240.102 74.1292 243.233 76.8848 243.98 78.2739C244.726 79.664 247.738 82.3331 250.674 84.2052C253.61 86.0762 257.446 89.6875 259.2 92.2289C261.878 96.108 263.095 96.9657 266.794 97.5784C273.838 98.7451 276.519 100.712 281.902 108.665C287.827 117.417 288.634 118.15 293.341 119.041C297.659 119.859 300.352 122.157 302.222 126.619C302.998 128.471 304.122 129.986 304.719 129.986C306.368 129.986 309.937 126.078 309.937 124.271C309.937 119.274 302.871 111.962 296.978 110.86C294.228 110.345 291.975 108.577 287.452 103.384C279.403 94.1401 276.329 91.6368 270.807 89.8266C266.886 88.5404 265.934 87.7073 265.118 84.8519C264.297 81.982 263.068 80.9193 257.577 78.3326C248.315 73.9706 243.046 65.6585 247.308 62.1317C249.441 60.3677 251.57 61.6858 253.175 65.7636C254.788 69.864 259.023 73.3507 262.387 73.3507C263.616 73.3507 265.413 73.7739 266.381 74.2898C268.956 75.6635 290.664 97.0677 292.803 100.341C296.168 105.492 301.673 104.917 301.673 99.4155C301.673 95.6158 300.151 93.4893 294.446 89.3148C291.587 87.2223 288.061 83.4905 286.608 81.0212C285.157 78.5519 281.702 74.9066 278.93 72.9223C274.996 70.1049 273.736 68.4944 273.187 65.5792C271.913 58.8025 277.218 56.6071 280.15 62.698C280.908 64.2735 283.37 66.5925 285.619 67.8498C288.941 69.7064 290.034 71.1295 291.439 75.4236C292.389 78.3326 294.078 81.3466 295.191 82.1241C296.303 82.9005 299.665 85.4687 302.662 87.8299C308.036 92.0642 308.101 92.1816 307.387 96.3809C305.42 107.956 305.16 106.776 311.027 112.96C314.482 116.602 319.459 120.279 324.684 123.051C333.719 127.844 346.632 139.508 347.73 143.868C349.344 150.283 345.623 151.346 341.364 145.69C336.907 139.772 331.097 134.402 326.767 132.198C324.612 131.103 321.964 129.23 320.882 128.036C317.164 123.939 313.036 125.916 313.036 131.796C313.036 135.087 313.393 135.415 320.525 138.657C329.746 142.848 335.552 148.82 339.961 158.651C341.761 162.663 344.131 166.27 345.397 166.926C349.749 169.181 358.032 171.153 363.189 171.165C366.057 171.171 368.963 171.732 369.645 172.412C370.327 173.091 370.885 176.103 370.885 179.105C370.885 184.144 371.071 184.563 373.307 184.563C374.64 184.563 376.571 183.636 377.599 182.503C381.232 178.502 384.314 180.336 384.314 186.501C384.314 191.296 388.751 193.582 391.545 190.226C393.242 188.187 397.641 188.247 398.438 190.32C399.218 192.346 396.188 198.936 394.402 199.098C391.451 199.365 388.795 198.691 385.863 196.927C378.868 192.72 375.229 190.951 372.213 190.291C368.324 189.44 366.419 187.423 364.16 181.77C362.336 177.204 361.79 176.872 354.356 175.813C351.8 175.45 348.235 174.697 346.433 174.141C342.531 172.936 335.686 165.821 333.922 161.136C333.23 159.296 332.161 156.445 331.548 154.802C329.968 150.576 326.847 148.08 320.015 145.579C312.138 142.696 307.296 139.544 299.341 132.127C295.277 128.337 290.775 125.238 287.654 124.083C283.053 122.381 282.208 121.53 278.65 115.025C273.93 106.394 271.674 103.928 269.322 104.828C266.534 105.895 267.253 110.598 271.447 118.726C275.565 126.708 281.334 132.046 285.839 132.046C287.463 132.046 291.07 134.637 296.523 139.721C306.079 148.629 311.741 152.131 318.116 153.074C322.123 153.667 325.299 155.81 325.399 157.988C325.418 158.379 323.456 158.843 321.042 159.018C317.132 159.299 316.651 159.616 316.651 161.908C316.651 164.06 317.415 164.719 321.3 165.921C328.83 168.252 330.878 169.462 332.592 172.593C336.445 179.634 338.62 181.301 344.834 181.973C354.542 183.023 355.051 183.271 358.322 188.57C360.599 192.259 362.635 194.127 365.901 195.52C368.358 196.57 375.342 199.862 381.421 202.837C387.502 205.812 393.568 208.247 394.902 208.247C399.233 208.247 399.809 206.544 399.809 193.739V181.703L396.223 181.033C394.252 180.663 391.347 179.284 389.767 177.966C388.189 176.649 384.48 174.094 381.527 172.288C376.909 169.466 375.848 168.184 373.958 163.14C371.195 155.765 369.733 154.167 363.786 152.016C357.959 149.908 355.389 147.212 355.389 143.208C355.389 138.529 353.141 135.189 344.372 126.84C338.862 121.593 334.63 118.515 331.114 117.196C320.153 113.085 313.695 106.287 314.259 99.4546C314.753 93.479 317.51 93.6345 320.242 99.7924C323.399 106.908 325.896 109.068 333.852 111.572C340.037 113.517 341.533 114.517 345.819 119.574C351.516 126.294 351.585 126.365 356.717 130.759C359.446 133.095 361.672 134.105 364.092 134.105C368.23 134.105 372.535 137.194 371.64 139.52C371.17 140.741 370.046 141.006 367.035 140.603C364.313 140.239 362.665 140.534 361.832 141.534C359.76 144.023 362.966 147.263 368.285 148.058C373.58 148.849 374.255 149.506 379.149 158.611C382.991 165.76 391.477 173.48 396.968 174.823C399.706 175.493 399.809 175.37 399.809 171.453C399.809 168.151 399.339 167.175 397.307 166.251C392.936 164.267 390.546 161.626 384.524 152.134C379.602 144.378 378.632 142.077 378.552 137.964C378.422 131.316 375.708 128.533 367.851 126.992C360.85 125.619 356.158 121.723 351.721 113.597C349.612 109.734 347.942 108.088 344.906 106.877C342.695 105.995 340.179 105.273 339.316 105.273C335.298 105.273 329.523 101.003 327.102 96.246C324.134 90.4104 322.01 88.4199 317.068 86.8393C309.466 84.4101 298.574 75.8756 298.574 72.3498C298.574 70.3747 301.673 67.7335 307.416 64.8111C310.383 63.3015 311.039 63.3622 318.12 65.8078C324.805 68.1155 325.839 68.237 327.204 66.8777C328.122 65.9613 328.478 64.5093 328.087 63.2788C327.405 61.139 325.716 60.309 316.135 57.401C312.98 56.4434 308.98 54.2696 307.142 52.5129C305.319 50.7736 302.193 48.3784 300.194 47.1912C298.194 46.0039 293.874 43.2153 290.593 40.9942C276.887 31.7131 273.688 29.8905 268.903 28.6321C261.985 26.8136 259.319 25.2257 259.319 22.9263C259.319 19.522 262.866 19.6147 271.845 23.2507C280.938 26.9341 300.368 39.0994 309.854 47.049C314.977 51.3431 317.024 52.2667 325.779 54.2387C330.424 55.2859 333.696 59.235 333.696 63.7947C333.696 71.0636 341.641 82.0685 349.798 86.0989C352.688 87.5271 355.676 89.4445 356.437 90.3589C358.742 93.1269 363.155 94.9001 369.505 95.6116C372.821 95.9834 376.342 96.7011 377.331 97.2067C378.32 97.7123 381.201 101.709 383.735 106.086C387.636 112.829 389.218 114.549 394.075 117.329L399.809 120.613V116.205C399.809 112.569 399.362 111.56 397.249 110.434C393.925 108.661 392.164 106.246 387.01 96.3963L382.764 88.2819H374.963H367.162L357.214 81.6C346.083 74.123 342.572 69.7703 341.565 62.1996C341.018 58.093 340.075 56.4042 336.13 52.4717C332.104 48.4588 330.284 47.4702 324.52 46.1624C319.373 44.9957 317.111 43.9011 315.365 41.7335C310.517 35.7147 314.263 31.4279 319.381 37.1378C322.487 40.6029 326.14 41.4122 327.125 38.8523C327.453 38.0017 326.96 35.4109 326.031 33.095C325.012 30.5567 324.582 27.5931 324.948 25.6315C325.394 23.2445 324.82 21.0079 322.791 17.2298C320.721 13.3745 320.055 10.7218 320.142 6.66981C320.248 1.66527 319.948 0.950631 316.13 -2.85529C312.102 -6.87025 311.829 -6.96911 304.772 -6.96911C297.238 -6.96911 296.081 -6.31316 299.671 -4.07862C301.146 -3.1601 301.702 -1.89763 301.479 0.0300422C300.963 4.4847 297.509 4.16651 293.057 -0.743293C290.978 -3.03859 289.277 -5.37713 289.277 -5.94246C289.277 -6.50675 287.599 -6.96911 285.55 -6.96911C282.002 -6.96911 281.855 -6.83215 282.519 -4.13732C282.902 -2.57932 285.216 1.24308 287.66 4.35804C294.742 13.3837 302.516 13.8327 306.8 5.46296C308.253 2.62293 309.397 1.52214 310.466 1.93094C312.738 2.80005 313.464 7.02096 311.962 10.6364C310.029 15.2887 306.639 17.1083 301.273 16.3751C292.406 15.1641 290.859 21.5753 299.462 23.884C301.636 24.4679 304.416 25.8117 305.643 26.8713C308.174 29.0605 308.592 32.6945 306.409 33.5296C304.627 34.2113 294.235 28.1348 289.277 23.5133C287.288 21.6598 283.569 19.5663 281.013 18.8619C278.456 18.1576 274.505 16.3731 272.232 14.8964C269.883 13.3703 266.724 12.2489 264.911 12.2973C258.541 12.4673 250.022 18.5242 250.022 22.8831C250.022 23.7584 251.172 26.1607 252.577 28.2223C255.152 31.9994 258.862 33.891 268.434 36.3037C271.951 37.1903 273.185 38.1088 274.25 40.6348C276.054 44.9103 274.72 49.4277 270.631 52.8949C268.518 54.6856 267 57.2878 266.166 60.549C264.823 65.7955 263.877 66.7027 261.385 65.1334C260.318 64.4609 259.894 62.6599 260.021 59.3431C260.179 55.217 260.808 53.9164 264.411 50.2557C269.374 45.2151 269.78 42.7355 265.776 41.9168C257.837 40.2919 255.243 38.9872 249.622 33.7932C243.631 28.2552 243.548 28.1039 244.067 23.5143C244.482 19.8443 244.19 18.4912 242.686 17.1351C241.062 15.6698 240.318 15.6038 237.687 16.6892C235.988 17.3915 232.424 18.032 229.767 18.1123C224.239 18.2812 221.818 20.5332 223.796 23.6657C224.422 24.6573 225.582 25.5532 226.373 25.6562C235.01 26.7899 235.412 27.0062 237.82 31.813C239.325 34.8178 242.369 38.2128 246.17 41.1291C252.925 46.3097 255.522 49.6584 254.614 52.0165C253.209 55.6659 250.737 54.8864 244.435 48.8048C231.948 36.7547 229.135 34.443 223.513 31.6071C220.372 30.0233 217.54 28.0493 217.222 27.2224C216.904 26.3955 217.226 23.4494 217.94 20.6764C219.036 16.4101 219 15.2815 217.703 13.3425C215.118 9.47586 212.614 7.05906 204.828 0.91356C200.708 -2.33733 197.339 -5.44097 197.339 -5.98365C197.339 -6.52735 193.753 -6.96396 189.333 -6.95675L181.327 -6.94439L185.975 -4.31855C188.532 -2.87486 193.181 0.748801 196.305 3.73402C199.43 6.71924 203.987 10.6879 206.432 12.5527C209.608 14.9757 210.787 16.5697 210.563 18.1319C210.14 21.0841 205.7 20.7824 202.26 17.5686C200.849 16.2495 197.188 12.7741 194.126 9.8445C189.353 5.28069 170.527 -6.96911 168.283 -6.96911C167.868 -6.96911 166.798 -6.24108 165.905 -5.35138ZM207.739 -4.61924C209.197 -3.36295 211.783 -1.17681 213.482 0.23908C215.183 1.65497 217.842 4.50221 219.392 6.56684C223.683 12.2819 226.767 13.1469 234.079 10.6858C239.452 8.87758 240.446 8.8127 242.958 10.1081C246.842 12.1099 250.987 11.9359 256.411 9.54382C264.915 5.79453 266.263 2.02053 261.333 -4.22794C259.332 -6.76419 258.586 -6.96911 251.37 -6.96911C244.566 -6.96911 243.734 -6.77243 244.853 -5.42964C245.559 -4.58217 247.915 -3.35781 250.09 -2.70804C254.662 -1.3426 256.125 1.12775 253.496 3.04409C249.484 5.96856 242.571 3.04924 238.433 -3.31765C236.349 -6.52323 235.568 -6.94542 231.686 -6.95675C226.613 -6.97117 226.264 -6.17518 229.943 -2.98607C233.124 -0.229453 233.029 3.68871 229.77 4.1521C228.213 4.37452 226.192 2.84021 222.646 -1.25404L217.697 -6.96911L211.392 -6.93616L205.086 -6.90423L207.739 -4.61924ZM267.512 -5.22885C268.094 -4.20322 269.046 -1.45587 269.629 0.87649C270.997 6.35368 273.99 10.0752 279.123 12.6856C282.349 14.327 283.553 14.5154 284.707 13.5608C286.956 11.6991 286.528 10.4551 282.08 5.93664C279.826 3.64752 277.34 -0.0770507 276.558 -2.34042C275.234 -6.16797 274.833 -6.47689 270.795 -6.77346C266.866 -7.06178 266.556 -6.91556 267.512 -5.22885ZM322.908 -4.45036C323.858 -3.00563 326.664 -1.23551 329.488 -0.301534C332.78 0.788961 335.773 2.83815 338.518 5.88412C341.692 9.4048 343.136 10.3069 344.874 9.85274C350.298 8.43994 345.554 -2.35484 338.157 -5.43685C336.133 -6.27918 331.501 -6.96911 327.865 -6.96911H321.253L322.908 -4.45036ZM347.125 -6.48307C347.125 -5.88685 356.553 -3.25483 361.861 -2.37028C364.71 -1.89454 367.56 -0.033802 372.517 4.58871C379.84 11.4169 381.588 14.086 382.683 20.111C383.207 22.9994 384.256 24.5461 386.694 26.0279C390.676 28.4478 392.748 28.5395 396.762 26.4707C399.688 24.9621 399.809 24.6192 399.809 17.8188C399.809 10.8022 399.779 10.728 396.556 9.60766C394.767 8.9857 391.885 8.47701 390.151 8.47701C387.564 8.47701 385.697 7.09304 379.717 0.738504L372.434 -7L359.78 -6.98455C352.819 -6.97632 347.125 -6.7508 347.125 -6.48307ZM385.381 -2.30026C392.294 4.72051 399.809 5.98092 399.809 0.1186C399.809 -1.70301 399.265 -2.85014 398.399 -2.85014C397.623 -2.85014 395.807 -3.77691 394.362 -4.90963C392.486 -6.38113 390.171 -6.96911 386.26 -6.96911H380.785L385.381 -2.30026ZM43.8162 -2.395C42.2791 1.59834 44.7542 4.01102 60.9219 14.2837C70.1849 20.1687 72.7354 20.5682 73.1631 16.2001C73.4441 13.3425 72.7799 12.667 64.2999 7.18468C59.2577 3.92452 54.0431 0.102124 52.7115 -1.31068C50.0184 -4.16821 44.7459 -4.81077 43.8162 -2.395ZM352.302 2.80005C351.6 3.64237 351.304 5.05415 351.644 5.93561C352.886 9.16385 364.615 12.1202 366.178 9.59943C367.295 7.79841 365.432 5.28378 361.502 3.28402C356.762 0.874429 354.025 0.730266 352.302 2.80005ZM155.414 4.60621C149.685 11.2192 148.567 13.6875 149.305 18.0948C149.7 20.4508 150.094 25.6222 150.179 29.5867C150.325 36.2749 150.508 36.8196 152.717 37.1316C158.133 37.8967 160.319 33.0971 158.47 24.5101C156.593 15.7995 156.715 13.877 159.228 12.5373C162.602 10.7363 163.666 12.7134 164.355 22.0655C164.904 29.5053 165.282 30.6947 167.784 32.8396C175.708 39.6349 187.748 30.9254 184.858 20.4889C183.867 16.9116 180.936 14.8501 178.754 16.1939C178.18 16.5471 177.711 18.9093 177.711 21.4414C177.711 24.6028 177.222 26.2349 176.148 26.6447C173.086 27.8166 171.513 25.0054 171.513 18.3625C171.513 11.2614 170.222 8.70561 165.058 5.58961C159.466 2.21515 157.646 2.0298 155.414 4.60621ZM326.379 7.0364C325.216 8.43273 325.423 9.4913 327.742 13.9872C329.655 17.6973 330.625 21.4559 330.972 26.5057C331.639 36.2141 333.535 41.2032 338.956 47.5165C342.794 51.9856 343.996 52.7734 346.609 52.5304C351.644 52.0608 351.357 48.3362 345.883 43.1072C339.178 36.7043 334.518 22.8543 339.087 22.9088C341.631 22.9397 342.856 24.5101 345.11 30.6298C347.972 38.4033 351.191 41.8715 359.005 45.6012C362.414 47.2292 366.46 49.5791 367.996 50.8241C370.32 52.7064 371.057 52.865 372.387 51.7653C376.951 47.9902 370.658 39.8954 361.588 37.8699C357.44 36.9442 354.621 33.8848 350.486 25.8199C347.239 19.488 345.877 17.8919 342.11 15.9972C339.636 14.7523 335.872 11.8566 333.747 9.56133C329.488 4.9625 328.412 4.59385 326.379 7.0364ZM112.89 9.1587C109.992 10.3244 111.652 14.7543 117.081 20.3407C121.47 24.8581 123.22 25.9826 125.861 25.9826C131.201 25.9826 130.185 22.5422 122.618 14.9984C116.165 8.56763 115.441 8.13307 112.89 9.1587ZM21.4577 11.8237C19.3431 13.427 13.4622 24.5389 13.4622 26.93C13.4622 30.0254 20.0074 37.4086 25.0102 39.9572C27.6692 41.3113 30.1113 42.8498 30.4367 43.376C31.4831 45.0627 29.8375 47.6061 27.286 48.2446C23.8212 49.1116 18.6469 45.5755 14.1305 39.2549C13.4787 38.3426 9.80841 35.4109 5.97284 32.7398L-1 27.8825V33.6737C-1 39.1612 -0.823355 39.5567 2.35729 41.2197C4.20432 42.1835 7.6897 44.9504 10.1049 47.3683C14.176 51.4419 14.4952 52.1638 14.4952 57.2816C14.4952 66.5215 19.8948 68.0063 22.3079 59.4317C24.6776 51.0135 31.7806 53.2666 39.6821 64.9429C45.1932 73.0871 48.347 75.8313 51.0215 74.8088C53.9449 73.6905 52.8913 69.8743 47.8099 63.1748C37.6998 49.8469 38.0386 50.474 38.6109 46.1192C39.3392 40.5823 38.2214 38.9646 30.0648 33.753C22.7417 29.0739 20.3493 25.2741 22.8409 22.2797C24.7633 19.971 26.5866 20.5723 29.5999 24.5111C32.9086 28.835 39.3423 33.4256 47.8532 37.5353C53.7538 40.3856 64.2296 49.1868 66.2915 53.0277C67.7997 55.8369 66.3958 58.9343 63.615 58.9343C61.8144 58.9343 60.1668 57.3176 56.951 52.3975C52.6681 45.8442 48.9328 43.0248 46.0145 44.1411C42.9144 45.3263 44.4929 49.4391 51.1434 57.5092C56.9975 64.6133 57.8363 66.1683 57.858 69.9556C57.8714 72.3364 58.3766 75.3659 58.9809 76.6881C61.3785 81.9336 75.2219 88.7587 83.517 88.7855C88.4507 88.802 90.463 90.2137 94.4876 96.4859C98.5194 102.769 107.394 109.392 111.782 109.392C117.964 109.392 116.743 103.615 109.639 99.2569C106.854 97.5486 103.714 94.8908 102.663 93.3503C100.83 90.6648 90.62 79.4869 82.3724 71.1378C78.4108 67.1269 75.7467 66.2517 73.7034 68.2885C71.8078 70.1781 73.4616 73.3785 77.7166 76.0558C82.0129 78.7589 82.4179 80.8596 78.7465 81.3991C75.6351 81.8564 67.6127 76.0733 66.3504 72.4641C65.5126 70.0668 65.6862 68.8373 67.2181 66.3258C71.1622 59.8611 76.7549 59.2865 83.3424 64.6669C86.5262 67.267 88.4434 68.1495 89.9051 67.6871C94.9752 66.0828 89.6376 58.0096 80.9861 54.1954C77.7435 52.7662 74.4513 50.3071 72.6859 47.9964C65.8618 39.0613 61.1791 35.4377 48.5846 29.3447C44.0476 27.1503 39.3257 23.574 34.0233 18.3162C26.0133 10.3748 24.439 9.56133 21.4577 11.8237ZM366.753 14.1818C366.753 15.6203 367.725 18.6962 368.913 21.0172C370.1 23.3372 371.746 27.8166 372.571 30.9707C373.394 34.1237 375.443 38.9326 377.125 41.6563C380.599 47.2849 380.804 48.9613 378.645 54.1131C377.27 57.3918 377.278 57.952 378.718 59.3874C381.138 61.8001 382.89 61.3501 385.485 57.6471C388.757 52.9773 389.364 52.7044 394.902 53.419L399.809 54.0513V50.3957V46.7412L393.123 46.0275C386.15 45.283 383.833 43.8754 384.923 41.0446C385.66 39.1303 391.09 38.7926 396.459 40.3269L399.809 41.2846V36.6229V31.9603L394.386 32.2239C381.038 32.8736 380.216 32.3691 377.006 21.564C374.356 12.6392 373.574 11.5662 369.726 11.5662C367.231 11.5662 366.753 11.9864 366.753 14.1818ZM351.946 14.3126C351.567 14.6894 351.257 15.5441 351.257 16.2104C351.257 17.5562 359.421 30.1788 361.064 31.3733C362.82 32.6502 365.753 32.2445 366.371 30.637C367.122 28.6846 363.094 20.1316 359.691 16.4575C357.229 13.7987 353.498 12.7659 351.946 14.3126ZM395.72 16.2516C397.574 18.4779 394.749 21.3323 391.661 20.3551C389.576 19.696 388.711 16.7932 390.168 15.3423C391.389 14.1251 394.354 14.6101 395.72 16.2516ZM318.003 23.0623C318.237 25.0867 317.766 25.9816 316.204 26.4758C313.4 27.3625 312.003 26.3801 312.003 23.5195C312.003 20.5445 312.925 19.6404 315.576 20.0183C316.992 20.2202 317.789 21.219 318.003 23.0623ZM161.616 39.4465C157.615 40.6049 154.732 43.6911 155.583 45.904C155.94 46.8307 158.043 48.1292 160.256 48.7903C163.364 49.7181 164.282 50.5141 164.282 52.2781C164.282 53.5344 163.538 55.1789 162.628 55.9306C161.229 57.089 160.244 56.9109 156.205 54.77C152.01 52.5458 151.139 51.4646 148.987 45.8051C146.792 40.0314 146.244 39.3692 143.658 39.3692C139.572 39.3692 137.623 41.9281 139.477 44.8588C144.294 52.4758 144.243 52.1844 141.731 57.5514C138.78 63.8596 139.617 69.4974 143.988 72.7452C146.877 74.8912 146.885 74.8912 148.397 72.8358C149.368 71.5147 149.652 69.8527 149.187 68.202C148.787 66.7861 148.418 64.4692 148.365 63.0533C148.286 60.9083 148.694 60.5263 150.807 60.7621C153.621 61.0751 154.716 62.3088 155.588 66.1425C155.911 67.5584 157.345 72.3755 158.776 76.8467C161.876 86.5324 161.198 89.8266 156.101 89.8266C152.075 89.8266 151.35 88.389 152.944 83.5719C154.01 80.355 154.01 79.2944 152.947 78.0175C150.718 75.3401 148.288 76.2474 144.916 81.0151C142.342 84.6552 140.876 85.7261 137.745 86.2544C130.515 87.4715 130.05 87.7526 130.391 90.6874C130.704 93.3884 130.817 93.4265 137.679 93.1506C143.127 92.9322 145.583 93.3462 148.928 95.0473C152.168 96.6949 154.24 97.0677 157.454 96.5816C170.887 94.55 169.559 94.2874 176.136 100.279C182.327 105.919 184.942 110.346 184.942 115.182C184.942 118.7 191.689 125.307 196.202 126.207C197.978 126.562 200.341 127.904 201.454 129.191C211.161 140.418 211.445 140.612 217.17 139.937C222.94 139.255 225.23 140.275 225.23 143.522C225.23 144.598 227.023 147.437 229.214 149.832C233.247 154.238 233.731 156.76 230.541 156.76C229.579 156.76 223.971 153.495 218.077 149.505C212.183 145.516 206.617 142.392 205.707 142.564C204.798 142.736 203.915 144.058 203.745 145.503C203.511 147.505 204.698 149.385 208.747 153.421C214.621 159.276 221.572 162.212 233.317 163.797C238.797 164.536 240.436 165.259 243.452 168.266C247.219 172.02 252.083 183.394 252.094 188.471C252.105 193.794 254.163 198.598 258.709 203.906C263.918 209.989 264.74 212.687 264.891 224.208L265.001 232.446L270.556 232.762C275.562 233.046 275.955 232.92 274.519 231.489C272.77 229.746 270.318 219.965 271.253 218.458C273.214 215.293 277.914 219.671 277.914 224.664C277.914 225.712 279.557 228.006 281.565 229.764C284.76 232.561 285.973 232.961 291.264 232.961C295.475 232.961 297.276 232.569 297.195 231.673C297.132 230.966 297.466 227.901 297.939 224.865C298.952 218.362 297.58 214.87 293.722 214.135C290.638 213.547 289.039 216.703 290.483 220.523C291.698 223.734 290.894 225.752 288.402 225.752C287.155 225.752 286.002 224.615 285.27 222.663C284.633 220.964 283.582 218.162 282.933 216.436C282.269 214.666 280.355 212.594 278.543 211.683C276.776 210.794 271.961 206.626 267.842 202.42C260.777 195.208 258.952 191.726 261.432 190.197C262.813 189.347 272.821 197.014 276.353 201.63C277.838 203.571 280.54 205.927 282.358 206.865C286.537 209.022 296.155 209.014 300.355 206.849C304.869 204.522 309.937 200.059 309.937 198.411C309.937 197.633 307.032 195.065 303.481 192.704C299.93 190.343 294.456 185.925 291.317 182.887C286.695 178.413 284.436 177.058 279.437 175.76C272.483 173.955 264.852 169.933 262.183 166.667C261.201 165.466 260.387 163.178 260.375 161.583C260.345 157.748 259.031 155.453 252.387 147.629C249.324 144.023 246.964 140.316 247.143 139.391C247.823 135.873 251.407 137.842 257.164 144.897C262.373 151.279 263.545 152.173 267.627 152.867C270.156 153.298 274.083 154.391 276.356 155.297C279.39 156.507 282.14 156.769 286.711 156.281C292.168 155.698 293.378 155.914 296.528 158.028C298.506 159.356 301.053 162.029 302.189 163.969C306.159 170.75 314.193 177.762 320.383 179.849C327.036 182.092 329.866 181.552 329.378 178.131C329.127 176.369 327.106 174.881 320.988 171.957C313.426 168.34 312.781 167.769 310.521 162.689C307.784 156.537 305.574 154.269 298.737 150.593C295.59 148.902 292.853 146.308 290.826 143.1C288.321 139.135 287.232 138.247 285.145 138.467C282.397 138.757 282.164 139.88 283.579 146.057C284.156 148.578 283.93 149.4 282.512 149.943C279.284 151.177 276.882 147.76 276.875 141.926C276.871 137.374 276.33 135.999 272.785 131.531C265.762 122.682 263.515 118.306 262.611 111.717C261.576 104.171 257.491 98.2406 249.196 92.2413C246.186 90.0634 241.943 86.1823 239.77 83.6152C237.596 81.049 231.358 75.7974 225.906 71.9461C220.456 68.0949 215.02 63.3673 213.825 61.4428C211.178 57.1714 207.239 54.283 202.737 53.3119C198.888 52.4809 193.206 48.1272 193.206 46.008C193.206 43.9063 185.936 39.3692 182.568 39.3692C178.612 39.3692 175.645 41.0951 175.645 43.3986C175.645 45.9627 177.603 47.4043 182.44 48.4001C186.468 49.228 186.495 49.2671 187.008 54.8565L187.525 60.4789L194.239 60.5407C202.309 60.6159 204.967 61.8948 207.555 66.9488C209.92 71.5661 211.266 72.7545 220.581 78.4469C228.728 83.4246 234.04 88.0513 236.093 91.954C236.857 93.407 239.491 95.9298 241.944 97.5609C251.114 103.654 256.22 109.71 256.22 114.489C256.22 117.979 252.579 116.984 248.664 112.424C246.692 110.128 242.589 106.403 239.544 104.146C236.501 101.89 232.383 97.6783 230.395 94.7858C227.894 91.1498 225.027 88.5898 221.098 86.483C209.119 80.0615 204.596 76.5491 202.916 72.3621C201.192 68.0661 199.957 67.4894 191.411 66.992C186.434 66.7017 184.613 67.9548 185.113 71.3252C185.487 73.8419 187.019 74.9674 191.275 75.8519C192.769 76.1629 196.488 78.7352 199.539 81.5691C202.59 84.4019 206.365 87.8525 207.927 89.2375C210.265 91.3083 210.768 92.612 210.768 96.5919C210.768 107.262 212.503 109.92 229.052 124.601C236.553 131.255 237.68 132.731 239.18 137.874C241.104 144.475 242.297 146.558 249.197 155.361C254.369 161.96 255.198 164.378 252.624 165.362C250.383 166.22 243.132 158.037 237.395 148.174C234.706 143.551 232.496 139.213 232.484 138.532C232.471 137.853 229.12 133.541 225.038 128.954L217.616 120.611L209.801 121.24C198.51 122.148 194.981 119.614 192.164 108.574C190.894 103.592 185.122 97.4487 175.48 90.811C169.977 87.0226 169.476 86.3162 166.958 78.7785C163.758 69.1998 163.492 63.0564 166.171 60.6385C170.486 56.7461 173.492 59.9898 171.669 66.5709C169.639 73.8975 173.767 82.6369 181.633 87.6672C191.833 94.1906 195.298 98.2128 198.232 106.926C200.515 113.708 201.415 115.175 203.811 116.011C206.017 116.781 207.037 116.64 208.29 115.392C209.764 113.922 209.715 113.39 207.753 109.557C206.566 107.238 205.104 103.057 204.503 100.264C203.198 94.1937 196.875 87.2079 188.343 82.4073C179.082 77.1978 177.503 73.8903 179.938 64.809C181.626 58.5183 180.587 55.6484 175.613 52.8619C171.33 50.4616 169.447 47.4331 169.447 42.9424C169.447 40.9489 166.626 38.0048 165.125 38.4322C164.945 38.4837 163.366 38.9398 161.616 39.4465ZM287.996 48.5679C290.032 51.4821 292.274 53.1451 295.991 54.4972C302.436 56.8429 303.594 60.1247 298.591 61.8629C294.432 63.3087 291.46 62.1409 286.368 57.0643C282.168 52.8784 280.69 48.9551 282.259 46.1604C283.675 43.6396 284.913 44.1586 287.996 48.5679ZM-1 53.0648C-1 55.5001 -0.613653 57.9324 -0.141566 58.4709C0.331554 59.0095 1.30155 61.5344 2.01433 64.083C3.81797 70.5313 5.40262 72.6762 11.9013 77.4614C15.0158 79.7546 18.2626 82.9788 19.1179 84.6274C19.9722 86.275 22.7107 89.0841 25.2034 90.8676C30.9573 94.9866 32.5192 98.1798 31.011 102.737C29.9284 106.006 27.5824 107.879 25.8821 106.832C25.4296 106.554 24.7458 104.656 24.3615 102.616C23.6084 98.6164 15.0468 88.8184 3.20436 78.4067L-1 74.7089V80.4796C-1 85.4749 -0.68803 86.3852 1.32428 87.2656C2.60315 87.8247 4.75801 90.3754 6.11436 92.9333C7.46967 95.4911 10.608 99.1375 13.0872 101.034C15.5654 102.931 17.5942 105.032 17.5942 105.702C17.5942 107.494 15.3805 109.392 13.2917 109.392C10.671 109.392 4.3851 103.562 2.01743 98.9346C0.90281 96.7567 -0.232471 94.9753 -0.504154 94.9753C-0.776869 94.9753 -0.978307 98.1026 -0.952481 101.926C-0.904963 108.772 -0.842982 108.923 3.12792 111.966C8.27232 115.907 10.3631 120.193 10.3631 126.795C10.3631 130.673 10.9034 132.584 12.4292 134.105C14.9063 136.575 15.8887 136.668 17.6097 134.602C18.8473 133.116 18.6272 128.011 17.0106 120.719C16.68 119.227 17.0819 117.279 17.9682 116.085C19.2605 114.342 20.5042 114.067 26.0763 114.296C33.5863 114.606 35.9674 113.421 36.7763 108.973C38.0975 101.707 41.3081 100.482 49.1363 104.26C52.2787 105.776 54.2011 107.732 56.262 111.505C61.4518 121.01 66.337 123.696 71.8687 120.082C75.2209 117.892 77.509 119.647 77.509 124.407C77.509 127.522 77.8943 127.96 81.6214 129.072C86.4311 130.509 88.1118 133.696 85.1853 135.829C82.485 137.798 81.3539 137.56 77.0007 134.113C74.8614 132.417 70.3833 130.039 67.0518 128.828C60.7731 126.546 56.3539 122.502 50.3562 113.555C47.9917 110.028 46.9783 109.32 44.6747 109.584C38.2762 110.319 41.7141 117.779 54.3023 130.474C56.6814 132.873 60.2825 135.218 62.6914 135.937C65.0126 136.63 70.0537 138.935 73.8945 141.057C85.2556 147.339 91.7997 154.94 88.3236 157.816C87.2792 158.68 86.021 158.111 83.0067 155.41C76.8603 149.902 66.5084 143.631 60.6378 141.859C54.5647 140.026 48.0877 134.693 44.0621 128.21C40.3618 122.252 37.2504 120.461 30.3519 120.321C25.9751 120.232 24.3099 120.624 23.4555 121.945C21.6943 124.671 25.252 127.927 29.9904 127.927C36.6895 127.927 38.7431 132.284 35.5893 139.807C34.3352 142.8 34.1452 145.151 34.7691 149.973C35.2154 153.422 35.6379 157.172 35.7081 158.304C35.7784 159.437 35.9147 160.924 36.0118 161.61C36.1089 162.295 38.0345 163.407 40.2916 164.081C43.6633 165.088 44.6065 165.967 45.5868 169.014C47.1095 173.746 48.8708 175.714 55.5327 180.126C58.5015 182.091 61.7555 184.748 62.7638 186.03C63.772 187.311 67.8503 190.48 71.8274 193.071C80.4851 198.713 87.711 205.45 91.6148 211.518C93.9277 215.114 94.5051 217.256 94.6198 222.663C94.8595 233.903 94.1333 232.963 102.56 232.943L110.049 232.926L106.684 230.779C103.142 228.516 102.768 227.573 101.881 218.643C101.509 214.905 100.231 211.275 97.9854 207.582C93.8492 200.777 83.0015 189.894 75.443 184.962C72.3181 182.924 67.8348 179.567 65.4806 177.504C63.1253 175.439 59.298 172.486 56.9737 170.939C53.5214 168.643 52.6247 167.359 52.0731 163.923C51.5556 160.699 50.4637 158.969 47.3956 156.511C43.0064 152.995 40.6511 147.333 41.7543 142.952C42.9062 138.378 46.6529 139.958 48.0784 145.62C48.4586 147.133 49.5949 149.115 50.6031 150.024C52.1743 151.441 53.0989 151.501 57.0657 150.443C59.612 149.765 62.4983 149.517 63.4807 149.892C66.1934 150.929 65.0023 154.006 61.2504 155.653C57.6514 157.232 56.3291 159.683 57.3487 162.886C58.6141 166.86 61.9208 166.547 66.5549 162.013C68.9298 159.69 71.7365 157.789 72.7933 157.789C73.849 157.789 76.6206 159.324 78.9521 161.199C81.2836 163.074 84.8176 165.261 86.8061 166.059C88.7947 166.857 94.8378 171.649 100.235 176.706C108.888 184.814 110.183 186.488 111.184 190.861C112.646 197.243 113.998 198.775 120.837 201.794C128.324 205.101 129.397 206.651 127.274 211.088C125.245 215.332 126.144 217.108 131.974 220.357C134.27 221.638 137.714 224.984 139.627 227.796C143.046 232.822 143.196 232.908 148.506 232.934L153.906 232.961L147.473 224.659C137.133 211.315 136.391 210.146 136.391 207.204C136.391 204.405 133.218 199.373 130.23 197.434C129.357 196.868 126.551 195.71 123.995 194.86C120.661 193.752 119.257 192.696 119.032 191.123C118.778 189.348 119.397 188.805 122.29 188.264C124.254 187.896 126.167 186.801 126.541 185.831C127.496 183.348 123.551 180.444 119.22 180.444C116.259 180.444 114.374 179.192 107.209 172.463C96.0857 162.018 96.1745 162.144 96.1363 156.741C96.1135 153.559 95.315 150.932 93.6085 148.429C89.9082 143.002 89.7626 139.871 93.0445 136.36C95.4545 133.781 99.7312 133.37 100.603 135.634C100.926 136.475 100.432 138.482 99.5029 140.094C97.2364 144.031 98.3118 146.462 102.32 146.462C106.948 146.462 110.513 148.654 116.62 155.254C122.135 161.216 123.024 164.307 119.336 164.704C117.956 164.853 115.752 163.083 112.631 159.32C110.075 156.237 107.147 153.435 106.126 153.093C104.027 152.389 101.268 154.241 101.268 156.352C101.268 158.528 114.337 171.807 117.945 173.297C121.104 174.601 121.274 174.521 126.198 169.375C128.963 166.486 131.226 163.338 131.226 162.38C131.226 161.423 126.112 155.419 119.863 149.037C112.43 141.446 108.499 136.656 108.499 135.187C108.499 130.136 105.395 127.825 96.6559 126.372C90.1066 125.284 87.3991 123.314 82.8207 116.309C77.0162 107.429 73.8201 104.492 71.5227 105.928C70.5537 106.532 69.6054 108.138 69.4153 109.497C68.5993 115.331 64.9434 114.049 62.8877 107.208C61.4146 102.308 57.0471 98.808 49.5278 96.5003C39.1945 93.3297 38.1884 92.6583 28.8975 82.7316C23.8026 77.2884 17.9134 71.9091 15.8092 70.7763C11.5666 68.4934 10.0946 66.0467 8.37459 58.4194C7.65975 55.2509 6.20836 52.38 4.59893 50.9538C0.526793 47.3456 -1 47.9212 -1 53.0648ZM355.756 52.7476C352.57 54.0297 348.158 60.2102 348.158 63.3921C348.158 66.68 351.877 70.9617 359.522 76.4739C367.06 81.9109 371.656 83.9364 374.714 83.1713C378.214 82.2961 377.505 78.4592 373.467 76.4193C368.101 73.709 357.352 66.0426 356.759 64.5032C356.167 62.9658 358.075 59.9641 359.645 59.9641C360.142 59.9641 362.293 61.5334 364.425 63.4518C366.557 65.3702 371.196 68.6293 374.733 70.694C381.914 74.8871 385.77 79.7196 390.632 90.6194C395.542 101.625 396.161 102.664 398.036 103.024C401.08 103.608 400.46 92.3144 397.046 84.9631C392.198 74.5246 387.857 69.4933 380.316 65.571C376.549 63.6124 370.536 59.6963 366.952 56.8676C360.198 51.5367 359.451 51.2617 355.756 52.7476ZM391.201 59.6212C389.501 61.3151 390.96 64.9933 395.207 69.7188L399.809 74.8387V68.1227C399.809 64.2715 399.28 60.8785 398.569 60.17C397.244 58.8488 392.342 58.4833 391.201 59.6212ZM26.5474 62.7104C26.1682 63.0873 25.8583 64.9521 25.8583 66.853C25.8583 69.7754 27.1496 71.6506 34.2133 78.9844C41.4992 86.5499 43.3958 87.9339 49.0453 89.808C52.6082 90.9902 57.6813 93.3215 60.3186 94.9886C62.9559 96.6558 68.2398 98.7421 72.0609 99.6256C79.6494 101.38 82.4013 103.386 86.2855 109.993C87.6862 112.375 90.2543 115.517 91.9929 116.975C96.4276 120.695 108.639 124.176 114.29 123.33C120.296 122.432 122.409 123.703 135.535 136.105C149.919 149.697 153.952 155.656 153.952 163.321C153.952 171.024 155.353 173.577 161.367 176.841C167.12 179.961 168.712 182.859 167.799 188.544C167.349 191.357 167.622 192.747 168.819 193.738C171.164 195.678 173.281 194.476 175.081 190.18C176.96 185.698 179.129 185.95 179.595 190.705C180.137 196.232 179.05 198.671 175.497 199.906C167.404 202.718 163.338 200.111 162.144 191.344C161.245 184.736 159.474 182.224 153.614 179.243C148.371 176.575 145.265 177.057 144.854 180.603C144.604 182.757 145.373 183.96 148.47 186.262C153.347 189.886 153.706 190.368 154.997 195.016C156.436 200.191 164.219 214.531 166.808 216.775C167.975 217.787 171.389 219.741 174.395 221.115C178.964 223.206 180.199 224.381 181.932 228.289L184.006 232.961H192.063C197.384 232.961 201.246 232.4 203.438 231.311C206.491 229.792 206.905 229.795 208.625 231.347C210.162 232.734 212.488 232.981 221.736 232.739L232.977 232.446L229.045 230.129C226.882 228.854 224.325 227.81 223.363 227.808C222.401 227.806 220.044 226.85 218.126 225.684C214.834 223.684 214.672 223.32 215.271 219.252C215.62 216.88 216.166 214.013 216.484 212.881C217.831 208.098 212 205.599 196.822 204.453C186.892 203.704 186.208 202.919 186.787 192.948C187.382 182.688 185.707 179.414 179.856 179.414C175.22 179.414 172.178 177.408 172.727 174.712C173.081 172.972 173.91 172.756 179.296 172.997C189.094 173.436 189.903 173.802 191.131 178.348C192.236 182.441 194.548 185.592 196.447 185.592C198.766 185.592 201.471 183.328 201.471 181.386C201.471 178.198 198.57 173.158 194.038 168.473C191.132 165.468 190.032 163.512 190.277 161.79C190.825 157.941 193.851 158.262 197.962 162.606C202.73 167.641 205.659 173.333 207.092 180.346C208.355 186.516 210.155 188.287 214.155 187.286C218.098 186.3 218.502 183.351 215.469 177.673C214.02 174.958 212.834 172.131 212.834 171.39C212.834 168.967 209.521 163.589 205.528 159.528C203.373 157.337 200.701 153.617 199.588 151.261C198.476 148.905 196.584 146.095 195.386 145.016C192.214 142.16 192.596 139.552 196.305 138.739C198.691 138.217 199.405 137.496 199.405 135.608C199.405 133.546 198.558 132.905 194.096 131.584C188.381 129.893 182.739 126.127 180.255 122.349C179.404 121.056 178.546 117.821 178.347 115.162C178.101 111.889 177.189 109.443 175.523 107.59C174.17 106.083 172.598 104.337 172.03 103.707C168.73 100.057 163.249 99.8212 163.249 103.331C163.249 104.395 164.876 107.062 166.865 109.256C168.853 111.45 170.48 114 170.48 114.922C170.48 117.89 166.525 116.743 163.016 112.759C155 103.656 153.475 102.536 146.044 100.294C137.023 97.5733 136.731 97.5671 135.385 100.075C134.522 101.681 134.762 102.509 136.576 104.193C137.825 105.353 139.601 106.302 140.524 106.302C144.005 106.302 150.757 110.527 155.267 115.528C158.42 119.023 162.082 121.675 166.503 123.666C173.199 126.68 184.942 137.445 184.942 140.568C184.942 141.374 186.365 143.991 188.102 146.383C192.084 151.861 191.68 153.192 186.154 152.793C180.793 152.408 179.915 154.057 182.305 160.013C183.695 163.477 183.766 164.454 182.675 165.144C179.4 167.215 177.961 165.958 175.262 158.668C173.353 153.515 169.376 150.851 165.212 151.936C161.547 152.892 158.279 150.884 155.951 146.246C152.79 139.948 132.575 121.728 123.2 116.726C122.007 116.091 118.054 115.57 114.413 115.57C105.159 115.57 96.9255 111.427 92.1209 104.353C86.8309 96.5641 84.5552 94.9011 77.0317 93.3287C69.813 91.8201 66.1417 90.2364 59.4313 85.7354C57.1586 84.2114 53.1123 82.3681 50.4399 81.6411C45.2129 80.218 37.8898 73.9562 35.1957 68.6067C32.261 62.7804 28.8262 60.4388 26.5474 62.7104ZM308.519 70.5477C307.196 71.5157 306.8 72.6381 307.263 74.0962C307.891 76.0651 310.291 77.275 322.517 81.7863C325.948 83.0519 328.278 85.5737 331.618 91.6358C334.572 96.9977 335.135 97.3838 343.182 99.5741C350.877 101.668 354.6 104.952 358.424 113.021C360.795 118.024 362.217 119.807 364.234 120.312C368.418 121.358 369.478 119.422 367.325 114.664C365.446 110.51 365.774 108.362 368.288 108.362C370.366 108.362 373.984 113.399 373.984 116.292C373.984 120.683 377.729 125.755 381.03 125.835C383.808 125.901 385.597 128.901 384.91 132.341C383.691 138.447 383.788 139.494 385.687 140.664C387.29 141.651 388.128 141.203 391.214 137.71C398.26 129.733 397.888 126.511 389.428 122.238C384.858 119.929 383.872 118.791 380.544 111.993C376.324 103.369 372.361 100.456 366.375 101.575C363.589 102.096 362.043 101.42 356.051 97.0656C352.167 94.2431 347.307 91.642 345.224 91.2702C340.434 90.4156 338.227 88.4745 335.135 82.398C333.777 79.7279 331.742 77.0506 330.613 76.4482C328.895 75.5317 317.52 71.3581 312.003 69.621C311.151 69.3522 309.583 69.7703 308.519 70.5477ZM94.3636 71.3777C92.4133 73.3219 94.1105 76.2999 99.2756 79.9987C102.029 81.9696 104.98 84.9301 105.834 86.5788C106.69 88.2263 109.95 91.2692 113.08 93.34C117.946 96.56 118.988 97.8348 120.27 102.138C122.612 110.002 123.271 110.733 133.669 117.005C139.054 120.252 145.007 124.514 146.899 126.476C148.789 128.438 152.544 131.417 155.243 133.094C158.263 134.972 160.15 136.888 160.15 138.076C160.15 141.253 164.13 145.428 167.198 145.469C168.719 145.489 171.126 146.168 172.546 146.977C175.62 148.729 179.39 148.95 180.33 147.433C181.58 145.418 179.884 141.82 176.839 140.027C175.177 139.048 171.603 136.273 168.899 133.86C166.194 131.447 162.538 128.618 160.774 127.573C159.011 126.528 155.365 123.538 152.673 120.929C149.981 118.321 144.17 114.31 139.76 112.016C131.779 107.867 131.723 107.807 127.469 99.2724C125.118 94.5572 122.097 89.9717 120.754 89.0851C119.411 88.1975 115.444 84.4657 111.937 80.7937C102.56 70.9699 97.4947 68.2566 94.3636 71.3777ZM224.649 100.241C226.723 104.189 229.063 106.892 232.034 108.766C234.428 110.274 238.855 114.042 241.874 117.138C245.761 121.126 248.427 122.958 251.016 123.423C253.026 123.784 255.666 124.598 256.882 125.231C259.345 126.513 265.214 133.251 268.537 138.612C270.742 142.168 270.524 145.433 268.081 145.433C266.626 145.433 261.385 139.715 261.385 138.128C261.385 137.594 259.785 135.609 257.83 133.716C255.349 131.315 252.96 130.098 249.93 129.693C246.409 129.222 244.392 127.96 239.282 123.027C235.814 119.682 230.886 115.367 228.329 113.44C221.958 108.639 221.805 108.466 219.236 103.145C216.885 98.2776 216.444 95.8382 217.69 94.5963C219.404 92.889 221.817 94.8465 224.649 100.241ZM-1 128.307V140.015L3.17234 145.239C6.44906 149.34 7.63289 151.971 8.6876 157.488C9.4262 161.352 10.5677 165.514 11.2236 166.735C12.9426 169.937 17.4961 173.236 20.1974 173.236C24.2892 173.236 28.6909 175.738 35.6647 182.03C57.3518 201.598 58.671 203.31 55.449 207.702C53.4956 210.365 51.0391 209.108 49.0846 204.444C46.9669 199.391 44.2666 196.566 36.8134 191.604C33.4644 189.375 29.8509 186.444 28.7838 185.092C27.7178 183.74 24.2603 181.67 21.1023 180.492C8.52541 175.802 6.79098 174.01 4.56071 163.403C3.78388 159.711 2.33147 155.201 1.33254 153.378L-0.483494 150.066L-0.774803 162.878C-1.05268 175.091 -0.956614 175.792 1.29122 177.843C6.35712 182.465 11.1069 185.507 16.3433 187.483C19.3483 188.617 23.5919 191.087 25.7736 192.975C27.9564 194.861 31.6215 197.519 33.92 198.879C36.5635 200.445 39.0985 203.186 40.8195 206.338C42.3153 209.078 45.3957 212.83 47.6632 214.675C49.9306 216.52 52.7425 219.883 53.9119 222.148C55.0812 224.414 57.4737 227.774 59.2288 229.614C62.2751 232.809 62.7689 232.961 70.1674 232.961H77.915L72.7468 230.393C65.2802 226.684 61.8878 222.761 61.2473 217.095C60.4984 210.471 62.5065 205.982 66.0353 206.39C68.6943 206.698 68.7242 206.794 68.3699 214.027C68.0239 221.081 68.1189 221.426 70.9525 223.426C72.5702 224.568 76.3386 226.364 79.3271 227.417C86.1625 229.826 88.2244 228.832 88.6686 222.913C89.0973 217.188 86.7472 212.164 82.0088 208.674C79.8178 207.062 76.2725 204.212 74.13 202.343C71.9875 200.474 68.5011 198.251 66.3824 197.404C64.2637 196.555 60.4384 193.734 57.8817 191.133C55.325 188.533 51.2736 184.997 48.878 183.276C46.4835 181.554 42.621 177.896 40.2947 175.146C37.9683 172.396 35.4674 170.146 34.7371 170.146C32.3064 170.146 29.9904 166.435 29.9904 162.541C29.9904 160.429 29.4532 155.456 28.7962 151.49C27.7611 145.245 27.8314 143.797 29.321 140.684C30.604 138.001 30.7672 136.581 29.9625 135.083C28.2043 131.809 25.1084 132.669 22.217 137.235C18.8907 142.489 15.4745 143.93 11.3683 141.814C7.46038 139.8 6.45009 137.766 5.28485 129.566C4.4729 123.85 1.20858 116.6 -0.553738 116.6C-0.799595 116.6 -1 121.868 -1 128.307ZM217.002 129.515C218.638 131.48 217.039 133.437 214.234 132.905C211.514 132.387 211.006 127.927 213.668 127.927C214.775 127.927 216.275 128.642 217.002 129.515ZM114.353 129.644C112.232 131.759 114.559 135.331 124.914 145.849C135.164 156.26 140.523 163.643 140.523 167.352C140.523 169.057 144.812 173.236 146.563 173.236C150.293 173.236 149.199 162.931 144.683 155.528C143.632 153.806 137.543 147.123 131.149 140.677C120.205 129.641 116.679 127.325 114.353 129.644ZM394.902 141.665C392.288 144.494 390.512 147.413 390.512 148.881C390.512 151.459 398.062 160.856 399.225 159.727C399.587 159.376 399.749 154.1 399.587 148.002L399.293 136.912L394.902 141.665ZM21.4102 152.653C22.9535 157.151 23.1116 164.659 21.6808 165.54C19.7729 166.716 17.899 164.084 16.1036 157.706C14.708 152.746 14.6088 151.17 15.6191 149.956C17.6015 147.576 20.06 148.722 21.4102 152.653ZM360.143 157.73C364.945 159.847 366.754 162.319 364.873 164.194C363.308 165.755 352.697 162.649 349.563 159.714C347.644 157.916 347.4 157.155 348.371 155.988C349.816 154.254 353.494 154.798 360.143 157.73ZM266.74 161.651C267.192 165.561 276.152 170.146 283.343 170.146C288.669 170.146 290.283 171.279 296.216 179.182C297.477 180.861 302.125 184.683 306.547 187.676C313.783 192.574 315.319 193.19 321.928 193.838C325.967 194.234 329.829 194.901 330.51 195.321C331.192 195.742 332.946 198.604 334.409 201.683C338.28 209.834 343.209 213.254 346.092 209.791C347.153 208.518 346.691 207.255 343.45 202.563C340.442 198.209 339.806 196.595 340.736 195.668C342.64 193.771 347.23 195.921 350.029 200.022C352.117 203.08 352.389 204.414 351.861 209.011C351.09 215.725 352.196 217.006 363.384 222.354C367.793 224.462 372.302 227.016 373.404 228.029C376.244 230.643 381.914 230.481 382.78 227.762C383.15 226.603 382.929 225.025 382.289 224.258C381.107 222.837 374.252 219.29 365.534 215.585C360.771 213.561 357.794 210.199 359.018 208.225C359.362 207.671 360.253 207.217 360.997 207.217C362.391 207.217 381.688 216.8 383.782 218.531C384.426 219.065 388.321 220.867 392.434 222.536L399.914 225.57L399.603 220.906L399.293 216.242L393.611 214.474C390.486 213.501 383.978 210.573 379.149 207.967C374.319 205.36 367.749 202.259 364.548 201.075C360.096 199.427 358.036 197.924 355.777 194.675C354.154 192.339 351.427 189.853 349.717 189.147C348.008 188.443 340.566 187.528 333.18 187.115C314.533 186.074 310.359 183.827 297.21 167.76C293.29 162.969 293.224 162.938 286.88 162.916C282.769 162.901 278.894 162.168 275.993 160.856C273.516 159.736 270.348 158.819 268.951 158.819C266.792 158.819 266.462 159.241 266.74 161.651ZM168.208 161.085C169.931 162.802 169.756 166.602 167.868 168.484C166.258 170.089 163.369 169.678 161.973 167.647C161.021 166.26 160.953 161.452 161.872 160.536C162.994 159.416 166.871 159.752 168.208 161.085ZM69.5031 165.679C68.7935 165.966 68.2119 167.23 68.2119 168.491C68.2119 171.475 69.8616 173.407 74.9265 176.355C81.5935 180.236 94.9514 191.84 97.3335 195.821C98.5422 197.841 101.317 201.854 103.5 204.737C106.986 209.347 107.466 210.67 107.466 215.669C107.466 223.045 109.401 225.468 118.71 229.745C124.275 232.302 127.08 233.004 130.762 232.762L135.561 232.446L133.439 229.767C132.272 228.294 127.811 225.384 123.524 223.301C114.991 219.153 113.769 216.973 118.313 214.005C122.356 211.365 121.642 208.493 116.385 206.247C111.451 204.138 108.617 200.797 105.379 193.264C102.994 187.72 93.5548 178.481 83.1079 171.466C79.5492 169.077 76.3417 166.644 75.9801 166.06C75.3014 164.967 71.7882 164.761 69.5031 165.679ZM218.083 167.47C217.139 168.605 217.554 169.969 220.022 173.85C221.913 176.822 223.164 180.163 223.164 182.241C223.164 188.657 228.776 195.629 237.408 199.94C241.637 202.051 245.878 207.167 245.886 210.167C245.888 210.941 244.172 213.141 242.073 215.059C237.923 218.847 234.604 219.399 230.395 217C228.975 216.19 226.301 215.512 224.455 215.491C221.596 215.46 221.098 215.819 221.098 217.911C221.098 220.389 224.823 223.693 227.617 223.693C229.933 223.693 235.195 226.646 238.708 229.917C241.346 232.374 242.891 232.961 246.719 232.961H251.46L248.159 229.564C244.534 225.837 243.848 221.691 246.493 219.502C248.72 217.661 251.018 219.244 252.48 223.628C254.998 231.178 261.137 230.033 259.888 222.245C259.309 218.632 253.717 207.076 249.288 200.337C248.455 199.07 247.362 194.774 246.861 190.791C245.887 183.057 242.937 175.44 239.645 172.158C238.308 170.826 236.216 170.146 233.453 170.146C231.157 170.146 227.457 169.22 225.23 168.087C220.42 165.64 219.661 165.575 218.083 167.47ZM130.869 172.03C128.767 174.345 128.74 175.591 130.667 181.473C131.501 184.022 132.432 187.343 132.736 188.853C133.04 190.362 135.34 193.995 137.849 196.926C140.359 199.855 142.702 203.41 143.059 204.826C145.193 213.301 156.058 226.719 164.097 230.807C168.109 232.847 175.574 233.718 176.986 232.311C178.491 230.809 175.194 227.703 168.94 224.727C161.281 221.084 158.22 217.333 151.852 203.791C149.675 199.162 146.426 193.985 144.633 192.286C140.234 188.118 138.777 185.062 138.067 178.513C137.198 170.473 134.493 168.037 130.869 172.03ZM262.315 175.724C264.639 177.659 269.68 180.271 273.518 181.528C278.724 183.233 281.592 184.94 284.813 188.248C287.187 190.689 291.022 193.646 293.335 194.823C297.865 197.127 298.685 199.326 295.622 200.96C292.226 202.772 286.679 200.379 282.008 195.086C278.823 191.476 275.025 188.902 267.24 185.078C258.869 180.964 256.559 179.347 255.753 177.036C254.975 174.804 255.09 173.927 256.257 173.19C257.089 172.666 257.842 172.231 257.93 172.221C258.019 172.213 259.992 173.79 262.315 175.724ZM237.883 183.708C240.713 189.523 240.766 192.801 238.034 192.801C235.984 192.801 230.438 183.568 230.415 180.114C230.398 177.688 230.777 177.265 232.719 177.54C234.384 177.776 235.848 179.524 237.883 183.708ZM-1 190.625C-1 197.355 -0.477296 197.855 8.81362 199.999C18.6562 202.27 33.2113 213.03 31.7104 216.926C30.6877 219.585 27.9006 218.784 23.2262 214.49C18.7781 210.403 9.60698 205.158 6.90875 205.158C6.10713 205.158 4.89747 205.823 4.21981 206.636C2.27465 208.973 4.69397 212.259 10.1173 214.651C12.7256 215.801 16.9858 218.704 19.5838 221.103C26.849 227.81 28.164 228.257 33.1535 225.719C36.4705 224.033 37.6956 223.833 38.8495 224.788C41.1552 226.696 40.5994 228.461 36.9632 230.783L33.6059 232.926L43.6757 232.943L53.7466 232.961L49.9296 227.554C47.8295 224.582 44.3834 220.232 42.2708 217.889C40.1583 215.548 37.7091 212.241 36.8269 210.542C33.5161 204.159 21.3854 195.906 9.07704 191.665C6.94904 190.931 3.81074 189.06 2.1042 187.505L-1 184.679V190.625ZM194.498 190.773C192.188 191.699 191.507 194.281 192.969 196.572C193.389 197.231 199.008 198.576 205.455 199.563C216.189 201.205 217.45 201.636 220.428 204.674C225.027 209.365 230.371 212.357 234.158 212.362C240.21 212.369 239.489 206.27 233.193 204.199C231.315 203.581 227.494 200.764 224.702 197.938C219.952 193.13 219.292 192.8 214.422 192.788C211.56 192.782 206.661 192.092 203.537 191.256C197.048 189.52 197.557 189.548 194.498 190.773ZM313.894 203.696C312.002 205.725 308.869 208.158 306.931 209.102C302.337 211.344 300.832 213.719 302.634 215.883C304.892 218.595 308.817 217.758 314.314 213.395C317.169 211.13 320.257 209.278 321.177 209.279C322.097 209.28 324.18 211.379 325.806 213.945C327.433 216.511 330.048 219.273 331.618 220.083C333.187 220.891 338.572 224.12 343.584 227.257L352.697 232.961H361.481C366.567 232.961 369.852 232.581 369.284 232.059C368.743 231.562 365.281 229.828 361.588 228.204C357.895 226.58 352.573 223.713 349.764 221.832C346.954 219.951 342.628 217.491 340.15 216.366C337.196 215.025 334.51 212.67 332.347 209.523C327.03 201.79 324.889 200.009 320.915 200.009C318.138 200.009 316.564 200.836 313.894 203.696ZM183.139 208.935C184.704 209.72 187.234 212.32 188.761 214.711C190.289 217.103 192.672 220.306 194.057 221.829C196.965 225.031 196.465 227.813 192.98 227.81C191.326 227.809 189.782 226.48 187.799 223.349C183.95 217.276 181.462 215.209 175.821 213.395C170.34 211.634 168.898 208.793 172.728 207.302C175.414 206.257 178.895 206.803 183.139 208.935ZM204.128 212.985C206.75 214.225 207.774 215.485 208.261 218.067C209.576 225.053 206.725 225.447 200.513 219.135C194.011 212.532 196.004 209.143 204.128 212.985ZM-1 219.004C-1 222.964 -0.582663 223.898 1.84079 225.366C3.40373 226.314 6.61744 228.409 8.982 230.024C12.3713 232.338 14.4363 232.961 18.7182 232.961H24.1528L21.6478 230.298C20.2708 228.833 15.8898 225.532 11.9127 222.962C7.93556 220.392 3.40373 217.405 1.84079 216.326L-1 214.363V219.004ZM80.9954 216.713C81.8167 218.019 81.7681 218.829 80.8146 219.78C79.0781 221.511 76.0783 219.648 75.6186 216.555C75.3417 214.692 75.7105 214.324 77.5792 214.6C78.8447 214.787 80.3828 215.738 80.9954 216.713ZM314.786 220.122C313.192 221.519 310.635 222.67 309.104 222.679C305.204 222.701 303.5 224.049 303.907 226.79C304.353 229.799 311.359 232.006 322.517 232.653C331.167 233.154 334.729 232.043 334.729 228.842C334.729 225.556 331.241 224.427 326.802 226.275C321.535 228.47 320.034 227.756 321.443 223.727C323.631 217.472 320.03 215.523 314.786 220.122ZM388.446 230.901C388.446 232.676 389.124 232.955 393.353 232.927L398.26 232.892L395.821 230.867C392.54 228.141 388.446 228.161 388.446 230.901ZM-1 231.963C-1 232.512 -0.302716 232.961 0.54952 232.961C1.40176 232.961 2.09904 232.778 2.09904 232.556C2.09904 232.333 1.40176 231.884 0.54952 231.558C-0.302716 231.233 -1 231.415 -1 231.963Z" fill="white"/>
</g>
<defs>
<linearGradient id="paint0_linear_133_1618" x1="-59.85" y1="-15.75" x2="156.796" y2="385.14" gradientUnits="userSpaceOnUse">
<stop stop-color="#348ABB"/>
<stop offset="1" stop-color="#009FE3"/>
</linearGradient>
<clipPath id="clip0_133_1618">
<rect width="399" height="225" fill="white"/>
</clipPath>
</defs>
</svg>
