<svg width="104" height="104" viewBox="0 0 104 104" fill="none" xmlns="http://www.w3.org/2000/svg">
<path d="M52 0C41.7154 0 31.6617 3.04975 23.1104 8.76358C14.559 14.4774 7.89404 22.5987 3.95829 32.1005C0.0225308 41.6022 -1.00724 52.0577 0.999189 62.1447C3.00562 72.2317 7.95814 81.4972 15.2305 88.7696C22.5028 96.0419 31.7683 100.994 41.8553 103.001C51.9423 105.007 62.3978 103.977 71.8996 100.042C81.4013 96.106 89.5226 89.441 95.2364 80.8896C100.95 72.3383 104 62.2846 104 52C103.974 38.2169 98.4865 25.0058 88.7404 15.2596C78.9942 5.51347 65.7832 0.0264299 52 0ZM76.75 42.9L47.45 70.9C46.6925 71.6126 45.69 72.0064 44.65 72C44.1417 72.0073 43.637 71.9138 43.165 71.725C42.693 71.5362 42.2631 71.2558 41.9 70.9L27.25 56.9C26.8437 56.5455 26.5132 56.1125 26.2785 55.627C26.0438 55.1415 25.9096 54.6136 25.8842 54.0749C25.8587 53.5363 25.9424 52.998 26.1302 52.4926C26.318 51.9871 26.6061 51.5248 26.9772 51.1335C27.3482 50.7422 27.7946 50.43 28.2894 50.2156C28.7842 50.0012 29.3172 49.8891 29.8565 49.886C30.3957 49.8828 30.93 49.9888 31.4273 50.1974C31.9245 50.406 32.3745 50.713 32.75 51.1L44.65 62.45L71.25 37.1C72.0278 36.4214 73.0377 36.0698 74.0687 36.1186C75.0997 36.1674 76.072 36.6128 76.7822 37.3617C77.4924 38.1107 77.8856 39.1052 77.8796 40.1373C77.8736 41.1695 77.4689 42.1593 76.75 42.9Z" fill="#92C200"/>
</svg>
