<svg width="226" height="50" viewBox="0 0 226 50" fill="none" xmlns="http://www.w3.org/2000/svg">
<path fill-rule="evenodd" clip-rule="evenodd" d="M34.6739 0.969373C33.3746 1.5594 31.8165 2.89803 30.8985 4.21238C29.1705 6.68791 29.438 6.65825 23.1855 5.07153C19.7797 4.20752 19.6966 4.21346 17.2529 5.46147C11.2188 8.54376 8.33018 18.7377 11.5575 25.5591C13.2036 29.0378 17.5544 33.0014 20.9036 34.072C26.8196 35.9639 34.7159 34.9112 37.9228 31.8025L39.6098 30.1677L39.4114 32.2474C39.2501 33.9388 39.4459 34.4894 40.462 35.2013C41.1491 35.6824 42.306 36.0761 43.0335 36.0761H44.356L43.1829 37.3241C41.4328 39.1875 41.559 42.6544 43.4315 44.1267C45.3715 45.6531 47.9754 45.5689 49.752 43.9223C50.6214 43.1166 51.1791 42.8771 51.1791 43.3091C51.1791 43.6996 51.8187 44.6591 52.6007 45.4411C54.3136 47.154 56.9548 47.3298 58.7788 45.8526C61.2209 43.8754 59.7722 38.5231 56.6247 37.8931L55.1075 37.59L56.3793 36.3183C57.0788 35.6188 57.651 34.6593 57.651 34.1863C57.651 33.0408 56.3162 30.5102 55.2408 29.6182C53.8795 28.4883 51.2055 28.8377 49.6258 30.3511L48.2122 31.7054L47.6027 30.4148C47.0348 29.211 47.1065 29.1123 48.6647 28.9591C49.8636 28.8415 50.6834 28.2774 51.5663 26.9625C53.1525 24.6008 53.1244 22.8711 51.473 21.2202C49.7396 19.4863 47.8142 19.5445 45.7447 21.3939C44.0658 22.8938 43.6128 24.5652 44.3236 26.6378C44.6262 27.5212 44.4444 27.731 43.3204 27.7963C42.5654 27.84 41.4495 28.3254 40.8406 28.875L39.7339 29.8738L40.8503 27.9786C43.7228 23.103 44.226 15.047 41.9532 10.3435C40.3239 6.97268 37.8721 5.65887 33.8854 6.02022C31.035 6.27856 30.7524 6.21492 31.1828 5.41077C32.4577 3.028 35.1069 1.63437 40.0764 0.732067L43.8981 0.0379466L40.3924 0.00127196C38.0566 -0.022998 36.1484 0.300062 34.6739 0.969373ZM26.9868 9.14134C28.2601 9.66934 29.17 9.66665 31.405 9.13055C33.7899 8.55886 34.5212 8.58151 36.1915 9.2794C39.0958 10.4929 40.1093 12.7554 40.1017 18.0085C40.0915 25.022 37.4072 29.6904 32.3617 31.4708C22.931 34.7985 12.5488 27.7111 13.6113 18.6713C14.7418 9.05127 19.1632 5.90103 26.9868 9.14134ZM3.19897 11.8968C0.73854 15.9315 -0.187494 20.134 0.0309358 26.2759C0.211612 31.3645 0.428963 32.4373 1.90943 35.5368C5.43828 42.9256 10.1661 46.3261 16.9023 46.3202C19.222 46.3181 21.3098 46.0025 22.2514 45.5112C23.1014 45.0679 24.0258 44.7054 24.3063 44.7054C24.5867 44.7054 26.0996 45.9189 27.6674 47.4021C30.8009 50.3652 31.6601 50.6235 33.0979 49.0347C34.4242 47.5693 33.9037 45.4136 31.2998 41.5903C28.2359 37.0912 27.7607 36.7978 22.9849 36.4569C17.3742 36.0562 14.5206 34.1216 11.8542 28.9089C10.1186 25.5171 9.99402 24.9082 9.69685 18.3321C9.52264 14.4942 9.25945 11.241 9.11113 11.1023C8.96282 10.9643 7.81835 10.6817 6.56818 10.4751C4.40816 10.1186 4.24042 10.1893 3.19897 11.8968ZM77.1074 11.571C75.7866 12.1443 75.4264 12.5386 75.8422 12.9544C76.258 13.3702 77.2212 13.3648 79.2227 12.9355C82.6858 12.1929 84.8021 12.9728 85.0486 15.0826C85.2071 16.4434 85.1651 16.4601 82.0822 16.2589C79.7281 16.1057 78.4925 16.3101 77.0843 17.0868C73.0457 19.3137 73.3408 24.0749 77.5961 25.3499C79.5668 25.9405 80.1315 25.8876 82.4905 24.8909C84.6899 23.9616 85.157 23.9034 85.157 24.5592C85.157 25.7787 89.1356 25.3224 89.3719 24.076C89.5008 23.397 89.1993 23.1316 88.2975 23.1311C87.0786 23.13 87.0446 22.9973 87.0446 18.2296C87.0446 13.5288 86.9832 13.2764 85.5313 12.0284C83.7423 10.4907 80.0587 10.2907 77.1074 11.571ZM97.6965 11.8002C96.2662 12.6723 95.9436 12.7214 95.9436 12.0678C95.9436 11.4928 95.3347 11.2668 93.7863 11.2668C92.2282 11.2668 91.629 11.4917 91.629 12.0758C91.629 12.579 92.1381 12.8848 92.9773 12.8848H94.3256V20.9371C94.3256 28.8777 94.3089 28.992 93.1121 29.1619C92.4444 29.2568 91.8986 29.6985 91.8986 30.1435C91.8986 30.7907 92.7076 30.9525 95.9436 30.9525C99.1796 30.9525 99.9886 30.7907 99.9886 30.1435C99.9886 29.5982 99.3301 29.28 97.9661 29.1673L95.9436 28.9995V25.8143V22.629L97.8556 23.7572C101.763 26.0629 106.911 23.9794 108.392 19.4933C108.885 17.9982 108.83 17.2049 108.099 15.2892C106.494 11.0872 101.573 9.43635 97.6965 11.8002ZM114.746 12.77C112.967 14.4295 112.504 15.2725 112.28 17.2653C111.759 21.8868 115.015 25.4971 119.704 25.4971C124.383 25.4971 127.457 22.1538 127.055 17.5042C126.858 15.2245 126.509 14.5481 124.619 12.7851C122.663 10.961 122.102 10.7275 119.674 10.7275C117.25 10.7275 116.685 10.9621 114.746 12.77ZM153.153 11.571C151.832 12.1443 151.472 12.5386 151.888 12.9544C152.304 13.3702 153.267 13.3648 155.269 12.9355C158.776 12.1832 160.848 12.9684 161.1 15.1452C161.267 16.582 161.254 16.5874 158.4 16.2929C154.702 15.911 151.888 17.0323 150.679 19.3698C149.932 20.8146 149.898 21.3432 150.466 22.7147C151.713 25.7226 155.709 26.4512 159.72 24.4017C161.033 23.7308 161.203 23.7416 161.203 24.4994C161.203 25.7711 165.172 25.3725 165.418 24.076C165.55 23.3754 165.239 23.1322 164.209 23.1322H162.821V18.0479C162.821 13.1971 162.756 12.9118 161.4 11.8455C159.69 10.5005 155.91 10.3748 153.153 11.571ZM129.629 11.8423C129.433 12.1594 129.783 12.551 130.406 12.7144C131.455 12.9884 131.54 13.3843 131.54 18.0085C131.54 22.636 131.455 23.0286 130.404 23.3031C129.778 23.4671 129.375 23.9185 129.505 24.3101C129.665 24.7901 130.773 25.0198 132.926 25.0198C135.528 25.0198 136.142 24.8478 136.291 24.076C136.432 23.3425 136.103 23.1322 134.815 23.1322H133.158L133.173 18.413L133.189 13.6938L135.421 18.7086C138.316 25.2156 139.056 25.242 141.829 18.9378C142.91 16.4827 143.888 14.3783 144.004 14.2612C144.119 14.1442 144.136 16.0777 144.04 18.5581C143.869 22.9973 143.844 23.0707 142.422 23.2352C141.572 23.3333 140.978 23.7346 140.978 24.2108C140.978 25.098 144.724 25.6169 147.002 25.0452C148.543 24.6585 148.643 23.6709 147.18 23.2886C146.198 23.0318 146.102 22.5529 146.102 17.9454C146.102 13.8066 146.249 12.8848 146.911 12.8848C147.355 12.8848 147.72 12.5208 147.72 12.0758C147.72 11.4896 147.117 11.2668 145.53 11.2668H143.34L141.012 16.2557L138.685 21.2445L136.384 16.2557L134.083 11.2668H132.034C130.907 11.2668 129.825 11.5257 129.629 11.8423ZM169.402 14.6323C169.531 17.3322 169.749 18.0333 170.506 18.1773C171.305 18.3294 171.45 17.9357 171.45 15.6209V12.8848H173.607H175.765V17.9761V23.0669L173.742 23.2346C172.378 23.3473 171.72 23.6656 171.72 24.2108C171.72 24.8699 172.618 25.0198 176.566 25.0198C180.754 25.0198 181.438 24.8915 181.595 24.076C181.744 23.302 181.381 23.1322 179.58 23.1322H177.383V18.0085V12.8848H179.81H182.237V15.5815C182.237 17.6191 182.435 18.2782 183.046 18.2782C183.682 18.2782 183.855 17.529 183.855 14.7725V11.2668H176.548H169.242L169.402 14.6323ZM186.926 11.6115C186.363 12.174 187.076 12.8848 188.201 12.8848C189.164 12.8848 189.248 13.2964 189.248 18.0085C189.248 22.7206 189.164 23.1322 188.201 23.1322C186.855 23.1322 186.192 24.1914 187.157 24.8019C187.565 25.0613 188.628 25.269 189.518 25.2636C190.917 25.2555 191.716 24.5269 195.419 19.8789C197.775 16.9217 199.777 14.5028 199.869 14.5028C199.96 14.5028 200.035 16.4277 200.035 18.7797C200.035 22.8048 199.963 23.0674 198.821 23.2292C198.154 23.3242 197.608 23.7659 197.608 24.2108C197.608 24.8397 198.326 25.0198 200.836 25.0198C203.482 25.0198 204.098 24.8494 204.247 24.076C204.378 23.3959 204.079 23.1322 203.175 23.1322C201.952 23.1322 201.922 23.0103 201.922 18.0085C201.922 13.0547 201.963 12.8848 203.136 12.8848C203.855 12.8848 204.349 12.5553 204.349 12.0758C204.349 11.481 203.743 11.2717 202.057 11.2841C199.807 11.3014 199.688 11.399 195.482 16.6774C193.125 19.6346 191.184 22.0535 191.167 22.0535C191.15 22.0535 191.136 19.9905 191.136 17.4692C191.136 13.0747 191.186 12.8848 192.349 12.8848C193.068 12.8848 193.563 12.5553 193.563 12.0758C193.563 11.4491 192.854 11.2668 190.417 11.2668C188.686 11.2668 187.116 11.4222 186.926 11.6115ZM206.881 11.6115C206.319 12.174 207.031 12.8848 208.157 12.8848C209.119 12.8848 209.203 13.2964 209.203 18.0085C209.203 22.7206 209.119 23.1322 208.157 23.1322C207.581 23.1322 206.943 23.4018 206.739 23.7319C206.113 24.7458 207.714 25.3062 210.821 25.1595C213.036 25.0554 213.788 24.8149 213.788 24.2108C213.788 23.7659 213.242 23.3242 212.574 23.2292C211.551 23.0842 211.361 22.725 211.361 20.9371C211.361 19.0214 211.494 18.8175 212.745 18.8175C214.849 18.8175 215.918 19.6082 217.822 22.5761C219.596 25.3413 221.232 26.0235 223.16 24.8019C224.208 24.1391 223.414 23.1322 221.845 23.1322C220.884 23.1322 220.01 22.4116 218.617 20.4722C217.566 19.0095 216.413 17.6935 216.056 17.5479C215.662 17.3877 216.353 16.3678 217.811 14.9591C220.175 12.675 220.221 12.6572 220.522 13.9333C220.95 15.7422 222.038 15.9331 222.455 14.2725C222.995 12.1206 222.4 11.2668 220.357 11.2668C218.859 11.2668 218.089 11.7485 216.049 13.9635C213 17.2734 211.361 17.556 211.361 14.7725C211.361 13.1184 211.528 12.8848 212.709 12.8848C213.548 12.8848 214.057 12.579 214.057 12.0758C214.057 11.4421 213.319 11.2668 210.642 11.2668C208.763 11.2668 207.071 11.4222 206.881 11.6115ZM103.742 13.1804C106.904 14.6808 107.628 18.207 105.334 20.9333C104.168 22.3188 103.55 22.5928 101.589 22.5928C98.2574 22.5928 96.2376 20.7936 96.2376 17.8267C96.2376 16.2756 96.6054 15.2509 97.5061 14.2925C98.6079 13.1195 99.3679 12.7651 101.525 12.4189C101.777 12.3784 102.775 12.7214 103.742 13.1804ZM121.623 12.8773C121.953 12.8816 122.864 13.5245 123.646 14.3065C126.651 17.3117 124.913 22.8134 120.753 23.4638C115.923 24.2184 112.536 19.5796 114.812 15.3269C115.662 13.7386 118.476 12.2463 119.944 12.6055C120.537 12.7511 121.293 12.8735 121.623 12.8773ZM6.50184 19.222C6.65987 24.2426 6.88369 25.4259 8.17323 28.0514C11.4378 34.6998 16.5928 38.5862 22.9925 39.2242C26.538 39.578 26.6044 39.6142 28.9742 42.5238C31.769 45.9545 31.1747 46.7474 27.8357 44.0437C24.4886 41.3341 24.5123 41.3389 21.6916 42.8572C18.5128 44.5679 15.2676 44.3905 10.933 42.2698C3.25021 38.5112 -0.116302 24.9713 4.33049 15.7163C4.9367 14.4559 5.63136 13.4242 5.87568 13.4242C6.11946 13.4242 6.40099 16.0329 6.50184 19.222ZM85.157 19.7969C85.157 20.9996 84.7212 21.5605 83.0611 22.4936C79.3635 24.5716 75.4684 23.658 76.1668 20.8767C76.615 19.0915 78.2983 18.3591 82.0558 18.3148C85.1057 18.2787 85.157 18.3035 85.157 19.7969ZM161.093 19.9177C161.222 21.0244 160.845 21.5163 159.132 22.4796C155.644 24.4395 152.034 23.8106 152.034 21.2429C152.034 19.3498 154.313 18.2663 157.967 18.4216C160.703 18.5381 160.946 18.6541 161.093 19.9177ZM77.9914 19.6907C77.1797 20.5029 77.622 22.5249 78.685 22.8625C80.6007 23.4703 82.003 22.6651 81.8174 21.0633C81.6831 19.9026 81.3364 19.5958 80.0139 19.4663C79.1132 19.3779 78.2034 19.4793 77.9914 19.6907ZM154.326 19.7139C153.412 20.0833 153.474 21.7736 154.432 22.568C155.455 23.418 157.442 23.0949 158.15 21.964C159.238 20.2284 156.721 18.7479 154.326 19.7139ZM49.9925 23.24C51.0005 24.248 50.7562 25.7285 49.4688 26.4172C48.4986 26.9366 48.1755 26.8762 47.5812 26.0634C46.8105 25.0096 46.6411 23.535 47.2241 22.9526C47.7964 22.3798 49.2876 22.5351 49.9925 23.24ZM44.7427 30.7017C46.0052 31.3775 46.0991 32.9874 44.9314 33.9566C43.2503 35.3518 41.1432 32.6471 42.5713 30.9266C43.3458 29.993 43.4067 29.9865 44.7427 30.7017ZM54.1012 31.9319C55.2807 32.7948 55.0364 34.6453 53.7085 34.9009C51.7939 35.2698 50.1225 32.2776 51.8532 31.5792C52.9103 31.1526 53.0694 31.1774 54.1012 31.9319ZM53.1476 37.7281C54.4932 37.7583 54.5477 37.8182 53.5872 38.2076C52.9837 38.4519 52.1978 39.0042 51.8408 39.434C51.2912 40.0963 50.8393 39.8784 48.8907 38.014C46.8644 36.0756 46.6832 35.7148 47.3741 35.0002C48.0698 34.2807 48.3551 34.3875 49.8847 35.9413C50.9968 37.0707 52.1574 37.7065 53.1476 37.7281ZM33.6028 35.711C32.3407 36.7967 32.1956 37.2244 32.5144 38.9233C33.5094 44.2292 41.4711 44.5377 41.4711 39.2706C41.4711 37.0324 38.913 34.4581 36.6888 34.4581C35.7612 34.4581 34.4317 34.998 33.6028 35.711ZM38.755 37.9401C39.7155 39.098 38.9599 39.8515 36.8382 39.8515C35.6182 39.8515 34.8497 39.5505 34.634 38.988C33.9938 37.3204 37.5005 36.4289 38.755 37.9401ZM48.23 40.4447C48.7062 41.9457 47.8018 42.7649 46.1309 42.3453C44.3689 41.9036 43.6937 39.914 44.9854 38.9696C46.1584 38.1116 47.7138 38.8181 48.23 40.4447ZM73.831 41.1556C73.831 41.8729 73.6838 42.8437 73.5036 43.3129C73.2696 43.9223 73.4966 44.1661 74.2991 44.1661C75.2592 44.1661 75.3751 43.9315 75.0984 42.5481C74.8228 41.1701 74.9393 40.9301 75.8832 40.9301C76.8583 40.9301 76.9359 41.1248 76.5277 42.5481C76.1361 43.9126 76.2138 44.1661 77.0217 44.1661C77.78 44.1661 77.9795 43.7158 77.9795 42.0088C77.9795 39.866 77.9661 39.8515 75.9053 39.8515C74.071 39.8515 73.831 40.0025 73.831 41.1556ZM80.0091 42.0088C80.0091 44.5458 80.8121 44.7907 82.421 42.745C83.0913 41.8928 83.539 41.6339 83.539 42.0978C83.539 42.5233 83.2477 43.163 82.8918 43.5189C82.3886 44.0221 82.5682 44.1661 83.7008 44.1661C85.3522 44.1661 85.3425 44.1855 84.6311 42.3135C84.2892 41.4144 84.2892 40.9301 84.6311 40.9301C84.9202 40.9301 85.157 40.6874 85.157 40.3908C85.157 39.4761 83.9429 39.7921 82.5628 41.065L81.2479 42.2785L81.6206 41.065C81.914 40.1109 81.7813 39.8515 81.0014 39.8515C80.2032 39.8515 80.0091 40.2738 80.0091 42.0088ZM85.9417 42.0627V44.1661H88.2457C89.5132 44.1661 90.5503 44.4088 90.5503 44.7054C90.5503 45.0021 90.7499 45.2448 90.9942 45.2448C91.2385 45.2448 91.4202 44.0313 91.3987 42.5487C91.3539 39.4842 90.2122 38.783 89.8616 41.6043L89.6442 43.3571L89.5579 41.6582C89.4797 40.1163 89.3088 39.9593 87.7064 39.9593C86.0145 39.9593 85.9417 40.0462 85.9417 42.0627ZM93.3548 40.4987C92.3641 41.4894 92.5847 43.5232 93.7507 44.1472C95.1454 44.8937 95.5521 44.8554 96.7844 43.8609C97.7914 43.0492 97.7757 43.0254 96.3832 43.2401C95.5866 43.363 94.6158 43.2617 94.2259 43.0141C93.7739 42.7277 94.2501 42.5616 95.5391 42.5562C96.8346 42.5514 97.5616 42.2962 97.5616 41.847C97.5616 40.7969 96.4123 39.8515 95.1346 39.8515C94.5117 39.8515 93.7108 40.1427 93.3548 40.4987ZM99.425 41.9834C99.425 44.1424 99.4466 44.1661 101.428 44.1661C103.55 44.1661 104.371 43.5254 103.675 42.4133C103.443 42.0428 103.247 41.3751 103.239 40.9301C103.229 40.3978 102.575 40.0661 101.325 39.9609C99.4374 39.8018 99.425 39.8159 99.425 41.9834ZM105.112 42.0088V44.1661H107.687H110.26V42.0088C110.26 40.2738 110.066 39.8515 109.268 39.8515C108.545 39.8515 108.362 40.1244 108.595 40.8578C108.86 41.6917 108.687 41.8211 107.591 41.6113C106.734 41.4473 106.369 41.093 106.557 40.6049C106.73 40.1524 106.499 39.8515 105.979 39.8515C105.327 39.8515 105.112 40.387 105.112 42.0088ZM112.231 40.4987C110.574 42.156 112.964 45.1962 115.333 44.4444C116.847 43.9639 116.744 42.8938 115.22 43.2762C114.551 43.4445 113.64 43.3528 113.198 43.0734C112.61 42.7013 112.937 42.5627 114.416 42.5562C115.711 42.5514 116.438 42.2962 116.438 41.847C116.438 40.7969 115.289 39.8515 114.011 39.8515C113.388 39.8515 112.587 40.1427 112.231 40.4987ZM156.594 42.0088C156.594 44.5458 157.397 44.7907 159.006 42.745C159.677 41.8928 160.124 41.6339 160.124 42.0978C160.124 42.5233 159.833 43.163 159.477 43.5189C158.974 44.0221 159.126 44.1661 160.164 44.1661C161.36 44.1661 161.497 43.9439 161.497 42.0088C161.497 39.544 161.009 39.3477 159.148 41.065L157.833 42.2785L158.206 41.065C158.499 40.1109 158.367 39.8515 157.587 39.8515C156.788 39.8515 156.594 40.2738 156.594 42.0088ZM163.066 42.0088C163.066 43.7605 163.257 44.1661 164.08 44.1661C164.759 44.1661 164.991 43.8991 164.783 43.3571C164.596 42.869 164.78 42.5481 165.248 42.5481C165.715 42.5481 165.9 42.869 165.713 43.3571C165.505 43.8991 165.736 44.1661 166.416 44.1661C167.239 44.1661 167.429 43.7605 167.429 42.0088C167.429 40.257 167.239 39.8515 166.416 39.8515C165.736 39.8515 165.505 40.1184 165.713 40.6605C165.9 41.1485 165.715 41.4695 165.248 41.4695C164.78 41.4695 164.596 41.1485 164.783 40.6605C164.991 40.1184 164.759 39.8515 164.08 39.8515C163.257 39.8515 163.066 40.257 163.066 42.0088ZM169.293 40.3908C169.293 40.6874 169.536 40.9301 169.832 40.9301C170.129 40.9301 170.371 41.4155 170.371 42.0088C170.371 42.6021 170.129 43.0874 169.832 43.0874C169.536 43.0874 169.293 43.3301 169.293 43.6268C169.293 43.9234 170.021 44.1661 170.911 44.1661C171.801 44.1661 172.529 43.9234 172.529 43.6268C172.529 43.3301 172.286 43.0874 171.989 43.0874C171.693 43.0874 171.45 42.6021 171.45 42.0088C171.45 41.4096 171.81 40.9301 172.259 40.9301C172.704 40.9301 173.068 41.2942 173.068 41.7391C173.068 42.1841 173.311 42.5481 173.607 42.5481C173.904 42.5481 174.147 41.9414 174.147 41.1998C174.147 39.9615 173.949 39.8515 171.72 39.8515C170.385 39.8515 169.293 40.0942 169.293 40.3908ZM175.495 42.9958C175.495 45.9475 175.587 46.1886 176.709 46.1886C177.958 46.1886 178.457 44.7561 177.248 44.6418C176.877 44.6068 177.276 44.4245 178.134 44.2373C181.711 43.4558 181.308 40.243 177.597 39.962L175.495 39.8024V42.9958ZM182.258 40.8913C181.205 42.8588 183.283 45.131 185.493 44.4293C186.85 43.9984 186.887 42.8739 185.533 43.2282C184.972 43.3749 184.183 43.2854 183.78 43.0297C183.281 42.7137 183.607 42.5621 184.799 42.5562C186.156 42.5497 186.551 42.3178 186.551 41.5272C186.551 39.6843 183.171 39.1838 182.258 40.8913ZM188.709 40.3908C188.709 40.6874 188.93 40.9301 189.201 40.9301C189.862 40.9301 189.609 42.4025 188.811 43.2007C188.03 43.9817 187.967 45.2448 188.709 45.2448C189.005 45.2448 189.248 45.0021 189.248 44.7054C189.248 44.4088 189.976 44.1661 190.866 44.1661C191.756 44.1661 192.484 44.4088 192.484 44.7054C192.484 45.0021 192.684 45.2448 192.928 45.2448C193.172 45.2448 193.354 44.0313 193.332 42.5487L193.293 39.852H191.001C189.741 39.8515 188.709 40.0942 188.709 40.3908ZM194.887 42.0088C194.887 44.5458 195.69 44.7907 197.299 42.745C197.969 41.8928 198.417 41.6339 198.417 42.0978C198.417 42.5233 198.126 43.163 197.77 43.5189C197.266 44.0221 197.418 44.1661 198.456 44.1661C199.652 44.1661 199.789 43.9439 199.789 42.0088C199.789 39.544 199.302 39.3477 197.441 41.065L196.126 42.2785L196.498 41.065C196.792 40.1109 196.659 39.8515 195.879 39.8515C195.081 39.8515 194.887 40.2738 194.887 42.0088ZM201.761 40.4987C200.08 42.1797 202.11 45.0172 204.555 44.4034C206.337 43.9563 206.426 42.8739 204.654 43.2126C203.931 43.3506 203.022 43.2617 202.632 43.0141C202.18 42.7277 202.656 42.5616 203.945 42.5562C205.24 42.5514 205.967 42.2962 205.967 41.847C205.967 40.7969 204.818 39.8515 203.54 39.8515C202.917 39.8515 202.117 40.1427 201.761 40.4987ZM207.831 42.0088C207.831 43.7605 208.021 44.1661 208.844 44.1661C209.524 44.1661 209.756 43.8991 209.548 43.3571C209.36 42.869 209.545 42.5481 210.012 42.5481C210.48 42.5481 210.664 42.869 210.477 43.3571C210.269 43.8991 210.501 44.1661 211.181 44.1661C212.004 44.1661 212.194 43.7605 212.194 42.0088C212.194 40.257 212.004 39.8515 211.181 39.8515C210.501 39.8515 210.269 40.1184 210.477 40.6605C210.664 41.1485 210.48 41.4695 210.012 41.4695C209.545 41.4695 209.36 41.1485 209.548 40.6605C209.756 40.1184 209.524 39.8515 208.844 39.8515C208.021 39.8515 207.831 40.257 207.831 42.0088ZM214.057 41.1998C214.057 42.7385 214.933 43.0227 215.304 41.6043C215.489 40.894 215.566 40.9609 215.613 41.874C215.647 42.5411 215.433 43.0874 215.136 43.0874C214.839 43.0874 214.597 43.3301 214.597 43.6268C214.597 43.9234 215.325 44.1661 216.215 44.1661C217.105 44.1661 217.833 43.9234 217.833 43.6268C217.833 43.3301 217.59 43.0874 217.293 43.0874C216.997 43.0874 216.754 42.6021 216.754 42.0088C216.754 41.4155 216.997 40.9301 217.293 40.9301C217.59 40.9301 217.833 41.3427 217.833 41.847C217.833 42.5298 217.989 42.608 218.444 42.1528C219.614 40.983 218.526 39.8515 216.231 39.8515C214.272 39.8515 214.057 39.9847 214.057 41.1998ZM219.99 42.0088V44.1661H222.564H225.138V42.0088C225.138 40.2738 224.944 39.8515 224.146 39.8515C223.422 39.8515 223.24 40.1244 223.473 40.8578C223.745 41.7148 223.57 41.8216 222.296 41.5779C221.473 41.4198 221.103 41.1895 221.473 41.0655C222.542 40.7085 222.256 39.8515 221.069 39.8515C220.17 39.8515 219.99 40.2112 219.99 42.0088ZM56.608 40.949C57.7287 41.5493 58.0145 43.3388 57.081 43.9153C56.1716 44.4773 54.0278 43.7222 53.6362 42.7018C53.4108 42.114 53.6265 41.5126 54.2193 41.079C55.3529 40.25 55.3066 40.2527 56.608 40.949ZM88.1616 42.0088C88.1616 42.6021 87.9712 43.0874 87.7382 43.0874C87.5052 43.0874 87.3143 42.6021 87.3143 42.0088C87.3143 41.4155 87.5052 40.9301 87.7382 40.9301C87.9712 40.9301 88.1616 41.4155 88.1616 42.0088ZM95.5391 41.2872C95.1686 41.4371 94.5619 41.4371 94.1908 41.2872C93.8203 41.1378 94.1234 41.0153 94.865 41.0153C95.6065 41.0153 95.9102 41.1378 95.5391 41.2872ZM102.269 41.2559C102.09 41.4349 101.625 41.4543 101.236 41.2985C100.806 41.1264 100.934 40.9986 101.562 40.9727C102.13 40.9495 102.449 41.0768 102.269 41.2559ZM114.955 41.2872C114.585 41.4371 113.978 41.4371 113.607 41.2872C113.236 41.1378 113.539 41.0153 114.281 41.0153C115.023 41.0153 115.326 41.1378 114.955 41.2872ZM179.405 41.8734C179.7 42.7595 178.011 43.3916 177.286 42.6668C176.976 42.3567 176.893 41.8254 177.102 41.4867C177.579 40.7155 179.105 40.9722 179.405 41.8734ZM185.068 41.2872C184.698 41.4371 184.091 41.4371 183.72 41.2872C183.349 41.1378 183.653 41.0153 184.394 41.0153C185.136 41.0153 185.439 41.1378 185.068 41.2872ZM191.945 42.0088C191.945 42.6021 191.633 43.0874 191.251 43.0874C190.87 43.0874 190.558 42.6021 190.558 42.0088C190.558 41.4155 190.87 40.9301 191.251 40.9301C191.633 40.9301 191.945 41.4155 191.945 42.0088ZM204.495 41.2839C204.129 41.4317 203.401 41.4409 202.877 41.3039C202.352 41.1669 202.651 41.0461 203.54 41.0353C204.43 41.0245 204.86 41.1361 204.495 41.2839ZM102.55 42.9052C102.18 43.0551 101.573 43.0551 101.202 42.9052C100.832 42.7558 101.135 42.6333 101.876 42.6333C102.618 42.6333 102.922 42.7558 102.55 42.9052ZM107.663 42.8739C107.484 43.0529 107.018 43.0723 106.629 42.9165C106.199 42.7444 106.327 42.6166 106.955 42.5907C107.524 42.5675 107.842 42.6948 107.663 42.8739ZM222.541 42.8739C222.362 43.0529 221.896 43.0723 221.507 42.9165C221.077 42.7444 221.205 42.6166 221.833 42.5907C222.401 42.5675 222.72 42.6948 222.541 42.8739Z" fill="white"/>
</svg>
