<svg width="81" height="273" viewBox="0 0 81 273" fill="none" xmlns="http://www.w3.org/2000/svg">
<path fill-rule="evenodd" clip-rule="evenodd" d="M37.2874 0.133823C29.314 0.659383 21.453 3.70627 15.1007 8.73304C13.2937 10.1631 9.75312 13.748 8.4203 15.4973C1.06274 25.1534 -1.60291 36.9838 0.93713 48.7078C3.09565 58.6706 9.32993 67.717 17.9748 73.4312C23.2461 76.9155 28.7138 78.9217 35.3734 79.8155C37.6092 80.1156 43.2621 80.0368 45.6521 79.6721C48.9494 79.1693 52.1477 78.304 55.151 77.1026C58.1761 75.8924 62.4113 73.3882 65.1462 71.1927C66.872 69.8073 69.8761 66.7821 71.2497 65.0463C74.4002 61.0653 77.0599 55.9841 78.382 51.4205C81.6944 39.9868 79.9116 27.9487 73.4501 18.1188C69.5253 12.1483 64.2924 7.484 57.9566 4.30938C55.7798 3.21856 55.4938 3.09593 53.2912 2.30766C50.009 1.13305 46.2735 0.386182 42.3445 0.119362C39.9682 -0.04212 39.957 -0.0421199 37.2874 0.133823ZM45.8648 2.36182C56.6197 4.10664 65.9136 10.0952 71.904 19.1406C73.1713 21.054 74.998 24.689 75.8079 26.9089C79.8498 37.9865 78.5554 50.4101 72.3292 60.2969C69.3326 65.0554 64.8248 69.5237 59.9714 72.5467C52.352 77.2922 42.6441 79.1768 33.6721 77.6523C21.5881 75.5989 11.149 67.8205 5.81405 56.8943C3.14131 51.4202 1.92317 46.1467 1.91694 40.0222C1.90715 30.4123 5.42941 21.3544 11.9308 14.2705C17.685 8.00063 25.3427 3.84507 33.6813 2.46716C36.6079 1.98356 36.6356 1.98186 40.6191 2.03134C43.2655 2.06409 44.5146 2.14277 45.8648 2.36182ZM35.7279 5.05639C34.1683 5.24297 32.8698 5.41522 32.8423 5.43918C32.8148 5.46314 32.8373 5.80936 32.8922 6.20874C32.9872 6.89904 33.0106 6.93137 33.3676 6.86487C33.574 6.82645 34.0328 6.75712 34.3868 6.71076L35.0306 6.62655L35.3564 9.35997C35.803 13.1079 35.6789 12.7845 36.6264 12.6731C37.06 12.6222 37.4394 12.5557 37.4697 12.5254C37.4999 12.4952 37.3597 11.166 37.1579 9.57193C36.9562 7.97767 36.7912 6.60925 36.7912 6.53071C36.7912 6.45231 37.2378 6.34413 37.7836 6.2904L38.776 6.19258L38.7661 5.66943C38.7467 4.65063 38.8855 4.6787 35.7279 5.05639ZM40.7115 6.70594C40.6606 7.75862 40.5776 9.48119 40.5267 10.5339L40.4342 12.4478H41.3064C41.9047 12.4478 42.1816 12.3921 42.1878 12.2706C42.4732 6.8171 42.5519 4.98465 42.5041 4.89831C42.4718 4.83976 42.0761 4.79198 41.6247 4.79198H40.804L40.7115 6.70594ZM45.2417 5.33087C44.9662 6.2714 43.7302 12.3643 43.7855 12.5085C43.8615 12.7067 45.2685 13.0352 45.3659 12.8776C45.3992 12.8235 45.5564 12.1844 45.7151 11.4572C45.8738 10.7301 46.0363 10.1024 46.0762 10.0626C46.116 10.0226 46.7239 10.1189 47.427 10.2765L48.7054 10.5631L48.7788 10.2649C48.8192 10.1009 48.866 9.78161 48.8826 9.55534C48.9127 9.14745 48.9013 9.14121 47.637 8.86858C46.9352 8.71731 46.3505 8.58347 46.3377 8.57128C46.2878 8.52378 46.6496 7.07895 46.7319 6.99658C46.7799 6.94866 47.4125 7.04167 48.1377 7.20315C49.1561 7.42999 49.4809 7.45735 49.5637 7.32323C49.6882 7.12191 49.8752 6.20321 49.8058 6.13388C49.78 6.10808 48.835 5.88804 47.7056 5.64504C46.5762 5.40204 45.5757 5.17775 45.4821 5.14656C45.3887 5.11551 45.2805 5.19845 45.2417 5.33087ZM27.6467 6.97461C26.5764 7.32706 25.3074 7.91316 25.3074 8.05507C25.3074 8.10314 25.8795 9.66947 26.5786 11.5358C27.9894 15.3016 27.8725 15.1525 29.0308 14.6685L29.5422 14.4548L29.0552 13.2143C28.7874 12.5319 28.5682 11.8908 28.5682 11.7894C28.5682 11.5744 29.3693 11.3319 29.7557 11.4302C29.902 11.4675 30.221 11.7867 30.4646 12.1398C30.7082 12.4928 31.0856 12.989 31.3031 13.2425L31.6986 13.7034L32.4373 13.4045C32.8436 13.2401 33.1968 13.0909 33.2224 13.0729C33.2479 13.0549 32.8691 12.4921 32.3806 11.822C31.7637 10.9761 31.3554 10.5543 31.0442 10.4419L30.5962 10.2798L30.9465 9.65302C31.7292 8.25257 30.7302 6.61918 29.1044 6.64144C28.8485 6.64484 28.1925 6.79484 27.6467 6.97461ZM50.911 10.533C50.1448 12.4518 49.5426 14.0462 49.5728 14.0764C49.7602 14.2638 51.0343 14.7066 51.1226 14.6149C51.2061 14.5281 52.3263 11.7876 53.9034 7.81179C53.9416 7.71552 53.7384 7.54454 53.435 7.4178C52.2497 6.92258 52.4532 6.67164 50.911 10.533ZM29.3834 8.43631C29.6705 8.82165 29.5994 9.52883 29.2417 9.84413C28.9021 10.1434 28.1428 10.5102 28.0516 10.4189C27.9563 10.3236 27.2922 8.57269 27.3351 8.52974C27.3576 8.5072 27.5965 8.39066 27.8659 8.27086C28.4337 8.01807 29.1282 8.09378 29.3834 8.43631ZM56.3178 9.08748C55.5636 10.2429 52.513 15.3145 52.5516 15.3488C52.5777 15.3721 53.5162 15.9477 54.6372 16.6281C56.2318 17.5957 56.7036 17.8231 56.8046 17.6728C56.9994 17.3829 57.3485 16.7243 57.3485 16.6468C57.3485 16.6091 56.7904 16.2446 56.108 15.8368C55.4258 15.4289 54.8447 15.0775 54.8169 15.0559C54.7889 15.0342 54.9681 14.6635 55.215 14.2321L55.664 13.4475L56.801 14.1528C57.4264 14.5407 57.9851 14.858 58.0425 14.858C58.1578 14.858 58.8248 13.7278 58.7452 13.6674C58.7178 13.6467 58.2009 13.3253 57.5966 12.9533C56.9924 12.5811 56.4979 12.2468 56.4979 12.2104C56.4979 12.1738 56.6621 11.8639 56.8627 11.5215L57.2273 10.8992L58.5023 11.6878C59.2035 12.1216 59.7939 12.4541 59.8143 12.4267C60.1663 11.9526 60.476 11.2666 60.3793 11.1743C60.3109 11.109 59.4149 10.5427 58.3882 9.91559C56.5268 8.77855 56.521 8.77628 56.3178 9.08748ZM20.5258 10.7118C19.4943 11.3937 18.6494 12.0154 18.6482 12.0934C18.6443 12.3385 22.7706 18.3335 22.9158 18.2935C22.9918 18.2727 23.9119 17.6813 24.9606 16.9795L26.8673 15.7033L26.4939 15.1389C26.2885 14.8285 26.077 14.5745 26.0241 14.5745C25.971 14.5745 25.3733 14.9527 24.6959 15.415L23.464 16.2556L23.063 15.6631C22.8424 15.3372 22.6201 14.9984 22.5689 14.91C22.5127 14.8135 22.9266 14.4535 23.6079 14.0061C24.2308 13.5972 24.7403 13.2218 24.7403 13.1717C24.7403 13.1217 24.5774 12.841 24.3782 12.5479C24 11.9913 23.9805 11.9906 23.2517 12.5081C23.0177 12.6741 22.5615 12.9805 22.2378 13.1887L21.6493 13.5674L21.2808 13.0107C21.0783 12.7044 20.9124 12.3968 20.9124 12.327C20.9124 12.2571 21.4228 11.865 22.0466 11.4554C22.6704 11.0458 23.1808 10.6541 23.1808 10.5849C23.1808 10.4312 22.5709 9.47453 22.4719 9.47297C22.4329 9.4724 21.5572 10.0299 20.5258 10.7118ZM60.2958 15.9225L57.6429 18.5368L58.7812 19.7392C60.1931 21.2309 61.2201 21.805 62.4767 21.805C64.5377 21.805 66.4221 19.9767 66.4221 17.9771C66.4221 16.819 65.9081 15.8949 64.4723 14.4721C63.821 13.8266 63.2118 13.3006 63.1184 13.3033C63.0251 13.3059 61.7549 14.4844 60.2958 15.9225ZM15.6406 14.3727C14.9398 14.8988 14.1192 16.0216 13.8453 16.8285C13.4401 18.023 13.7916 19.4385 14.7613 20.5171C16.7541 22.7336 19.6041 22.3182 21.3558 19.556L21.7605 18.9179L21.1713 18.5277L20.5819 18.1377L20.0736 18.8644C19.0738 20.2944 17.7275 20.5817 16.4896 19.6293C14.8362 18.3573 15.0762 16.3286 17.0129 15.2059C17.2526 15.067 17.2439 15.0206 16.8742 14.4616C16.6571 14.1338 16.4404 13.8676 16.3922 13.8698C16.3441 13.8722 16.0058 14.0985 15.6406 14.3727ZM36.8621 14.3136C36.2382 14.3838 35.0261 14.6071 34.1683 14.8101C20.3709 18.0743 11.7049 31.5943 14.5539 45.4105C15.3632 49.3347 17.2031 53.2521 19.6815 56.3272C20.742 57.643 23.0055 59.8659 24.2707 60.8338C30.1355 65.3207 37.8972 67.0927 45.1828 65.6079C53.094 63.9958 59.8595 58.7532 63.3804 51.5068C69.6163 38.6724 64.3717 23.2843 51.5723 16.8613C47.1793 14.6567 41.9182 13.7455 36.8621 14.3136ZM42.1226 15.062C45.7867 15.2707 50.2486 16.7734 53.559 18.9132C63.2454 25.1744 67.4265 36.9762 63.8495 47.9592C62.8945 50.8917 60.7904 54.5218 58.7554 56.7478C56.9608 58.711 55.8693 59.6502 53.7813 61.028C46.4232 65.8837 37.0156 66.4966 29.0644 62.6382C21.9666 59.1939 17.0516 52.8527 15.3589 44.9556C15.0671 43.5942 15.0314 43.0507 15.034 40.0231C15.0374 36.2884 15.1818 35.2535 16.1103 32.3133C16.6362 30.6482 18.0852 27.6368 19.0493 26.2054C22.8356 20.5843 28.5166 16.7687 35.1069 15.4204C36.5008 15.1353 39.4835 14.8715 40.4064 14.9516C40.6404 14.9719 41.4126 15.0216 42.1226 15.062ZM64.0067 15.9371C64.8638 16.913 64.966 17.8798 64.3081 18.7879C63.1797 20.3454 61.6781 20.5774 60.4141 19.3891L59.8296 18.8395L61.6018 17.1396C62.5765 16.2046 63.4152 15.4363 63.4656 15.4323C63.516 15.4284 63.7596 15.6555 64.0067 15.9371ZM36.3131 16.2069C28.5902 17.4596 21.9337 22.3318 18.4524 29.2801C17.5784 31.0243 16.8938 32.9326 16.4292 34.9192C16.0519 36.5324 16.0313 36.7964 16.0298 40.0231C16.0282 43.0193 16.0658 43.5978 16.3438 44.8667C16.8373 47.1195 17.4301 48.7896 18.4991 50.9397C21.7795 57.5381 27.8309 62.1865 35.2316 63.7929C36.5443 64.0779 37.1141 64.1162 40.052 64.1162C42.967 64.1162 43.5639 64.0767 44.8247 63.8013C47.074 63.3099 48.7458 62.7168 50.8978 61.6469C57.4675 58.3807 62.1465 52.2899 63.7519 44.9143C64.0395 43.5932 64.0758 43.0426 64.0742 40.0231C64.0726 36.7964 64.0521 36.5324 63.6748 34.9192C61.4711 25.4955 54.3255 18.4502 44.8974 16.4051C43.08 16.0109 38.214 15.8985 36.3131 16.2069ZM39.2539 28.7908C40.2363 29.2469 40.6582 29.275 41.0034 28.9068C41.2231 28.6726 41.8036 28.5461 42.4306 28.5959C42.5705 28.6069 42.6027 29.0848 42.5723 30.7014L42.5331 32.7925L41.8131 32.8345L41.0932 32.8766L40.9207 32.3006C40.5737 31.1426 39.637 30.428 38.0883 30.1401C36.277 29.8032 34.8063 30.3651 34.8063 31.3942C34.8063 32.3272 35.3696 32.6207 38.159 33.141C41.4428 33.7535 42.6193 34.4591 43.1165 36.114C43.5649 37.6068 43.1891 39.2026 42.1557 40.1931C41.3047 41.0084 40.4677 41.2816 38.6304 41.3431C37.1415 41.393 36.9019 41.3644 35.9367 41.0203C34.3244 40.4456 34.1845 40.4348 33.8495 40.8607C33.6059 41.1704 33.4467 41.2281 32.8365 41.2281H32.1126V38.9598V36.6913H32.863H33.6133L33.7794 37.3125C34.1535 38.7107 35.4399 39.5178 37.4803 39.634C39.3841 39.7426 40.3718 39.3115 40.5638 38.2883C40.7745 37.1657 40.122 36.751 37.3939 36.2738C34.3344 35.7385 33.202 35.1518 32.4538 33.7141C32.085 33.0053 32.0818 30.9992 32.4483 30.3115C32.824 29.6066 33.2326 29.1933 33.8848 28.8586C34.8154 28.3808 35.0873 28.3351 36.7912 28.3704C38.2272 28.4002 38.5208 28.4503 39.2539 28.7908ZM53.4293 28.5498C56.1104 29.2367 57.492 31.3813 57.4868 34.8483C57.481 38.6768 55.449 41.0833 52.0005 41.346C48.1631 41.6383 45.8883 40.513 45.0124 37.8888C44.4381 36.1681 44.5107 33.4155 45.1773 31.6335C45.7244 30.1714 47.204 28.9395 48.9129 28.5234C49.9527 28.2702 52.3935 28.2845 53.4293 28.5498ZM30.6672 29.2819C30.6251 29.9363 30.6105 29.9558 30.0997 30.0381C29.0961 30.2 29.1353 30.0037 29.1353 34.8656C29.1353 39.0543 29.1475 39.2555 29.4189 39.5269C29.5944 39.7024 29.8914 39.8104 30.1986 39.8104H30.6948V40.5193V41.2281H27.434H24.1732V40.5193C24.1732 39.8128 24.1748 39.8104 24.6378 39.8104C24.8934 39.8104 25.2443 39.711 25.4176 39.5897C25.7319 39.3696 25.7327 39.3567 25.7327 34.9192C25.7327 30.4816 25.7319 30.4687 25.4176 30.2487C25.2443 30.1273 24.8934 30.0279 24.6378 30.0279C24.1748 30.0279 24.1732 30.0255 24.1732 29.3191V28.6102H27.4418H30.7104L30.6672 29.2819ZM50.0649 30.2275C49.2862 30.5173 48.6058 31.235 48.3155 32.0729C48.0087 32.958 47.9771 35.9287 48.2616 37.1167C48.6885 38.8984 49.4036 39.5293 50.9901 39.5237C53.3562 39.5155 54.2367 37.9873 54.0453 34.2218C53.9338 32.0299 53.601 31.1189 52.6562 30.4194C52.1661 30.0564 50.7968 29.9552 50.0649 30.2275ZM23.4788 45.8032C24.2818 46.3397 24.481 46.9009 24.4214 48.4587C24.3625 50.001 24.1627 50.5043 23.3692 51.1096C22.9216 51.451 22.6925 51.5139 21.7386 51.5573L20.6288 51.6078V51.1216V50.6355L21.3023 50.6458C21.6727 50.6515 22.1786 50.5706 22.4265 50.4659C22.8745 50.2768 23.3225 49.5882 23.3225 49.0887C23.3225 48.8539 23.3068 48.8542 23.0404 49.0954C22.8845 49.2365 22.4535 49.3799 22.0771 49.4161C21.4917 49.4724 21.332 49.428 20.944 49.1016C20.198 48.4737 20.0449 47.3418 20.5677 46.3179C20.9899 45.491 22.5884 45.2085 23.4788 45.8032ZM28.6405 45.9507C29.2558 46.566 29.4642 47.382 29.3898 48.884C29.2926 50.845 28.7284 51.6014 27.3631 51.6014C25.9121 51.6014 25.2608 50.6522 25.2656 48.5449C25.2708 46.3223 25.859 45.483 27.4128 45.482C28.0826 45.4814 28.2261 45.5363 28.6405 45.9507ZM33.5794 45.9653C34.207 46.5929 34.4448 47.5523 34.3424 49.0449C34.2199 50.833 33.5868 51.6098 32.2603 51.5996C30.8158 51.5884 30.207 50.678 30.2073 48.5296C30.2074 47.0307 30.4124 46.3337 30.9987 45.8405C31.3497 45.5452 31.5737 45.4814 32.2605 45.4814C33.0218 45.4814 33.1383 45.5242 33.5794 45.9653ZM38.0671 48.5296V51.5777H37.417H36.7668L36.8144 49.2383C36.8406 47.9517 36.8426 46.899 36.819 46.899C36.7951 46.8991 36.5718 47.0903 36.3227 47.3238C36.0735 47.5574 35.8329 47.7488 35.788 47.7491C35.7432 47.7495 35.5657 47.5999 35.3937 47.4169L35.0809 47.084L36.0423 46.2942C36.8144 45.6599 37.1086 45.5021 37.5355 45.4929L38.0671 45.4814V48.5296ZM44.8762 45.723C45.4346 46.1079 45.5719 46.3618 45.5767 47.0195C45.5831 47.8936 45.2746 48.4394 44.1731 49.5027L43.2092 50.4335L44.5015 50.4739L45.7939 50.5144L45.8378 51.0461L45.8819 51.5777H43.7467H41.6115V51.1262C41.6115 50.7506 41.8143 50.4673 42.8159 49.4439C43.4783 48.7669 44.1197 47.9752 44.2412 47.6844C44.4415 47.205 44.4413 47.1241 44.2386 46.8148C43.9582 46.3869 43.4142 46.3699 42.7599 46.7689L42.2777 47.0628L41.9271 46.7121C41.5191 46.304 41.5802 46.147 42.2942 45.7699C42.9794 45.408 44.3822 45.3824 44.8762 45.723ZM49.5434 45.6902C50.2324 46.0465 50.5928 47.0175 50.5937 48.5192C50.595 50.6871 49.9978 51.5884 48.5525 51.5996C47.1804 51.6102 46.5494 50.7943 46.459 48.8931C46.3871 47.3813 46.5953 46.5656 47.2102 45.9507C47.6199 45.5409 47.7722 45.4814 48.4096 45.4814C48.8111 45.4814 49.3214 45.5754 49.5434 45.6902ZM54.3713 48.5296V51.5777H53.7333H53.0953V49.2237V46.8698L52.5941 47.3097C51.9859 47.8438 51.9169 47.8489 51.6108 47.3818C51.3822 47.0328 51.3832 47.0043 51.6299 46.8307C51.7731 46.7299 52.2092 46.3873 52.5991 46.0695C53.1419 45.6269 53.4324 45.4903 53.8396 45.4865L54.3713 45.4814V48.5296ZM59.3334 46.0425V46.6037L58.2346 46.6451L57.1359 46.6865L57.0919 47.2181L57.0478 47.7498H57.7723C58.6879 47.7498 59.2319 48.0292 59.5269 48.6511C60.0081 49.6652 59.6579 50.8486 58.7348 51.3276C58.165 51.6232 56.6663 51.6916 56.0371 51.4506C55.7108 51.3255 55.6472 51.2173 55.6472 50.7863C55.6472 50.3521 55.6861 50.2871 55.8953 50.3719C56.0317 50.4272 56.534 50.5059 57.0115 50.5469C57.7658 50.6115 57.9193 50.5816 58.1812 50.3198C58.5631 49.9378 58.567 49.3935 58.1904 49.017C57.9473 48.7738 57.7502 48.7313 57.0208 48.7639C55.6713 48.8243 55.7383 48.9935 56.0178 46.2257L56.093 45.4814H57.7132H59.3334V46.0425ZM21.7002 46.789C21.2063 47.494 21.5781 48.4614 22.3413 48.4565C23.2137 48.451 23.5525 47.446 22.9261 46.7219C22.6209 46.3692 21.9693 46.4048 21.7002 46.789ZM26.7639 46.8575C26.4006 47.4118 26.4043 49.6521 26.7695 50.2099C27.0966 50.7095 27.6963 50.6843 27.9603 50.16C28.2202 49.6436 28.1972 47.4155 27.9265 46.8921C27.6423 46.3424 27.1118 46.3265 26.7639 46.8575ZM31.7545 46.7613C31.4104 47.1416 31.2947 49.1264 31.5688 49.9473C31.7324 50.4373 31.8214 50.5205 32.2223 50.5591C32.6363 50.5989 32.709 50.5496 32.8958 50.1028C33.1674 49.4525 33.1697 47.612 32.8996 46.9655C32.6583 46.3879 32.1712 46.301 31.7545 46.7613ZM47.9732 46.7079C47.701 47.0354 47.6326 49.6785 47.8838 50.16C48.1571 50.6834 48.7547 50.7085 49.0812 50.2102C49.4464 49.653 49.4501 47.4119 49.0869 46.8575C48.7992 46.4185 48.2727 46.3478 47.9732 46.7079ZM40.7916 47.2646C41.0369 47.8028 40.7912 48.1042 40.1074 48.1042C39.6081 48.1042 39.5514 48.0664 39.5101 47.7058C39.4506 47.1874 39.7022 46.8992 40.2142 46.8992C40.5183 46.8992 40.6684 46.9941 40.7916 47.2646ZM40.7559 50.5759C40.9884 51.0103 40.9299 51.2698 40.5424 51.5237C40.0354 51.8559 39.4849 51.6051 39.4849 51.042C39.4849 50.8221 39.5615 50.5655 39.655 50.4719C39.9245 50.2024 40.5896 50.2652 40.7559 50.5759ZM61.9806 57.5075L61.3072 58.1912L62.0076 59.7403C62.3928 60.5922 62.6906 61.3076 62.6696 61.3299C62.6485 61.3521 61.9168 61.1036 61.0436 60.7776L59.4559 60.1849L58.8339 60.8789C58.4918 61.2605 58.209 61.6049 58.2056 61.644C58.202 61.683 59.2679 61.998 60.5739 62.3438L62.9487 62.9725L64.1736 64.0814L65.3984 65.1903L65.9557 64.53L66.513 63.8698L65.3566 62.7595L64.2002 61.6493L63.5187 59.4135C63.1439 58.1839 62.796 57.0982 62.7456 57.0008C62.6841 56.8818 62.4333 57.0478 61.9806 57.5075ZM16.3328 58.7294C15.5994 58.991 14.7586 59.5924 14.3171 60.1713C13.1478 61.7043 13.2333 63.4084 14.5624 65.0624C14.9388 65.5307 16.0895 66.4641 16.2904 66.4641C16.335 66.4641 16.5475 66.1981 16.7626 65.873C17.0537 65.4334 17.105 65.2658 16.9637 65.2187C16.5789 65.0904 15.7835 64.2774 15.501 63.7234C14.93 62.6044 15.4441 61.2906 16.7435 60.5473C17.875 59.9001 19.2778 60.3434 20.0005 61.5767C20.2049 61.9255 20.4006 62.2108 20.4353 62.2108C20.6325 62.2108 21.6213 61.6151 21.6213 61.4963C21.6213 61.1964 20.9114 60.2514 20.2177 59.6277C19.0791 58.6041 17.6262 58.2681 16.3328 58.7294ZM56.917 62.5032C56.5695 62.7357 56.3003 62.9858 56.3187 63.0589C56.3624 63.2315 57.1696 64.5092 58.2359 66.0931C58.7022 66.7856 58.9963 67.3011 58.8895 67.2386C58.7827 67.1759 58.4307 66.9456 58.1072 66.7265C57.7837 66.5076 56.7071 65.8882 55.7149 65.35L53.9108 64.3716L53.0783 64.8861C52.5475 65.2143 52.272 65.4714 52.3184 65.5956C52.4234 65.8771 55.929 71.4607 56.1443 71.6894C56.2957 71.85 56.4324 71.8188 56.9788 71.4987C57.3816 71.2626 57.594 71.0529 57.5326 70.952C57.4778 70.862 56.8119 69.8152 56.0527 68.6262C55.2935 67.4371 54.6971 66.4641 54.7273 66.4641C54.7576 66.4641 55.0568 66.649 55.392 66.8751C55.7273 67.1011 56.9197 67.7968 58.0418 68.421L60.0818 69.5562L60.7696 69.133C61.1478 68.9002 61.4858 68.6637 61.5206 68.6073C61.5658 68.5343 57.828 62.3766 57.5769 62.11C57.5615 62.0937 57.2645 62.2705 56.917 62.5032ZM22.288 63.2576C20.5082 63.9204 19.3487 65.5739 19.356 67.4389C19.3614 68.8222 20.0616 69.8456 21.5189 70.6002C22.3389 71.0249 23.7321 71.0285 24.5437 70.6082C25.3562 70.1872 26.3713 69.0078 26.7175 68.0823C27.2367 66.6949 27.0429 65.4473 26.1511 64.434C25.1782 63.3289 23.4829 62.8125 22.288 63.2576ZM24.5554 64.8983C25.6278 65.5522 25.4598 67.2854 24.1977 68.5906C23.4065 69.4089 22.7204 69.6125 21.9663 69.2528C20.717 68.6571 20.8131 66.7145 22.1587 65.369C22.9595 64.5681 23.7571 64.4115 24.5554 64.8983ZM29.7075 66.6631C29.6434 66.8319 29.1254 68.4557 28.5563 70.2717C27.7014 72.9996 27.5567 73.5951 27.723 73.698C27.9468 73.8363 28.9836 74.0353 29.0636 73.9553C29.0917 73.9273 29.4495 72.7566 29.8588 71.3539C30.6173 68.7548 30.8752 68.1024 30.737 69.1324C30.6944 69.4493 30.706 70.759 30.7626 72.0428L30.8657 74.3771L31.5064 74.5385C31.8588 74.6272 32.1621 74.681 32.1804 74.658C32.1987 74.635 32.9004 73.4678 33.7399 72.0642C34.5793 70.6606 35.2253 69.6878 35.1754 69.9023C34.7313 71.807 34.0996 75.0554 34.1485 75.1826C34.2209 75.3714 35.5468 75.7019 35.6753 75.5631C35.7642 75.4672 37.0747 68.6523 37.0747 68.2862C37.0747 68.1624 36.687 68.0058 35.9872 67.8467C35.389 67.7107 34.8888 67.6152 34.8758 67.6343C34.5561 68.1013 33.0255 70.7407 32.6974 71.3908C32.4516 71.8782 32.223 72.2769 32.1896 72.2769C32.1563 72.2769 32.1246 71.0854 32.1194 69.6289C32.1142 68.1726 32.0861 66.9575 32.0573 66.9286C32.0284 66.8996 31.514 66.7591 30.9145 66.6164L29.8242 66.3565L29.7075 66.6631ZM47.7078 66.946L46.6445 67.2528L46.6068 71.2696C46.5724 74.9478 46.5888 75.2787 46.8023 75.1967C46.9305 75.1475 47.3144 75.0371 47.6552 74.9512L48.2749 74.7952V73.7587V72.7223L49.0901 72.4915C49.5386 72.3646 50.0072 72.2314 50.1316 72.1954C50.2887 72.1498 50.5194 72.3913 50.8847 72.9831C51.1744 73.4525 51.4497 73.8364 51.4965 73.8364C51.5845 73.8364 53.1319 73.3765 53.2103 73.3271C53.2544 73.2992 49.0371 66.8978 48.8635 66.7288C48.8127 66.6796 48.2927 66.7773 47.7078 66.946ZM39.4849 68.1258C39.29 68.1609 39.0888 68.2319 39.0377 68.2838C38.9422 68.3808 39.297 75.6806 39.4022 75.7859C39.4346 75.8183 39.8261 75.799 40.2725 75.7433L41.0838 75.6419L41.0046 74.3138L40.9253 72.9857H41.4554C43.4903 72.9857 44.9045 71.4855 44.52 69.7346C44.3926 69.154 43.7956 68.4585 43.2177 68.217C42.7738 68.0316 40.3418 67.9722 39.4849 68.1258ZM48.9128 69.6475C49.3452 70.3364 49.6818 70.9147 49.6605 70.9326C49.6392 70.9506 49.2868 71.062 48.8775 71.1802L48.1332 71.3952V70.0754C48.1332 69.3495 48.0911 68.6388 48.0397 68.496C47.8848 68.0654 48.0874 68.3328 48.9128 69.6475ZM42.446 69.5477C42.6103 69.6841 42.7844 70.0005 42.8328 70.2509C42.9064 70.6317 42.8503 70.7763 42.4897 71.137C42.1549 71.4717 41.9335 71.568 41.4984 71.568C40.9843 71.568 40.9307 71.5314 40.8495 71.1249C40.8007 70.8812 40.7609 70.3708 40.7609 69.9908V69.2996H41.454C41.9058 69.2996 42.2512 69.3859 42.446 69.5477Z" fill="white"/>
<path fill-rule="evenodd" clip-rule="evenodd" d="M3.89335 110.111C2.56167 110.358 1.66614 110.822 0.880017 111.671C-0.0934268 112.722 0.00260802 110.135 0.00260802 135.309V157.372L0.223526 157.989C0.81824 159.65 2.24396 160.912 3.92922 161.269C4.46225 161.382 9.93908 161.402 40.0013 161.402C78.8701 161.402 76.0897 161.445 77.3059 160.831C78.0394 160.46 79.069 159.462 79.4089 158.791C80.0049 157.615 79.9611 159.419 79.9815 135.194L80 113.147L79.6893 112.516C79.161 111.442 78.0744 110.627 76.5837 110.187C76.0437 110.028 74.1753 110.018 40.286 110.003C11.3286 109.991 4.43169 110.011 3.89335 110.111ZM75.7321 111.593C76.8666 111.803 77.7672 112.489 78.2517 113.513L78.5289 114.1L78.529 128.872L78.5291 143.645L78.2207 144.047C78.0455 144.276 77.6663 144.586 77.3429 144.764C76.1514 145.424 79.2701 145.376 39.6692 145.347L3.89335 145.32L3.36136 145.117C2.36656 144.736 1.79026 144.271 1.5255 143.638C1.39511 143.326 1.3786 141.677 1.3786 128.974C1.3786 113.208 1.34814 114.038 1.9624 113.081C2.4365 112.342 3.35747 111.731 4.21789 111.586C4.93436 111.465 75.0755 111.472 75.7321 111.593ZM35.9208 114.91C30.813 115.67 26.7868 117.497 23.909 120.361C21.9494 122.311 20.8503 124.359 20.4542 126.8C20.102 128.97 20.6427 131.548 21.8834 133.613C24.3887 137.781 29.8506 140.991 35.9846 141.9C36.5497 141.984 37.1508 142.074 37.3205 142.101L37.6289 142.15V140.111V138.073L37.1781 138.011C36.0071 137.853 34.9265 137.649 33.928 137.398C28.7305 136.091 25.0917 133.249 24.2961 129.875C24.1138 129.102 24.1149 127.624 24.2985 126.907C25.2164 123.321 29.3865 120.318 35.0193 119.186C35.7399 119.042 37.3628 118.797 37.6027 118.797C37.6171 118.797 37.6289 117.879 37.6289 116.757V114.716L37.3679 114.725C37.2245 114.729 36.5732 114.813 35.9208 114.91ZM41.235 128.473V142.229L41.8755 142.179C43.2188 142.075 45.4128 141.728 46.644 141.426C52.0665 140.094 56.3829 137.151 58.3975 133.411C59.1508 132.012 59.6448 130.112 59.6448 128.612V128.002H52.2429H44.841V123.589C44.841 119.291 44.8458 119.177 45.0243 119.177C45.1252 119.177 45.7013 119.304 46.3046 119.459C49.9545 120.4 53.0565 122.26 54.7204 124.505L55.2055 125.159L57.1168 125.133C59.3263 125.104 59.1832 125.206 58.6432 124.034C58.1556 122.977 57.5156 122.082 56.4722 120.998C53.4216 117.831 48.6225 115.637 43.0585 114.865C42.4695 114.783 41.8183 114.716 41.6113 114.716H41.235V128.473ZM28.9934 126.435V127.622H30.4629H31.9324L31.9575 130.54L31.9826 133.458L34.0466 133.484L36.1106 133.51V130.568V127.627L37.6052 127.601L39.0998 127.575V126.436V125.297L34.0466 125.273L28.9934 125.248V126.435ZM55.4694 131.117C55.4694 131.16 55.2182 131.576 54.9113 132.042C53.5723 134.074 51.1006 135.819 48.0675 136.873C47.0734 137.218 45.3218 137.681 45.0071 137.681C44.8521 137.681 44.841 137.46 44.841 134.36V131.039H50.1552C53.078 131.039 55.4694 131.074 55.4694 131.117ZM2.80555 146.482C3.09072 146.588 3.64424 146.725 4.03569 146.786C4.56986 146.869 13.6501 146.889 40.4283 146.866C74.5311 146.837 76.1344 146.828 76.6786 146.664C76.9918 146.57 77.5595 146.326 77.9402 146.122L78.6323 145.751L78.6045 151.467L78.5766 157.182L78.3579 157.723C78.0515 158.482 77.42 159.149 76.6507 159.528L76.0183 159.839H40.0013H3.98426L3.35775 159.531C2.6151 159.165 2.03196 158.57 1.67847 157.816L1.42605 157.277L1.39881 151.513L1.37167 145.748L1.82936 146.018C2.08112 146.167 2.52039 146.375 2.80555 146.482ZM13.5727 149.767C12.5977 150.222 11.9726 151.242 11.7919 152.673C11.6578 153.736 11.7911 154.801 12.1613 155.626C12.4652 156.303 13.2221 157.043 13.7842 157.211C14.2542 157.352 14.9728 157.357 15.4569 157.222C16.1492 157.03 16.9664 156.035 17.1845 155.119C17.241 154.882 17.21 154.844 16.833 154.682C16.0189 154.334 16.0133 154.334 15.9038 154.734C15.5693 155.957 14.4731 156.368 13.6754 155.571C13.0054 154.901 12.8577 152.73 13.4082 151.643C13.6393 151.187 14.3327 150.824 14.8043 150.913C15.2569 150.998 15.6828 151.383 15.8161 151.828C15.9406 152.243 15.9314 152.241 16.6569 152.068C17.1228 151.957 17.1761 151.919 17.154 151.716C17.1404 151.591 17.0012 151.227 16.845 150.906C16.3957 149.986 15.679 149.543 14.6434 149.544C14.2192 149.545 13.9104 149.609 13.5727 149.767ZM35.8863 149.682C35.0641 149.975 34.5922 150.714 34.5922 151.707C34.5922 152.961 35.165 153.564 36.8522 154.088C37.3651 154.248 37.8565 154.457 37.9441 154.554C38.1639 154.797 38.1461 155.347 37.9085 155.649C37.6687 155.954 37.0959 156.137 36.6453 156.052C36.2158 155.972 35.7561 155.515 35.6764 155.09C35.6423 154.909 35.5781 154.738 35.5335 154.71C35.4286 154.646 34.5591 154.761 34.397 154.861C34.2954 154.924 34.3022 155.045 34.4339 155.519C34.6479 156.289 35.0034 156.805 35.5338 157.117C35.9272 157.348 36.0578 157.372 36.9172 157.372C37.7078 157.372 37.9295 157.338 38.2457 157.168C38.9669 156.78 39.3367 156.182 39.4075 155.289C39.4743 154.449 39.3043 153.943 38.7814 153.424C38.3992 153.045 38.1973 152.94 37.2613 152.629C36.0804 152.238 35.8259 152.061 35.8259 151.631C35.8259 151.272 36.0979 150.995 36.5317 150.914C37.2044 150.788 37.7665 151.114 37.8753 151.694C37.9326 151.999 37.9506 152.011 38.3749 152.009C38.6171 152.009 38.9162 151.981 39.0396 151.948C39.2443 151.893 39.2591 151.851 39.2074 151.474C39.0912 150.626 38.4682 149.843 37.7501 149.644C37.2548 149.506 36.3262 149.525 35.8863 149.682ZM42.468 149.632C41.4314 149.947 40.6331 150.956 40.376 152.276C40.2079 153.139 40.3048 154.758 40.5656 155.446C40.8066 156.082 41.4766 156.867 42.0308 157.163C42.5938 157.464 44.0501 157.466 44.6038 157.166C45.7266 156.559 46.3593 155.231 46.3593 153.481C46.3593 151.586 45.5636 150.124 44.2969 149.693C43.8421 149.538 42.8824 149.506 42.468 149.632ZM17.7956 150.302V150.967H18.6971H19.5986V154.146V157.325H20.2629H20.9272V154.146V150.967H21.8287H22.7302V150.302V149.638H20.2629H17.7956V150.302ZM23.4894 153.481V157.325L25.2687 157.324C26.2474 157.324 27.2057 157.28 27.3983 157.226C27.8303 157.106 28.441 156.441 28.5971 155.92C28.7824 155.301 28.7354 154.491 28.4831 153.956C28.0243 152.983 27.562 152.77 25.9123 152.77H24.723V151.868V150.967H26.4312H28.1393V150.302V149.638H25.8143H23.4894V153.481ZM32.1249 153.481V157.325H32.7892H33.4535V153.481V149.638H32.7892H32.1249V153.481ZM50.5541 149.84C49.7814 150.223 49.3954 151.006 49.397 152.189C49.3976 152.746 49.4487 153.021 49.6191 153.387C49.8611 153.907 50.4003 154.44 50.7795 154.536C51.197 154.641 51.7729 154.509 52.0469 154.247L52.3043 154L52.2284 154.63C52.1335 155.419 51.8958 155.92 51.5622 156.035C51.2227 156.152 50.8331 155.898 50.7554 155.51L50.6977 155.221L50.1181 155.287C49.7992 155.324 49.5229 155.368 49.5039 155.385C49.4242 155.458 49.7158 156.4 49.9037 156.675C50.2163 157.135 50.5671 157.347 51.0988 157.398C52.1227 157.496 52.9279 156.881 53.2996 155.715C53.5507 154.929 53.6468 152.997 53.4821 152.048C53.1448 150.104 51.907 149.171 50.5541 149.84ZM55.6705 149.8C55.2548 150.005 54.8421 150.582 54.6366 151.245C54.3971 152.018 54.3992 155.168 54.6396 155.856C55.0032 156.897 55.6145 157.42 56.4682 157.42C56.9728 157.42 57.1994 157.321 57.6284 156.915C58.292 156.287 58.6338 154.414 58.4339 152.502C58.2714 150.948 57.8846 150.14 57.1126 149.744C56.809 149.589 56.0396 149.619 55.6705 149.8ZM60.5102 149.8C60.0945 150.005 59.6818 150.582 59.4763 151.245C59.2368 152.018 59.2389 155.168 59.4793 155.856C59.8429 156.897 60.4542 157.42 61.3079 157.42C61.8125 157.42 62.0391 157.321 62.4681 156.915C63.1317 156.287 63.4735 154.414 63.2736 152.502C63.1111 150.948 62.7243 150.14 61.9523 149.744C61.6487 149.589 60.8793 149.619 60.5102 149.8ZM66.0171 150.149C65.7452 150.631 65.1774 151.183 64.698 151.432C64.5038 151.533 64.4845 151.611 64.4845 152.299C64.4845 152.714 64.5207 153.054 64.5651 153.054C64.6885 153.054 65.3489 152.553 65.6944 152.197L66.0028 151.88V154.602V157.325H66.6197H67.2365V153.481V149.638H66.771C66.3071 149.638 66.3048 149.64 66.0171 150.149ZM44.1782 151.157C44.7882 151.592 45.0986 152.614 45.0033 153.875C44.8796 155.51 43.9434 156.39 42.795 155.952C42.2718 155.752 41.9661 155.363 41.7534 154.626C41.5376 153.879 41.5972 152.529 41.8735 151.904C42.0643 151.473 42.5275 151.034 42.8956 150.935C43.2336 150.845 43.9013 150.96 44.1782 151.157ZM51.8404 151.177C52.1614 151.443 52.2813 152.464 52.0375 152.854C51.8469 153.159 51.4431 153.29 51.1123 153.153C50.5117 152.904 50.391 151.562 50.9298 151.125C51.1597 150.939 51.5826 150.963 51.8404 151.177ZM56.6963 151.058C57.0547 151.25 57.13 151.687 57.13 153.576C57.13 155.122 57.106 155.423 56.9623 155.686C56.7552 156.065 56.39 156.181 56.1334 155.949C55.7939 155.641 55.7113 155.168 55.7113 153.529C55.7113 151.85 55.8024 151.361 56.162 151.109C56.4009 150.942 56.4677 150.936 56.6963 151.058ZM61.536 151.058C61.8944 151.25 61.9697 151.687 61.9697 153.576C61.9697 155.122 61.9457 155.423 61.802 155.686C61.5949 156.065 61.2297 156.181 60.9731 155.949C60.6336 155.641 60.551 155.168 60.551 153.529C60.551 151.85 60.6421 151.361 61.0017 151.109C61.2406 150.942 61.3074 150.936 61.536 151.058ZM27.0342 154.318C27.3578 154.53 27.4573 155.054 27.2546 155.479C27.064 155.879 26.6811 155.995 25.5534 155.996L24.723 155.996V155.035V154.074L25.7576 154.116C26.508 154.147 26.8586 154.203 27.0342 154.318Z" fill="white"/>
<path fill-rule="evenodd" clip-rule="evenodd" d="M36.9299 192.066C36.4953 192.118 35.713 192.208 35.1914 192.265C34.0356 192.394 32.0091 192.723 31.293 192.899C28.5638 193.569 27.5158 193.893 25.2346 194.772C23.9323 195.274 20.7794 196.776 20.7215 196.922C20.7021 196.97 20.6288 197.01 20.5584 197.01C20.3884 197.01 17.6122 198.706 17.4377 198.917C17.4087 198.952 17.2664 199.042 17.1216 199.118C16.8943 199.236 15.2683 200.437 15.1197 200.596C15.0907 200.627 14.6877 200.958 14.2241 201.331C13.3148 202.062 10.2296 205.097 9.63549 205.844C9.43562 206.095 9.21372 206.363 9.1425 206.44C8.97096 206.624 8.04398 207.79 7.87265 208.037C7.79848 208.144 7.44994 208.634 7.09813 209.127C6.74642 209.619 6.3353 210.236 6.18452 210.497C6.03375 210.757 5.88223 210.994 5.84767 211.023C5.62325 211.212 3.92163 214.446 3.32569 215.818C3.19978 216.107 3.05375 216.439 3.00128 216.555C2.73376 217.146 1.96513 219.236 1.89728 219.558C1.8545 219.761 1.78307 219.974 1.7385 220.032C1.69393 220.09 1.62449 220.303 1.58414 220.506C1.54379 220.709 1.42357 221.159 1.31694 221.507C1.21042 221.855 1.02751 222.59 0.910657 223.14C0.0973565 226.969 0 227.927 0 232.096C0 235.469 0.0228637 235.809 0.429145 238.471C0.701931 240.258 1.41777 243.322 1.73386 244.055C1.78391 244.171 1.97715 244.74 2.16332 245.319C2.34961 245.899 2.53779 246.42 2.58151 246.478C2.62524 246.536 2.69615 246.702 2.73913 246.847C2.78212 246.992 2.91172 247.324 3.0272 247.585C3.14268 247.845 3.35277 248.32 3.49406 248.638C4.01783 249.82 5.14311 251.957 5.68531 252.8C6.65223 254.303 7.05019 254.911 7.13058 255.01C7.17947 255.069 7.50251 255.497 7.84842 255.961C8.19433 256.425 8.54308 256.875 8.62337 256.962C8.70366 257.049 8.99878 257.404 9.27926 257.752C10.5608 259.341 13.1645 261.906 14.8102 263.2C15.0093 263.356 15.4331 263.69 15.7518 263.941C18.1348 265.817 21.6797 267.841 24.8356 269.128C30.1688 271.302 36.0923 272.309 41.863 272.021C44.7941 271.876 47.1473 271.531 49.8369 270.855C50.0687 270.796 50.5423 270.678 50.8893 270.591C51.2363 270.504 51.5682 270.398 51.6268 270.355C51.6855 270.312 51.9883 270.215 52.2999 270.139C52.6115 270.063 52.9908 269.936 53.1428 269.856C53.2949 269.777 53.4904 269.71 53.5773 269.708C53.6643 269.706 53.925 269.612 54.1568 269.5C54.3886 269.388 54.631 269.295 54.6955 269.293C54.8075 269.29 55.4633 269.008 56.949 268.326C57.3256 268.152 57.705 267.968 57.7919 267.917C57.8788 267.865 58.2989 267.643 58.7255 267.423C59.8971 266.82 60.0436 266.737 60.1955 266.585C60.2727 266.508 60.3816 266.445 60.4378 266.445C60.4939 266.445 60.6683 266.358 60.8253 266.252C60.9824 266.145 61.585 265.743 62.1645 265.358C64.7005 263.67 66.1135 262.51 68.3639 260.267C69.3544 259.28 70.8174 257.636 71.2689 257.002C71.4085 256.806 71.5627 256.646 71.6114 256.646C71.66 256.646 71.6999 256.595 71.6999 256.533C71.6999 256.471 71.9136 256.151 72.1748 255.822C72.436 255.493 72.6862 255.176 72.7307 255.118C73.0518 254.7 74.2286 252.842 74.2286 252.753C74.2286 252.692 74.2702 252.642 74.3212 252.642C74.3721 252.642 74.4761 252.488 74.5523 252.3C74.6284 252.111 74.7208 251.933 74.7577 251.905C74.7945 251.876 74.8975 251.71 74.9868 251.536C76.2639 249.046 76.7881 247.949 77.0767 247.163C78.2656 243.925 78.7549 242.345 79.133 240.525C79.836 237.142 80.0904 234.123 79.9722 230.568C79.8648 227.336 79.5995 225.386 78.8471 222.297C78.4131 220.516 77.4295 217.59 76.8106 216.239C75.7062 213.829 74.5668 211.68 73.7627 210.491C73.5843 210.228 73.3909 209.933 73.333 209.836C73.091 209.431 72.3374 208.38 71.6475 207.485C69.5205 204.724 66.3803 201.668 63.6452 199.697C63.4844 199.581 63.2968 199.439 63.2283 199.381C63.1598 199.323 63.0259 199.228 62.9306 199.17C62.8353 199.112 62.362 198.804 61.8788 198.485C60.3015 197.445 59.365 196.911 57.6812 196.094C55.7143 195.139 55.4217 195.008 55.2509 195.008C55.165 195.008 55.0486 194.962 54.9926 194.906C54.8908 194.804 52.8964 194.066 51.9969 193.796C49.2705 192.98 46.3927 192.392 43.9366 192.149C42.4174 191.999 37.9361 191.946 36.9299 192.066ZM44.5161 194.099C48.9019 194.65 52.7 195.773 56.7349 197.715C61.6023 200.057 66.2459 203.759 69.6596 208.021C70.9899 209.681 71.5068 210.414 72.7419 212.393C73.7429 213.997 75.1962 217.067 75.9096 219.084C77.2819 222.965 77.8545 225.965 78.1815 230.99C78.2839 232.563 77.983 236.335 77.559 238.795C76.6834 243.874 74.591 248.999 71.5646 253.477C71.1503 254.09 70.7505 254.629 70.6761 254.676C70.6018 254.722 70.5409 254.826 70.5409 254.907C70.5409 254.988 70.4813 255.093 70.4085 255.139C70.3357 255.186 70.1359 255.413 69.9645 255.645C69.7932 255.877 69.6038 256.12 69.5437 256.185C69.4836 256.25 69.2469 256.534 69.0176 256.817C68.1563 257.878 65.1697 260.761 63.8362 261.818C62.2229 263.097 60.5142 264.265 58.9352 265.168C57.3635 266.067 53.8865 267.709 53.5535 267.709C53.4973 267.709 53.3017 267.778 53.1191 267.863C52.0785 268.344 49.1685 269.144 47.0448 269.533C44.8014 269.945 44.2802 270.008 42.0536 270.143C39.9274 270.271 36.5512 270.163 35.1387 269.921C32.4628 269.463 31.8009 269.337 30.9242 269.118C28.6774 268.556 27.9353 268.32 25.9194 267.524C20.1291 265.238 14.9497 261.526 10.8903 256.751C10.3729 256.143 9.88784 255.574 9.81219 255.487C9.73664 255.4 9.56047 255.163 9.42066 254.96C9.28094 254.757 9.13828 254.568 9.10372 254.539C8.734 254.229 6.31559 250.242 5.7165 248.954C4.50281 246.346 4.19273 245.562 3.52852 243.423C3.29461 242.669 3.05533 241.903 2.99685 241.72C2.84481 241.244 2.45897 239.302 2.17333 237.575C1.90866 235.976 1.823 234.165 1.87199 231.205C1.92341 228.093 2.07039 226.689 2.62787 223.983C2.85756 222.868 3.53642 220.406 3.7463 219.927C3.79698 219.811 3.93859 219.408 4.06092 219.031C4.53653 217.566 5.61893 215.209 6.64907 213.394C6.94514 212.873 7.20591 212.396 7.22867 212.336C7.2724 212.22 8.86581 209.819 9.07854 209.548C9.14703 209.461 9.59408 208.892 10.0722 208.284C11.6054 206.333 13.8637 204.037 15.8261 202.436C15.8971 202.378 16.0341 202.264 16.1305 202.182C16.4667 201.898 17.9189 200.848 18.8601 200.21C20.3804 199.179 22.2544 198.133 24.0229 197.328C24.4285 197.143 24.9027 196.927 25.0765 196.847C25.7736 196.529 28.0642 195.722 29.2218 195.387C31.9268 194.605 33.7457 194.269 37.1933 193.916C38.1789 193.815 43.2647 193.942 44.5161 194.099ZM37.4567 196.757C36.9062 196.83 35.7683 196.966 34.928 197.06C33.2975 197.243 32.8101 197.335 32.8041 197.461C32.802 197.504 32.8337 197.827 32.8744 198.178L32.9485 198.816L33.3324 198.76C33.5435 198.73 34.002 198.676 34.351 198.64L34.9857 198.575L35.1167 199.61C35.1888 200.179 35.3183 201.285 35.4045 202.068C35.5717 203.584 35.7345 204.595 35.8265 204.687C35.8884 204.749 37.3606 204.517 37.4457 204.432C37.4916 204.386 37.3371 203.037 36.9094 199.75C36.7068 198.194 36.6279 198.341 37.7201 198.237C38.2417 198.188 38.6958 198.103 38.7293 198.05C38.8097 197.921 38.6547 196.792 38.5439 196.699C38.4964 196.659 38.0072 196.685 37.4567 196.757ZM40.689 198.406C40.6521 199.348 40.5704 201.012 40.5074 202.105C40.4444 203.198 40.4183 204.158 40.4493 204.239C40.491 204.347 40.7237 204.386 41.3417 204.386H42.1778L42.2366 203.306C42.3929 200.437 42.5139 196.884 42.4584 196.794C42.4243 196.739 42.0273 196.694 41.5761 196.694H40.756L40.689 198.406ZM45.2029 197.261C45.1766 197.384 45.0859 197.792 45.0016 198.169C44.9172 198.546 44.7473 199.328 44.6242 199.908C44.0771 202.482 43.964 202.999 43.823 203.567C43.5833 204.534 43.5948 204.566 44.2263 204.691C45.3804 204.92 45.3899 204.918 45.4874 204.386C45.5353 204.125 45.6715 203.473 45.7903 202.937C46.0267 201.87 46.0825 201.822 46.792 202.068C46.96 202.127 47.4424 202.24 47.8639 202.32C48.7565 202.489 48.7977 202.46 48.8548 201.602L48.8887 201.094L48.4467 200.962C48.2036 200.889 47.7769 200.797 47.4984 200.758C47.2199 200.719 46.8399 200.639 46.6537 200.58C46.3435 200.482 46.3207 200.445 46.3805 200.138C46.5489 199.272 46.6936 198.856 46.8174 198.882C46.8902 198.897 47.4335 199.008 48.0246 199.129C48.6158 199.249 49.1998 199.371 49.3227 199.4C49.5658 199.458 49.6045 199.37 49.7339 198.472L49.8041 197.986L49.399 197.915C48.8239 197.815 47.064 197.44 46.6063 197.319C46.3941 197.264 46.0023 197.177 45.7357 197.127C45.2904 197.044 45.247 197.055 45.2029 197.261ZM28.1847 198.689C27.7629 198.773 26.6039 199.224 25.7795 199.625C25.1472 199.932 25.1547 199.879 25.5818 201.014C26.2975 202.915 26.654 203.864 26.8685 204.438C27.6418 206.509 27.7836 206.869 27.8543 206.941C27.9304 207.018 29.2019 206.571 29.3621 206.411C29.4062 206.367 29.2306 205.763 28.9718 205.069C28.713 204.374 28.5012 203.756 28.501 203.696C28.5008 203.577 29.0884 203.332 29.3726 203.332C29.7572 203.332 30.1031 203.612 30.5948 204.322C31.4922 205.619 31.6854 205.758 32.1359 205.437C32.1938 205.395 32.4309 205.302 32.6627 205.23C33.2381 205.05 33.3009 204.967 33.0584 204.706C32.9439 204.583 32.6688 204.212 32.4473 203.881C32.0313 203.26 31.2547 202.384 31.1198 202.384C31.0777 202.384 30.9147 202.335 30.7577 202.275C30.4725 202.167 30.4724 202.166 30.6762 201.933C30.9625 201.605 31.2405 200.954 31.2392 200.615C31.2379 200.234 30.8059 199.335 30.4808 199.036C30.0331 198.624 29.1639 198.493 28.1847 198.689ZM52.2403 199.091C52.0987 199.486 51.2409 201.611 51.0962 201.925C51.0121 202.108 50.9432 202.291 50.9432 202.331C50.9432 202.371 50.8747 202.554 50.7909 202.737C50.44 203.501 49.5735 205.747 49.5735 205.891C49.5735 206.031 50.1506 206.386 50.3797 206.388C50.4289 206.389 50.597 206.456 50.7535 206.537C50.967 206.649 51.0604 206.655 51.1284 206.563C51.1782 206.495 51.5187 205.682 51.885 204.754C52.2513 203.827 52.6397 202.87 52.7481 202.627C52.8564 202.383 52.9467 202.146 52.9487 202.1C52.9507 202.053 53.0439 201.825 53.1559 201.593C53.2679 201.362 53.361 201.122 53.363 201.06C53.365 200.999 53.4583 200.758 53.5703 200.527C53.6823 200.295 53.7889 199.968 53.8073 199.8C53.8385 199.514 53.796 199.475 53.1559 199.208C52.3246 198.862 52.3226 198.861 52.2403 199.091ZM29.0287 200.136C29.8788 200.638 29.6792 201.667 28.6394 202.143C27.9725 202.448 27.9958 202.462 27.6557 201.541C27.538 201.222 27.3877 200.855 27.3214 200.724C27.1756 200.437 27.1643 200.45 27.8163 200.185C28.4678 199.921 28.6525 199.914 29.0287 200.136ZM56.4724 200.781C56.4137 200.822 55.9399 201.558 55.4194 202.416C54.8988 203.274 54.2241 204.383 53.9198 204.881C53.6155 205.379 53.3666 205.805 53.3666 205.828C53.3666 205.851 53.263 206.021 53.1364 206.207C52.61 206.981 52.5237 207.12 52.5238 207.2C52.5238 207.265 53.8991 208.149 55.2786 208.969C55.3761 209.027 55.727 209.235 56.0583 209.432L56.6609 209.791L56.8553 209.538C56.9621 209.399 57.0508 209.232 57.052 209.166C57.0533 209.101 57.1255 208.988 57.2124 208.916C57.2993 208.844 57.3704 208.73 57.3704 208.662C57.3704 208.562 55.5993 207.391 55.2177 207.24C55.1579 207.216 55.0417 207.129 54.9596 207.047C54.831 206.919 54.835 206.852 54.9894 206.564C55.6212 205.384 55.6472 205.363 56.1172 205.678C56.7095 206.074 57.9807 206.809 58.0737 206.809C58.1657 206.809 58.7402 205.841 58.7402 205.686C58.7402 205.636 58.2423 205.292 57.6338 204.922C57.0254 204.552 56.5275 204.203 56.5275 204.146C56.5275 203.969 57.1697 202.91 57.2773 202.91C57.3335 202.91 57.6599 203.088 58.0024 203.306C59.9587 204.546 59.8371 204.49 59.9406 204.201C59.9769 204.1 60.1208 203.831 60.2603 203.604L60.5139 203.191L60.2856 203.017C60.0958 202.872 59.4179 202.449 58.5111 201.91C58.4137 201.852 58.0342 201.626 57.6679 201.408C57.3014 201.19 56.9065 200.942 56.7903 200.859C56.6741 200.775 56.531 200.74 56.4724 200.781ZM22.2844 201.429C22.2844 201.49 22.2252 201.541 22.1527 201.541C22.0803 201.541 21.771 201.731 21.4657 201.963C21.1603 202.194 20.8923 202.384 20.8703 202.384C20.8112 202.384 18.777 203.757 18.6228 203.902C18.5188 203.999 18.6988 204.336 19.4731 205.496C21.4652 208.479 21.6536 208.76 21.7319 208.864C21.7758 208.921 22.0235 209.286 22.2823 209.674C22.5577 210.086 22.7976 210.346 22.8609 210.3C22.9206 210.257 23.4671 209.892 24.0756 209.49C24.684 209.087 25.2056 208.734 25.2346 208.705C25.2635 208.676 25.6306 208.423 26.0504 208.142C26.5398 207.814 26.7854 207.586 26.7353 207.507C26.3749 206.941 26.0354 206.493 25.967 206.493C25.9217 206.493 25.3349 206.87 24.6631 207.33C23.7523 207.955 23.4143 208.136 23.3345 208.041C23.2757 207.972 23.041 207.643 22.813 207.311L22.3984 206.707L23.5524 205.941C24.1871 205.52 24.7068 205.14 24.7071 205.097C24.7074 205.054 24.5368 204.78 24.3278 204.489L23.948 203.961L23.5639 204.19C23.3528 204.316 23.0821 204.507 22.9625 204.613C22.8428 204.72 22.7148 204.807 22.678 204.807C22.6411 204.807 22.4003 204.949 22.1427 205.123C21.8851 205.297 21.6502 205.439 21.6208 205.439C21.5454 205.439 20.8082 204.316 20.814 204.21C20.8167 204.162 21.3354 203.79 21.9666 203.385C22.5978 202.979 23.1172 202.584 23.1208 202.508C23.1277 202.359 22.5617 201.489 22.3884 201.382C22.3312 201.346 22.2844 201.368 22.2844 201.429ZM61.6903 206.508C60.966 207.21 59.7704 208.378 59.0335 209.102L57.6936 210.419L58.0325 210.893C58.6506 211.758 60.0864 213.005 60.9181 213.399C62.4378 214.12 63.9411 213.81 65.2822 212.498C66.1192 211.679 66.4293 211.001 66.4306 209.989C66.4318 209.158 66.2024 208.452 65.7064 207.757C65.3318 207.233 63.296 205.228 63.1386 205.229C63.0665 205.229 62.4147 205.805 61.6903 206.508ZM15.9305 206.03C15.2778 206.457 14.1714 207.635 14.1714 207.902C14.1714 207.958 14.0992 208.084 14.011 208.181C13.9228 208.279 13.7861 208.697 13.7072 209.111C13.3881 210.786 14.0925 212.301 15.6678 213.331C16.9033 214.138 18.3228 214.13 19.5587 213.31C20.3878 212.76 21.2966 211.734 21.5531 211.06C21.6342 210.846 21.5785 210.775 21.0645 210.434C20.7454 210.222 20.4728 210.067 20.4586 210.088C20.4444 210.11 20.2562 210.401 20.0403 210.734C19.3933 211.733 18.4673 212.268 17.6141 212.136C17.0447 212.048 16.1077 211.409 15.7075 210.837C15.2638 210.202 15.2006 209.252 15.5548 208.542C15.8081 208.035 16.4594 207.389 16.8845 207.223C17.0149 207.172 17.1216 207.075 17.1216 207.007C17.1216 206.9 16.4078 205.745 16.3521 205.762C16.3406 205.765 16.151 205.886 15.9305 206.03ZM37.7728 206.134C37.6279 206.159 36.9404 206.255 36.245 206.347C34.9509 206.518 33.8617 206.751 32.5573 207.136C29.9737 207.898 27.0436 209.322 24.9768 210.821C19.7108 214.64 16.092 219.928 14.7095 225.827C14.3119 227.523 14.2766 227.707 14.1039 228.988C13.7977 231.259 13.9426 235.5 14.3778 236.996C14.4284 237.169 14.4994 237.501 14.5355 237.733C14.6532 238.487 15.4919 241.237 15.6584 241.416C15.7098 241.471 15.7518 241.585 15.7518 241.669C15.7518 241.753 15.8704 242.075 16.0153 242.385C16.1601 242.695 16.4057 243.221 16.5609 243.554C17.1871 244.898 18.6695 247.265 19.3869 248.066C19.4448 248.13 19.6108 248.344 19.7557 248.54C20.8614 250.035 23.2395 252.233 25.2553 253.623C25.9222 254.083 28.3221 255.487 28.4418 255.487C28.4725 255.487 28.7852 255.626 29.137 255.797C29.4887 255.967 29.9518 256.163 30.166 256.232C30.3802 256.301 30.6028 256.392 30.6608 256.435C30.7187 256.478 30.9558 256.57 31.1876 256.639C31.4194 256.709 31.7039 256.808 31.8198 256.86C31.9357 256.912 32.315 257.031 32.6627 257.126C35.0399 257.771 37.5662 258.115 39.9444 258.119C41.385 258.121 44.3386 257.871 44.8848 257.701C45.0587 257.647 45.5212 257.548 45.9127 257.482C46.3041 257.416 46.6506 257.319 46.6828 257.267C46.7149 257.215 46.8325 257.173 46.9441 257.173C47.4105 257.173 50.2372 256.113 51.6211 255.419C52.5131 254.972 53.9698 254.146 54.1042 254.012C54.1331 253.983 54.4392 253.769 54.7844 253.538C57.2863 251.857 59.7352 249.367 61.6223 246.584C62.8642 244.752 64.1337 242.16 64.6927 240.315C64.7892 239.996 64.91 239.63 64.9612 239.501C65.0837 239.194 65.53 237.163 65.7666 235.837C66.062 234.181 66.0352 229.872 65.7185 228.081C65.3361 225.918 64.526 223.017 64.1487 222.458C64.0715 222.344 64.0083 222.178 64.0083 222.089C64.0083 221.879 62.7932 219.473 62.2899 218.687C62.0761 218.352 61.9011 218.053 61.9011 218.022C61.9011 217.935 60.7827 216.435 60.0218 215.501C59.2518 214.557 57.6116 212.901 56.7358 212.184C56.4185 211.924 56.135 211.686 56.1061 211.654C56.027 211.569 54.1055 210.181 54.0663 210.181C54.0477 210.181 53.6337 209.94 53.1464 209.646C52.1817 209.064 50.1741 208.073 49.9599 208.073C49.8865 208.073 49.78 208.027 49.7234 207.97C49.5466 207.793 48.0261 207.295 46.3073 206.85C44.2967 206.33 42.9307 206.162 40.4069 206.123C39.103 206.103 37.9177 206.108 37.7728 206.134ZM43.4098 207.127C45.5578 207.42 47.2067 207.853 49.3087 208.673C51.0593 209.357 53.6033 210.765 54.8529 211.743C55.1245 211.956 55.46 212.212 55.5984 212.312C56.2454 212.78 58.1224 214.571 59.0219 215.578C59.3501 215.945 60.9879 218.148 61.2382 218.559C62.2201 220.169 63.5849 222.976 63.5866 223.388C63.5867 223.437 63.6536 223.627 63.735 223.809C64.1217 224.676 64.6774 227.004 64.9079 228.725C65.2816 231.514 65.1924 234.144 64.6271 236.996C63.8779 240.776 62.0962 244.631 59.7297 247.593C57.9285 249.847 55.6013 251.944 53.2796 253.405C51.5491 254.493 49.1063 255.57 47.0128 256.167C43.9663 257.036 40.6476 257.354 37.6148 257.068C34.4889 256.773 31.0591 255.761 28.3192 254.327C25.2253 252.707 22.3991 250.368 20.3011 247.69C19.8245 247.081 19.3887 246.527 19.3328 246.458C19.2488 246.353 18.7195 245.503 18.1004 244.477C17.7965 243.974 16.7125 241.7 16.593 241.315C16.5209 241.084 16.4271 240.847 16.3846 240.789C16.3421 240.731 16.1801 240.257 16.0247 239.735C15.8694 239.213 15.6967 238.64 15.6411 238.461C15.3674 237.582 15.0067 235.294 14.9017 233.769C14.706 230.932 14.9811 228.122 15.7307 225.3C15.8383 224.895 15.9558 224.492 15.9918 224.405C16.0276 224.318 16.1836 223.867 16.3386 223.404C16.7032 222.313 17.7023 220.231 18.4516 219C19.9377 216.559 21.9969 214.231 24.4443 212.225C24.7341 211.987 25.1845 211.655 25.4453 211.487C25.7061 211.319 25.9668 211.145 26.0248 211.101C26.2867 210.901 26.9362 210.497 26.9958 210.497C27.0321 210.497 27.1367 210.429 27.2281 210.347C27.4236 210.17 29.8029 208.977 30.1866 208.863C30.3315 208.82 30.4975 208.748 30.5554 208.702C30.7227 208.57 33.188 207.766 33.9615 207.592C37.3091 206.838 40.2368 206.693 43.4098 207.127ZM64.1438 208.03C64.7759 208.787 64.9207 209.636 64.5437 210.375C64.2751 210.901 63.5455 211.619 63.0145 211.88C62.4721 212.146 61.6408 212.164 61.1583 211.921C60.7997 211.741 59.8991 210.941 59.8991 210.803C59.8991 210.736 60.5689 210.072 62.5252 208.199C63.4052 207.356 63.4148 207.351 63.6502 207.536C63.7807 207.639 64.0028 207.861 64.1438 208.03ZM37.4567 207.99C34.6406 208.29 31.374 209.236 29.2911 210.353C29.1172 210.446 28.698 210.67 28.3594 210.852C27.6996 211.205 27.6159 211.254 26.9716 211.652C26.5807 211.893 25.1286 212.942 24.8004 213.22C23.5463 214.281 22.0171 215.815 21.1649 216.867C20.2753 217.965 18.9736 220.004 18.3664 221.25C17.5656 222.893 17.5057 223.036 17.0866 224.299C16.0296 227.486 15.6323 230.534 15.8537 233.754C15.9165 234.668 16.0103 235.557 16.062 235.731C16.1139 235.905 16.1877 236.284 16.2263 236.574C16.4684 238.395 17.6928 241.846 18.7233 243.612C18.8855 243.89 19.0181 244.142 19.0181 244.172C19.0181 244.256 20.5596 246.554 20.7777 246.795C20.882 246.911 21.1078 247.195 21.2795 247.427C21.7595 248.075 23.941 250.25 24.7077 250.845C25.0844 251.137 25.4592 251.432 25.5404 251.501C26.7636 252.539 30.0086 254.259 32.0305 254.942C34.8041 255.878 36.319 256.132 39.5308 256.195C41.796 256.24 42.2406 256.22 43.5346 256.015C46.9265 255.478 49.6151 254.533 52.4183 252.894C54.5407 251.653 57.019 249.495 58.8952 247.253C59.2345 246.848 60.6552 244.806 60.7171 244.634C60.7484 244.547 60.8329 244.405 60.9047 244.318C60.9765 244.231 61.2276 243.781 61.4625 243.317C63.3101 239.672 64.2195 235.974 64.2188 232.109C64.2186 230.722 63.9696 228.129 63.7526 227.254C63.6728 226.933 63.5764 226.489 63.5383 226.267C63.3182 224.988 61.9966 221.71 61.0498 220.095C60.2913 218.801 60.3229 218.85 59.6956 217.981C58.1087 215.781 56.3005 213.973 54.101 212.386C53.1997 211.736 53.2082 211.741 51.9969 211.036C49.9327 209.834 47.4785 208.899 44.9375 208.346C42.9861 207.921 39.6078 207.76 37.4567 207.99ZM38.6661 220.555C39.1156 220.698 39.5945 220.887 39.7307 220.976C40.1503 221.251 40.7007 221.185 41.0194 220.822C41.2677 220.539 41.3608 220.506 41.9076 220.506H42.5185L42.49 222.64L42.4615 224.773L41.7503 224.805C41.1919 224.829 41.0391 224.804 41.0391 224.686C41.0391 224.374 40.578 223.514 40.1771 223.079C39.8779 222.754 39.5451 222.542 39.0033 222.33C38.3364 222.069 38.1099 222.034 37.088 222.035C36.1619 222.036 35.8549 222.075 35.5602 222.232C34.716 222.68 34.4687 223.461 34.9786 224.067C35.3671 224.529 36.2178 224.795 38.5716 225.193C40.883 225.584 42.3089 226.361 42.9504 227.58C43.163 227.984 43.1927 228.193 43.1957 229.304C43.1987 230.439 43.1732 230.617 42.9468 231.043C42.3708 232.125 41.6078 232.762 40.4069 233.162C39.3971 233.499 37.3047 233.494 36.1924 233.151C35.7577 233.017 35.2369 232.82 35.0349 232.713C34.4963 232.426 34.1364 232.462 33.805 232.834C33.5441 233.127 33.4706 233.15 32.8033 233.15H32.0832V230.937C32.0832 228.9 32.0978 228.724 32.2676 228.724C32.3689 228.723 32.7009 228.693 33.0051 228.656C33.4699 228.6 33.5583 228.617 33.5583 228.759C33.5583 229.122 34.0037 230.09 34.3255 230.426C35.1678 231.306 36.0899 231.613 37.8782 231.61C39.3803 231.608 39.8004 231.482 40.2425 230.902C40.6123 230.417 40.6294 229.503 40.2752 229.172C39.9063 228.828 39.1016 228.562 37.6674 228.309C36.0608 228.026 34.6783 227.657 34.0808 227.353C33.4071 227.009 32.6633 226.257 32.3865 225.639C32.177 225.171 32.1402 224.917 32.1395 223.93C32.1387 222.926 32.1705 222.711 32.3788 222.319C32.7516 221.617 33.3101 221.066 33.9628 220.757C34.8528 220.335 34.9694 220.314 36.4675 220.305C37.6595 220.297 37.9609 220.331 38.6661 220.555ZM53.7354 220.588C55.6259 221.232 56.6522 222.362 57.2357 224.441C57.3759 224.94 57.4166 225.489 57.4127 226.828C57.4079 228.44 57.3867 228.628 57.119 229.409C56.4095 231.482 55.2653 232.584 53.2572 233.129C51.1754 233.694 48.4018 233.416 46.9863 232.5C46.3711 232.102 45.7561 231.471 45.4117 230.884C44.5681 229.448 44.3424 226.669 44.8899 224.457C45.367 222.53 46.5703 221.231 48.4357 220.629C49.4425 220.303 49.4001 220.308 51.312 220.341C52.7814 220.367 53.2168 220.412 53.7354 220.588ZM30.5868 221.27L30.5554 221.929L30.0528 221.986C29.1193 222.094 29.1668 221.854 29.0961 226.813L29.034 231.17L29.3388 231.475C29.5862 231.723 29.7345 231.78 30.1258 231.78H30.6081V232.466V233.153L27.3682 233.125L24.1282 233.097L24.0945 232.686C24.0323 231.924 24.1223 231.78 24.6619 231.78C25.0277 231.78 25.1989 231.72 25.3973 231.521L25.656 231.263V226.84V222.418L25.3784 222.2C25.1962 222.056 24.9465 221.981 24.6521 221.981C24.388 221.981 24.1846 221.927 24.1576 221.85C24.0817 221.632 24.0621 220.824 24.13 220.714C24.1688 220.651 25.438 220.612 27.4058 220.612H30.6181L30.5868 221.27ZM50.2057 222.123C50.0029 222.203 49.7184 222.317 49.5735 222.376C49.1968 222.531 48.6512 223.169 48.3996 223.749C47.8922 224.918 47.8963 228.416 48.4066 229.773C48.8723 231.012 49.6312 231.558 50.8982 231.565C53.2395 231.579 54.2163 230.01 54.0757 226.462C53.9516 223.33 53.1959 222.109 51.3221 222.015C50.8501 221.992 50.4386 222.031 50.2057 222.123ZM23.0212 236.586C23.5996 236.818 23.8649 237.217 23.8644 237.855C23.864 238.496 23.677 238.808 22.6415 239.892L21.835 240.736H22.9025H23.9702V241.105V241.474H22.2844H20.5986V241.115C20.5986 240.798 20.705 240.659 21.5111 239.929C22.013 239.475 22.5582 238.918 22.7228 238.692C23.2735 237.935 23.0461 237.154 22.2751 237.154C21.9253 237.154 21.4415 237.525 21.4415 237.793C21.4415 237.96 21.3659 237.997 21.02 237.997C20.653 237.997 20.5986 237.966 20.599 237.759C20.5996 237.356 20.9972 236.838 21.47 236.623C22.0175 236.374 22.4655 236.364 23.0212 236.586ZM27.3073 236.62C27.8768 236.879 28.1199 237.257 28.1199 237.885C28.1199 238.482 27.9363 238.771 26.8287 239.919L26.0409 240.736H27.1129H28.1847V241.107V241.479L26.5253 241.45C24.8761 241.421 24.8656 241.419 24.8309 241.175C24.8035 240.981 25.0548 240.664 26.003 239.696C26.8572 238.823 27.2318 238.363 27.2851 238.12C27.4929 237.174 26.1722 236.768 25.7614 237.652C25.6236 237.949 25.5512 237.992 25.195 237.994C24.7917 237.997 24.7876 237.993 24.8542 237.66C24.8912 237.474 24.9957 237.21 25.0863 237.071C25.2943 236.754 26.0174 236.421 26.4989 236.421C26.7017 236.421 27.0655 236.51 27.3073 236.62ZM31.871 236.714C32.7599 237.372 33.0754 239.094 32.5483 240.412C32.056 241.642 30.4644 241.92 29.6122 240.924C29.16 240.396 28.9877 239.694 29.0491 238.633C29.1092 237.595 29.4375 236.973 30.1048 236.633C30.6401 236.36 31.4434 236.397 31.871 236.714ZM36.1184 236.558C36.6666 236.787 37.1058 237.374 37.2502 238.069C37.4137 238.856 37.3203 239.967 37.0452 240.506C36.3429 241.882 34.566 241.873 33.8539 240.489C33.5484 239.895 33.4748 238.654 33.6996 237.881C34.032 236.737 35.1209 236.142 36.1184 236.558ZM40.9703 236.722C41.4971 237.048 41.8027 237.739 41.8604 238.736C41.9112 239.613 41.7119 240.509 41.3787 240.902C40.7067 241.694 39.4967 241.743 38.7623 241.009C37.8381 240.085 37.8902 237.759 38.8551 236.858C39.3792 236.369 40.3031 236.31 40.9703 236.722ZM46.9454 236.521C47.7969 236.758 48.2337 237.749 47.832 238.532C47.7304 238.73 47.2425 239.307 46.7475 239.814L45.8477 240.736H46.973H48.0984V241.105V241.474H46.4126H44.7268V241.129C44.7268 240.833 44.8742 240.639 45.7879 239.733C46.9028 238.628 47.1502 238.285 47.1502 237.844C47.1502 237.003 45.7343 236.905 45.527 237.731C45.4725 237.948 45.3966 237.997 45.1112 237.997C44.6636 237.997 44.6206 237.945 44.7344 237.549C44.981 236.688 45.9411 236.242 46.9454 236.521ZM51.5794 236.653C51.9089 236.819 52.1284 237.032 52.313 237.364C52.5471 237.786 52.5764 237.961 52.5764 238.945C52.5764 239.889 52.5406 240.124 52.3318 240.548C52.0135 241.194 51.5237 241.501 50.8016 241.508C49.8446 241.517 49.1886 240.945 48.9491 239.893C48.4217 237.577 49.8711 235.792 51.5794 236.653ZM59.332 236.618C59.8936 236.873 60.1099 237.193 60.1099 237.77C60.1099 238.165 60.0542 238.288 59.7411 238.583C59.4052 238.9 59.3907 238.936 59.5784 238.996C59.9344 239.109 60.3206 239.665 60.3206 240.064C60.3206 240.939 59.6374 241.467 58.4989 241.471C57.7904 241.474 57.156 241.2 56.8738 240.769C56.4867 240.178 56.7442 239.276 57.3757 239.01L57.6812 238.882L57.3815 238.705C56.759 238.337 56.6939 237.437 57.251 236.904C57.7777 236.399 58.6014 236.286 59.332 236.618ZM55.4739 238.997V241.474H55.0524H54.631V239.419C54.631 238.289 54.604 237.364 54.5709 237.364C54.5379 237.364 54.3041 237.507 54.0515 237.68C53.4628 238.085 53.345 238.081 53.3863 237.657C53.4337 237.17 54.3646 236.521 55.0178 236.521H55.4739V238.997ZM30.4183 237.416C29.924 237.832 29.7403 238.861 29.9862 239.838C30.1277 240.4 30.4983 240.771 30.9178 240.771C31.5611 240.771 31.8725 240.193 31.8725 238.997C31.8725 238.11 31.7028 237.584 31.3333 237.325C30.9952 237.089 30.7818 237.11 30.4183 237.416ZM35.0562 237.318C34.639 237.61 34.47 238.088 34.4618 238.997C34.4558 239.666 34.4987 239.917 34.6701 240.209C34.9638 240.711 35.3602 240.899 35.7393 240.715C36.232 240.477 36.4244 240.001 36.4227 239.022C36.4211 238.084 36.3206 237.703 35.9858 237.369C35.7292 237.112 35.3778 237.093 35.0562 237.318ZM39.5763 237.325C39.205 237.586 39.0255 238.136 39.0255 239.014C39.0255 239.932 39.2512 240.504 39.6957 240.715C40.0801 240.898 40.4762 240.712 40.7666 240.213C41.0486 239.729 41.0653 238.224 40.7944 237.71C40.5009 237.153 40.0329 237.006 39.5763 237.325ZM50.3234 237.325C49.9539 237.584 49.7843 238.11 49.7843 238.997C49.7843 240.193 50.0956 240.771 50.7389 240.771C51.4337 240.771 51.887 239.767 51.7435 238.545C51.6052 237.369 51.0013 236.851 50.3234 237.325ZM57.9049 237.431C57.5459 237.888 57.6694 238.318 58.2141 238.508C58.765 238.7 59.267 238.381 59.267 237.838C59.267 237.406 58.9849 237.154 58.5024 237.154C58.2183 237.154 58.0686 237.223 57.9049 237.431ZM43.6521 237.491C43.8456 237.684 43.8029 238.047 43.5606 238.266C43.3616 238.447 43.3181 238.45 43.0602 238.306C42.7248 238.118 42.6465 237.774 42.8848 237.536C43.0863 237.334 43.4729 237.312 43.6521 237.491ZM57.8398 239.52C57.1383 240.221 58.037 241.157 58.9933 240.721C59.351 240.558 59.4913 240.126 59.3192 239.717C59.1676 239.356 58.9886 239.261 58.4634 239.261C58.2164 239.261 58.0148 239.344 57.8398 239.52ZM43.6167 239.994C43.7433 240.134 43.782 240.286 43.7367 240.467C43.648 240.82 43.2138 240.935 42.9314 240.679C42.6791 240.451 42.6692 240.235 42.8993 239.98C43.1251 239.731 43.3828 239.736 43.6167 239.994ZM62.0238 249.486C61.5021 250.027 61.3798 250.215 61.4266 250.407C61.4847 250.644 61.8357 251.453 62.4194 252.695C62.5829 253.042 62.6817 253.341 62.6389 253.357C62.5745 253.383 61.581 253.019 59.7578 252.304C59.4704 252.192 59.4317 252.216 58.7941 252.915C58.4288 253.315 58.1481 253.673 58.1703 253.71C58.1926 253.747 58.3418 253.8 58.5018 253.829C58.6619 253.858 59.1484 253.98 59.5831 254.101C60.0177 254.221 60.6578 254.394 61.0055 254.485C63.0508 255.019 63.0355 255.011 64.2216 256.137L65.3248 257.183L65.9494 256.537L66.574 255.891L65.897 255.263C64.0731 253.571 64.2433 253.822 63.6911 252.01C63.5056 251.401 63.2023 250.432 63.017 249.855L62.6799 248.806L62.0238 249.486ZM16.4894 250.627C15.3898 250.988 14.1467 252.081 13.6977 253.082C13.0554 254.513 13.4291 255.984 14.7872 257.373C15.5124 258.114 16.0582 258.478 16.2984 258.378C16.4579 258.313 17.0162 257.467 17.0162 257.291C17.0162 257.226 16.9413 257.173 16.8497 257.173C16.7582 257.173 16.4102 256.9 16.0764 256.566C14.9436 255.433 14.8667 254.34 15.8433 253.253C16.3965 252.638 17.1638 252.221 17.7415 252.221C18.5994 252.221 19.6078 252.913 20.082 253.827C20.1946 254.045 20.3341 254.222 20.3919 254.222C20.6345 254.222 21.5468 253.661 21.5468 253.511C21.5468 253.264 20.8707 252.299 20.3365 251.784C20.0745 251.532 19.564 251.164 19.2021 250.968C18.6281 250.657 18.4296 250.607 17.6484 250.576C17.1558 250.557 16.6343 250.58 16.4894 250.627ZM56.8539 254.54L56.2056 254.959L56.3674 255.249C56.8114 256.045 58.6535 258.834 58.932 259.131C59.1886 259.405 58.8859 259.284 58.3098 258.882C57.7524 258.493 56.637 257.841 55.4739 257.226C55.1552 257.057 54.6614 256.795 54.3768 256.642L53.8592 256.365L53.1986 256.795C52.8352 257.032 52.4534 257.277 52.3503 257.34C52.1798 257.444 52.2347 257.569 52.9491 258.709C53.3816 259.399 53.7828 260.045 53.8407 260.144C54.1391 260.651 55.2212 262.402 55.2932 262.494C55.3388 262.551 55.5654 262.895 55.7967 263.257C56.0281 263.62 56.237 263.916 56.2611 263.916C56.3319 263.916 57.087 263.469 57.3404 263.278L57.5738 263.101L57.2306 262.534C56.5528 261.414 55.422 259.638 55.0302 259.078C54.8106 258.764 54.649 258.489 54.6712 258.467C54.6933 258.445 55.0134 258.635 55.3824 258.889C56.191 259.446 57.928 260.439 58.0942 260.439C58.1597 260.439 58.2133 260.482 58.2133 260.534C58.2133 260.586 58.3437 260.678 58.5031 260.738C58.6625 260.798 59.0786 261.01 59.4279 261.209L60.063 261.57L60.5398 261.294C60.802 261.143 61.151 260.919 61.3153 260.798L61.6141 260.578L61.0463 259.661C60.7342 259.157 60.3034 258.474 60.0893 258.143C59.8751 257.812 59.6205 257.399 59.5233 257.225C59.4262 257.052 59.0512 256.459 58.6899 255.908C58.3286 255.358 57.9554 254.756 57.8605 254.572C57.7656 254.387 57.6463 254.21 57.5952 254.178C57.5441 254.147 57.2106 254.31 56.8539 254.54ZM22.5478 255.162C21.9017 255.34 21.2164 255.702 20.8057 256.082C19.8782 256.941 19.2363 258.288 19.2315 259.387C19.2289 259.95 19.5019 260.904 19.7686 261.264C20.0807 261.685 20.8842 262.339 21.4298 262.615C21.9496 262.879 22.1355 262.915 22.9692 262.914C23.7563 262.914 24.0051 262.871 24.4326 262.661C25.1809 262.293 26.0794 261.351 26.5064 260.486C26.845 259.8 26.8677 259.688 26.8677 258.7C26.8677 257.786 26.833 257.579 26.606 257.134C26.2513 256.44 25.4009 255.685 24.6493 255.398C23.9647 255.136 23.025 255.03 22.5478 255.162ZM24.5253 256.913C24.7416 257.06 24.9185 257.246 24.9185 257.326C24.9185 257.406 24.9778 257.491 25.0502 257.515C25.1392 257.545 25.1805 257.795 25.1778 258.288C25.1745 258.864 25.1157 259.128 24.8972 259.548C24.2433 260.805 23.1692 261.587 22.3735 261.386C21.7136 261.218 21.5996 261.157 21.3361 260.828C21.1065 260.542 21.0731 260.398 21.0764 259.705C21.0794 259.052 21.1305 258.814 21.3655 258.363C22.1364 256.882 23.5347 256.24 24.5253 256.913ZM29.719 258.461C29.6962 258.535 29.6055 258.808 29.5176 259.069C29.4296 259.33 29.2317 259.97 29.0778 260.492C28.9239 261.013 28.7542 261.535 28.7009 261.651C28.6475 261.767 28.5382 262.098 28.4582 262.388C28.3781 262.678 28.2078 263.247 28.0798 263.653C27.9518 264.058 27.7613 264.682 27.6563 265.039L27.4656 265.689L28.1346 265.87C28.5025 265.969 28.8671 266.026 28.9447 265.997C29.0224 265.967 29.267 265.309 29.4884 264.534C29.7098 263.759 29.988 262.794 30.1068 262.388C30.2255 261.983 30.3767 261.451 30.4427 261.208C30.5087 260.965 30.5935 260.735 30.631 260.697C30.6685 260.66 30.7025 261.712 30.7066 263.036C30.7107 264.36 30.7431 265.664 30.7785 265.933C30.8421 266.415 30.8491 266.423 31.3313 266.524C31.6 266.58 31.8844 266.644 31.9633 266.667C32.0543 266.693 32.4465 266.15 33.0367 265.18C34.2697 263.155 34.9011 262.059 34.9816 261.806C35.0931 261.454 35.2302 261.576 35.1334 261.94C35.0471 262.265 34.8675 263.102 34.4102 265.312C33.9611 267.483 33.9734 267.283 34.2837 267.353C34.4352 267.388 34.7685 267.484 35.0243 267.567C35.585 267.749 35.7709 267.695 35.7709 267.35C35.7709 267.207 35.8452 266.744 35.936 266.32C36.1096 265.509 36.2726 264.627 36.5553 262.968C36.6491 262.417 36.7999 261.655 36.8903 261.274C37.1569 260.152 37.1499 260.141 35.9314 259.836C35.0648 259.618 34.8652 259.597 34.7955 259.716C34.749 259.795 34.4633 260.258 34.161 260.746C33.5477 261.734 32.9826 262.717 32.5042 263.626C32.3289 263.959 32.1658 264.232 32.1417 264.232C32.1175 264.232 32.0938 263.065 32.0891 261.638C32.0842 260.212 32.0567 259.006 32.0279 258.96C31.999 258.913 31.8219 258.844 31.6342 258.807C31.4465 258.769 31.0796 258.675 30.8188 258.597C29.9679 258.343 29.7632 258.318 29.719 258.461ZM48.1511 258.81C47.8614 258.891 47.4109 259.024 47.1502 259.104L46.676 259.249L46.6101 259.976C46.5125 261.051 46.5045 267.288 46.6007 267.288C46.6461 267.288 46.9531 267.193 47.2829 267.077C47.6126 266.961 47.9547 266.866 48.0431 266.866C48.1763 266.866 48.2038 266.688 48.2038 265.824C48.2038 264.644 48.123 264.75 49.2574 264.446C49.6341 264.346 50.0137 264.232 50.101 264.193C50.2163 264.143 50.4154 264.357 50.8296 264.977C51.4687 265.933 51.3879 265.908 52.6295 265.539C53.0208 265.423 53.157 265.335 53.1154 265.227C53.0836 265.144 52.404 264.092 51.6053 262.889C50.8066 261.686 50.1293 260.655 50.1003 260.597C49.9216 260.239 48.821 258.649 48.7563 258.655C48.7132 258.659 48.4409 258.728 48.1511 258.81ZM39.3533 260.169C39.0451 260.254 38.8911 260.351 38.9134 260.446C38.9322 260.526 39.0197 262.181 39.1077 264.124C39.1957 266.067 39.3056 267.696 39.3521 267.745C39.3986 267.794 39.8039 267.8 40.2529 267.758L41.0691 267.681L40.9984 266.341L40.9276 265.001L41.7701 264.936C42.733 264.862 43.4244 264.566 43.9488 264.004C44.7395 263.157 44.7183 261.581 43.9047 260.717C43.3675 260.146 42.8709 260.016 41.2674 260.028C40.4754 260.034 39.614 260.097 39.3533 260.169ZM48.2038 260.603C48.2038 260.687 48.2512 260.755 48.3092 260.755C48.3671 260.755 48.4145 260.805 48.4145 260.867C48.4145 260.928 48.7002 261.409 49.0493 261.935C49.3985 262.462 49.6656 262.911 49.6431 262.933C49.5882 262.988 48.171 263.392 48.1431 263.361C48.0756 263.285 48.0556 260.36 48.1228 260.401C48.1673 260.429 48.2038 260.52 48.2038 260.603ZM42.2797 261.493C42.9017 261.872 42.9782 262.62 42.457 263.226C42.2235 263.498 42.1037 263.543 41.5246 263.58L40.8601 263.622L40.7916 263.122C40.6776 262.291 40.709 261.41 40.8547 261.352C41.1861 261.218 41.9534 261.294 42.2797 261.493Z" fill="white"/>
</svg>
