<svg width="1920" height="710" viewBox="0 0 1920 710" fill="none" xmlns="http://www.w3.org/2000/svg">
<path fill-rule="evenodd" clip-rule="evenodd" d="M1777.09 103.435C1760.91 137.772 1764.65 172.356 1784.46 200.354C1795.2 215.529 1801.63 231.452 1801.73 250.486C1801.95 293.099 1766.76 318.023 1725.96 320.953C1705.07 322.452 1673.08 314.774 1644.46 301.394C1614.81 287.53 1579.74 276.07 1547.16 284.992C1515.79 293.577 1491.36 319.233 1469.02 341.117C1444.11 365.527 1440.09 369.146 1433.61 372.967C1413.25 384.972 1391.12 385.411 1370.52 372.401C1349.21 358.947 1330.71 341.15 1312.11 325.878C1294.21 311.188 1264.65 293.08 1240.76 304.356C1203.78 321.814 1220.3 370.282 1254.33 381.727C1273.47 388.166 1280.98 416.665 1272.39 433.549C1254.34 469.003 1224.62 433.609 1201.2 425.774C1176.67 417.564 1148.44 427.88 1130.65 445.536C1130.62 445.566 1127.26 450.831 1089.51 485.767C1070.25 503.599 1043.17 514.985 1017 514.876C924.328 514.498 954 480.965 910.211 471.998C883.859 467.399 858.025 486.708 862.874 515.729C868.8 551.19 904.759 561.608 927.6 568.199C941.724 572.277 969 573.357 984.6 570.455C1028.38 562.315 1064.71 536.647 1103.01 515.201C1125.69 502.506 1148.22 499.491 1165.04 506.906C1183.48 515.039 1190.44 533.611 1186.66 552.648C1182.95 571.336 1202.35 582.701 1219.35 577.554C1227.47 575.093 1233.36 569.439 1241.32 556.477C1248.63 544.569 1259.72 535.744 1273.2 531.113C1313 517.442 1346.7 545.666 1378.75 564.485C1400.95 577.516 1441.46 584.903 1464 580.033C1525.75 566.69 1544.82 520.773 1582.67 475.792C1608.93 444.583 1650.4 419.192 1686.16 454.054C1689.5 457.302 1695.16 464.395 1698.76 469.817C1729.74 516.548 1793.44 527.626 1816.72 467.16C1824.18 447.804 1832.8 436.685 1847.29 420.344C1917.78 340.803 2102.56 415.936 2119.05 405.787C2119.57 405.463 2120 314.479 2120 203.599V2.00035C2057.85 4.96141 1839.5 -29 1777.09 103.435ZM425.087 207.865C415.984 211.823 409.435 223.113 411.098 231.983C413.03 242.282 422.634 247.355 433.612 243.875C444.038 240.571 448.824 235.083 448.758 226.51C448.664 214.75 436.796 202.777 425.087 207.865ZM321.181 212.219C307.96 213.939 288.432 222.626 269 235.432C246.305 250.385 222.779 265.423 197.322 275.254C143.842 295.9 68.4901 225.677 -15.5 235.432C-106.5 246 -182.529 241.931 -194.652 230.027L-200 224.778V440.449V656.12C-191.043 671.531 -10.3915 754.764 44.6964 676.285C53.1099 664.299 61.2804 661.326 62.0076 643.021C62.6716 626.294 65.651 614.043 84 611.353C106.493 608.055 140.211 601.911 150.922 579.124C159.771 560.286 153.948 537.665 140.521 522.581C129.731 510.457 129.054 509.033 129.025 498.371C128.947 468.579 161.353 463.807 177.377 485C190 501.693 205.751 510.976 221.454 510.976C237.856 510.976 265.708 498.626 288.233 481.364C315.887 460.168 340.794 432.224 373.34 418.675C388.307 412.443 396.079 410.549 413.044 408.999C451.16 405.518 494.66 418.351 533.815 444.629C552.256 457.003 561.36 476.005 591.312 488.333C612.597 497.096 657.714 473.198 633.026 450.725C623 441.597 619.86 427.686 625.356 416.743C631.69 404.13 645.296 399.73 660.6 405.343C687.356 415.156 687.836 415.28 699.6 415.394C717.374 415.566 734.767 407.723 746.809 395.148C751.879 389.851 761.189 376.218 763.361 370.908C771.26 351.595 781.03 339.475 793.045 334.08C809.888 326.52 829.108 330.469 845.4 337.492C852.995 340.768 865.694 348.489 874.145 354.969C904.6 378.315 938.274 384.912 966.686 353.585C974.899 344.529 978.638 332.721 985.5 322.787C997.609 305.261 1015.24 294.252 1041 288.128C1051.8 285.563 1068.05 281.715 1072.8 280.603C1092.21 276.053 1113.8 266.648 1112.16 242.982C1111.35 231.305 1105.95 221.004 1096.2 214.67C1090.28 210.827 1079.37 210.326 1072.92 213.601C1058.02 221.163 1047.45 231.375 1035.87 243.598C1019.25 261.153 1002.64 273.952 984 283.585C947.084 302.665 907.006 305.571 866.4 297.696C848.597 294.243 823.124 284.544 796.8 271.193C776.597 260.947 757.982 253.157 737.07 245.604C707.522 234.93 661.441 231.212 631.2 237.063C608.444 241.465 587.727 248.145 566.4 257.025C517.372 277.439 475.621 324.676 423.6 337.557C395.123 344.607 367.232 332.678 366.948 301.503C366.858 291.863 367.276 289.676 370.82 281.194C382.571 253.072 367.626 215.143 334.8 211.715C331.83 211.405 325.702 211.632 321.181 212.219ZM1165.54 255.206C1137.59 262.175 1119.96 296.424 1148.64 315.058C1171.53 329.925 1200.62 321.729 1205.34 293.02C1206.65 285.017 1203.02 273.139 1197.27 266.598C1189.64 257.934 1175.28 252.777 1165.54 255.206ZM1227.69 266.853C1222.83 273.025 1227.39 279.962 1234.73 278.976C1242.69 277.909 1246.92 273.016 1240.67 267.173C1235.87 262.686 1231.06 262.567 1227.69 266.853ZM1015.02 339.471C1011.5 340.762 1007.85 347.047 1008.9 350.015C1010.24 353.815 1011.98 354.922 1016.6 354.922C1022.36 354.922 1027.71 350.112 1026.49 346.023C1024.32 338.703 1021.5 337.095 1015.02 339.471ZM990.72 376.703C988.146 378.061 984.938 380.198 983.593 381.452C975.994 388.532 971.649 398.907 976.914 408.549C979.681 413.615 989.321 418.554 994.822 419.02C1008.29 420.162 1023.33 411.803 1022.12 397.169C1021.38 388.273 1013.65 380.279 1006.4 376.229C1001.5 373.495 996.517 373.645 990.72 376.703ZM772.386 432.744C769.7 435.711 769.888 439.149 772.912 442.395C779.328 449.287 786.606 438.887 782.932 433.275C780.727 429.912 775.2 429.632 772.386 432.744ZM716.4 445.722C700.618 447.507 681.798 451.895 675.107 468.207C669.937 480.808 675.871 497.655 689.914 510.243C705.719 524.413 724.794 531.508 739.976 528.863C770.178 523.603 785.276 486.88 764.893 462.607C752.972 448.417 738.459 443.227 716.4 445.722ZM1639.38 469.031C1632.42 472.932 1631.99 473.311 1626.51 480.395C1619.66 489.236 1617.91 500.925 1622.33 508.18C1628.19 517.795 1645.7 522.296 1656.42 516.942C1659.44 515.433 1661.58 513.66 1661.17 513.002C1660.76 512.343 1661.01 512.163 1661.71 512.6C1663.2 513.517 1670.72 506.461 1669.82 504.999C1669.48 504.463 1669.9 503.761 1670.74 503.439C1673.12 502.525 1676.75 488.911 1675.79 484.513C1674.76 479.821 1668.37 470.162 1666.3 470.162C1665.46 470.162 1663.79 469.081 1662.6 467.761C1659.04 463.831 1647.54 464.46 1639.38 469.031ZM1153.58 577.007C1150.16 578.384 1148.4 581.817 1148.4 587.095C1148.4 592.636 1152.51 595.627 1158.73 594.616C1164.31 593.711 1166.74 591.095 1167.64 586.466C1168.25 583.402 1167.92 581.092 1165.98 578.646C1162.94 574.819 1158.2 575.144 1153.58 577.007Z" fill="white"/>
</svg>
