<svg width="1920" height="346" viewBox="0 0 1920 346" fill="none" xmlns="http://www.w3.org/2000/svg">
<path fill-rule="evenodd" clip-rule="evenodd" d="M2120.57 0H-200L-199.88 298.522L-184.751 306.403C-141.871 328.741 11.0012 357.766 135.354 339.562C179.389 333.116 203.277 332.713 246.246 313.295C265.553 304.571 304.568 282.595 323.059 270.028C359.971 244.943 375.395 235.811 392.92 228.669C416.162 219.196 430.928 216.545 455.745 217.391C471.054 217.912 476.062 218.532 486.962 221.263C499.066 224.295 518.156 230.283 537.269 237.046C595.651 257.699 633.731 258.766 681.699 241.089C697.031 235.439 722.743 222.219 737.957 212.164C742.402 209.226 746.533 206.522 749.162 204.828C750.755 203.801 751.797 203.145 752.022 203.03C754.583 201.724 778.933 182.969 789.458 174.197C807.533 159.132 830.235 138.271 847.093 121.238L870.459 97.5625C900.935 66.6768 915.355 55.25 939.972 42.4766C973.603 25.0283 1005.23 20.0605 1035.47 27.4727C1044.35 29.6494 1058.66 36.8418 1064.73 42.1777C1077.79 53.6689 1083.82 67.0527 1083.73 84.3525C1083.67 96.0791 1081.47 104.675 1075.5 116.519C1073.25 120.979 1070.22 127.03 1068.76 129.968C1063.05 141.455 1062.2 156.191 1066.74 164.964C1070.76 172.734 1080.94 178.097 1093.28 178.942C1109.48 180.052 1128.64 174.342 1155.02 160.547C1181.98 146.448 1186.23 144.548 1196.9 141.843C1218.29 136.419 1236.3 136.013 1261.58 140.38C1283.85 144.227 1301.62 149.831 1354.08 169.553C1394.62 184.793 1406.64 188.823 1427.65 194.227C1455.45 201.375 1463.79 202.442 1492.02 202.461C1518.2 202.479 1526.67 201.604 1543.95 197.095C1562.06 192.368 1585.49 182.271 1602.67 171.783C1637.26 150.676 1688.21 138.029 1739.62 125.271C1811.88 107.337 2085.04 89.1807 2114.89 46.9902L2120.57 38.9629V0ZM982.648 143.425C987.642 139.986 990.653 138.688 998.688 136.509C1006.46 134.402 1010.04 134.579 1015.44 137.333C1021.91 140.64 1024.44 145.724 1024.23 155.036C1024.05 163.48 1021.57 168.948 1015.76 173.743C1003.35 183.974 984.377 183.852 972.57 173.465C968.269 169.681 967.854 168.873 967.859 164.272C967.864 156.892 972.422 150.468 982.648 143.425Z" fill="white"/>
</svg>
