<svg width="2696" height="583" viewBox="0 0 2696 583" fill="none" xmlns="http://www.w3.org/2000/svg">
<path fill-rule="evenodd" clip-rule="evenodd" d="M2696 0H0C14.4434 187.703 415.249 220.117 567.046 209.81H567.055C622.87 206.02 684.037 201.866 717 211.207C751.5 220.984 740.835 257.616 724.5 267.426C718.751 270.878 712.609 274.441 706.237 278.138L706.136 278.196C648.228 311.788 571.343 356.387 597 428.748C628.757 518.312 785.386 488.396 878.862 470.542C919.314 462.815 947.939 457.349 949.5 464.801C952.083 477.145 941.907 486.877 931.407 496.917C919.556 508.25 907.294 519.976 912.5 536.295C924 572.348 1021 598.625 1133 572.349C1202.89 555.953 1166.84 528.943 1132.06 502.875C1111.1 487.165 1090.59 471.797 1094 459.3C1102.26 429.051 1155.35 418.432 1195.54 435.201C1274.46 483.193 1357.62 489.278 1441.67 451.295C1460.98 442.571 1499.99 420.595 1518.48 408.028C1555.4 382.943 1570.82 373.811 1588.35 366.669C1637.88 346.48 1684.76 358.085 1732.69 375.046C1791.08 395.7 1829.16 396.766 1877.12 379.089C1892.46 373.439 1918.17 360.219 1933.38 350.164C1937.44 347.479 1941.24 344.992 1943.87 343.29C1945.87 342 1947.19 341.161 1947.45 341.03C1950.01 339.724 1974.36 320.969 1984.88 312.197C2002.96 297.132 2025.66 276.271 2042.52 259.238L2051.87 249.764L2065.88 235.562C2096.36 204.677 2110.78 193.25 2135.4 180.477C2169.03 163.029 2200.65 158.061 2230.9 165.473C2239.78 167.649 2254.09 174.842 2260.15 180.178C2273.21 191.669 2279.25 205.053 2279.16 222.353C2279.1 234.079 2276.9 242.675 2270.93 254.519C2268.68 258.979 2265.64 265.03 2264.18 267.968C2258.47 279.455 2257.62 294.191 2262.16 302.964C2266.18 310.734 2276.37 316.097 2288.71 316.942C2304.9 318.052 2324.07 312.342 2350.44 298.547C2377.4 284.448 2381.66 282.548 2392.33 279.843C2413.72 274.419 2431.73 274.013 2457.01 278.38C2479.27 282.227 2497.04 287.831 2549.51 307.553C2590.05 322.793 2602.07 326.823 2623.08 332.227C2650.87 339.375 2659.21 340.442 2687.45 340.461C2690.53 340.463 2693.37 340.453 2696 340.426V0ZM2194.11 274.509C2186.08 276.688 2183.07 277.986 2178.07 281.425C2167.85 288.468 2163.29 294.892 2163.28 302.272C2163.28 306.873 2163.69 307.681 2168 311.465C2179.8 321.852 2198.77 321.974 2211.18 311.743C2217 306.948 2219.48 301.48 2219.66 293.036C2219.86 283.724 2217.34 278.64 2210.86 275.333C2205.47 272.579 2201.88 272.402 2194.11 274.509Z" fill="white"/>
</svg>
