<svg width="962" height="246" viewBox="0 0 962 246" fill="none" xmlns="http://www.w3.org/2000/svg">
<path fill-rule="evenodd" clip-rule="evenodd" d="M747.677 1.42036C745.594 2.20426 742.673 3.34388 741.186 3.95155C739.698 4.55921 733.612 9.07992 727.662 13.9974C713.61 25.6112 697.532 36.0484 685.978 41.0579C672.015 47.1118 662.054 49.0321 644.899 48.9791C627.158 48.9228 616.493 46.8436 589.63 38.2023C562.456 29.4615 550.702 26.9497 533.466 26.2015C510.88 25.2219 492.275 29.3576 469.095 40.5129C449.109 50.1306 419.613 71.1458 406.586 85.0485C404.775 86.9818 402.642 88.5626 401.844 88.5626C401.048 88.5626 400.396 89.0069 400.396 89.5487C400.396 90.0914 389.077 101.987 375.242 115.984C350.508 141.009 333.84 156.049 332.059 154.949C331.563 154.642 331.156 154.9 331.156 155.52C331.156 156.737 317.225 166.279 310.278 169.821C303.187 173.436 293.164 176.259 285.155 176.895C278.787 177.403 276.64 177.104 271.855 175.046C257.934 169.062 251.841 152.717 254.5 128.493C255.664 117.884 255.589 116.526 253.468 109.571C247.873 91.2343 231.254 79.9126 209.931 79.9126C183.492 79.9126 165.144 94.5797 149.737 128.028C119.808 193.004 85.2149 226.141 33.641 239.241C20.5687 242.561 11.6606 244.159 0.102911 245.257C-4.95484 245.737 177.057 246.197 404.573 246.278L818.24 246.425L817.499 242.37C816.222 235.377 811.805 223.775 808.068 217.598C802.833 208.945 791.119 196.703 782.644 191.027C770.351 182.794 764.558 180.478 734.153 171.632C691.266 159.154 685.974 121.005 722.818 89.8979C730.63 83.3012 752.155 71.2658 756.15 71.2593C758.618 71.2561 770.129 64.2636 774.552 60.0824C776.539 58.2032 779.702 53.7464 781.581 50.1782C784.753 44.1535 784.997 42.9187 784.999 32.8782C785.001 24.0455 784.57 21.1315 782.643 16.9622C779.594 10.3677 771.79 2.82275 766.325 1.18574C760.753 -0.48263 752.454 -0.377761 747.677 1.42036ZM316.804 11.889C307.882 13.9899 299.351 19.941 294.595 27.3822C290.842 33.2566 290.6 44.6314 294.087 51.3276C302.189 66.89 319.793 70.7425 332.015 59.6283C345.425 47.434 351.373 28.8419 344.924 19.2783C340.649 12.9378 336.17 10.6974 328.021 10.8207C324.092 10.8812 319.045 11.3613 316.804 11.889ZM942.128 39.7636C934.855 41.4255 922.94 56.1143 922.94 63.4192C922.94 66.9549 925.58 71.6983 928.677 73.7268C938.868 80.4002 957.471 72.852 960.735 60.7204C962.946 52.5007 958.802 43.3804 951.463 40.3162C947.674 38.7343 946.852 38.6856 942.128 39.7636ZM832.063 42.2213C818.458 45.9516 806.49 55.7985 800.281 68.368C794.137 80.8078 792.67 87.9884 792.619 105.863C792.578 120.555 792.752 121.919 795.399 127.56C801.104 139.717 809.784 144.788 824.888 144.788C848.003 144.788 881.129 126.402 894.878 105.943C903.237 93.5028 904.49 80.517 898.482 68.567C892.608 56.8809 877.731 46.3008 861.939 42.5792C854.535 40.834 837.85 40.634 832.063 42.2213ZM295.531 98.0257C289.968 100.86 287.321 105.109 287.448 110.993C287.538 115.13 288.127 116.474 290.956 119C301.901 128.774 316.147 120.081 313.376 105.32C311.855 97.2212 303.673 93.8759 295.531 98.0257Z" fill="white"/>
</svg>
