<svg width="1920" height="301" viewBox="0 0 1920 301" fill="none" xmlns="http://www.w3.org/2000/svg">
<path fill-rule="evenodd" clip-rule="evenodd" d="M2117.3 21.3923L2120 21.9754V166.484V300.992H960H-200V208.234V105.477C-200 105.477 -99.6562 90.3821 -35.5 95.4915C21.0562 99.9956 78.3457 115.028 106.8 124.765C128.303 132.122 148.464 141.264 175.2 155.781C217.716 178.866 226.515 182.934 246.6 188.789C275.379 197.179 300.49 195.032 326.503 181.955C335.771 177.297 357.307 163.185 376.706 149.061C420.716 117.019 450.708 111.202 484.168 128.217C497.028 134.758 504.709 141.23 535.2 171.221C564.922 200.456 574.595 208.112 592.1 216.251C606.885 223.124 617.783 225.195 639 225.16C665.752 225.117 682.192 221.519 735.6 204.013C749.79 199.362 763.681 194.813 766.469 193.902C791.424 185.757 823.481 180.203 845.4 180.226C888.356 180.271 923.627 188.379 1009.8 218.02C1080.96 242.497 1122.62 250.879 1165.8 249.409C1220.63 247.542 1255.07 231.916 1268.06 203.01C1272.54 193.034 1273.17 179.118 1269.62 168.518C1263.3 149.651 1247.9 135.657 1226.48 129.328C1218.3 126.912 1200.7 126.837 1191 129.178C1182.21 131.3 1170.07 131.447 1167.53 129.464C1161.66 124.89 1164.47 118.113 1176.21 108.519C1192.56 95.1603 1209.91 86.0049 1229.54 80.37C1237.87 77.9809 1241.73 77.6533 1261.8 77.6401C1287.03 77.6245 1297.16 79.2492 1318.29 86.6996C1355.96 99.9852 1385.51 120.727 1435.2 168.776C1453.95 186.914 1457.37 190.327 1482 215.521C1516.91 251.233 1546.03 267.815 1573.95 267.889C1585.01 267.918 1587.92 267.417 1597.2 263.884C1614.75 257.201 1628.93 241.279 1639.11 216.823C1641.04 212.189 1645.69 198.408 1649.46 186.199C1657.43 160.324 1663.05 146.694 1671.01 133.919C1685.12 111.291 1706.07 99.2388 1727.32 101.527C1731.32 101.959 1744.51 104.783 1756.63 107.802C1776.21 112.679 1779.75 113.228 1788.43 112.726C1801.07 111.996 1809.69 108.176 1819.22 99.0877C1825.3 93.2872 1840.8 72.7288 1840.8 70.4622C1840.8 70.0566 1844.67 63.9393 1849.41 56.867C1860.54 40.236 1867.04 35.9341 1881.12 25.8332C1916.9 0.161734 1947 2.42992 1991 0.499246C2040.95 -1.69255 2115.81 21.0719 2117.3 21.3923ZM1697.55 68.5747C1704.57 71.4473 1707.33 82.4926 1702.86 89.8278C1699.94 94.6131 1696.43 96.5318 1690.59 96.5318C1680 96.5318 1672.39 85.1121 1677.29 76.5938C1680.65 70.7429 1691.94 66.278 1697.55 68.5747ZM321.511 108.886C331.453 118.265 336 126.433 336 134.916C336 141.624 334.654 144.753 330.901 146.761C327.115 148.787 312.352 149.271 309.029 147.478C303.352 144.416 296.881 134.349 292.772 122.185C289.201 111.613 289.955 109.275 298.414 104.694C308.848 99.0421 311.606 99.5436 321.511 108.886ZM1143.9 119.141C1147.74 122.002 1148 124.448 1145.12 130.486C1143.11 134.694 1142.85 134.83 1137.81 134.262C1131.15 133.511 1130.06 132.332 1129.92 125.711C1129.83 121.622 1130.38 119.866 1132.2 118.493C1135.53 115.979 1139.99 116.227 1143.9 119.141ZM1121.19 146.653C1125.64 150.148 1126.31 155.545 1123.2 162.791C1121.8 166.069 1120.01 169.16 1119.22 169.658C1116.67 171.281 1109.51 170.597 1104.3 168.232L1099.2 165.918V158.659C1099.2 152.954 1099.72 150.878 1101.65 148.953C1106.87 143.732 1116.1 142.646 1121.19 146.653ZM268.396 148.02C273.253 150.369 273.866 159.643 269.454 164.054C266.496 167.013 260.263 168.02 257.152 166.042C254.864 164.589 252.317 157.485 252.931 154.272C254.096 148.178 262.063 144.956 268.396 148.02Z" fill="white"/>
</svg>
