<svg width="1920" height="483" viewBox="0 0 1920 483" fill="none" xmlns="http://www.w3.org/2000/svg">
<path fill-rule="evenodd" clip-rule="evenodd" d="M-200 0L-199.455 436.522C-199.455 436.522 -190.29 441.436 -184.326 444.404C-71.8048 500.385 135.779 477.562 135.779 477.562C135.779 477.562 203.702 470.713 246.671 451.295C265.978 442.571 304.994 420.594 323.484 408.028C360.397 382.943 375.821 373.811 393.346 366.669C416.588 357.196 431.353 354.545 456.17 355.391C471.48 355.912 476.488 356.533 487.388 359.263C499.492 362.295 518.581 368.284 537.695 375.046C596.077 395.7 634.157 396.766 682.125 379.089C697.457 373.439 723.169 360.219 738.382 350.164C745.523 345.444 751.852 341.335 752.448 341.031C755.01 339.723 779.358 320.969 789.884 312.197C807.959 297.132 830.661 276.271 847.518 259.238C848.187 258.563 858.702 247.908 870.885 235.562C901.361 204.676 915.781 193.25 940.398 180.477C974.028 163.029 1005.65 158.06 1035.9 165.472C1044.78 167.649 1059.09 174.841 1065.15 180.177C1078.21 191.669 1084.25 205.053 1084.16 222.353C1084.1 234.079 1081.9 242.675 1075.93 254.519C1073.68 258.979 1070.64 265.031 1069.18 267.967C1063.47 279.455 1062.62 294.191 1067.16 302.964C1071.18 310.734 1081.37 316.097 1093.71 316.943C1109.9 318.052 1129.07 312.342 1155.44 298.547C1182.4 284.448 1186.65 282.548 1197.33 279.843C1218.72 274.419 1236.73 274.013 1262.01 278.38C1284.27 282.227 1302.04 287.831 1354.51 307.553C1395.05 322.793 1407.07 326.823 1428.08 332.226C1455.87 339.375 1464.21 340.443 1492.45 340.461C1518.63 340.478 1527.1 339.603 1544.38 335.095C1562.49 330.368 1585.92 320.271 1603.1 309.784C1686.3 259.007 1938.41 309.706 1989.5 237.5C2040.59 165.294 2121 176.963 2121 176.963V0H865.5H-200ZM999.114 274.509C991.078 276.688 988.068 277.986 983.074 281.425C972.848 288.468 968.29 294.892 968.284 302.272C968.28 306.873 968.695 307.681 972.996 311.465C984.803 321.851 1003.77 321.974 1016.18 311.743C1022 306.949 1024.48 301.481 1024.66 293.036C1024.86 283.723 1022.34 278.639 1015.86 275.333C1010.47 272.579 1006.88 272.403 999.114 274.509Z" fill="white"/>
</svg>
