<svg width="538" height="505" viewBox="0 0 538 505" fill="none" xmlns="http://www.w3.org/2000/svg">
<g clip-path="url(#clip0_430_4713)">
<path d="M128.168 173.83C117.844 175.567 94.63 161.623 94.63 161.623C99.8477 137.463 93.1987 131.06 75.8983 126.907C53.6674 121.57 31.735 136.972 21.2365 157.953C12.1253 187.5 21.2364 207.5 34.8283 213.501C46.1515 218.5 49.068 216.009 55.866 216.953C55.866 216.953 67.125 223.5 73.625 234.5C80.125 245.5 60.9387 270.283 94.625 309.5C130.465 351.224 318.507 487.345 367.125 501.5C404.537 512.392 457.869 489.443 483.92 446.226C503.754 413.324 506.015 374.003 494.493 348.421C476.903 309.366 256.519 184.302 203.06 159.4C176.06 146.823 138.493 172.093 128.168 173.83Z" fill="#436784"/>
<path fill-rule="evenodd" clip-rule="evenodd" d="M500.224 411.29C489.232 437.369 473.913 446.956 450.938 464.417L288.16 275.205L172.297 216.858L108.717 166.438L87.8042 152.778L87.3062 123.246C94.445 133.208 119.351 145.27 122.668 146.323C126.753 147.62 132.67 146.703 143.306 144.004C160.334 139.682 182.967 133.938 202.268 138.613C256.573 151.767 462.662 281.107 496.055 320.229C519.521 347.723 514.051 378.487 500.224 411.29Z" fill="#FFFEFF"/>
<path fill-rule="evenodd" clip-rule="evenodd" d="M473.958 438.811L124.343 167.063C114.787 169.48 107.241 171.26 103.471 170.064C93.0121 166.744 84.5452 161.265 84.5452 161.265C84.6881 160.741 84.8265 160.221 84.9601 159.706L43.3105 196.793C59.6292 202.604 77.9934 223.249 79.0665 227.34C79.7437 229.922 79.7535 234.746 79.7658 240.824C79.8018 258.586 79.8595 287.058 96.6646 301.551C141.324 340.068 345.86 489.651 388.693 489.651C416.75 489.651 447.798 475.355 473.529 439.846C473.673 439.5 473.816 439.155 473.958 438.811Z" fill="#B6BFBF"/>
<path d="M87.638 217.047C84.9817 206.92 62.7351 191.48 62.7351 191.48C42.8485 206.159 34.2795 202.726 23.3884 188.657C9.39335 170.579 21.1879 144.09 36.006 125.902C60.5548 103.674 73.2347 100.199 87.638 114.945C97.582 125.125 97.1066 136.345 93.1167 150.971C93.1167 150.971 101.584 156.45 112.043 159.77C122.502 163.09 162.026 143.493 192.894 150.971C246.353 163.92 449.228 291.257 482.1 329.774C507.396 359.413 501.597 395.814 482.1 429.552C462.878 462.815 425.322 479.358 397.264 479.357C354.431 479.357 149.895 329.774 105.236 291.257C82.6811 271.805 90.2944 227.173 87.638 217.047Z" fill="#E8E8E8"/>
<path d="M67.3806 159.099C58.6826 174.436 43.3078 184.5 34.8408 178.689C25.6996 172.416 30.656 160.566 34.8408 150.3C40.9701 135.262 62.1642 122.569 69.2068 126.891C76.5117 131.373 74.5875 144.515 67.3806 159.099Z" fill="#B7B7B9"/>
<path d="M161.4 161.14C153.46 163.399 150.23 168.168 145.19 174.705C141.423 179.589 136.549 182.538 137.684 188.601C139.226 196.838 150.471 192.043 157.758 196.181C169.597 202.903 180.841 209.838 186.772 220.465C191.916 228.041 199.256 231.015 207.497 233.107C224.84 237.508 245.515 224.321 243.805 206.509C242.678 194.776 222.95 174.909 204.547 165.838C189.344 158.344 179.096 156.106 161.4 161.14Z" fill="#FFFEFF"/>
</g>
<defs>
<clipPath id="clip0_430_4713">
<rect width="538" height="505" fill="white" transform="matrix(1 0 0 -1 0 505)"/>
</clipPath>
</defs>
</svg>
